G04 #@! TF.FileFunction,Copper,L2,Bot,Signal*
%FSLAX46Y46*%
G04 Gerber Fmt 4.6, Leading zero omitted, Abs format (unit mm)*
G04 Created by KiCad (PCBNEW 4.0.7) date Fri Jan 12 08:51:38 2018*
%MOMM*%
%LPD*%
G01*
G04 APERTURE LIST*
%ADD10C,0.100000*%
%ADD11C,0.250000*%
%ADD12R,1.800000X1.800000*%
%ADD13O,1.800000X1.800000*%
%ADD14R,1.600000X1.600000*%
%ADD15O,1.600000X1.600000*%
%ADD16R,2.400000X1.600000*%
%ADD17O,2.400000X1.600000*%
%ADD18C,1.000000*%
%ADD19R,1.000000X1.000000*%
%ADD20C,2.350000*%
%ADD21R,2.286000X1.574800*%
%ADD22O,2.286000X1.574800*%
%ADD23R,4.000000X3.000000*%
%ADD24O,4.000000X3.000000*%
%ADD25R,2.600000X2.000000*%
%ADD26O,2.600000X2.000000*%
%ADD27R,2.000000X2.000000*%
%ADD28C,2.000000*%
%ADD29R,2.800000X2.800000*%
%ADD30O,2.800000X2.800000*%
%ADD31C,0.600000*%
%ADD32C,1.750000*%
%ADD33C,0.500000*%
%ADD34C,1.000000*%
G04 APERTURE END LIST*
D10*
D11*
X208571430Y-56333333D02*
X208619050Y-56285714D01*
X208714288Y-56142857D01*
X208761907Y-56047619D01*
X208809526Y-55904762D01*
X208857145Y-55666667D01*
X208857145Y-55476190D01*
X208809526Y-55238095D01*
X208761907Y-55095238D01*
X208714288Y-55000000D01*
X208619050Y-54857143D01*
X208571430Y-54809524D01*
X207761906Y-55904762D02*
X207857144Y-55952381D01*
X208047621Y-55952381D01*
X208142859Y-55904762D01*
X208190478Y-55857143D01*
X208238097Y-55761905D01*
X208238097Y-55476190D01*
X208190478Y-55380952D01*
X208142859Y-55333333D01*
X208047621Y-55285714D01*
X207857144Y-55285714D01*
X207761906Y-55333333D01*
X207428573Y-56333333D02*
X207380954Y-56285714D01*
X207285716Y-56142857D01*
X207238097Y-56047619D01*
X207190478Y-55904762D01*
X207142859Y-55666667D01*
X207142859Y-55476190D01*
X207190478Y-55238095D01*
X207238097Y-55095238D01*
X207285716Y-55000000D01*
X207380954Y-54857143D01*
X207428573Y-54809524D01*
X205952382Y-55047619D02*
X205904763Y-55000000D01*
X205809525Y-54952381D01*
X205571429Y-54952381D01*
X205476191Y-55000000D01*
X205428572Y-55047619D01*
X205380953Y-55142857D01*
X205380953Y-55238095D01*
X205428572Y-55380952D01*
X206000001Y-55952381D01*
X205380953Y-55952381D01*
X204761906Y-54952381D02*
X204666667Y-54952381D01*
X204571429Y-55000000D01*
X204523810Y-55047619D01*
X204476191Y-55142857D01*
X204428572Y-55333333D01*
X204428572Y-55571429D01*
X204476191Y-55761905D01*
X204523810Y-55857143D01*
X204571429Y-55904762D01*
X204666667Y-55952381D01*
X204761906Y-55952381D01*
X204857144Y-55904762D01*
X204904763Y-55857143D01*
X204952382Y-55761905D01*
X205000001Y-55571429D01*
X205000001Y-55333333D01*
X204952382Y-55142857D01*
X204904763Y-55047619D01*
X204857144Y-55000000D01*
X204761906Y-54952381D01*
X203476191Y-55952381D02*
X204047620Y-55952381D01*
X203761906Y-55952381D02*
X203761906Y-54952381D01*
X203857144Y-55095238D01*
X203952382Y-55190476D01*
X204047620Y-55238095D01*
X203142858Y-54952381D02*
X202476191Y-54952381D01*
X202904763Y-55952381D01*
X201333334Y-55952381D02*
X201333334Y-55285714D01*
X201333334Y-55380952D02*
X201285715Y-55333333D01*
X201190477Y-55285714D01*
X201047619Y-55285714D01*
X200952381Y-55333333D01*
X200904762Y-55428571D01*
X200904762Y-55952381D01*
X200904762Y-55428571D02*
X200857143Y-55333333D01*
X200761905Y-55285714D01*
X200619048Y-55285714D01*
X200523810Y-55333333D01*
X200476191Y-55428571D01*
X200476191Y-55952381D01*
X199857144Y-55952381D02*
X199952382Y-55904762D01*
X200000001Y-55857143D01*
X200047620Y-55761905D01*
X200047620Y-55476190D01*
X200000001Y-55380952D01*
X199952382Y-55333333D01*
X199857144Y-55285714D01*
X199714286Y-55285714D01*
X199619048Y-55333333D01*
X199571429Y-55380952D01*
X199523810Y-55476190D01*
X199523810Y-55761905D01*
X199571429Y-55857143D01*
X199619048Y-55904762D01*
X199714286Y-55952381D01*
X199857144Y-55952381D01*
X199095239Y-55952381D02*
X199095239Y-55285714D01*
X199095239Y-55476190D02*
X199047620Y-55380952D01*
X199000001Y-55333333D01*
X198904763Y-55285714D01*
X198809524Y-55285714D01*
X198476191Y-55952381D02*
X198476191Y-54952381D01*
X198476191Y-55333333D02*
X198380953Y-55285714D01*
X198190476Y-55285714D01*
X198095238Y-55333333D01*
X198047619Y-55380952D01*
X198000000Y-55476190D01*
X198000000Y-55761905D01*
X198047619Y-55857143D01*
X198095238Y-55904762D01*
X198190476Y-55952381D01*
X198380953Y-55952381D01*
X198476191Y-55904762D01*
X197571429Y-55952381D02*
X197571429Y-55285714D01*
X197571429Y-54952381D02*
X197619048Y-55000000D01*
X197571429Y-55047619D01*
X197523810Y-55000000D01*
X197571429Y-54952381D01*
X197571429Y-55047619D01*
X196666667Y-55952381D02*
X196666667Y-54952381D01*
X196666667Y-55904762D02*
X196761905Y-55952381D01*
X196952382Y-55952381D01*
X197047620Y-55904762D01*
X197095239Y-55857143D01*
X197142858Y-55761905D01*
X197142858Y-55476190D01*
X197095239Y-55380952D01*
X197047620Y-55333333D01*
X196952382Y-55285714D01*
X196761905Y-55285714D01*
X196666667Y-55333333D01*
X195000000Y-55904762D02*
X195095238Y-55952381D01*
X195285715Y-55952381D01*
X195380953Y-55904762D01*
X195428572Y-55857143D01*
X195476191Y-55761905D01*
X195476191Y-55476190D01*
X195428572Y-55380952D01*
X195380953Y-55333333D01*
X195285715Y-55285714D01*
X195095238Y-55285714D01*
X195000000Y-55333333D01*
X194428572Y-55952381D02*
X194523810Y-55904762D01*
X194571429Y-55857143D01*
X194619048Y-55761905D01*
X194619048Y-55476190D01*
X194571429Y-55380952D01*
X194523810Y-55333333D01*
X194428572Y-55285714D01*
X194285714Y-55285714D01*
X194190476Y-55333333D01*
X194142857Y-55380952D01*
X194095238Y-55476190D01*
X194095238Y-55761905D01*
X194142857Y-55857143D01*
X194190476Y-55904762D01*
X194285714Y-55952381D01*
X194428572Y-55952381D01*
X193666667Y-55952381D02*
X193666667Y-55285714D01*
X193666667Y-55476190D02*
X193619048Y-55380952D01*
X193571429Y-55333333D01*
X193476191Y-55285714D01*
X193380952Y-55285714D01*
X193047619Y-55285714D02*
X193047619Y-55952381D01*
X193047619Y-55380952D02*
X193000000Y-55333333D01*
X192904762Y-55285714D01*
X192761904Y-55285714D01*
X192666666Y-55333333D01*
X192619047Y-55428571D01*
X192619047Y-55952381D01*
X192285714Y-55285714D02*
X191904762Y-55285714D01*
X192142857Y-55952381D02*
X192142857Y-55095238D01*
X192095238Y-55000000D01*
X192000000Y-54952381D01*
X191904762Y-54952381D01*
X191428571Y-55952381D02*
X191523809Y-55904762D01*
X191571428Y-55809524D01*
X191571428Y-54952381D01*
X190619046Y-55952381D02*
X190619046Y-55428571D01*
X190666665Y-55333333D01*
X190761903Y-55285714D01*
X190952380Y-55285714D01*
X191047618Y-55333333D01*
X190619046Y-55904762D02*
X190714284Y-55952381D01*
X190952380Y-55952381D01*
X191047618Y-55904762D01*
X191095237Y-55809524D01*
X191095237Y-55714286D01*
X191047618Y-55619048D01*
X190952380Y-55571429D01*
X190714284Y-55571429D01*
X190619046Y-55523810D01*
X190142856Y-55952381D02*
X190142856Y-54952381D01*
X190047618Y-55571429D02*
X189761903Y-55952381D01*
X189761903Y-55285714D02*
X190142856Y-55666667D01*
X188952379Y-55904762D02*
X189047617Y-55952381D01*
X189238094Y-55952381D01*
X189333332Y-55904762D01*
X189380951Y-55809524D01*
X189380951Y-55428571D01*
X189333332Y-55333333D01*
X189238094Y-55285714D01*
X189047617Y-55285714D01*
X188952379Y-55333333D01*
X188904760Y-55428571D01*
X188904760Y-55523810D01*
X189380951Y-55619048D01*
X188523808Y-55904762D02*
X188428570Y-55952381D01*
X188238094Y-55952381D01*
X188142855Y-55904762D01*
X188095236Y-55809524D01*
X188095236Y-55761905D01*
X188142855Y-55666667D01*
X188238094Y-55619048D01*
X188380951Y-55619048D01*
X188476189Y-55571429D01*
X188523808Y-55476190D01*
X188523808Y-55428571D01*
X188476189Y-55333333D01*
X188380951Y-55285714D01*
X188238094Y-55285714D01*
X188142855Y-55333333D01*
D12*
X131000000Y-122000000D03*
D13*
X133540000Y-122000000D03*
X136080000Y-122000000D03*
D14*
X188000000Y-78220000D03*
D15*
X188000000Y-80760000D03*
X188000000Y-83300000D03*
X188000000Y-85840000D03*
X188000000Y-88380000D03*
X188000000Y-90920000D03*
X188000000Y-93460000D03*
X188000000Y-96000000D03*
X188000000Y-98540000D03*
D16*
X180000000Y-104920000D03*
D17*
X187620000Y-122700000D03*
X180000000Y-107460000D03*
X187620000Y-120160000D03*
X180000000Y-110000000D03*
X187620000Y-117620000D03*
X180000000Y-112540000D03*
X187620000Y-115080000D03*
X180000000Y-115080000D03*
X187620000Y-112540000D03*
X180000000Y-117620000D03*
X187620000Y-110000000D03*
X180000000Y-120160000D03*
X187620000Y-107460000D03*
X180000000Y-122700000D03*
X187620000Y-104920000D03*
D18*
X123270000Y-114730000D03*
X122000000Y-116000000D03*
D19*
X122000000Y-113460000D03*
D18*
X123270000Y-98730000D03*
X122000000Y-100000000D03*
D19*
X122000000Y-97460000D03*
D14*
X130000000Y-112320000D03*
D15*
X130000000Y-109780000D03*
X130000000Y-107240000D03*
X130000000Y-104700000D03*
X130000000Y-102160000D03*
X130000000Y-99620000D03*
X130000000Y-97080000D03*
X130000000Y-94540000D03*
X130000000Y-92000000D03*
D18*
X123270000Y-106730000D03*
X122000000Y-108000000D03*
D19*
X122000000Y-105460000D03*
D12*
X74000000Y-110000000D03*
D13*
X76540000Y-110000000D03*
X79080000Y-110000000D03*
D14*
X122000000Y-78160000D03*
D15*
X122000000Y-75620000D03*
X122000000Y-73080000D03*
X122000000Y-70540000D03*
X122000000Y-68000000D03*
X122000000Y-65460000D03*
X122000000Y-62920000D03*
X122000000Y-60380000D03*
X122000000Y-57840000D03*
D20*
X78500000Y-122000000D03*
X73500000Y-122000000D03*
X88500000Y-122000000D03*
X93500000Y-122000000D03*
D18*
X123270000Y-90730000D03*
X122000000Y-92000000D03*
D19*
X122000000Y-89460000D03*
D12*
X85460000Y-110000000D03*
D13*
X88000000Y-110000000D03*
X90540000Y-110000000D03*
D12*
X96920000Y-110000000D03*
D13*
X99460000Y-110000000D03*
X102000000Y-110000000D03*
D12*
X108000000Y-110000000D03*
D13*
X110540000Y-110000000D03*
X113080000Y-110000000D03*
D12*
X74000000Y-92000000D03*
D13*
X76540000Y-92000000D03*
X79080000Y-92000000D03*
D12*
X108000000Y-92000000D03*
D13*
X110540000Y-92000000D03*
X113080000Y-92000000D03*
D12*
X96920000Y-92000000D03*
D13*
X99460000Y-92000000D03*
X102000000Y-92000000D03*
D12*
X85460000Y-92000000D03*
D13*
X88000000Y-92000000D03*
X90540000Y-92000000D03*
D18*
X138000000Y-114540000D03*
X136730000Y-115810000D03*
D19*
X136730000Y-113270000D03*
D18*
X138000000Y-106730000D03*
X136730000Y-108000000D03*
D19*
X136730000Y-105460000D03*
D18*
X138000000Y-98730000D03*
X136730000Y-100000000D03*
D19*
X136730000Y-97460000D03*
D18*
X138000000Y-90730000D03*
X136730000Y-92000000D03*
D19*
X136730000Y-89460000D03*
D12*
X74000000Y-78000000D03*
D13*
X76540000Y-78000000D03*
X79080000Y-78000000D03*
D12*
X85460000Y-78000000D03*
D13*
X88000000Y-78000000D03*
X90540000Y-78000000D03*
D12*
X96920000Y-78000000D03*
D13*
X99460000Y-78000000D03*
X102000000Y-78000000D03*
D12*
X108920000Y-78000000D03*
D13*
X111460000Y-78000000D03*
X114000000Y-78000000D03*
D12*
X74000000Y-64000000D03*
D13*
X76540000Y-64000000D03*
X79080000Y-64000000D03*
D12*
X85460000Y-64000000D03*
D13*
X88000000Y-64000000D03*
X90540000Y-64000000D03*
D12*
X96920000Y-64000000D03*
D13*
X99460000Y-64000000D03*
X102000000Y-64000000D03*
D12*
X108000000Y-64000000D03*
D13*
X110540000Y-64000000D03*
X113080000Y-64000000D03*
D14*
X196800000Y-60960000D03*
D15*
X196800000Y-63500000D03*
X196800000Y-66040000D03*
X196800000Y-68580000D03*
X196800000Y-71120000D03*
X196800000Y-73660000D03*
X196800000Y-76200000D03*
X196800000Y-78740000D03*
X196800000Y-81280000D03*
D14*
X85840000Y-98000000D03*
D15*
X88380000Y-98000000D03*
X90920000Y-98000000D03*
X93460000Y-98000000D03*
X96000000Y-98000000D03*
X98540000Y-98000000D03*
X101080000Y-98000000D03*
X103620000Y-98000000D03*
X106160000Y-98000000D03*
D14*
X126000000Y-78000000D03*
D15*
X126000000Y-75460000D03*
X126000000Y-72920000D03*
X126000000Y-70380000D03*
X126000000Y-67840000D03*
X126000000Y-65300000D03*
X126000000Y-62760000D03*
X126000000Y-60220000D03*
X126000000Y-57680000D03*
D16*
X172000000Y-77460000D03*
D17*
X179620000Y-95240000D03*
X172000000Y-80000000D03*
X179620000Y-92700000D03*
X172000000Y-82540000D03*
X179620000Y-90160000D03*
X172000000Y-85080000D03*
X179620000Y-87620000D03*
X172000000Y-87620000D03*
X179620000Y-85080000D03*
X172000000Y-90160000D03*
X179620000Y-82540000D03*
X172000000Y-92700000D03*
X179620000Y-80000000D03*
X172000000Y-95240000D03*
X179620000Y-77460000D03*
D21*
X165000000Y-95000000D03*
D22*
X165000000Y-92460000D03*
X165000000Y-89920000D03*
X165000000Y-87380000D03*
X165000000Y-84840000D03*
X165000000Y-82300000D03*
X165000000Y-79760000D03*
X165000000Y-77220000D03*
X165000000Y-74680000D03*
X165000000Y-72140000D03*
X165000000Y-69600000D03*
X165000000Y-67060000D03*
X165000000Y-64520000D03*
X165000000Y-61980000D03*
X165000000Y-59440000D03*
X149760000Y-59440000D03*
X149760000Y-61980000D03*
X149760000Y-64520000D03*
X149760000Y-67060000D03*
X149760000Y-69600000D03*
X149760000Y-72140000D03*
X149760000Y-74680000D03*
X149760000Y-77220000D03*
X149760000Y-79760000D03*
X149760000Y-82300000D03*
X149760000Y-84840000D03*
X149760000Y-87380000D03*
X149760000Y-89920000D03*
X149760000Y-92460000D03*
X149760000Y-95000000D03*
D16*
X164000000Y-104920000D03*
D17*
X171620000Y-122700000D03*
X164000000Y-107460000D03*
X171620000Y-120160000D03*
X164000000Y-110000000D03*
X171620000Y-117620000D03*
X164000000Y-112540000D03*
X171620000Y-115080000D03*
X164000000Y-115080000D03*
X171620000Y-112540000D03*
X164000000Y-117620000D03*
X171620000Y-110000000D03*
X164000000Y-120160000D03*
X171620000Y-107460000D03*
X164000000Y-122700000D03*
X171620000Y-104920000D03*
D16*
X141620000Y-78000000D03*
D17*
X134000000Y-60220000D03*
X141620000Y-75460000D03*
X134000000Y-62760000D03*
X141620000Y-72920000D03*
X134000000Y-65300000D03*
X141620000Y-70380000D03*
X134000000Y-67840000D03*
X141620000Y-67840000D03*
X134000000Y-70380000D03*
X141620000Y-65300000D03*
X134000000Y-72920000D03*
X141620000Y-62760000D03*
X134000000Y-75460000D03*
X141620000Y-60220000D03*
X134000000Y-78000000D03*
D23*
X207962400Y-87037600D03*
D24*
X207962400Y-91000000D03*
X207962400Y-94962400D03*
X207962400Y-98924800D03*
X207962400Y-102887200D03*
X207962400Y-106849600D03*
X207962400Y-110812000D03*
X207962400Y-114774400D03*
X207962400Y-118736800D03*
D25*
X208000000Y-60920000D03*
D26*
X208000000Y-63460000D03*
X208000000Y-66000000D03*
X208000000Y-68540000D03*
X208000000Y-71080000D03*
X208000000Y-73620000D03*
X208000000Y-76160000D03*
X208000000Y-78700000D03*
X208000000Y-81240000D03*
D23*
X60000000Y-123962400D03*
D24*
X60000000Y-120000000D03*
D23*
X60000000Y-113775000D03*
D24*
X60000000Y-109812600D03*
X60000000Y-105850200D03*
X60000000Y-101887800D03*
X60000000Y-97925400D03*
X60000000Y-93963000D03*
X60000000Y-90000600D03*
X60000000Y-86038200D03*
X60000000Y-82075800D03*
D25*
X60000000Y-75325000D03*
D26*
X60000000Y-72785000D03*
X60000000Y-70245000D03*
X60000000Y-67705000D03*
X60000000Y-65165000D03*
X60000000Y-62625000D03*
X60000000Y-60085000D03*
X60000000Y-57545000D03*
X60000000Y-55005000D03*
D14*
X171200000Y-59380000D03*
D15*
X178820000Y-67000000D03*
X171200000Y-61920000D03*
X178820000Y-64460000D03*
X171200000Y-64460000D03*
X178820000Y-61920000D03*
X171200000Y-67000000D03*
X178820000Y-59380000D03*
D27*
X102000000Y-122000000D03*
D28*
X107000000Y-122000000D03*
D29*
X124000000Y-122000000D03*
D30*
X113840000Y-122000000D03*
D25*
X49000000Y-75320000D03*
D26*
X49000000Y-72780000D03*
X49000000Y-70240000D03*
X49000000Y-67700000D03*
X49000000Y-65160000D03*
X49000000Y-62620000D03*
X49000000Y-60080000D03*
X49000000Y-57540000D03*
X49000000Y-55000000D03*
D23*
X42000000Y-113779200D03*
D24*
X42000000Y-109816800D03*
X42000000Y-105854400D03*
X42000000Y-101892000D03*
X42000000Y-97929600D03*
X42000000Y-93967200D03*
X42000000Y-90004800D03*
X42000000Y-86042400D03*
X42000000Y-82080000D03*
D25*
X38000000Y-75320000D03*
D26*
X38000000Y-72780000D03*
X38000000Y-70240000D03*
X38000000Y-67700000D03*
X38000000Y-65160000D03*
X38000000Y-62620000D03*
X38000000Y-60080000D03*
X38000000Y-57540000D03*
X38000000Y-55000000D03*
D23*
X42000000Y-126424800D03*
D24*
X42000000Y-122462400D03*
X42000000Y-118500000D03*
D31*
X158000000Y-124000000D03*
X140500000Y-90500000D03*
X128000000Y-118000000D03*
X130000000Y-116000000D03*
X158500000Y-118000000D03*
X158500000Y-114000000D03*
X161500000Y-110000000D03*
X160500000Y-106000000D03*
X161000000Y-82000000D03*
X159500000Y-85500000D03*
X169000000Y-86000000D03*
X163025485Y-94724515D03*
X158000000Y-64000000D03*
X172000000Y-100000000D03*
X142000000Y-83500000D03*
X161500000Y-98500000D03*
D32*
X122000000Y-78160000D02*
X122000000Y-80710000D01*
X122000000Y-80710000D02*
X113080000Y-89630000D01*
X113080000Y-89630000D02*
X113080000Y-90727208D01*
X113080000Y-90727208D02*
X113080000Y-92000000D01*
D33*
X164000000Y-122700000D02*
X159300000Y-122700000D01*
X159300000Y-122700000D02*
X158000000Y-124000000D01*
X138949999Y-119050001D02*
X133500000Y-119050001D01*
X139500000Y-114559998D02*
X139500000Y-118500000D01*
X139500000Y-118500000D02*
X138949999Y-119050001D01*
D34*
X107000000Y-119050001D02*
X133500000Y-119050001D01*
X133540000Y-119090001D02*
X133500000Y-119050001D01*
X133540000Y-122000000D02*
X133540000Y-119090001D01*
X69949999Y-119050001D02*
X107000000Y-119050001D01*
X107000000Y-122000000D02*
X107000000Y-119050001D01*
X69000000Y-120000000D02*
X69949999Y-119050001D01*
X60000000Y-120000000D02*
X69000000Y-120000000D01*
D33*
X141620000Y-60220000D02*
X141620000Y-58920000D01*
X141620000Y-58920000D02*
X145290000Y-55250000D01*
X145290000Y-55250000D02*
X174690000Y-55250000D01*
X174690000Y-55250000D02*
X178820000Y-59380000D01*
X141620000Y-60220000D02*
X142020000Y-60220000D01*
X142020000Y-60220000D02*
X145000000Y-63200000D01*
X145000000Y-63200000D02*
X145000000Y-78000000D01*
X145000000Y-78000000D02*
X136730000Y-86270000D01*
X136730000Y-86270000D02*
X136730000Y-89460000D01*
X188558481Y-124000010D02*
X189320010Y-123238481D01*
X189320010Y-123238481D02*
X189320010Y-109461519D01*
X136730000Y-113270000D02*
X138210002Y-113270000D01*
X138210002Y-113270000D02*
X139500000Y-114559998D01*
X178870000Y-59400000D02*
X178870000Y-61940000D01*
X178870000Y-61940000D02*
X178870000Y-64480000D01*
X178870000Y-67020000D02*
X178870000Y-64480000D01*
X172000000Y-95240000D02*
X171600000Y-95240000D01*
X171600000Y-95240000D02*
X169800001Y-93440001D01*
X169800001Y-93440001D02*
X169800001Y-85615999D01*
X169800001Y-85615999D02*
X169384001Y-85199999D01*
X169384001Y-85199999D02*
X167535601Y-85199999D01*
X167535601Y-85199999D02*
X165355600Y-87380000D01*
X165355600Y-87380000D02*
X165000000Y-87380000D01*
X136730000Y-97460000D02*
X138210002Y-97460000D01*
X138210002Y-97460000D02*
X139000001Y-98249999D01*
X139000001Y-98249999D02*
X139000001Y-102189999D01*
X139000001Y-102189999D02*
X136730000Y-104460000D01*
X136730000Y-104460000D02*
X136730000Y-105460000D01*
X136730000Y-113270000D02*
X136730000Y-112270000D01*
X137730000Y-105460000D02*
X136730000Y-105460000D01*
X136730000Y-112270000D02*
X139000001Y-109999999D01*
X139000001Y-109999999D02*
X139000001Y-106249999D01*
X139000001Y-106249999D02*
X138210002Y-105460000D01*
X138210002Y-105460000D02*
X137730000Y-105460000D01*
X136730000Y-89460000D02*
X136730000Y-88460000D01*
X187620000Y-107460000D02*
X187620000Y-107761509D01*
X187620000Y-107761509D02*
X189320010Y-109461519D01*
X188558481Y-124000010D02*
X183000010Y-124000010D01*
X183000010Y-124000010D02*
X181700000Y-122700000D01*
X181700000Y-122700000D02*
X180000000Y-122700000D01*
X172000000Y-95240000D02*
X172000000Y-96540000D01*
X178299990Y-102839990D02*
X178299990Y-121399990D01*
X172000000Y-96540000D02*
X178299990Y-102839990D01*
X178299990Y-121399990D02*
X179600000Y-122700000D01*
X179600000Y-122700000D02*
X180000000Y-122700000D01*
X172000000Y-95240000D02*
X174841509Y-95240000D01*
X174841509Y-95240000D02*
X176141519Y-96540010D01*
X176141519Y-96540010D02*
X180558481Y-96540010D01*
X180558481Y-96540010D02*
X182000000Y-95098491D01*
X182000000Y-95098491D02*
X182000000Y-80000000D01*
X182000000Y-80000000D02*
X183780000Y-78220000D01*
X183780000Y-78220000D02*
X188000000Y-78220000D01*
X179620000Y-80000000D02*
X182000000Y-80000000D01*
X164000000Y-122700000D02*
X163600000Y-122700000D01*
X149760000Y-92460000D02*
X150115600Y-92460000D01*
X150115600Y-92460000D02*
X155195600Y-87380000D01*
X155195600Y-87380000D02*
X165000000Y-87380000D01*
D32*
X60000000Y-120000000D02*
X60500000Y-120000000D01*
D33*
X140500000Y-90500000D02*
X142534400Y-92534400D01*
X142534400Y-92534400D02*
X144250000Y-92534400D01*
X136080000Y-123580000D02*
X138500000Y-126000000D01*
X138500000Y-126000000D02*
X144250000Y-126000000D01*
X136080000Y-122000000D02*
X136080000Y-123580000D01*
X192500000Y-98740000D02*
X192500000Y-84500000D01*
X192500000Y-84500000D02*
X194000000Y-83000000D01*
X187620000Y-104920000D02*
X187620000Y-103620000D01*
X187620000Y-103620000D02*
X192500000Y-98740000D01*
X188020000Y-104920000D02*
X190000000Y-106900000D01*
X190000000Y-106900000D02*
X190070020Y-106970020D01*
X190070019Y-123549146D02*
X190070019Y-106970019D01*
X190070019Y-106970019D02*
X190000000Y-106900000D01*
X196800000Y-60960000D02*
X198100000Y-60960000D01*
X181320000Y-77460000D02*
X179620000Y-77460000D01*
X198100000Y-60960000D02*
X200000000Y-62860000D01*
X200000000Y-62860000D02*
X200000000Y-81000000D01*
X191000000Y-77000000D02*
X190000000Y-76000000D01*
X200000000Y-81000000D02*
X198000000Y-83000000D01*
X198000000Y-83000000D02*
X194000000Y-83000000D01*
X194000000Y-83000000D02*
X191000000Y-80000000D01*
X191000000Y-80000000D02*
X191000000Y-77000000D01*
X190000000Y-76000000D02*
X182780000Y-76000000D01*
X182780000Y-76000000D02*
X181320000Y-77460000D01*
X144250000Y-126000000D02*
X171000000Y-126000000D01*
X187619165Y-126000000D02*
X171000000Y-126000000D01*
X171000000Y-126000000D02*
X172000000Y-126000000D01*
X187620000Y-104920000D02*
X188020000Y-104920000D01*
X190070019Y-123549146D02*
X187619165Y-126000000D01*
X179620000Y-77460000D02*
X180020000Y-77460000D01*
X149760000Y-87380000D02*
X149404400Y-87380000D01*
X149404400Y-87380000D02*
X144250000Y-92534400D01*
X144250000Y-92534400D02*
X144250000Y-126000000D01*
X172000000Y-126000000D02*
X173320010Y-124679990D01*
X173320010Y-124679990D02*
X173320010Y-121460010D01*
X173320010Y-121460010D02*
X172020000Y-120160000D01*
X172020000Y-120160000D02*
X171620000Y-120160000D01*
X178500000Y-70750000D02*
X175249971Y-74000029D01*
X175249971Y-74000029D02*
X175249971Y-87489971D01*
X175249971Y-87489971D02*
X177920000Y-90160000D01*
X196800000Y-63500000D02*
X189550000Y-70750000D01*
X189550000Y-70750000D02*
X178500000Y-70750000D01*
X177920000Y-90160000D02*
X179620000Y-90160000D01*
X178810664Y-71500010D02*
X175999981Y-74310693D01*
X175999981Y-74310693D02*
X175999981Y-85699981D01*
X175999981Y-85699981D02*
X177920000Y-87620000D01*
X196800000Y-66040000D02*
X191339990Y-71500010D01*
X191339990Y-71500010D02*
X178810664Y-71500010D01*
X177920000Y-87620000D02*
X179620000Y-87620000D01*
X179121328Y-72250020D02*
X176749991Y-74621357D01*
X176749991Y-74621357D02*
X176749991Y-82609991D01*
X176749991Y-82609991D02*
X179220000Y-85080000D01*
X179220000Y-85080000D02*
X179620000Y-85080000D01*
X196800000Y-68580000D02*
X195668630Y-68580000D01*
X195668630Y-68580000D02*
X191998611Y-72250019D01*
X191998611Y-72250019D02*
X179121328Y-72250020D01*
X179431994Y-73000028D02*
X177500000Y-74932022D01*
X177500000Y-74932022D02*
X177500000Y-80820000D01*
X179220000Y-82540000D02*
X179620000Y-82540000D01*
X177500000Y-80820000D02*
X179220000Y-82540000D01*
X179431994Y-73000028D02*
X182000000Y-73000028D01*
X182000000Y-73000028D02*
X182371320Y-73000028D01*
X196800000Y-71120000D02*
X194919972Y-73000028D01*
X194919972Y-73000028D02*
X182000000Y-73000028D01*
D32*
X60603478Y-113774400D02*
X66652879Y-107724999D01*
X60000000Y-113774400D02*
X60603478Y-113774400D01*
X42000000Y-113779200D02*
X59995800Y-113779200D01*
X59995800Y-113779200D02*
X60000000Y-113775000D01*
X66652879Y-107724999D02*
X75621999Y-107724999D01*
X76540000Y-108727208D02*
X76540000Y-110000000D01*
X75621999Y-107724999D02*
X76540000Y-108643000D01*
X76540000Y-108643000D02*
X76540000Y-108727208D01*
X60603478Y-109812000D02*
X64940489Y-105474989D01*
X60000000Y-109812600D02*
X42004200Y-109812600D01*
X42004200Y-109812600D02*
X42000000Y-109816800D01*
X60000000Y-109812000D02*
X60603478Y-109812000D01*
X64940489Y-105474989D02*
X85209991Y-105474989D01*
X85209991Y-105474989D02*
X88000000Y-108264998D01*
X88000000Y-108727208D02*
X88000000Y-110000000D01*
X88000000Y-108264998D02*
X88000000Y-108727208D01*
X42000000Y-105854400D02*
X59995800Y-105854400D01*
X59995800Y-105854400D02*
X60000000Y-105850200D01*
X60000000Y-105849600D02*
X61383884Y-105849600D01*
X61383884Y-105849600D02*
X64008505Y-103224979D01*
X64008505Y-103224979D02*
X97224979Y-103224979D01*
X97224979Y-103224979D02*
X99460000Y-105460000D01*
X99460000Y-105460000D02*
X99460000Y-108727208D01*
X99460000Y-108727208D02*
X99460000Y-110000000D01*
X60000000Y-101887800D02*
X42004200Y-101887800D01*
X42004200Y-101887800D02*
X42000000Y-101892000D01*
X60000000Y-101887200D02*
X62164290Y-101887200D01*
X110540000Y-108264998D02*
X110540000Y-108727208D01*
X110540000Y-108727208D02*
X110540000Y-110000000D01*
X62164290Y-101887200D02*
X63076521Y-100974969D01*
X63076521Y-100974969D02*
X103249971Y-100974969D01*
X103249971Y-100974969D02*
X110540000Y-108264998D01*
X42000000Y-97929600D02*
X59995800Y-97929600D01*
X59995800Y-97929600D02*
X60000000Y-97925400D01*
X60000000Y-97924800D02*
X63750000Y-97924800D01*
X63750000Y-97924800D02*
X71949801Y-89724999D01*
X71949801Y-89724999D02*
X76000001Y-89724999D01*
X76000001Y-89724999D02*
X76540000Y-90264998D01*
X76540000Y-90264998D02*
X76540000Y-90727208D01*
X76540000Y-90727208D02*
X76540000Y-92000000D01*
X60000000Y-93963000D02*
X42004200Y-93963000D01*
X42004200Y-93963000D02*
X42000000Y-93967200D01*
X88000000Y-90727208D02*
X88000000Y-92000000D01*
X60000000Y-93962400D02*
X64530406Y-93962400D01*
X64530406Y-93962400D02*
X71017817Y-87474989D01*
X71017817Y-87474989D02*
X85209991Y-87474989D01*
X85209991Y-87474989D02*
X88000000Y-90264998D01*
X88000000Y-90264998D02*
X88000000Y-90727208D01*
X42000000Y-90004800D02*
X59995800Y-90004800D01*
X59995800Y-90004800D02*
X60000000Y-90000600D01*
X61087390Y-88912610D02*
X66398202Y-88912610D01*
X99460000Y-90727208D02*
X99460000Y-92000000D01*
X66398202Y-88912610D02*
X70085833Y-85224979D01*
X70085833Y-85224979D02*
X94419981Y-85224979D01*
X94419981Y-85224979D02*
X99460000Y-90264998D01*
X99460000Y-90264998D02*
X99460000Y-90727208D01*
X60000000Y-82075800D02*
X42004200Y-82075800D01*
X42004200Y-82075800D02*
X42000000Y-82080000D01*
X60000000Y-82075200D02*
X60249924Y-82075200D01*
X61399693Y-83224969D02*
X103049971Y-83224969D01*
X103049971Y-83224969D02*
X110540000Y-90714998D01*
X110540000Y-90714998D02*
X110540000Y-90727208D01*
X110540000Y-90727208D02*
X110540000Y-92000000D01*
X65255001Y-80275001D02*
X61500000Y-76520000D01*
X61500000Y-76520000D02*
X60300000Y-75320000D01*
X60000000Y-75325000D02*
X60305000Y-75325000D01*
X60305000Y-75325000D02*
X61500000Y-76520000D01*
X38000000Y-75320000D02*
X59995000Y-75320000D01*
X59995000Y-75320000D02*
X60000000Y-75325000D01*
D33*
X76540000Y-78000000D02*
X79440021Y-80900021D01*
X79440021Y-80900021D02*
X116719979Y-80900021D01*
X116719979Y-80900021D02*
X122000000Y-75620000D01*
D32*
X76540000Y-78000000D02*
X76540000Y-79735002D01*
X76540000Y-79735002D02*
X76000001Y-80275001D01*
X76000001Y-80275001D02*
X65255001Y-80275001D01*
X60300000Y-75320000D02*
X60000000Y-75320000D01*
X60000000Y-72785000D02*
X38005000Y-72785000D01*
X38005000Y-72785000D02*
X38000000Y-72780000D01*
D33*
X122000000Y-73080000D02*
X122000000Y-73695998D01*
X122000000Y-73695998D02*
X115545987Y-80150011D01*
X115545987Y-80150011D02*
X90150011Y-80150011D01*
X90150011Y-80150011D02*
X88000000Y-78000000D01*
D32*
X88000000Y-78000000D02*
X88000000Y-76727208D01*
X88000000Y-76727208D02*
X86997791Y-75724999D01*
X86997791Y-75724999D02*
X71999999Y-75724999D01*
X71999999Y-75724999D02*
X69055000Y-72780000D01*
X69055000Y-72780000D02*
X60000000Y-72780000D01*
X38000000Y-67700000D02*
X59995000Y-67700000D01*
X59995000Y-67700000D02*
X60000000Y-67705000D01*
D33*
X122000000Y-70540000D02*
X120699999Y-71840001D01*
X120699999Y-71840001D02*
X120699999Y-73372003D01*
X120699999Y-73372003D02*
X114672001Y-79400001D01*
X114672001Y-79400001D02*
X100860001Y-79400001D01*
X100860001Y-79400001D02*
X100359999Y-78899999D01*
X100359999Y-78899999D02*
X99460000Y-78000000D01*
D32*
X99460000Y-78000000D02*
X99460000Y-76727208D01*
X67156994Y-67700000D02*
X63050000Y-67700000D01*
X99460000Y-76727208D02*
X96207781Y-73474989D01*
X96207781Y-73474989D02*
X72931983Y-73474989D01*
X72931983Y-73474989D02*
X67156994Y-67700000D01*
X63050000Y-67700000D02*
X60000000Y-67700000D01*
X60000000Y-65165000D02*
X38005000Y-65165000D01*
X38005000Y-65165000D02*
X38000000Y-65160000D01*
D33*
X122000000Y-68000000D02*
X113735002Y-76264998D01*
X113735002Y-76264998D02*
X111460000Y-76264998D01*
D32*
X73863967Y-71224979D02*
X67798988Y-65160000D01*
X67798988Y-65160000D02*
X60000000Y-65160000D01*
X106419981Y-71224979D02*
X73863967Y-71224979D01*
X111460000Y-78000000D02*
X111460000Y-76264998D01*
X111460000Y-76264998D02*
X106419981Y-71224979D01*
X49000000Y-62620000D02*
X59995000Y-62620000D01*
X59995000Y-62620000D02*
X60000000Y-62625000D01*
X38000000Y-62620000D02*
X49000000Y-62620000D01*
D33*
X122000000Y-65460000D02*
X119460000Y-68000000D01*
X119460000Y-68000000D02*
X80540000Y-68000000D01*
X80540000Y-68000000D02*
X77439999Y-64899999D01*
X77439999Y-64899999D02*
X76540000Y-64000000D01*
D32*
X68440982Y-62620000D02*
X72095983Y-66275001D01*
X72095983Y-66275001D02*
X71820982Y-66000000D01*
X76540000Y-64000000D02*
X76540000Y-65735002D01*
X76540000Y-65735002D02*
X76000001Y-66275001D01*
X76000001Y-66275001D02*
X72095983Y-66275001D01*
X60000000Y-62620000D02*
X68440982Y-62620000D01*
X49000000Y-60080000D02*
X38000000Y-60080000D01*
X60000000Y-60085000D02*
X49005000Y-60085000D01*
X49005000Y-60085000D02*
X49000000Y-60080000D01*
D33*
X88899999Y-64899999D02*
X88000000Y-64000000D01*
X122000000Y-62920000D02*
X118769989Y-66150011D01*
X118769989Y-66150011D02*
X90150011Y-66150011D01*
X90150011Y-66150011D02*
X88899999Y-64899999D01*
D32*
X88000000Y-64000000D02*
X88000000Y-62264998D01*
X88000000Y-62264998D02*
X85815002Y-60080000D01*
X85815002Y-60080000D02*
X63050000Y-60080000D01*
X63050000Y-60080000D02*
X60000000Y-60080000D01*
X49000000Y-57540000D02*
X59995000Y-57540000D01*
X59995000Y-57540000D02*
X60000000Y-57545000D01*
X38000000Y-57540000D02*
X49000000Y-57540000D01*
D33*
X122000000Y-60380000D02*
X116979999Y-65400001D01*
X116979999Y-65400001D02*
X100860001Y-65400001D01*
X100860001Y-65400001D02*
X100359999Y-64899999D01*
X100359999Y-64899999D02*
X99460000Y-64000000D01*
D32*
X60000000Y-57540000D02*
X91540000Y-57540000D01*
X91540000Y-57540000D02*
X95724999Y-61724999D01*
X95724999Y-61724999D02*
X98920001Y-61724999D01*
X98920001Y-61724999D02*
X99460000Y-62264998D01*
X99460000Y-62264998D02*
X99460000Y-64000000D01*
X49000000Y-55000000D02*
X38000000Y-55000000D01*
X60000000Y-55005000D02*
X49005000Y-55005000D01*
X49005000Y-55005000D02*
X49000000Y-55000000D01*
X103275002Y-55000000D02*
X110000000Y-61724998D01*
D33*
X122000000Y-57840000D02*
X116700000Y-57840000D01*
X116700000Y-57840000D02*
X112815002Y-61724998D01*
D32*
X110000000Y-61724998D02*
X110540000Y-62264998D01*
D33*
X112815002Y-61724998D02*
X110000000Y-61724998D01*
D32*
X110540000Y-62264998D02*
X110540000Y-64000000D01*
X60000000Y-55000000D02*
X103275002Y-55000000D01*
D33*
X128000000Y-118000000D02*
X126540000Y-118000000D01*
X126540000Y-118000000D02*
X123270000Y-114730000D01*
X122000000Y-116000000D02*
X121229980Y-116000000D01*
X121229980Y-116000000D02*
X119979990Y-114750010D01*
X74000000Y-110000000D02*
X74000000Y-111400000D01*
X74000000Y-111400000D02*
X77350010Y-114750010D01*
X77350010Y-114750010D02*
X119979990Y-114750010D01*
X130000000Y-116000000D02*
X128500000Y-116000000D01*
X128500000Y-116000000D02*
X123270000Y-110770000D01*
X123270000Y-110770000D02*
X123270000Y-107437106D01*
X123270000Y-107437106D02*
X123270000Y-106730000D01*
X122000000Y-108000000D02*
X116000000Y-114000000D01*
X85460000Y-110000000D02*
X85460000Y-111400000D01*
X85460000Y-111400000D02*
X88060000Y-114000000D01*
X88060000Y-114000000D02*
X116000000Y-114000000D01*
X125300000Y-100000000D02*
X122000000Y-100000000D01*
X130000000Y-104700000D02*
X125300000Y-100000000D01*
X122000000Y-100000000D02*
X120999999Y-101000001D01*
X114182665Y-112400011D02*
X97920011Y-112400011D01*
X120999999Y-101000001D02*
X120999999Y-105582677D01*
X120999999Y-105582677D02*
X114182665Y-112400011D01*
X97920011Y-112400011D02*
X96920000Y-111400000D01*
X96920000Y-111400000D02*
X96920000Y-110000000D01*
X130000000Y-102160000D02*
X122000000Y-94160000D01*
X122000000Y-94160000D02*
X122000000Y-92000000D01*
X122000000Y-92000000D02*
X118000000Y-96000000D01*
X118000000Y-96000000D02*
X118000000Y-107522002D01*
X118000000Y-107522002D02*
X113872001Y-111650001D01*
X108000000Y-111400000D02*
X108000000Y-110000000D01*
X108250001Y-111650001D02*
X108000000Y-111400000D01*
X113872001Y-111650001D02*
X108250001Y-111650001D01*
X130000000Y-99620000D02*
X133249990Y-102869990D01*
X133249990Y-102869990D02*
X133249990Y-112329990D01*
X133249990Y-112329990D02*
X136230001Y-115310001D01*
X136230001Y-115310001D02*
X136730000Y-115810000D01*
X126000000Y-91559998D02*
X126000000Y-95620000D01*
X126000000Y-95620000D02*
X130000000Y-99620000D01*
X116000000Y-98000000D02*
X117249990Y-96750010D01*
X117249990Y-96750010D02*
X117249990Y-90750010D01*
X117249990Y-90750010D02*
X119540001Y-88459999D01*
X119540001Y-88459999D02*
X122900001Y-88459999D01*
X122900001Y-88459999D02*
X126000000Y-91559998D01*
X74000000Y-92000000D02*
X74000000Y-93400000D01*
X74000000Y-93400000D02*
X80199959Y-99599959D01*
X80199959Y-99599959D02*
X109599959Y-99599959D01*
X109599959Y-99599959D02*
X111199918Y-98000000D01*
X111199918Y-98000000D02*
X116000000Y-98000000D01*
X134000000Y-101080000D02*
X134000000Y-105270000D01*
X134000000Y-105270000D02*
X136730000Y-108000000D01*
X130000000Y-97080000D02*
X134000000Y-101080000D01*
X116000000Y-90939326D02*
X116000000Y-96000000D01*
X116000000Y-96000000D02*
X115300002Y-96699998D01*
X130000000Y-97080000D02*
X126750010Y-93830010D01*
X126750010Y-93830010D02*
X126750009Y-91249333D01*
X126750009Y-91249333D02*
X122569546Y-87068870D01*
X122569546Y-87068870D02*
X119870456Y-87068870D01*
X119870456Y-87068870D02*
X116000000Y-90939326D01*
X114699999Y-96699999D02*
X114000000Y-96699999D01*
X114000000Y-96699999D02*
X88759999Y-96699999D01*
X115300002Y-96699998D02*
X114000001Y-96699998D01*
X114000001Y-96699998D02*
X114000000Y-96699999D01*
X85460000Y-93400000D02*
X85460000Y-92000000D01*
X88759999Y-96699999D02*
X85460000Y-93400000D01*
X136730000Y-100000000D02*
X131270000Y-94540000D01*
X131270000Y-94540000D02*
X130000000Y-94540000D01*
X130000000Y-94540000D02*
X127500018Y-92040018D01*
X99469989Y-95949989D02*
X96920000Y-93400000D01*
X127500018Y-92040018D02*
X127500018Y-90938668D01*
X115249990Y-94750010D02*
X114050012Y-95949988D01*
X127500018Y-90938668D02*
X122880210Y-86318860D01*
X122880210Y-86318860D02*
X119559791Y-86318861D01*
X96920000Y-93400000D02*
X96920000Y-92000000D01*
X119559791Y-86318861D02*
X115249990Y-90628662D01*
X115249990Y-90628662D02*
X115249990Y-94750010D01*
X114050012Y-95949988D02*
X99469989Y-95949989D01*
X136730000Y-92000000D02*
X130000000Y-92000000D01*
X130000000Y-92000000D02*
X123568851Y-85568851D01*
X123568851Y-85568851D02*
X119249126Y-85568852D01*
X119249126Y-85568852D02*
X114480001Y-90337977D01*
X114480001Y-90337977D02*
X114480001Y-93042001D01*
X114480001Y-93042001D02*
X113872001Y-93650001D01*
X108000000Y-92000000D02*
X108000000Y-93400000D01*
X108000000Y-93400000D02*
X108250001Y-93650001D01*
X108250001Y-93650001D02*
X113872001Y-93650001D01*
X134000000Y-75460000D02*
X132300000Y-75460000D01*
X132300000Y-75460000D02*
X126000000Y-75460000D01*
X141620000Y-78000000D02*
X141620000Y-79300000D01*
X141620000Y-79300000D02*
X140920000Y-80000000D01*
X140920000Y-80000000D02*
X125499998Y-80000000D01*
X125499998Y-80000000D02*
X124699999Y-79200001D01*
X124699999Y-79200001D02*
X124699999Y-74220001D01*
X124699999Y-74220001D02*
X126000000Y-72920000D01*
X141620000Y-75460000D02*
X141220000Y-75460000D01*
X141220000Y-75460000D02*
X135700010Y-69940010D01*
X132299990Y-59681519D02*
X132299990Y-67700010D01*
X135700010Y-69940010D02*
X135700010Y-59681519D01*
X132299990Y-67700010D02*
X129620000Y-70380000D01*
X135700010Y-59681519D02*
X134938481Y-58919990D01*
X134938481Y-58919990D02*
X133061519Y-58919990D01*
X133061519Y-58919990D02*
X132299990Y-59681519D01*
X129620000Y-70380000D02*
X126000000Y-70380000D01*
X126000000Y-67840000D02*
X131549980Y-62290020D01*
X131549980Y-62290020D02*
X131549981Y-59370854D01*
X131549981Y-59370854D02*
X132750855Y-58169980D01*
X132750855Y-58169980D02*
X135249146Y-58169981D01*
X135249146Y-58169981D02*
X136450020Y-59370855D01*
X141220000Y-72920000D02*
X141620000Y-72920000D01*
X136450020Y-59370855D02*
X136450020Y-68150020D01*
X136450020Y-68150020D02*
X141220000Y-72920000D01*
X126000000Y-65300000D02*
X130799972Y-60500028D01*
X130799972Y-59060189D02*
X132440192Y-57419971D01*
X130799972Y-60500028D02*
X130799972Y-59060189D01*
X132440192Y-57419971D02*
X135559811Y-57419972D01*
X135559811Y-57419972D02*
X137200030Y-59060191D01*
X137200030Y-59060191D02*
X137200030Y-66360030D01*
X137200030Y-66360030D02*
X141220000Y-70380000D01*
X141220000Y-70380000D02*
X141620000Y-70380000D01*
X137950040Y-65930000D02*
X139860040Y-67840000D01*
X139860040Y-67840000D02*
X141620000Y-67840000D01*
X126000000Y-62760000D02*
X132090038Y-56669962D01*
X132090038Y-56669962D02*
X135870476Y-56669963D01*
X135870476Y-56669963D02*
X137950040Y-58749527D01*
X137950040Y-58749527D02*
X137950040Y-65930000D01*
X138700050Y-64460000D02*
X139540050Y-65300000D01*
X139540050Y-65300000D02*
X141620000Y-65300000D01*
X138700050Y-58438863D02*
X138700050Y-64460000D01*
X126000000Y-60220000D02*
X130300048Y-55919953D01*
X130300048Y-55919953D02*
X136181141Y-55919954D01*
X136181141Y-55919954D02*
X138700050Y-58438863D01*
X139450060Y-58128199D02*
X139450060Y-60990060D01*
X139450060Y-60990060D02*
X141220000Y-62760000D01*
X141220000Y-62760000D02*
X141620000Y-62760000D01*
X126000000Y-57680000D02*
X128510056Y-55169944D01*
X128510056Y-55169944D02*
X136491806Y-55169945D01*
X136491806Y-55169945D02*
X139450060Y-58128199D01*
X180000000Y-110000000D02*
X180400000Y-110000000D01*
X180400000Y-110000000D02*
X182499990Y-107900010D01*
X182499990Y-107900010D02*
X182499990Y-96420010D01*
X182499990Y-96420010D02*
X187200001Y-91719999D01*
X187200001Y-91719999D02*
X188000000Y-90920000D01*
X183250000Y-98210000D02*
X183250000Y-109690000D01*
X183250000Y-109690000D02*
X180400000Y-112540000D01*
X180400000Y-112540000D02*
X180000000Y-112540000D01*
X188000000Y-93460000D02*
X183250000Y-98210000D01*
X184250000Y-111230000D02*
X184250000Y-99750000D01*
X184250000Y-99750000D02*
X188000000Y-96000000D01*
X180000000Y-115080000D02*
X180400000Y-115080000D01*
X180400000Y-115080000D02*
X184250000Y-111230000D01*
X185500000Y-101040000D02*
X185500000Y-112520000D01*
X185500000Y-112520000D02*
X180400000Y-117620000D01*
X180400000Y-117620000D02*
X180000000Y-117620000D01*
X188000000Y-98540000D02*
X185500000Y-101040000D01*
X166000000Y-105539996D02*
X165980002Y-105519998D01*
X164000000Y-112540000D02*
X164400000Y-112540000D01*
X166000000Y-110940000D02*
X166000000Y-105539996D01*
X164400000Y-112540000D02*
X166000000Y-110940000D01*
X165980002Y-104000000D02*
X164980002Y-103000000D01*
X160500000Y-103000000D02*
X159500000Y-104000000D01*
X165980002Y-105519998D02*
X165980002Y-104000000D01*
X164980002Y-103000000D02*
X160500000Y-103000000D01*
X159500000Y-104000000D02*
X159500000Y-117000000D01*
X159500000Y-117000000D02*
X158500000Y-118000000D01*
X163500000Y-101750000D02*
X159250000Y-101750000D01*
X164790676Y-101750000D02*
X163500000Y-101750000D01*
X164000000Y-115080000D02*
X165920000Y-115080000D01*
X165920000Y-115080000D02*
X167000000Y-114000000D01*
X167000000Y-114000000D02*
X167000000Y-103959324D01*
X167000000Y-103959324D02*
X164790676Y-101750000D01*
X158500000Y-113749999D02*
X158500000Y-114000000D01*
X159250000Y-101750000D02*
X158500000Y-102500000D01*
X158500000Y-102500000D02*
X158500000Y-113749999D01*
X164000000Y-117620000D02*
X163600000Y-117620000D01*
X163600000Y-117620000D02*
X161500000Y-115520000D01*
X161500000Y-115520000D02*
X161500000Y-110000000D01*
X163600000Y-120160000D02*
X160500000Y-117060000D01*
X160500000Y-117060000D02*
X160500000Y-106000000D01*
X164000000Y-120160000D02*
X163600000Y-120160000D01*
X171200000Y-59380000D02*
X171200000Y-58080000D01*
X171200000Y-58080000D02*
X170620000Y-57500000D01*
X170620000Y-57500000D02*
X152055600Y-57500000D01*
X152055600Y-57500000D02*
X150115600Y-59440000D01*
X150115600Y-59440000D02*
X149760000Y-59440000D01*
X165000000Y-59440000D02*
X168720000Y-59440000D01*
X168720000Y-59440000D02*
X171200000Y-61920000D01*
X165000000Y-61980000D02*
X168720000Y-61980000D01*
X168720000Y-61980000D02*
X171200000Y-64460000D01*
X165000000Y-64520000D02*
X168720000Y-64520000D01*
X168720000Y-64520000D02*
X171200000Y-67000000D01*
X161000000Y-81000000D02*
X162240000Y-79760000D01*
X162240000Y-79760000D02*
X165000000Y-79760000D01*
X161000000Y-82000000D02*
X161000000Y-81000000D01*
X165000000Y-79760000D02*
X169300000Y-79760000D01*
X169300000Y-79760000D02*
X171600000Y-77460000D01*
X171600000Y-77460000D02*
X172000000Y-77460000D01*
X165000000Y-82300000D02*
X162700000Y-82300000D01*
X162700000Y-82300000D02*
X159500000Y-85500000D01*
X172000000Y-80000000D02*
X171600000Y-80000000D01*
X171600000Y-80000000D02*
X169300000Y-82300000D01*
X169300000Y-82300000D02*
X166643000Y-82300000D01*
X166643000Y-82300000D02*
X165000000Y-82300000D01*
X169000000Y-86000000D02*
X169000000Y-99500000D01*
X169000000Y-99500000D02*
X174000000Y-104500000D01*
X174000000Y-104500000D02*
X174000000Y-109320000D01*
X174000000Y-109320000D02*
X173320000Y-110000000D01*
X173320000Y-110000000D02*
X171620000Y-110000000D01*
X171620000Y-110000000D02*
X171220000Y-110000000D01*
X171620000Y-117620000D02*
X171120000Y-117620000D01*
X160750010Y-99750010D02*
X160000000Y-99000000D01*
X171120000Y-117620000D02*
X168000000Y-114500000D01*
X168000000Y-114500000D02*
X168000000Y-103898650D01*
X168000000Y-103898650D02*
X163851360Y-99750010D01*
X163851360Y-99750010D02*
X160750010Y-99750010D01*
X160000000Y-99000000D02*
X160000000Y-97750000D01*
X160750000Y-97000000D02*
X163025485Y-94724515D01*
X160000000Y-97750000D02*
X160750000Y-97000000D01*
X158000000Y-64000000D02*
X158000000Y-69323000D01*
X158000000Y-69323000D02*
X163357000Y-74680000D01*
X163357000Y-74680000D02*
X165000000Y-74680000D01*
X171620000Y-115080000D02*
X174420000Y-115080000D01*
X174420000Y-115080000D02*
X176500000Y-113000000D01*
X176500000Y-104500000D02*
X173320000Y-101320000D01*
X173320000Y-101320000D02*
X172000000Y-100000000D01*
X176500000Y-113000000D02*
X176500000Y-104500000D01*
X171620000Y-115080000D02*
X172020000Y-115080000D01*
X142000000Y-83500000D02*
X142000000Y-82803728D01*
X142000000Y-82803728D02*
X148116990Y-76686738D01*
X148116990Y-76686738D02*
X148116990Y-70887410D01*
X148116990Y-70887410D02*
X149404400Y-69600000D01*
X149404400Y-69600000D02*
X149760000Y-69600000D01*
X168750009Y-103587985D02*
X166500000Y-101337976D01*
X166500000Y-101337976D02*
X166081012Y-100918988D01*
X162000000Y-99000000D02*
X164162024Y-99000000D01*
X164162024Y-99000000D02*
X166500000Y-101337976D01*
X161500000Y-98500000D02*
X162000000Y-99000000D01*
X171620000Y-112540000D02*
X171220000Y-112540000D01*
X169000000Y-110369992D02*
X169000000Y-103887968D01*
X169049992Y-103887968D02*
X168750009Y-103587985D01*
X171220000Y-112540000D02*
X169049992Y-110369992D01*
X149760000Y-84840000D02*
X149404400Y-84840000D01*
M02*
