G04 #@! TF.FileFunction,Soldermask,Bot*
%FSLAX46Y46*%
G04 Gerber Fmt 4.6, Leading zero omitted, Abs format (unit mm)*
G04 Created by KiCad (PCBNEW 4.0.7) date Fri Jan 12 08:51:38 2018*
%MOMM*%
%LPD*%
G01*
G04 APERTURE LIST*
%ADD10C,0.100000*%
%ADD11C,0.250000*%
%ADD12R,1.800000X1.800000*%
%ADD13O,1.800000X1.800000*%
%ADD14R,1.600000X1.600000*%
%ADD15O,1.600000X1.600000*%
%ADD16R,2.400000X1.600000*%
%ADD17O,2.400000X1.600000*%
%ADD18C,1.000000*%
%ADD19R,1.000000X1.000000*%
%ADD20C,2.350000*%
%ADD21R,2.286000X1.574800*%
%ADD22O,2.286000X1.574800*%
%ADD23R,4.000000X3.000000*%
%ADD24O,4.000000X3.000000*%
%ADD25R,2.600000X2.000000*%
%ADD26O,2.600000X2.000000*%
%ADD27R,2.000000X2.000000*%
%ADD28C,2.000000*%
%ADD29R,2.800000X2.800000*%
%ADD30O,2.800000X2.800000*%
%ADD31C,4.300000*%
G04 APERTURE END LIST*
D10*
D11*
X208571430Y-56333333D02*
X208619050Y-56285714D01*
X208714288Y-56142857D01*
X208761907Y-56047619D01*
X208809526Y-55904762D01*
X208857145Y-55666667D01*
X208857145Y-55476190D01*
X208809526Y-55238095D01*
X208761907Y-55095238D01*
X208714288Y-55000000D01*
X208619050Y-54857143D01*
X208571430Y-54809524D01*
X207761906Y-55904762D02*
X207857144Y-55952381D01*
X208047621Y-55952381D01*
X208142859Y-55904762D01*
X208190478Y-55857143D01*
X208238097Y-55761905D01*
X208238097Y-55476190D01*
X208190478Y-55380952D01*
X208142859Y-55333333D01*
X208047621Y-55285714D01*
X207857144Y-55285714D01*
X207761906Y-55333333D01*
X207428573Y-56333333D02*
X207380954Y-56285714D01*
X207285716Y-56142857D01*
X207238097Y-56047619D01*
X207190478Y-55904762D01*
X207142859Y-55666667D01*
X207142859Y-55476190D01*
X207190478Y-55238095D01*
X207238097Y-55095238D01*
X207285716Y-55000000D01*
X207380954Y-54857143D01*
X207428573Y-54809524D01*
X205952382Y-55047619D02*
X205904763Y-55000000D01*
X205809525Y-54952381D01*
X205571429Y-54952381D01*
X205476191Y-55000000D01*
X205428572Y-55047619D01*
X205380953Y-55142857D01*
X205380953Y-55238095D01*
X205428572Y-55380952D01*
X206000001Y-55952381D01*
X205380953Y-55952381D01*
X204761906Y-54952381D02*
X204666667Y-54952381D01*
X204571429Y-55000000D01*
X204523810Y-55047619D01*
X204476191Y-55142857D01*
X204428572Y-55333333D01*
X204428572Y-55571429D01*
X204476191Y-55761905D01*
X204523810Y-55857143D01*
X204571429Y-55904762D01*
X204666667Y-55952381D01*
X204761906Y-55952381D01*
X204857144Y-55904762D01*
X204904763Y-55857143D01*
X204952382Y-55761905D01*
X205000001Y-55571429D01*
X205000001Y-55333333D01*
X204952382Y-55142857D01*
X204904763Y-55047619D01*
X204857144Y-55000000D01*
X204761906Y-54952381D01*
X203476191Y-55952381D02*
X204047620Y-55952381D01*
X203761906Y-55952381D02*
X203761906Y-54952381D01*
X203857144Y-55095238D01*
X203952382Y-55190476D01*
X204047620Y-55238095D01*
X203142858Y-54952381D02*
X202476191Y-54952381D01*
X202904763Y-55952381D01*
X201333334Y-55952381D02*
X201333334Y-55285714D01*
X201333334Y-55380952D02*
X201285715Y-55333333D01*
X201190477Y-55285714D01*
X201047619Y-55285714D01*
X200952381Y-55333333D01*
X200904762Y-55428571D01*
X200904762Y-55952381D01*
X200904762Y-55428571D02*
X200857143Y-55333333D01*
X200761905Y-55285714D01*
X200619048Y-55285714D01*
X200523810Y-55333333D01*
X200476191Y-55428571D01*
X200476191Y-55952381D01*
X199857144Y-55952381D02*
X199952382Y-55904762D01*
X200000001Y-55857143D01*
X200047620Y-55761905D01*
X200047620Y-55476190D01*
X200000001Y-55380952D01*
X199952382Y-55333333D01*
X199857144Y-55285714D01*
X199714286Y-55285714D01*
X199619048Y-55333333D01*
X199571429Y-55380952D01*
X199523810Y-55476190D01*
X199523810Y-55761905D01*
X199571429Y-55857143D01*
X199619048Y-55904762D01*
X199714286Y-55952381D01*
X199857144Y-55952381D01*
X199095239Y-55952381D02*
X199095239Y-55285714D01*
X199095239Y-55476190D02*
X199047620Y-55380952D01*
X199000001Y-55333333D01*
X198904763Y-55285714D01*
X198809524Y-55285714D01*
X198476191Y-55952381D02*
X198476191Y-54952381D01*
X198476191Y-55333333D02*
X198380953Y-55285714D01*
X198190476Y-55285714D01*
X198095238Y-55333333D01*
X198047619Y-55380952D01*
X198000000Y-55476190D01*
X198000000Y-55761905D01*
X198047619Y-55857143D01*
X198095238Y-55904762D01*
X198190476Y-55952381D01*
X198380953Y-55952381D01*
X198476191Y-55904762D01*
X197571429Y-55952381D02*
X197571429Y-55285714D01*
X197571429Y-54952381D02*
X197619048Y-55000000D01*
X197571429Y-55047619D01*
X197523810Y-55000000D01*
X197571429Y-54952381D01*
X197571429Y-55047619D01*
X196666667Y-55952381D02*
X196666667Y-54952381D01*
X196666667Y-55904762D02*
X196761905Y-55952381D01*
X196952382Y-55952381D01*
X197047620Y-55904762D01*
X197095239Y-55857143D01*
X197142858Y-55761905D01*
X197142858Y-55476190D01*
X197095239Y-55380952D01*
X197047620Y-55333333D01*
X196952382Y-55285714D01*
X196761905Y-55285714D01*
X196666667Y-55333333D01*
X195000000Y-55904762D02*
X195095238Y-55952381D01*
X195285715Y-55952381D01*
X195380953Y-55904762D01*
X195428572Y-55857143D01*
X195476191Y-55761905D01*
X195476191Y-55476190D01*
X195428572Y-55380952D01*
X195380953Y-55333333D01*
X195285715Y-55285714D01*
X195095238Y-55285714D01*
X195000000Y-55333333D01*
X194428572Y-55952381D02*
X194523810Y-55904762D01*
X194571429Y-55857143D01*
X194619048Y-55761905D01*
X194619048Y-55476190D01*
X194571429Y-55380952D01*
X194523810Y-55333333D01*
X194428572Y-55285714D01*
X194285714Y-55285714D01*
X194190476Y-55333333D01*
X194142857Y-55380952D01*
X194095238Y-55476190D01*
X194095238Y-55761905D01*
X194142857Y-55857143D01*
X194190476Y-55904762D01*
X194285714Y-55952381D01*
X194428572Y-55952381D01*
X193666667Y-55952381D02*
X193666667Y-55285714D01*
X193666667Y-55476190D02*
X193619048Y-55380952D01*
X193571429Y-55333333D01*
X193476191Y-55285714D01*
X193380952Y-55285714D01*
X193047619Y-55285714D02*
X193047619Y-55952381D01*
X193047619Y-55380952D02*
X193000000Y-55333333D01*
X192904762Y-55285714D01*
X192761904Y-55285714D01*
X192666666Y-55333333D01*
X192619047Y-55428571D01*
X192619047Y-55952381D01*
X192285714Y-55285714D02*
X191904762Y-55285714D01*
X192142857Y-55952381D02*
X192142857Y-55095238D01*
X192095238Y-55000000D01*
X192000000Y-54952381D01*
X191904762Y-54952381D01*
X191428571Y-55952381D02*
X191523809Y-55904762D01*
X191571428Y-55809524D01*
X191571428Y-54952381D01*
X190619046Y-55952381D02*
X190619046Y-55428571D01*
X190666665Y-55333333D01*
X190761903Y-55285714D01*
X190952380Y-55285714D01*
X191047618Y-55333333D01*
X190619046Y-55904762D02*
X190714284Y-55952381D01*
X190952380Y-55952381D01*
X191047618Y-55904762D01*
X191095237Y-55809524D01*
X191095237Y-55714286D01*
X191047618Y-55619048D01*
X190952380Y-55571429D01*
X190714284Y-55571429D01*
X190619046Y-55523810D01*
X190142856Y-55952381D02*
X190142856Y-54952381D01*
X190047618Y-55571429D02*
X189761903Y-55952381D01*
X189761903Y-55285714D02*
X190142856Y-55666667D01*
X188952379Y-55904762D02*
X189047617Y-55952381D01*
X189238094Y-55952381D01*
X189333332Y-55904762D01*
X189380951Y-55809524D01*
X189380951Y-55428571D01*
X189333332Y-55333333D01*
X189238094Y-55285714D01*
X189047617Y-55285714D01*
X188952379Y-55333333D01*
X188904760Y-55428571D01*
X188904760Y-55523810D01*
X189380951Y-55619048D01*
X188523808Y-55904762D02*
X188428570Y-55952381D01*
X188238094Y-55952381D01*
X188142855Y-55904762D01*
X188095236Y-55809524D01*
X188095236Y-55761905D01*
X188142855Y-55666667D01*
X188238094Y-55619048D01*
X188380951Y-55619048D01*
X188476189Y-55571429D01*
X188523808Y-55476190D01*
X188523808Y-55428571D01*
X188476189Y-55333333D01*
X188380951Y-55285714D01*
X188238094Y-55285714D01*
X188142855Y-55333333D01*
D12*
X131000000Y-122000000D03*
D13*
X133540000Y-122000000D03*
X136080000Y-122000000D03*
D14*
X188000000Y-78220000D03*
D15*
X188000000Y-80760000D03*
X188000000Y-83300000D03*
X188000000Y-85840000D03*
X188000000Y-88380000D03*
X188000000Y-90920000D03*
X188000000Y-93460000D03*
X188000000Y-96000000D03*
X188000000Y-98540000D03*
D16*
X180000000Y-104920000D03*
D17*
X187620000Y-122700000D03*
X180000000Y-107460000D03*
X187620000Y-120160000D03*
X180000000Y-110000000D03*
X187620000Y-117620000D03*
X180000000Y-112540000D03*
X187620000Y-115080000D03*
X180000000Y-115080000D03*
X187620000Y-112540000D03*
X180000000Y-117620000D03*
X187620000Y-110000000D03*
X180000000Y-120160000D03*
X187620000Y-107460000D03*
X180000000Y-122700000D03*
X187620000Y-104920000D03*
D18*
X123270000Y-114730000D03*
X122000000Y-116000000D03*
D19*
X122000000Y-113460000D03*
D18*
X123270000Y-98730000D03*
X122000000Y-100000000D03*
D19*
X122000000Y-97460000D03*
D14*
X130000000Y-112320000D03*
D15*
X130000000Y-109780000D03*
X130000000Y-107240000D03*
X130000000Y-104700000D03*
X130000000Y-102160000D03*
X130000000Y-99620000D03*
X130000000Y-97080000D03*
X130000000Y-94540000D03*
X130000000Y-92000000D03*
D18*
X123270000Y-106730000D03*
X122000000Y-108000000D03*
D19*
X122000000Y-105460000D03*
D12*
X74000000Y-110000000D03*
D13*
X76540000Y-110000000D03*
X79080000Y-110000000D03*
D14*
X122000000Y-78160000D03*
D15*
X122000000Y-75620000D03*
X122000000Y-73080000D03*
X122000000Y-70540000D03*
X122000000Y-68000000D03*
X122000000Y-65460000D03*
X122000000Y-62920000D03*
X122000000Y-60380000D03*
X122000000Y-57840000D03*
D20*
X78500000Y-122000000D03*
X73500000Y-122000000D03*
X88500000Y-122000000D03*
X93500000Y-122000000D03*
D18*
X123270000Y-90730000D03*
X122000000Y-92000000D03*
D19*
X122000000Y-89460000D03*
D12*
X85460000Y-110000000D03*
D13*
X88000000Y-110000000D03*
X90540000Y-110000000D03*
D12*
X96920000Y-110000000D03*
D13*
X99460000Y-110000000D03*
X102000000Y-110000000D03*
D12*
X108000000Y-110000000D03*
D13*
X110540000Y-110000000D03*
X113080000Y-110000000D03*
D12*
X74000000Y-92000000D03*
D13*
X76540000Y-92000000D03*
X79080000Y-92000000D03*
D12*
X108000000Y-92000000D03*
D13*
X110540000Y-92000000D03*
X113080000Y-92000000D03*
D12*
X96920000Y-92000000D03*
D13*
X99460000Y-92000000D03*
X102000000Y-92000000D03*
D12*
X85460000Y-92000000D03*
D13*
X88000000Y-92000000D03*
X90540000Y-92000000D03*
D18*
X138000000Y-114540000D03*
X136730000Y-115810000D03*
D19*
X136730000Y-113270000D03*
D18*
X138000000Y-106730000D03*
X136730000Y-108000000D03*
D19*
X136730000Y-105460000D03*
D18*
X138000000Y-98730000D03*
X136730000Y-100000000D03*
D19*
X136730000Y-97460000D03*
D18*
X138000000Y-90730000D03*
X136730000Y-92000000D03*
D19*
X136730000Y-89460000D03*
D12*
X74000000Y-78000000D03*
D13*
X76540000Y-78000000D03*
X79080000Y-78000000D03*
D12*
X85460000Y-78000000D03*
D13*
X88000000Y-78000000D03*
X90540000Y-78000000D03*
D12*
X96920000Y-78000000D03*
D13*
X99460000Y-78000000D03*
X102000000Y-78000000D03*
D12*
X108920000Y-78000000D03*
D13*
X111460000Y-78000000D03*
X114000000Y-78000000D03*
D12*
X74000000Y-64000000D03*
D13*
X76540000Y-64000000D03*
X79080000Y-64000000D03*
D12*
X85460000Y-64000000D03*
D13*
X88000000Y-64000000D03*
X90540000Y-64000000D03*
D12*
X96920000Y-64000000D03*
D13*
X99460000Y-64000000D03*
X102000000Y-64000000D03*
D12*
X108000000Y-64000000D03*
D13*
X110540000Y-64000000D03*
X113080000Y-64000000D03*
D14*
X196800000Y-60960000D03*
D15*
X196800000Y-63500000D03*
X196800000Y-66040000D03*
X196800000Y-68580000D03*
X196800000Y-71120000D03*
X196800000Y-73660000D03*
X196800000Y-76200000D03*
X196800000Y-78740000D03*
X196800000Y-81280000D03*
D14*
X85840000Y-98000000D03*
D15*
X88380000Y-98000000D03*
X90920000Y-98000000D03*
X93460000Y-98000000D03*
X96000000Y-98000000D03*
X98540000Y-98000000D03*
X101080000Y-98000000D03*
X103620000Y-98000000D03*
X106160000Y-98000000D03*
D14*
X126000000Y-78000000D03*
D15*
X126000000Y-75460000D03*
X126000000Y-72920000D03*
X126000000Y-70380000D03*
X126000000Y-67840000D03*
X126000000Y-65300000D03*
X126000000Y-62760000D03*
X126000000Y-60220000D03*
X126000000Y-57680000D03*
D16*
X172000000Y-77460000D03*
D17*
X179620000Y-95240000D03*
X172000000Y-80000000D03*
X179620000Y-92700000D03*
X172000000Y-82540000D03*
X179620000Y-90160000D03*
X172000000Y-85080000D03*
X179620000Y-87620000D03*
X172000000Y-87620000D03*
X179620000Y-85080000D03*
X172000000Y-90160000D03*
X179620000Y-82540000D03*
X172000000Y-92700000D03*
X179620000Y-80000000D03*
X172000000Y-95240000D03*
X179620000Y-77460000D03*
D21*
X165000000Y-95000000D03*
D22*
X165000000Y-92460000D03*
X165000000Y-89920000D03*
X165000000Y-87380000D03*
X165000000Y-84840000D03*
X165000000Y-82300000D03*
X165000000Y-79760000D03*
X165000000Y-77220000D03*
X165000000Y-74680000D03*
X165000000Y-72140000D03*
X165000000Y-69600000D03*
X165000000Y-67060000D03*
X165000000Y-64520000D03*
X165000000Y-61980000D03*
X165000000Y-59440000D03*
X149760000Y-59440000D03*
X149760000Y-61980000D03*
X149760000Y-64520000D03*
X149760000Y-67060000D03*
X149760000Y-69600000D03*
X149760000Y-72140000D03*
X149760000Y-74680000D03*
X149760000Y-77220000D03*
X149760000Y-79760000D03*
X149760000Y-82300000D03*
X149760000Y-84840000D03*
X149760000Y-87380000D03*
X149760000Y-89920000D03*
X149760000Y-92460000D03*
X149760000Y-95000000D03*
D16*
X164000000Y-104920000D03*
D17*
X171620000Y-122700000D03*
X164000000Y-107460000D03*
X171620000Y-120160000D03*
X164000000Y-110000000D03*
X171620000Y-117620000D03*
X164000000Y-112540000D03*
X171620000Y-115080000D03*
X164000000Y-115080000D03*
X171620000Y-112540000D03*
X164000000Y-117620000D03*
X171620000Y-110000000D03*
X164000000Y-120160000D03*
X171620000Y-107460000D03*
X164000000Y-122700000D03*
X171620000Y-104920000D03*
D16*
X141620000Y-78000000D03*
D17*
X134000000Y-60220000D03*
X141620000Y-75460000D03*
X134000000Y-62760000D03*
X141620000Y-72920000D03*
X134000000Y-65300000D03*
X141620000Y-70380000D03*
X134000000Y-67840000D03*
X141620000Y-67840000D03*
X134000000Y-70380000D03*
X141620000Y-65300000D03*
X134000000Y-72920000D03*
X141620000Y-62760000D03*
X134000000Y-75460000D03*
X141620000Y-60220000D03*
X134000000Y-78000000D03*
D23*
X207962400Y-87037600D03*
D24*
X207962400Y-91000000D03*
X207962400Y-94962400D03*
X207962400Y-98924800D03*
X207962400Y-102887200D03*
X207962400Y-106849600D03*
X207962400Y-110812000D03*
X207962400Y-114774400D03*
X207962400Y-118736800D03*
D25*
X208000000Y-60920000D03*
D26*
X208000000Y-63460000D03*
X208000000Y-66000000D03*
X208000000Y-68540000D03*
X208000000Y-71080000D03*
X208000000Y-73620000D03*
X208000000Y-76160000D03*
X208000000Y-78700000D03*
X208000000Y-81240000D03*
D23*
X60000000Y-123962400D03*
D24*
X60000000Y-120000000D03*
D23*
X60000000Y-113775000D03*
D24*
X60000000Y-109812600D03*
X60000000Y-105850200D03*
X60000000Y-101887800D03*
X60000000Y-97925400D03*
X60000000Y-93963000D03*
X60000000Y-90000600D03*
X60000000Y-86038200D03*
X60000000Y-82075800D03*
D25*
X60000000Y-75325000D03*
D26*
X60000000Y-72785000D03*
X60000000Y-70245000D03*
X60000000Y-67705000D03*
X60000000Y-65165000D03*
X60000000Y-62625000D03*
X60000000Y-60085000D03*
X60000000Y-57545000D03*
X60000000Y-55005000D03*
D14*
X171200000Y-59380000D03*
D15*
X178820000Y-67000000D03*
X171200000Y-61920000D03*
X178820000Y-64460000D03*
X171200000Y-64460000D03*
X178820000Y-61920000D03*
X171200000Y-67000000D03*
X178820000Y-59380000D03*
D27*
X102000000Y-122000000D03*
D28*
X107000000Y-122000000D03*
D29*
X124000000Y-122000000D03*
D30*
X113840000Y-122000000D03*
D25*
X49000000Y-75320000D03*
D26*
X49000000Y-72780000D03*
X49000000Y-70240000D03*
X49000000Y-67700000D03*
X49000000Y-65160000D03*
X49000000Y-62620000D03*
X49000000Y-60080000D03*
X49000000Y-57540000D03*
X49000000Y-55000000D03*
D23*
X42000000Y-113779200D03*
D24*
X42000000Y-109816800D03*
X42000000Y-105854400D03*
X42000000Y-101892000D03*
X42000000Y-97929600D03*
X42000000Y-93967200D03*
X42000000Y-90004800D03*
X42000000Y-86042400D03*
X42000000Y-82080000D03*
D25*
X38000000Y-75320000D03*
D26*
X38000000Y-72780000D03*
X38000000Y-70240000D03*
X38000000Y-67700000D03*
X38000000Y-65160000D03*
X38000000Y-62620000D03*
X38000000Y-60080000D03*
X38000000Y-57540000D03*
X38000000Y-55000000D03*
D23*
X42000000Y-126424800D03*
D24*
X42000000Y-122462400D03*
X42000000Y-118500000D03*
D31*
X213000000Y-55500000D03*
X30500000Y-55500000D03*
X30500000Y-124500000D03*
X212500000Y-124500000D03*
M02*
