M48
INCH,TZ
T1C0.016
T2C0.024
T3C0.031
T4C0.032
T5C0.039
T6C0.047
T7C0.053
T8C0.067
T9C0.169
%
G90
G05
T1
X47244Y-47244
X50394Y-46457
X50591Y-48228
X51181Y-45669
X51181Y-48819
X53543Y-33071
X54331Y-31496
X54921Y-47244
X55315Y-47343
X62205Y-25197
X62402Y-44882
X62402Y-46457
X62795Y-33661
X63189Y-41732
X63386Y-32283
X63583Y-43307
X64183Y-37293
X66535Y-33858
X67717Y-39370
T2
X48031Y-35220
X48031Y-36220
X48031Y-38370
X48031Y-39370
X48031Y-41520
X48031Y-42520
X48031Y-44669
X48031Y-45669
X48531Y-35720
X48531Y-38870
X48531Y-42020
X48531Y-45169
X53831Y-35220
X53831Y-36220
X53831Y-38370
X53831Y-39370
X53831Y-41520
X53831Y-42520
X53831Y-44594
X53831Y-45594
X54331Y-35720
X54331Y-38870
X54331Y-42020
X54331Y-45094
T3
X33795Y-38583
X34795Y-38583
X35795Y-38583
X36795Y-38583
X37795Y-38583
X38795Y-38583
X39795Y-38583
X40795Y-38583
X41795Y-38583
X48031Y-22772
X48031Y-23772
X48031Y-24772
X48031Y-25772
X48031Y-26772
X48031Y-27772
X48031Y-28772
X48031Y-29772
X48031Y-30772
X49606Y-22709
X49606Y-23709
X49606Y-24709
X49606Y-25709
X49606Y-26709
X49606Y-27709
X49606Y-28709
X49606Y-29709
X49606Y-30709
X51181Y-36220
X51181Y-37220
X51181Y-38220
X51181Y-39220
X51181Y-40220
X51181Y-41220
X51181Y-42220
X51181Y-43220
X51181Y-44220
X52756Y-23709
X52756Y-24709
X52756Y-25709
X52756Y-26709
X52756Y-27709
X52756Y-28709
X52756Y-29709
X52756Y-30709
X55756Y-23709
X55756Y-24709
X55756Y-25709
X55756Y-26709
X55756Y-27709
X55756Y-28709
X55756Y-29709
X55756Y-30709
X64567Y-41307
X64567Y-42307
X64567Y-43307
X64567Y-44307
X64567Y-45307
X64567Y-46307
X64567Y-47307
X64567Y-48307
X67567Y-41307
X67567Y-42307
X67567Y-43307
X67567Y-44307
X67567Y-45307
X67567Y-46307
X67567Y-47307
X67567Y-48307
X67618Y-24173
X67618Y-25173
X67618Y-26173
X67618Y-27173
X67717Y-30496
X67717Y-31496
X67717Y-32496
X67717Y-33496
X67717Y-34496
X67717Y-35496
X67717Y-36496
X67717Y-37496
X70618Y-24173
X70618Y-25173
X70618Y-26173
X70618Y-27173
X70717Y-30496
X70717Y-31496
X70717Y-32496
X70717Y-33496
X70717Y-34496
X70717Y-35496
X70717Y-36496
X70717Y-37496
X70866Y-41307
X70866Y-42307
X70866Y-43307
X70866Y-44307
X70866Y-45307
X70866Y-46307
X70866Y-47307
X70866Y-48307
X73866Y-41307
X73866Y-42307
X73866Y-43307
X73866Y-44307
X73866Y-45307
X73866Y-46307
X73866Y-47307
X73866Y-48307
X74016Y-30795
X74016Y-31795
X74016Y-32795
X74016Y-33795
X74016Y-34795
X74016Y-35795
X74016Y-36795
X74016Y-37795
X74016Y-38795
X77480Y-24000
X77480Y-25000
X77480Y-26000
X77480Y-27000
X77480Y-28000
X77480Y-29000
X77480Y-30000
X77480Y-31000
X77480Y-32000
T4
X58961Y-23402
X58961Y-24402
X58961Y-25402
X58961Y-26402
X58961Y-27402
X58961Y-28402
X58961Y-29402
X58961Y-30402
X58961Y-31402
X58961Y-32402
X58961Y-33402
X58961Y-34402
X58961Y-35402
X58961Y-36402
X58961Y-37402
X64961Y-23402
X64961Y-24402
X64961Y-25402
X64961Y-26402
X64961Y-27402
X64961Y-28402
X64961Y-29402
X64961Y-30402
X64961Y-31402
X64961Y-32402
X64961Y-33402
X64961Y-34402
X64961Y-35402
X64961Y-36402
X64961Y-37402
T5
X29134Y-25197
X29134Y-30709
X29134Y-36220
X29134Y-43307
X30134Y-25197
X30134Y-30709
X30134Y-36220
X30134Y-43307
X31134Y-25197
X31134Y-30709
X31134Y-36220
X31134Y-43307
X33646Y-25197
X33646Y-30709
X33646Y-36220
X33646Y-43307
X34646Y-25197
X34646Y-30709
X34646Y-36220
X34646Y-43307
X35646Y-25197
X35646Y-30709
X35646Y-36220
X35646Y-43307
X38157Y-25197
X38157Y-30709
X38157Y-36220
X38157Y-43307
X39157Y-25197
X39157Y-30709
X39157Y-36220
X39157Y-43307
X40157Y-25197
X40157Y-30709
X40157Y-36220
X40157Y-43307
X42520Y-25197
X42520Y-36220
X42520Y-43307
X42882Y-30709
X42882Y-48031
X43520Y-25197
X43520Y-36220
X43520Y-43307
X43882Y-30709
X43882Y-48031
X44520Y-25197
X44520Y-36220
X44520Y-43307
X44882Y-30709
X44882Y-48031
T6
X23622Y-21654
X23622Y-22654
X23622Y-23654
X23622Y-24654
X23622Y-25654
X23622Y-26654
X23622Y-27654
X23622Y-28654
X23622Y-29654
X81890Y-24016
X81890Y-25016
X81890Y-26016
X81890Y-27016
X81890Y-28016
X81890Y-29016
X81890Y-30016
X81890Y-31016
X81890Y-32016
T7
X29134Y-48031
X31102Y-48031
X35039Y-48031
X37008Y-48031
T8
X23622Y-32313
X23622Y-33873
X23622Y-35433
X23622Y-36993
X23622Y-38553
X23622Y-40113
X23622Y-41673
X23622Y-43233
X23622Y-44793
X23622Y-47244
X23622Y-48804
X81890Y-34252
X81890Y-35812
X81890Y-37372
X81890Y-38932
X81890Y-40492
X81890Y-42052
X81890Y-43612
X81890Y-45172
X81890Y-46732
T9
X19291Y-22047
X19291Y-48819
X84843Y-21654
X84843Y-49213
T0
M30
