G04 #@! TF.FileFunction,Copper,L2,Bot,Signal*
%FSLAX46Y46*%
G04 Gerber Fmt 4.6, Leading zero omitted, Abs format (unit mm)*
G04 Created by KiCad (PCBNEW 4.0.7) date 01/26/18 09:32:31*
%MOMM*%
%LPD*%
G01*
G04 APERTURE LIST*
%ADD10C,0.100000*%
%ADD11C,0.250000*%
%ADD12R,1.600000X1.600000*%
%ADD13O,1.600000X1.600000*%
%ADD14R,1.800000X1.800000*%
%ADD15O,1.800000X1.800000*%
%ADD16R,1.500000X1.250000*%
%ADD17R,1.250000X1.500000*%
%ADD18R,1.500000X1.300000*%
%ADD19R,2.286000X1.574800*%
%ADD20O,2.286000X1.574800*%
%ADD21R,1.300000X1.500000*%
%ADD22R,2.600000X2.000000*%
%ADD23O,2.600000X2.000000*%
%ADD24R,4.000000X3.000000*%
%ADD25O,4.000000X3.000000*%
%ADD26R,2.200000X1.200000*%
%ADD27R,6.400000X5.800000*%
%ADD28R,3.050000X2.750000*%
%ADD29R,0.600000X1.500000*%
%ADD30R,1.500000X0.600000*%
%ADD31R,2.000000X2.000000*%
%ADD32C,2.000000*%
%ADD33R,2.800000X2.800000*%
%ADD34O,2.800000X2.800000*%
%ADD35C,2.350000*%
%ADD36R,0.600000X2.000000*%
%ADD37C,0.600000*%
%ADD38C,1.000000*%
%ADD39C,0.500000*%
%ADD40C,1.500000*%
%ADD41C,1.750000*%
G04 APERTURE END LIST*
D10*
D11*
X127291430Y-53158333D02*
X127339050Y-53110714D01*
X127434288Y-52967857D01*
X127481907Y-52872619D01*
X127529526Y-52729762D01*
X127577145Y-52491667D01*
X127577145Y-52301190D01*
X127529526Y-52063095D01*
X127481907Y-51920238D01*
X127434288Y-51825000D01*
X127339050Y-51682143D01*
X127291430Y-51634524D01*
X126481906Y-52729762D02*
X126577144Y-52777381D01*
X126767621Y-52777381D01*
X126862859Y-52729762D01*
X126910478Y-52682143D01*
X126958097Y-52586905D01*
X126958097Y-52301190D01*
X126910478Y-52205952D01*
X126862859Y-52158333D01*
X126767621Y-52110714D01*
X126577144Y-52110714D01*
X126481906Y-52158333D01*
X126148573Y-53158333D02*
X126100954Y-53110714D01*
X126005716Y-52967857D01*
X125958097Y-52872619D01*
X125910478Y-52729762D01*
X125862859Y-52491667D01*
X125862859Y-52301190D01*
X125910478Y-52063095D01*
X125958097Y-51920238D01*
X126005716Y-51825000D01*
X126100954Y-51682143D01*
X126148573Y-51634524D01*
X124672382Y-51872619D02*
X124624763Y-51825000D01*
X124529525Y-51777381D01*
X124291429Y-51777381D01*
X124196191Y-51825000D01*
X124148572Y-51872619D01*
X124100953Y-51967857D01*
X124100953Y-52063095D01*
X124148572Y-52205952D01*
X124720001Y-52777381D01*
X124100953Y-52777381D01*
X123481906Y-51777381D02*
X123386667Y-51777381D01*
X123291429Y-51825000D01*
X123243810Y-51872619D01*
X123196191Y-51967857D01*
X123148572Y-52158333D01*
X123148572Y-52396429D01*
X123196191Y-52586905D01*
X123243810Y-52682143D01*
X123291429Y-52729762D01*
X123386667Y-52777381D01*
X123481906Y-52777381D01*
X123577144Y-52729762D01*
X123624763Y-52682143D01*
X123672382Y-52586905D01*
X123720001Y-52396429D01*
X123720001Y-52158333D01*
X123672382Y-51967857D01*
X123624763Y-51872619D01*
X123577144Y-51825000D01*
X123481906Y-51777381D01*
X122196191Y-52777381D02*
X122767620Y-52777381D01*
X122481906Y-52777381D02*
X122481906Y-51777381D01*
X122577144Y-51920238D01*
X122672382Y-52015476D01*
X122767620Y-52063095D01*
X121862858Y-51777381D02*
X121196191Y-51777381D01*
X121624763Y-52777381D01*
X120053334Y-52777381D02*
X120053334Y-52110714D01*
X120053334Y-52205952D02*
X120005715Y-52158333D01*
X119910477Y-52110714D01*
X119767619Y-52110714D01*
X119672381Y-52158333D01*
X119624762Y-52253571D01*
X119624762Y-52777381D01*
X119624762Y-52253571D02*
X119577143Y-52158333D01*
X119481905Y-52110714D01*
X119339048Y-52110714D01*
X119243810Y-52158333D01*
X119196191Y-52253571D01*
X119196191Y-52777381D01*
X118577144Y-52777381D02*
X118672382Y-52729762D01*
X118720001Y-52682143D01*
X118767620Y-52586905D01*
X118767620Y-52301190D01*
X118720001Y-52205952D01*
X118672382Y-52158333D01*
X118577144Y-52110714D01*
X118434286Y-52110714D01*
X118339048Y-52158333D01*
X118291429Y-52205952D01*
X118243810Y-52301190D01*
X118243810Y-52586905D01*
X118291429Y-52682143D01*
X118339048Y-52729762D01*
X118434286Y-52777381D01*
X118577144Y-52777381D01*
X117815239Y-52777381D02*
X117815239Y-52110714D01*
X117815239Y-52301190D02*
X117767620Y-52205952D01*
X117720001Y-52158333D01*
X117624763Y-52110714D01*
X117529524Y-52110714D01*
X117196191Y-52777381D02*
X117196191Y-51777381D01*
X117196191Y-52158333D02*
X117100953Y-52110714D01*
X116910476Y-52110714D01*
X116815238Y-52158333D01*
X116767619Y-52205952D01*
X116720000Y-52301190D01*
X116720000Y-52586905D01*
X116767619Y-52682143D01*
X116815238Y-52729762D01*
X116910476Y-52777381D01*
X117100953Y-52777381D01*
X117196191Y-52729762D01*
X116291429Y-52777381D02*
X116291429Y-52110714D01*
X116291429Y-51777381D02*
X116339048Y-51825000D01*
X116291429Y-51872619D01*
X116243810Y-51825000D01*
X116291429Y-51777381D01*
X116291429Y-51872619D01*
X115386667Y-52777381D02*
X115386667Y-51777381D01*
X115386667Y-52729762D02*
X115481905Y-52777381D01*
X115672382Y-52777381D01*
X115767620Y-52729762D01*
X115815239Y-52682143D01*
X115862858Y-52586905D01*
X115862858Y-52301190D01*
X115815239Y-52205952D01*
X115767620Y-52158333D01*
X115672382Y-52110714D01*
X115481905Y-52110714D01*
X115386667Y-52158333D01*
X113720000Y-52729762D02*
X113815238Y-52777381D01*
X114005715Y-52777381D01*
X114100953Y-52729762D01*
X114148572Y-52682143D01*
X114196191Y-52586905D01*
X114196191Y-52301190D01*
X114148572Y-52205952D01*
X114100953Y-52158333D01*
X114005715Y-52110714D01*
X113815238Y-52110714D01*
X113720000Y-52158333D01*
X113148572Y-52777381D02*
X113243810Y-52729762D01*
X113291429Y-52682143D01*
X113339048Y-52586905D01*
X113339048Y-52301190D01*
X113291429Y-52205952D01*
X113243810Y-52158333D01*
X113148572Y-52110714D01*
X113005714Y-52110714D01*
X112910476Y-52158333D01*
X112862857Y-52205952D01*
X112815238Y-52301190D01*
X112815238Y-52586905D01*
X112862857Y-52682143D01*
X112910476Y-52729762D01*
X113005714Y-52777381D01*
X113148572Y-52777381D01*
X112386667Y-52777381D02*
X112386667Y-52110714D01*
X112386667Y-52301190D02*
X112339048Y-52205952D01*
X112291429Y-52158333D01*
X112196191Y-52110714D01*
X112100952Y-52110714D01*
X111767619Y-52110714D02*
X111767619Y-52777381D01*
X111767619Y-52205952D02*
X111720000Y-52158333D01*
X111624762Y-52110714D01*
X111481904Y-52110714D01*
X111386666Y-52158333D01*
X111339047Y-52253571D01*
X111339047Y-52777381D01*
X111005714Y-52110714D02*
X110624762Y-52110714D01*
X110862857Y-52777381D02*
X110862857Y-51920238D01*
X110815238Y-51825000D01*
X110720000Y-51777381D01*
X110624762Y-51777381D01*
X110148571Y-52777381D02*
X110243809Y-52729762D01*
X110291428Y-52634524D01*
X110291428Y-51777381D01*
X109339046Y-52777381D02*
X109339046Y-52253571D01*
X109386665Y-52158333D01*
X109481903Y-52110714D01*
X109672380Y-52110714D01*
X109767618Y-52158333D01*
X109339046Y-52729762D02*
X109434284Y-52777381D01*
X109672380Y-52777381D01*
X109767618Y-52729762D01*
X109815237Y-52634524D01*
X109815237Y-52539286D01*
X109767618Y-52444048D01*
X109672380Y-52396429D01*
X109434284Y-52396429D01*
X109339046Y-52348810D01*
X108862856Y-52777381D02*
X108862856Y-51777381D01*
X108767618Y-52396429D02*
X108481903Y-52777381D01*
X108481903Y-52110714D02*
X108862856Y-52491667D01*
X107672379Y-52729762D02*
X107767617Y-52777381D01*
X107958094Y-52777381D01*
X108053332Y-52729762D01*
X108100951Y-52634524D01*
X108100951Y-52253571D01*
X108053332Y-52158333D01*
X107958094Y-52110714D01*
X107767617Y-52110714D01*
X107672379Y-52158333D01*
X107624760Y-52253571D01*
X107624760Y-52348810D01*
X108100951Y-52444048D01*
X107243808Y-52729762D02*
X107148570Y-52777381D01*
X106958094Y-52777381D01*
X106862855Y-52729762D01*
X106815236Y-52634524D01*
X106815236Y-52586905D01*
X106862855Y-52491667D01*
X106958094Y-52444048D01*
X107100951Y-52444048D01*
X107196189Y-52396429D01*
X107243808Y-52301190D01*
X107243808Y-52253571D01*
X107196189Y-52158333D01*
X107100951Y-52110714D01*
X106958094Y-52110714D01*
X106862855Y-52158333D01*
D12*
X104375000Y-75400000D03*
D13*
X111995000Y-83020000D03*
X104375000Y-77940000D03*
X111995000Y-80480000D03*
X104375000Y-80480000D03*
X111995000Y-77940000D03*
X104375000Y-83020000D03*
X111995000Y-75400000D03*
D14*
X87230000Y-97625000D03*
D15*
X87230000Y-95085000D03*
X87230000Y-92545000D03*
D16*
X87210000Y-109055000D03*
X84710000Y-109055000D03*
D17*
X89770000Y-92565000D03*
X89770000Y-95065000D03*
D18*
X125250000Y-87465000D03*
X127950000Y-87465000D03*
D19*
X109455000Y-125565000D03*
D20*
X109455000Y-123025000D03*
X109455000Y-120485000D03*
X109455000Y-117945000D03*
X109455000Y-115405000D03*
X109455000Y-112865000D03*
X109455000Y-110325000D03*
X109455000Y-107785000D03*
X109455000Y-105245000D03*
X109455000Y-102705000D03*
X109455000Y-100165000D03*
X109455000Y-97625000D03*
X109455000Y-95085000D03*
X109455000Y-92545000D03*
X109455000Y-90005000D03*
X94215000Y-90005000D03*
X94215000Y-92545000D03*
X94215000Y-95085000D03*
X94215000Y-97625000D03*
X94215000Y-100165000D03*
X94215000Y-102705000D03*
X94215000Y-105245000D03*
X94215000Y-107785000D03*
X94215000Y-110325000D03*
X94215000Y-112865000D03*
X94215000Y-115405000D03*
X94215000Y-117945000D03*
X94215000Y-120485000D03*
X94215000Y-123025000D03*
X94215000Y-125565000D03*
D18*
X125250000Y-91275000D03*
X127950000Y-91275000D03*
X125250000Y-103340000D03*
X127950000Y-103340000D03*
X125250000Y-107150000D03*
X127950000Y-107150000D03*
X125250000Y-110960000D03*
X127950000Y-110960000D03*
X125250000Y-119215000D03*
X127950000Y-119215000D03*
D21*
X91675000Y-97545000D03*
X91675000Y-100245000D03*
D18*
X78260000Y-107150000D03*
X80960000Y-107150000D03*
D22*
X132950000Y-62065000D03*
D23*
X132950000Y-64605000D03*
X132950000Y-67145000D03*
X132950000Y-69685000D03*
X132950000Y-72225000D03*
X132950000Y-74765000D03*
X132950000Y-77305000D03*
X132950000Y-79845000D03*
X132950000Y-82385000D03*
D24*
X56750000Y-126200000D03*
D25*
X56750000Y-122237600D03*
D22*
X47860000Y-75400000D03*
D23*
X47860000Y-72860000D03*
X47860000Y-70320000D03*
X47860000Y-67780000D03*
X47860000Y-65240000D03*
X47860000Y-62700000D03*
X47860000Y-60160000D03*
X47860000Y-57620000D03*
X47860000Y-55080000D03*
D22*
X37700000Y-75400000D03*
D23*
X37700000Y-72860000D03*
X37700000Y-70320000D03*
X37700000Y-67780000D03*
X37700000Y-65240000D03*
X37700000Y-62700000D03*
X37700000Y-60160000D03*
X37700000Y-57620000D03*
X37700000Y-55080000D03*
D24*
X41510000Y-126200000D03*
D25*
X41510000Y-122237600D03*
X41510000Y-118275200D03*
D26*
X72380000Y-75660000D03*
X72380000Y-80220000D03*
D27*
X66080000Y-77940000D03*
D28*
X64405000Y-79465000D03*
X67755000Y-76415000D03*
X64405000Y-76415000D03*
X67755000Y-79465000D03*
D26*
X72380000Y-68040000D03*
X72380000Y-72600000D03*
D27*
X66080000Y-70320000D03*
D28*
X64405000Y-71845000D03*
X67755000Y-68795000D03*
X64405000Y-68795000D03*
X67755000Y-71845000D03*
D26*
X72380000Y-60420000D03*
X72380000Y-64980000D03*
D27*
X66080000Y-62700000D03*
D28*
X64405000Y-64225000D03*
X67755000Y-61175000D03*
X64405000Y-61175000D03*
X67755000Y-64225000D03*
D26*
X72380000Y-52800000D03*
X72380000Y-57360000D03*
D27*
X66080000Y-55080000D03*
D28*
X64405000Y-56605000D03*
X67755000Y-53555000D03*
X64405000Y-53555000D03*
X67755000Y-56605000D03*
D29*
X121520000Y-104770000D03*
X120250000Y-104770000D03*
X118980000Y-104770000D03*
X117710000Y-104770000D03*
X116440000Y-104770000D03*
X115170000Y-104770000D03*
X113900000Y-104770000D03*
X112630000Y-104770000D03*
X112630000Y-99370000D03*
X113900000Y-99370000D03*
X115170000Y-99370000D03*
X116440000Y-99370000D03*
X117710000Y-99370000D03*
X118980000Y-99370000D03*
X120250000Y-99370000D03*
X121520000Y-99370000D03*
X126600000Y-74290000D03*
X125330000Y-74290000D03*
X124060000Y-74290000D03*
X122790000Y-74290000D03*
X121520000Y-74290000D03*
X120250000Y-74290000D03*
X118980000Y-74290000D03*
X117710000Y-74290000D03*
X117710000Y-68890000D03*
X118980000Y-68890000D03*
X120250000Y-68890000D03*
X121520000Y-68890000D03*
X122790000Y-68890000D03*
X124060000Y-68890000D03*
X125330000Y-68890000D03*
X126600000Y-68890000D03*
D30*
X83260000Y-63335000D03*
X83260000Y-62065000D03*
X83260000Y-60795000D03*
X83260000Y-59525000D03*
X83260000Y-58255000D03*
X83260000Y-56985000D03*
X83260000Y-55715000D03*
X83260000Y-54445000D03*
X88660000Y-54445000D03*
X88660000Y-55715000D03*
X88660000Y-56985000D03*
X88660000Y-58255000D03*
X88660000Y-59525000D03*
X88660000Y-60795000D03*
X88660000Y-62065000D03*
X88660000Y-63335000D03*
D31*
X89770000Y-105880000D03*
D32*
X84770000Y-105880000D03*
D17*
X97390000Y-120465000D03*
X97390000Y-117965000D03*
D33*
X89135000Y-113500000D03*
D34*
X78975000Y-113500000D03*
D35*
X69370000Y-127470000D03*
X69370000Y-122390000D03*
X84690000Y-127470000D03*
X84690000Y-122390000D03*
D24*
X131045000Y-87465000D03*
D25*
X131045000Y-91427400D03*
X131045000Y-95389800D03*
X131045000Y-99352200D03*
X131045000Y-103314600D03*
X131045000Y-107277000D03*
X131045000Y-111239400D03*
X131045000Y-115201800D03*
X131045000Y-119164200D03*
D22*
X58020000Y-75400000D03*
D23*
X58020000Y-72860000D03*
X58020000Y-70320000D03*
X58020000Y-67780000D03*
X58020000Y-65240000D03*
X58020000Y-62700000D03*
X58020000Y-60160000D03*
X58020000Y-57620000D03*
X58020000Y-55080000D03*
D24*
X56750000Y-113500000D03*
D25*
X56750000Y-109537600D03*
X56750000Y-105575200D03*
X56750000Y-101612800D03*
X56750000Y-97650400D03*
X56750000Y-93688000D03*
X56750000Y-89725600D03*
X56750000Y-85763200D03*
X56750000Y-81800800D03*
D24*
X41510000Y-113500000D03*
D25*
X41510000Y-109537600D03*
X41510000Y-105575200D03*
X41510000Y-101612800D03*
X41510000Y-97650400D03*
X41510000Y-93688000D03*
X41510000Y-89725600D03*
X41510000Y-85763200D03*
X41510000Y-81800800D03*
D26*
X72380000Y-106140000D03*
X72380000Y-110700000D03*
D27*
X66080000Y-108420000D03*
D28*
X64405000Y-109945000D03*
X67755000Y-106895000D03*
X64405000Y-106895000D03*
X67755000Y-109945000D03*
D26*
X72380000Y-98520000D03*
X72380000Y-103080000D03*
D27*
X66080000Y-100800000D03*
D28*
X64405000Y-102325000D03*
X67755000Y-99275000D03*
X64405000Y-99275000D03*
X67755000Y-102325000D03*
D26*
X72380000Y-90900000D03*
X72380000Y-95460000D03*
D27*
X66080000Y-93180000D03*
D28*
X64405000Y-94705000D03*
X67755000Y-91655000D03*
X64405000Y-91655000D03*
X67755000Y-94705000D03*
D18*
X125250000Y-95085000D03*
X127950000Y-95085000D03*
X125250000Y-98895000D03*
X127950000Y-98895000D03*
X78260000Y-99530000D03*
X80960000Y-99530000D03*
X78260000Y-91910000D03*
X80960000Y-91910000D03*
D21*
X75800000Y-109770000D03*
X75800000Y-107070000D03*
X75800000Y-102150000D03*
X75800000Y-99450000D03*
X75800000Y-94530000D03*
X75800000Y-91830000D03*
D18*
X75720000Y-76670000D03*
X78420000Y-76670000D03*
X75720000Y-79210000D03*
X78420000Y-79210000D03*
X75720000Y-69050000D03*
X78420000Y-69050000D03*
X75720000Y-71590000D03*
X78420000Y-71590000D03*
X75720000Y-61430000D03*
X78420000Y-61430000D03*
X75720000Y-63970000D03*
X78420000Y-63970000D03*
X75720000Y-53810000D03*
X78420000Y-53810000D03*
X75720000Y-56350000D03*
X78420000Y-56350000D03*
X31430000Y-74765000D03*
X28730000Y-74765000D03*
X31430000Y-72860000D03*
X28730000Y-72860000D03*
X31430000Y-70955000D03*
X28730000Y-70955000D03*
X31430000Y-69050000D03*
X28730000Y-69050000D03*
X31430000Y-67145000D03*
X28730000Y-67145000D03*
X31430000Y-65240000D03*
X28730000Y-65240000D03*
X31430000Y-63335000D03*
X28730000Y-63335000D03*
X31430000Y-61430000D03*
X28730000Y-61430000D03*
D36*
X95485000Y-56730000D03*
X96755000Y-56730000D03*
X98025000Y-56730000D03*
X99295000Y-56730000D03*
X100565000Y-56730000D03*
X101835000Y-56730000D03*
X103105000Y-56730000D03*
X104375000Y-56730000D03*
X105645000Y-56730000D03*
X105645000Y-66130000D03*
X104375000Y-66130000D03*
X103105000Y-66130000D03*
X101835000Y-66130000D03*
X100565000Y-66130000D03*
X99295000Y-66130000D03*
X98025000Y-66130000D03*
X96755000Y-66130000D03*
X95485000Y-66130000D03*
D37*
X59290000Y-117310000D03*
X49130000Y-117310000D03*
X105645000Y-68415000D03*
D38*
X71990000Y-108420000D03*
X71990000Y-100800000D03*
X71990000Y-93180000D03*
X72625000Y-85560000D03*
X75800000Y-89370000D03*
X75800000Y-96990000D03*
X75800000Y-104610000D03*
X75800000Y-112230000D03*
D37*
X115805000Y-75400000D03*
X124695000Y-84925000D03*
X118980000Y-101435000D03*
D38*
X105645000Y-59525000D03*
X86595000Y-53810000D03*
X71990000Y-77940000D03*
X71990000Y-70320000D03*
X75165000Y-74130000D03*
X75165000Y-66510000D03*
X75165000Y-58890000D03*
X71990000Y-62700000D03*
X71990000Y-55080000D03*
D37*
X91675000Y-53175000D03*
X94850000Y-84925000D03*
X126600000Y-67145000D03*
X120250000Y-95085000D03*
D38*
X85960000Y-65875000D03*
X86595000Y-55715000D03*
D37*
X129140000Y-74765000D03*
X129140000Y-77305000D03*
X129140000Y-79845000D03*
X129140000Y-82385000D03*
X80245000Y-75400000D03*
D38*
X81515000Y-69050000D03*
D37*
X78740000Y-59690000D03*
X80010000Y-53340000D03*
X126600000Y-89370000D03*
X126600000Y-93180000D03*
X126600000Y-96990000D03*
X126600000Y-100800000D03*
X126600000Y-105245000D03*
X126600000Y-109055000D03*
X126600000Y-112865000D03*
X126600000Y-121120000D03*
X95485000Y-74765000D03*
X98660000Y-77940000D03*
X88500000Y-86830000D03*
X98025000Y-73495000D03*
X99295000Y-76035000D03*
X87865000Y-85560000D03*
X100565000Y-72225000D03*
X101835000Y-72860000D03*
X88500000Y-84290000D03*
X103105000Y-70955000D03*
X104375000Y-69685000D03*
X127870000Y-84290000D03*
X122790000Y-103340000D03*
X122790000Y-117945000D03*
X112630000Y-110325000D03*
X112630000Y-96990000D03*
X112630000Y-86830000D03*
X120250000Y-72225000D03*
X113900000Y-102705000D03*
X91675000Y-67145000D03*
X87230000Y-56985000D03*
X105645000Y-102705000D03*
X87230000Y-58255000D03*
X85325000Y-54445000D03*
X87230000Y-59525000D03*
X115170000Y-126200000D03*
X104375000Y-116040000D03*
X96755000Y-63970000D03*
X98025000Y-63335000D03*
X99295000Y-62700000D03*
X100565000Y-62065000D03*
X101835000Y-61430000D03*
X103105000Y-60795000D03*
X104375000Y-60160000D03*
X81915000Y-53340000D03*
D39*
X28730000Y-74765000D02*
X28730000Y-75955000D01*
X59290000Y-117310000D02*
X78975000Y-117310000D01*
X45955000Y-114135000D02*
X49130000Y-117310000D01*
X45955000Y-80480000D02*
X45955000Y-114135000D01*
X44050000Y-78575000D02*
X45955000Y-80480000D01*
X31350000Y-78575000D02*
X44050000Y-78575000D01*
X28730000Y-75955000D02*
X31350000Y-78575000D01*
X105645000Y-68415000D02*
X105645000Y-66130000D01*
D40*
X75800000Y-112230000D02*
X77705000Y-112230000D01*
X77705000Y-112230000D02*
X78975000Y-113500000D01*
X84690000Y-122390000D02*
X81515000Y-122390000D01*
X78975000Y-119850000D02*
X78975000Y-117310000D01*
X81515000Y-122390000D02*
X78975000Y-119850000D01*
X78975000Y-117310000D02*
X78975000Y-113500000D01*
X84690000Y-127470000D02*
X84690000Y-122390000D01*
X72380000Y-108810000D02*
X72380000Y-110700000D01*
X71990000Y-108420000D02*
X72380000Y-108810000D01*
X72380000Y-101190000D02*
X72380000Y-103080000D01*
X71990000Y-100800000D02*
X72380000Y-101190000D01*
X72380000Y-93570000D02*
X72380000Y-95460000D01*
X71990000Y-93180000D02*
X72380000Y-93570000D01*
X75800000Y-89370000D02*
X75800000Y-88735000D01*
X75800000Y-88735000D02*
X72625000Y-85560000D01*
X75800000Y-96990000D02*
X74530000Y-95720000D01*
X74530000Y-95720000D02*
X72640000Y-95720000D01*
X72640000Y-95720000D02*
X72380000Y-95460000D01*
X75800000Y-104610000D02*
X74530000Y-103340000D01*
X74530000Y-103340000D02*
X72640000Y-103340000D01*
X72640000Y-103340000D02*
X72380000Y-103080000D01*
X75800000Y-112230000D02*
X74530000Y-110960000D01*
X74530000Y-110960000D02*
X72640000Y-110960000D01*
X72640000Y-110960000D02*
X72380000Y-110700000D01*
D39*
X28730000Y-72860000D02*
X28730000Y-74765000D01*
X28730000Y-70955000D02*
X28730000Y-72860000D01*
X28730000Y-69050000D02*
X28730000Y-70955000D01*
X28730000Y-67145000D02*
X28730000Y-69050000D01*
X28730000Y-65240000D02*
X28730000Y-67145000D01*
X28730000Y-63335000D02*
X28730000Y-65240000D01*
X28730000Y-61430000D02*
X28730000Y-63335000D01*
X72380000Y-110700000D02*
X74870000Y-110700000D01*
X74870000Y-110700000D02*
X75800000Y-109770000D01*
X72380000Y-103080000D02*
X74870000Y-103080000D01*
X74870000Y-103080000D02*
X75800000Y-102150000D01*
X72380000Y-95460000D02*
X74870000Y-95460000D01*
X74870000Y-95460000D02*
X75800000Y-94530000D01*
X116915000Y-74290000D02*
X117710000Y-74290000D01*
X115805000Y-75400000D02*
X116915000Y-74290000D01*
D41*
X72380000Y-80220000D02*
X72380000Y-80725000D01*
X72380000Y-80725000D02*
X70085000Y-83020000D01*
X52305000Y-117792600D02*
X56750000Y-122237600D01*
X52305000Y-79845000D02*
X52305000Y-117792600D01*
X53575000Y-78575000D02*
X52305000Y-79845000D01*
X58655000Y-78575000D02*
X53575000Y-78575000D01*
X63100000Y-83020000D02*
X58655000Y-78575000D01*
X70085000Y-83020000D02*
X63100000Y-83020000D01*
D39*
X97390000Y-120465000D02*
X97390000Y-121755000D01*
X97390000Y-121755000D02*
X96120000Y-123025000D01*
X96120000Y-123025000D02*
X94215000Y-123025000D01*
X89770000Y-95065000D02*
X87250000Y-95065000D01*
X87250000Y-95065000D02*
X87230000Y-95085000D01*
X84710000Y-109055000D02*
X84710000Y-105940000D01*
X84710000Y-105940000D02*
X84770000Y-105880000D01*
X124695000Y-84925000D02*
X123425000Y-83655000D01*
X123425000Y-83655000D02*
X121520000Y-83655000D01*
X121520000Y-83655000D02*
X117710000Y-79845000D01*
X117710000Y-79845000D02*
X117710000Y-74290000D01*
X125330000Y-68890000D02*
X125330000Y-70320000D01*
X117710000Y-71590000D02*
X117710000Y-74290000D01*
X118345000Y-70955000D02*
X117710000Y-71590000D01*
X124695000Y-70955000D02*
X118345000Y-70955000D01*
X125330000Y-70320000D02*
X124695000Y-70955000D01*
X118980000Y-101435000D02*
X119615000Y-101435000D01*
X120250000Y-100800000D02*
X120250000Y-99370000D01*
X119615000Y-101435000D02*
X120250000Y-100800000D01*
X112630000Y-104770000D02*
X112630000Y-102070000D01*
X113265000Y-101435000D02*
X118980000Y-101435000D01*
X112630000Y-102070000D02*
X113265000Y-101435000D01*
D40*
X87230000Y-95085000D02*
X85960000Y-95085000D01*
X84770000Y-96275000D02*
X84770000Y-105880000D01*
X85960000Y-95085000D02*
X84770000Y-96275000D01*
D39*
X105645000Y-56730000D02*
X105645000Y-59525000D01*
X84530000Y-53175000D02*
X83260000Y-54445000D01*
X85960000Y-53175000D02*
X84530000Y-53175000D01*
X86595000Y-53810000D02*
X85960000Y-53175000D01*
X72380000Y-80220000D02*
X74710000Y-80220000D01*
X74710000Y-80220000D02*
X75720000Y-79210000D01*
X72380000Y-57360000D02*
X74710000Y-57360000D01*
X74710000Y-57360000D02*
X75720000Y-56350000D01*
X72380000Y-64980000D02*
X74710000Y-64980000D01*
X74710000Y-64980000D02*
X75720000Y-63970000D01*
X72380000Y-72600000D02*
X74710000Y-72600000D01*
X74710000Y-72600000D02*
X75720000Y-71590000D01*
D40*
X72380000Y-80220000D02*
X72380000Y-78330000D01*
X72380000Y-78330000D02*
X71990000Y-77940000D01*
X72380000Y-72600000D02*
X72380000Y-70710000D01*
X72380000Y-70710000D02*
X71990000Y-70320000D01*
X73635000Y-72600000D02*
X72380000Y-72600000D01*
X75165000Y-74130000D02*
X73635000Y-72600000D01*
X75165000Y-66510000D02*
X73635000Y-64980000D01*
X73635000Y-64980000D02*
X72380000Y-64980000D01*
X73635000Y-57360000D02*
X72380000Y-57360000D01*
X75165000Y-58890000D02*
X73635000Y-57360000D01*
X72380000Y-64980000D02*
X72380000Y-63090000D01*
X72380000Y-63090000D02*
X71990000Y-62700000D01*
X72380000Y-55470000D02*
X72380000Y-57360000D01*
X71990000Y-55080000D02*
X72380000Y-55470000D01*
D39*
X88660000Y-55715000D02*
X90405000Y-55715000D01*
X91675000Y-54445000D02*
X91675000Y-53175000D01*
X90405000Y-55715000D02*
X91675000Y-54445000D01*
X91675000Y-97545000D02*
X91675000Y-88100000D01*
X91675000Y-88100000D02*
X94850000Y-84925000D01*
X88660000Y-63335000D02*
X88660000Y-81040000D01*
X89770000Y-82150000D02*
X89770000Y-92565000D01*
X88660000Y-81040000D02*
X89770000Y-82150000D01*
X94215000Y-117945000D02*
X92945000Y-117945000D01*
X90485000Y-97545000D02*
X91675000Y-97545000D01*
X89770000Y-98260000D02*
X90485000Y-97545000D01*
X89770000Y-101435000D02*
X89770000Y-98260000D01*
X91675000Y-103340000D02*
X89770000Y-101435000D01*
X91675000Y-116675000D02*
X91675000Y-103340000D01*
X92945000Y-117945000D02*
X91675000Y-116675000D01*
X97390000Y-117965000D02*
X94235000Y-117965000D01*
X94235000Y-117965000D02*
X94215000Y-117945000D01*
X91675000Y-97545000D02*
X91675000Y-93180000D01*
X91060000Y-92565000D02*
X89770000Y-92565000D01*
X91675000Y-93180000D02*
X91060000Y-92565000D01*
X89770000Y-92565000D02*
X87250000Y-92565000D01*
X87250000Y-92565000D02*
X87230000Y-92545000D01*
X126600000Y-68890000D02*
X126600000Y-67145000D01*
X121520000Y-99370000D02*
X121520000Y-96355000D01*
X121520000Y-96355000D02*
X120250000Y-95085000D01*
X85960000Y-65875000D02*
X88500000Y-63335000D01*
X88500000Y-63335000D02*
X88660000Y-63335000D01*
X86595000Y-55715000D02*
X88660000Y-55715000D01*
D40*
X69370000Y-122390000D02*
X69370000Y-127470000D01*
X56750000Y-126200000D02*
X68100000Y-126200000D01*
X68100000Y-126200000D02*
X69370000Y-127470000D01*
D39*
X127950000Y-87465000D02*
X131045000Y-87465000D01*
X127950000Y-91275000D02*
X130892600Y-91275000D01*
X130892600Y-91275000D02*
X131045000Y-91427400D01*
X127950000Y-95085000D02*
X130740200Y-95085000D01*
X130740200Y-95085000D02*
X131045000Y-95389800D01*
X127950000Y-98895000D02*
X130587800Y-98895000D01*
X130587800Y-98895000D02*
X131045000Y-99352200D01*
X127950000Y-103340000D02*
X131019600Y-103340000D01*
X131019600Y-103340000D02*
X131045000Y-103314600D01*
X127950000Y-107150000D02*
X130918000Y-107150000D01*
X130918000Y-107150000D02*
X131045000Y-107277000D01*
X127950000Y-110960000D02*
X130765600Y-110960000D01*
X130765600Y-110960000D02*
X131045000Y-111239400D01*
X127950000Y-119215000D02*
X130994200Y-119215000D01*
X130994200Y-119215000D02*
X131045000Y-119164200D01*
X120250000Y-68890000D02*
X120250000Y-62065000D01*
X120250000Y-62065000D02*
X132950000Y-62065000D01*
X121520000Y-68890000D02*
X121520000Y-63335000D01*
X130410000Y-63335000D02*
X131680000Y-64605000D01*
X121520000Y-63335000D02*
X130410000Y-63335000D01*
X131680000Y-64605000D02*
X132950000Y-64605000D01*
X122790000Y-68890000D02*
X122790000Y-64605000D01*
X130410000Y-68415000D02*
X131680000Y-69685000D01*
X130410000Y-65240000D02*
X130410000Y-68415000D01*
X129775000Y-64605000D02*
X130410000Y-65240000D01*
X122790000Y-64605000D02*
X129775000Y-64605000D01*
X131680000Y-69685000D02*
X132950000Y-69685000D01*
X124060000Y-68890000D02*
X124060000Y-65875000D01*
X129140000Y-69050000D02*
X132315000Y-72225000D01*
X129140000Y-65875000D02*
X129140000Y-69050000D01*
X124060000Y-65875000D02*
X129140000Y-65875000D01*
X132315000Y-72225000D02*
X132950000Y-72225000D01*
X124060000Y-74290000D02*
X124060000Y-76035000D01*
X129140000Y-76035000D02*
X129140000Y-74765000D01*
X124060000Y-76035000D02*
X129140000Y-76035000D01*
X132315000Y-74765000D02*
X132950000Y-74765000D01*
X122790000Y-74290000D02*
X122790000Y-77305000D01*
X122790000Y-77305000D02*
X129140000Y-77305000D01*
X131680000Y-77305000D02*
X132950000Y-77305000D01*
X121520000Y-74290000D02*
X121520000Y-79210000D01*
X122155000Y-79845000D02*
X129140000Y-79845000D01*
X121520000Y-79210000D02*
X122155000Y-79845000D01*
X120250000Y-74290000D02*
X120250000Y-80480000D01*
X122155000Y-82385000D02*
X129140000Y-82385000D01*
X120250000Y-80480000D02*
X122155000Y-82385000D01*
D41*
X56750000Y-109537600D02*
X56902400Y-109690000D01*
X56902400Y-109690000D02*
X60560000Y-109690000D01*
X60560000Y-109690000D02*
X61830000Y-108420000D01*
X61830000Y-108420000D02*
X66080000Y-108420000D01*
X56750000Y-101612800D02*
X57562800Y-100800000D01*
X57562800Y-100800000D02*
X66080000Y-100800000D01*
X56750000Y-93688000D02*
X57258000Y-93180000D01*
X57258000Y-93180000D02*
X66080000Y-93180000D01*
X41510000Y-122237600D02*
X36582400Y-122237600D01*
X37344400Y-89725600D02*
X41510000Y-89725600D01*
X36430000Y-90640000D02*
X37344400Y-89725600D01*
X36430000Y-122085200D02*
X36430000Y-90640000D01*
X36582400Y-122237600D02*
X36430000Y-122085200D01*
D39*
X31430000Y-74765000D02*
X33890000Y-74765000D01*
X34525000Y-75400000D02*
X37700000Y-75400000D01*
X33890000Y-74765000D02*
X34525000Y-75400000D01*
X31430000Y-72860000D02*
X37700000Y-72860000D01*
D41*
X37700000Y-72860000D02*
X47860000Y-72860000D01*
X47860000Y-72860000D02*
X58020000Y-72860000D01*
X58020000Y-72860000D02*
X60560000Y-72860000D01*
X60560000Y-72860000D02*
X65640000Y-77940000D01*
X65640000Y-77940000D02*
X66080000Y-77940000D01*
D39*
X31430000Y-70955000D02*
X33255000Y-70955000D01*
X33255000Y-70955000D02*
X36430000Y-67780000D01*
X36430000Y-67780000D02*
X37700000Y-67780000D01*
X31430000Y-69050000D02*
X32620000Y-69050000D01*
X32620000Y-69050000D02*
X36430000Y-65240000D01*
X36430000Y-65240000D02*
X37700000Y-65240000D01*
D41*
X37700000Y-65240000D02*
X47860000Y-65240000D01*
X47860000Y-65240000D02*
X58020000Y-65240000D01*
X58020000Y-65240000D02*
X60560000Y-65240000D01*
X60560000Y-65240000D02*
X65640000Y-70320000D01*
X65640000Y-70320000D02*
X66080000Y-70320000D01*
D39*
X31430000Y-67145000D02*
X32620000Y-67145000D01*
X32620000Y-67145000D02*
X37065000Y-62700000D01*
X37065000Y-62700000D02*
X37700000Y-62700000D01*
X31430000Y-65240000D02*
X32620000Y-65240000D01*
X35160000Y-60160000D02*
X37700000Y-60160000D01*
X34525000Y-60795000D02*
X35160000Y-60160000D01*
X34525000Y-63335000D02*
X34525000Y-60795000D01*
X32620000Y-65240000D02*
X34525000Y-63335000D01*
D41*
X37700000Y-60160000D02*
X47860000Y-60160000D01*
X47860000Y-60160000D02*
X58020000Y-60160000D01*
X58020000Y-60160000D02*
X60560000Y-60160000D01*
X60560000Y-60160000D02*
X63100000Y-62700000D01*
X63100000Y-62700000D02*
X66080000Y-62700000D01*
D39*
X31430000Y-63335000D02*
X32620000Y-63335000D01*
X35795000Y-57620000D02*
X37700000Y-57620000D01*
X33255000Y-60160000D02*
X35795000Y-57620000D01*
X33255000Y-62700000D02*
X33255000Y-60160000D01*
X32620000Y-63335000D02*
X33255000Y-62700000D01*
D41*
X37700000Y-57620000D02*
X47860000Y-57620000D01*
X47860000Y-57620000D02*
X58020000Y-57620000D01*
X58020000Y-57620000D02*
X60560000Y-57620000D01*
X60560000Y-57620000D02*
X63100000Y-55080000D01*
X63100000Y-55080000D02*
X66080000Y-55080000D01*
D39*
X31430000Y-61430000D02*
X31430000Y-60080000D01*
X31430000Y-60080000D02*
X36430000Y-55080000D01*
X36430000Y-55080000D02*
X37700000Y-55080000D01*
X88660000Y-62065000D02*
X85960000Y-62065000D01*
X81515000Y-74130000D02*
X80245000Y-75400000D01*
X81515000Y-72860000D02*
X81515000Y-74130000D01*
X84690000Y-69685000D02*
X81515000Y-72860000D01*
X84690000Y-65240000D02*
X84690000Y-69685000D01*
X85325000Y-64605000D02*
X84690000Y-65240000D01*
X85325000Y-62700000D02*
X85325000Y-64605000D01*
X85960000Y-62065000D02*
X85325000Y-62700000D01*
X83260000Y-63335000D02*
X83260000Y-69210000D01*
X78420000Y-74685000D02*
X78420000Y-76670000D01*
X80245000Y-72860000D02*
X78420000Y-74685000D01*
X80245000Y-72225000D02*
X80245000Y-72860000D01*
X83260000Y-69210000D02*
X80245000Y-72225000D01*
X78420000Y-76670000D02*
X78420000Y-79210000D01*
X83260000Y-62065000D02*
X82150000Y-62065000D01*
X81515000Y-62700000D02*
X81515000Y-69050000D01*
X82150000Y-62065000D02*
X81515000Y-62700000D01*
X83260000Y-60795000D02*
X81515000Y-60795000D01*
X79610000Y-69050000D02*
X78420000Y-69050000D01*
X80245000Y-68415000D02*
X79610000Y-69050000D01*
X80245000Y-62065000D02*
X80245000Y-68415000D01*
X81515000Y-60795000D02*
X80245000Y-62065000D01*
X78420000Y-69050000D02*
X78420000Y-71590000D01*
X83260000Y-59525000D02*
X78905000Y-59525000D01*
X78905000Y-59525000D02*
X78740000Y-59690000D01*
X83260000Y-58255000D02*
X77635000Y-58255000D01*
X77470000Y-60480000D02*
X78420000Y-61430000D01*
X77470000Y-58420000D02*
X77470000Y-60480000D01*
X77635000Y-58255000D02*
X77470000Y-58420000D01*
X78420000Y-61430000D02*
X78420000Y-63970000D01*
X83260000Y-56985000D02*
X79055000Y-56985000D01*
X79055000Y-56985000D02*
X78420000Y-56350000D01*
X78420000Y-56350000D02*
X78420000Y-53810000D01*
X83260000Y-55715000D02*
X81750000Y-55715000D01*
X80010000Y-53975000D02*
X80010000Y-53340000D01*
X81750000Y-55715000D02*
X80010000Y-53975000D01*
X125250000Y-87465000D02*
X116440000Y-87465000D01*
X115170000Y-88735000D02*
X115170000Y-99370000D01*
X116440000Y-87465000D02*
X115170000Y-88735000D01*
X125250000Y-87465000D02*
X125250000Y-88020000D01*
X125250000Y-88020000D02*
X126600000Y-89370000D01*
X125250000Y-91275000D02*
X117075000Y-91275000D01*
X116440000Y-91910000D02*
X116440000Y-99370000D01*
X117075000Y-91275000D02*
X116440000Y-91910000D01*
X125250000Y-91275000D02*
X125250000Y-91830000D01*
X125250000Y-91830000D02*
X126600000Y-93180000D01*
X125250000Y-95085000D02*
X125250000Y-95005000D01*
X125250000Y-95005000D02*
X122790000Y-92545000D01*
X117710000Y-92545000D02*
X117710000Y-99370000D01*
X122790000Y-92545000D02*
X117710000Y-92545000D01*
X125250000Y-95085000D02*
X125250000Y-95640000D01*
X125250000Y-95640000D02*
X126600000Y-96990000D01*
X125250000Y-98895000D02*
X125250000Y-97545000D01*
X118980000Y-93815000D02*
X118980000Y-99370000D01*
X121520000Y-93815000D02*
X118980000Y-93815000D01*
X125250000Y-97545000D02*
X121520000Y-93815000D01*
X125250000Y-98895000D02*
X125250000Y-98815000D01*
X125250000Y-98895000D02*
X125250000Y-99450000D01*
X125250000Y-99450000D02*
X126600000Y-100800000D01*
X125250000Y-98895000D02*
X125250000Y-98975000D01*
X125250000Y-103340000D02*
X125250000Y-104055000D01*
X118980000Y-105880000D02*
X118980000Y-104770000D01*
X120250000Y-107150000D02*
X118980000Y-105880000D01*
X122155000Y-107150000D02*
X120250000Y-107150000D01*
X125250000Y-104055000D02*
X122155000Y-107150000D01*
X125250000Y-103340000D02*
X125250000Y-103895000D01*
X125250000Y-103895000D02*
X126600000Y-105245000D01*
X125250000Y-107150000D02*
X125250000Y-107865000D01*
X117710000Y-106515000D02*
X117710000Y-104770000D01*
X120250000Y-109055000D02*
X117710000Y-106515000D01*
X124060000Y-109055000D02*
X120250000Y-109055000D01*
X125250000Y-107865000D02*
X124060000Y-109055000D01*
X125250000Y-107150000D02*
X125250000Y-107705000D01*
X125250000Y-107705000D02*
X126600000Y-109055000D01*
X125250000Y-110960000D02*
X125250000Y-111515000D01*
X125250000Y-111515000D02*
X126600000Y-112865000D01*
X125250000Y-110960000D02*
X120250000Y-110960000D01*
X116440000Y-107150000D02*
X116440000Y-104770000D01*
X120250000Y-110960000D02*
X116440000Y-107150000D01*
X125250000Y-119215000D02*
X125250000Y-119770000D01*
X125250000Y-119770000D02*
X126600000Y-121120000D01*
X125250000Y-119215000D02*
X125250000Y-117865000D01*
X115170000Y-107785000D02*
X115170000Y-104770000D01*
X125250000Y-117865000D02*
X115170000Y-107785000D01*
X95485000Y-74765000D02*
X95485000Y-66130000D01*
X80960000Y-107150000D02*
X80960000Y-103260000D01*
X96755000Y-76035000D02*
X96755000Y-66130000D01*
X98660000Y-77940000D02*
X96755000Y-76035000D01*
X85960000Y-86830000D02*
X88500000Y-86830000D01*
X84055000Y-88735000D02*
X85960000Y-86830000D01*
X84055000Y-93815000D02*
X84055000Y-88735000D01*
X82785000Y-95085000D02*
X84055000Y-93815000D01*
X82785000Y-101435000D02*
X82785000Y-95085000D01*
X80960000Y-103260000D02*
X82785000Y-101435000D01*
X98025000Y-73495000D02*
X98025000Y-66130000D01*
X80960000Y-99530000D02*
X80960000Y-95005000D01*
X99295000Y-76035000D02*
X99295000Y-66130000D01*
X85325000Y-85560000D02*
X87865000Y-85560000D01*
X82785000Y-88100000D02*
X85325000Y-85560000D01*
X82785000Y-93180000D02*
X82785000Y-88100000D01*
X80960000Y-95005000D02*
X82785000Y-93180000D01*
X100565000Y-72225000D02*
X100565000Y-66130000D01*
X80960000Y-91910000D02*
X80960000Y-88020000D01*
X101835000Y-72860000D02*
X101835000Y-66130000D01*
X84690000Y-84290000D02*
X88500000Y-84290000D01*
X80960000Y-88020000D02*
X84690000Y-84290000D01*
X103105000Y-70955000D02*
X103105000Y-66130000D01*
X104375000Y-69685000D02*
X104375000Y-66130000D01*
X126600000Y-74290000D02*
X126600000Y-72860000D01*
X129140000Y-84290000D02*
X127870000Y-84290000D01*
X130410000Y-83020000D02*
X129140000Y-84290000D01*
X130410000Y-73495000D02*
X130410000Y-83020000D01*
X129140000Y-72225000D02*
X130410000Y-73495000D01*
X127235000Y-72225000D02*
X129140000Y-72225000D01*
X126600000Y-72860000D02*
X127235000Y-72225000D01*
X121520000Y-104770000D02*
X121520000Y-104610000D01*
X121520000Y-104610000D02*
X122790000Y-103340000D01*
X122790000Y-117945000D02*
X115170000Y-110325000D01*
X115170000Y-110325000D02*
X112630000Y-110325000D01*
X112630000Y-99370000D02*
X112630000Y-99530000D01*
X112630000Y-99530000D02*
X111360000Y-100800000D01*
X111360000Y-100800000D02*
X111360000Y-114770000D01*
X111360000Y-114770000D02*
X110725000Y-115405000D01*
X110725000Y-115405000D02*
X109455000Y-115405000D01*
X125330000Y-74290000D02*
X125330000Y-72860000D01*
X112630000Y-86830000D02*
X112630000Y-96990000D01*
X124695000Y-72225000D02*
X120250000Y-72225000D01*
X125330000Y-72860000D02*
X124695000Y-72225000D01*
X120250000Y-104770000D02*
X120250000Y-102705000D01*
X120250000Y-102705000D02*
X113900000Y-102705000D01*
X117710000Y-68890000D02*
X114695000Y-68890000D01*
X113900000Y-69685000D02*
X113900000Y-99370000D01*
X114695000Y-68890000D02*
X113900000Y-69685000D01*
X106915000Y-107785000D02*
X109455000Y-107785000D01*
X104375000Y-105245000D02*
X106915000Y-107785000D01*
X104375000Y-90005000D02*
X104375000Y-105245000D01*
X91675000Y-77305000D02*
X104375000Y-90005000D01*
X91675000Y-67145000D02*
X91675000Y-77305000D01*
X88660000Y-56985000D02*
X94215000Y-56985000D01*
X107550000Y-105245000D02*
X109455000Y-105245000D01*
X106915000Y-104610000D02*
X107550000Y-105245000D01*
X106915000Y-88735000D02*
X106915000Y-104610000D01*
X94215000Y-76035000D02*
X106915000Y-88735000D01*
X94215000Y-56985000D02*
X94215000Y-76035000D01*
X87230000Y-56985000D02*
X88660000Y-56985000D01*
X88660000Y-58255000D02*
X92945000Y-58255000D01*
X105645000Y-89370000D02*
X105645000Y-102705000D01*
X92945000Y-76670000D02*
X105645000Y-89370000D01*
X92945000Y-58255000D02*
X92945000Y-76670000D01*
X87230000Y-58255000D02*
X88660000Y-58255000D01*
X88660000Y-60795000D02*
X86595000Y-60795000D01*
X85325000Y-59525000D02*
X85325000Y-54445000D01*
X86595000Y-60795000D02*
X85325000Y-59525000D01*
X87210000Y-109055000D02*
X89135000Y-109055000D01*
X89135000Y-109055000D02*
X89135000Y-106515000D01*
X89135000Y-106515000D02*
X89770000Y-105880000D01*
D40*
X87230000Y-97625000D02*
X87230000Y-103340000D01*
X87230000Y-103340000D02*
X89770000Y-105880000D01*
X89135000Y-113500000D02*
X89135000Y-106515000D01*
X89135000Y-106515000D02*
X89770000Y-105880000D01*
D39*
X78260000Y-107150000D02*
X75880000Y-107150000D01*
X75880000Y-107150000D02*
X74870000Y-106140000D01*
X74870000Y-106140000D02*
X72380000Y-106140000D01*
X78260000Y-99530000D02*
X75880000Y-99530000D01*
X75880000Y-99530000D02*
X74870000Y-98520000D01*
X74870000Y-98520000D02*
X72380000Y-98520000D01*
X78260000Y-91910000D02*
X75880000Y-91910000D01*
X75880000Y-91910000D02*
X74870000Y-90900000D01*
X74870000Y-90900000D02*
X72380000Y-90900000D01*
X75720000Y-76670000D02*
X73390000Y-76670000D01*
X73390000Y-76670000D02*
X72380000Y-75660000D01*
X75720000Y-69050000D02*
X73390000Y-69050000D01*
X73390000Y-69050000D02*
X72380000Y-68040000D01*
X75720000Y-61430000D02*
X73390000Y-61430000D01*
X73390000Y-61430000D02*
X72380000Y-60420000D01*
X75720000Y-53810000D02*
X73390000Y-53810000D01*
X73390000Y-53810000D02*
X72380000Y-52800000D01*
X91675000Y-100245000D02*
X94135000Y-100245000D01*
X94135000Y-100245000D02*
X94215000Y-100165000D01*
X88660000Y-59525000D02*
X91675000Y-59525000D01*
X98660000Y-100165000D02*
X94215000Y-100165000D01*
X99295000Y-99530000D02*
X98660000Y-100165000D01*
X99295000Y-86830000D02*
X99295000Y-99530000D01*
X90405000Y-77940000D02*
X99295000Y-86830000D01*
X90405000Y-66510000D02*
X90405000Y-77940000D01*
X91040000Y-65875000D02*
X90405000Y-66510000D01*
X91675000Y-65875000D02*
X91040000Y-65875000D01*
X91675000Y-59525000D02*
X91675000Y-65875000D01*
X87230000Y-59525000D02*
X88660000Y-59525000D01*
X113265000Y-128105000D02*
X115170000Y-126200000D01*
X106280000Y-128105000D02*
X113265000Y-128105000D01*
X104375000Y-126200000D02*
X106280000Y-128105000D01*
X104375000Y-116040000D02*
X104375000Y-126200000D01*
X96755000Y-56730000D02*
X96755000Y-63970000D01*
X98025000Y-56730000D02*
X98025000Y-63335000D01*
X99295000Y-56730000D02*
X99295000Y-62700000D01*
X100565000Y-56730000D02*
X100565000Y-62065000D01*
X101835000Y-56730000D02*
X101835000Y-61430000D01*
X103105000Y-56730000D02*
X103105000Y-60795000D01*
X104375000Y-56730000D02*
X104375000Y-60160000D01*
X95485000Y-54845000D02*
X95485000Y-56730000D01*
X92710000Y-52070000D02*
X95485000Y-54845000D01*
X83185000Y-52070000D02*
X92710000Y-52070000D01*
X81915000Y-53340000D02*
X83185000Y-52070000D01*
M02*
