G04 #@! TF.GenerationSoftware,KiCad,Pcbnew,5.0.0*
G04 #@! TF.CreationDate,2018-10-07T17:19:00+02:00*
G04 #@! TF.ProjectId,afterglow_nano_smd,6166746572676C6F775F6E616E6F5F73,rev?*
G04 #@! TF.SameCoordinates,Original*
G04 #@! TF.FileFunction,Soldermask,Bot*
G04 #@! TF.FilePolarity,Negative*
%FSLAX46Y46*%
G04 Gerber Fmt 4.6, Leading zero omitted, Abs format (unit mm)*
G04 Created by KiCad (PCBNEW 5.0.0) date Sun Oct  7 17:19:00 2018*
%MOMM*%
%LPD*%
G01*
G04 APERTURE LIST*
%ADD10C,4.300000*%
%ADD11R,1.700000X1.700000*%
%ADD12R,1.600000X1.600000*%
%ADD13O,1.600000X1.600000*%
%ADD14R,4.000000X3.000000*%
%ADD15O,4.000000X3.000000*%
%ADD16R,3.200000X2.700000*%
%ADD17R,1.800000X1.800000*%
%ADD18O,1.800000X1.800000*%
%ADD19R,1.500000X1.250000*%
%ADD20R,1.250000X1.500000*%
%ADD21R,1.500000X1.300000*%
%ADD22R,1.300000X1.500000*%
%ADD23R,2.600000X2.000000*%
%ADD24O,2.600000X2.000000*%
%ADD25R,2.200000X1.200000*%
%ADD26R,6.400000X5.800000*%
%ADD27R,0.600000X1.500000*%
%ADD28R,1.500000X0.600000*%
%ADD29R,2.000000X2.000000*%
%ADD30C,2.000000*%
%ADD31R,2.800000X2.800000*%
%ADD32O,2.800000X2.800000*%
%ADD33C,2.350000*%
%ADD34R,0.600000X2.000000*%
G04 APERTURE END LIST*
D10*
G04 #@! TO.C,*
X29500000Y-55000000D03*
G04 #@! TD*
G04 #@! TO.C,*
X30000000Y-126000000D03*
G04 #@! TD*
G04 #@! TO.C,*
X134500000Y-126000000D03*
G04 #@! TD*
D11*
G04 #@! TO.C,18V*
X116000000Y-120500000D03*
G04 #@! TD*
G04 #@! TO.C,5V*
X116000000Y-116000000D03*
G04 #@! TD*
G04 #@! TO.C,GND*
X116000000Y-125000000D03*
G04 #@! TD*
D12*
G04 #@! TO.C,Arduino Nano*
X109500000Y-125500000D03*
D13*
X94260000Y-92480000D03*
X109500000Y-122960000D03*
X94260000Y-95020000D03*
X109500000Y-120420000D03*
X94260000Y-97560000D03*
X109500000Y-117880000D03*
X94260000Y-100100000D03*
X109500000Y-115340000D03*
X94260000Y-102640000D03*
X109500000Y-112800000D03*
X94260000Y-105180000D03*
X109500000Y-110260000D03*
X94260000Y-107720000D03*
X109500000Y-107720000D03*
X94260000Y-110260000D03*
X109500000Y-105180000D03*
X94260000Y-112800000D03*
X109500000Y-102640000D03*
X94260000Y-115340000D03*
X109500000Y-100100000D03*
X94260000Y-117880000D03*
X109500000Y-97560000D03*
X94260000Y-120420000D03*
X109500000Y-95020000D03*
X94260000Y-122960000D03*
X109500000Y-92480000D03*
X94260000Y-125500000D03*
X109500000Y-89940000D03*
X94260000Y-89940000D03*
G04 #@! TD*
D14*
G04 #@! TO.C,J7*
X41510000Y-113500000D03*
D15*
X41510000Y-109537600D03*
X41510000Y-105575200D03*
X41510000Y-101612800D03*
X41510000Y-97650400D03*
X41510000Y-93688000D03*
X41510000Y-89725600D03*
X41510000Y-85763200D03*
X41510000Y-81800800D03*
G04 #@! TD*
G04 #@! TO.C,J5*
X56750000Y-81800800D03*
X56750000Y-85763200D03*
X56750000Y-89725600D03*
X56750000Y-93688000D03*
X56750000Y-97650400D03*
X56750000Y-101612800D03*
X56750000Y-105575200D03*
X56750000Y-109537600D03*
D14*
X56750000Y-113500000D03*
G04 #@! TD*
G04 #@! TO.C,J1*
X131045000Y-87465000D03*
D15*
X131045000Y-91427400D03*
X131045000Y-95389800D03*
X131045000Y-99352200D03*
X131045000Y-103314600D03*
X131045000Y-107277000D03*
X131045000Y-111239400D03*
X131045000Y-115201800D03*
X131045000Y-119164200D03*
G04 #@! TD*
D16*
G04 #@! TO.C,R26*
X50500000Y-113450000D03*
X50500000Y-105550000D03*
G04 #@! TD*
D17*
G04 #@! TO.C,U3*
X87230000Y-97625000D03*
D18*
X87230000Y-95085000D03*
X87230000Y-92545000D03*
G04 #@! TD*
D19*
G04 #@! TO.C,C2*
X87210000Y-109055000D03*
X84710000Y-109055000D03*
G04 #@! TD*
D20*
G04 #@! TO.C,C3*
X89770000Y-92565000D03*
X89770000Y-95065000D03*
G04 #@! TD*
D21*
G04 #@! TO.C,R17*
X125250000Y-87465000D03*
X127950000Y-87465000D03*
G04 #@! TD*
G04 #@! TO.C,R18*
X125250000Y-91275000D03*
X127950000Y-91275000D03*
G04 #@! TD*
G04 #@! TO.C,R21*
X125250000Y-103340000D03*
X127950000Y-103340000D03*
G04 #@! TD*
G04 #@! TO.C,R22*
X125250000Y-107150000D03*
X127950000Y-107150000D03*
G04 #@! TD*
G04 #@! TO.C,R23*
X125250000Y-110960000D03*
X127950000Y-110960000D03*
G04 #@! TD*
G04 #@! TO.C,R24*
X125250000Y-119215000D03*
X127950000Y-119215000D03*
G04 #@! TD*
D22*
G04 #@! TO.C,R25*
X91675000Y-97545000D03*
X91675000Y-100245000D03*
G04 #@! TD*
D21*
G04 #@! TO.C,R27*
X29150000Y-113500000D03*
X31850000Y-113500000D03*
G04 #@! TD*
G04 #@! TO.C,R28*
X29150000Y-109500000D03*
X31850000Y-109500000D03*
G04 #@! TD*
D23*
G04 #@! TO.C,J2*
X132950000Y-62065000D03*
D24*
X132950000Y-64605000D03*
X132950000Y-67145000D03*
X132950000Y-69685000D03*
X132950000Y-72225000D03*
X132950000Y-74765000D03*
X132950000Y-77305000D03*
X132950000Y-79845000D03*
X132950000Y-82385000D03*
G04 #@! TD*
D14*
G04 #@! TO.C,+ 18V -*
X56750000Y-126200000D03*
D15*
X56750000Y-122237600D03*
G04 #@! TD*
D23*
G04 #@! TO.C,J6*
X47860000Y-75400000D03*
D24*
X47860000Y-72860000D03*
X47860000Y-70320000D03*
X47860000Y-67780000D03*
X47860000Y-65240000D03*
X47860000Y-62700000D03*
X47860000Y-60160000D03*
X47860000Y-57620000D03*
X47860000Y-55080000D03*
G04 #@! TD*
D23*
G04 #@! TO.C,J8*
X37700000Y-75400000D03*
D24*
X37700000Y-72860000D03*
X37700000Y-70320000D03*
X37700000Y-67780000D03*
X37700000Y-65240000D03*
X37700000Y-62700000D03*
X37700000Y-60160000D03*
X37700000Y-57620000D03*
X37700000Y-55080000D03*
G04 #@! TD*
D14*
G04 #@! TO.C,J9*
X41510000Y-126200000D03*
D15*
X41510000Y-122237600D03*
X41510000Y-118275200D03*
G04 #@! TD*
D25*
G04 #@! TO.C,Q10*
X72380000Y-75660000D03*
X72380000Y-80220000D03*
D26*
X66080000Y-77940000D03*
G04 #@! TD*
D25*
G04 #@! TO.C,Q12*
X72380000Y-68040000D03*
X72380000Y-72600000D03*
D26*
X66080000Y-70320000D03*
G04 #@! TD*
D25*
G04 #@! TO.C,Q14*
X72380000Y-60420000D03*
X72380000Y-64980000D03*
D26*
X66080000Y-62700000D03*
G04 #@! TD*
D25*
G04 #@! TO.C,Q15*
X72380000Y-52800000D03*
X72380000Y-57360000D03*
D26*
X66080000Y-55080000D03*
G04 #@! TD*
D27*
G04 #@! TO.C,U1*
X121520000Y-104770000D03*
X120250000Y-104770000D03*
X118980000Y-104770000D03*
X117710000Y-104770000D03*
X116440000Y-104770000D03*
X115170000Y-104770000D03*
X113900000Y-104770000D03*
X112630000Y-104770000D03*
X112630000Y-99370000D03*
X113900000Y-99370000D03*
X115170000Y-99370000D03*
X116440000Y-99370000D03*
X117710000Y-99370000D03*
X118980000Y-99370000D03*
X120250000Y-99370000D03*
X121520000Y-99370000D03*
G04 #@! TD*
G04 #@! TO.C,U2*
X126600000Y-74290000D03*
X125330000Y-74290000D03*
X124060000Y-74290000D03*
X122790000Y-74290000D03*
X121520000Y-74290000D03*
X120250000Y-74290000D03*
X118980000Y-74290000D03*
X117710000Y-74290000D03*
X117710000Y-68890000D03*
X118980000Y-68890000D03*
X120250000Y-68890000D03*
X121520000Y-68890000D03*
X122790000Y-68890000D03*
X124060000Y-68890000D03*
X125330000Y-68890000D03*
X126600000Y-68890000D03*
G04 #@! TD*
D28*
G04 #@! TO.C,U6*
X83260000Y-63335000D03*
X83260000Y-62065000D03*
X83260000Y-60795000D03*
X83260000Y-59525000D03*
X83260000Y-58255000D03*
X83260000Y-56985000D03*
X83260000Y-55715000D03*
X83260000Y-54445000D03*
X88660000Y-54445000D03*
X88660000Y-55715000D03*
X88660000Y-56985000D03*
X88660000Y-58255000D03*
X88660000Y-59525000D03*
X88660000Y-60795000D03*
X88660000Y-62065000D03*
X88660000Y-63335000D03*
G04 #@! TD*
D29*
G04 #@! TO.C,C1*
X89770000Y-105880000D03*
D30*
X84770000Y-105880000D03*
G04 #@! TD*
D20*
G04 #@! TO.C,C4*
X97390000Y-120465000D03*
X97390000Y-117965000D03*
G04 #@! TD*
D31*
G04 #@! TO.C,D1*
X89135000Y-113500000D03*
D32*
X78975000Y-113500000D03*
G04 #@! TD*
D33*
G04 #@! TO.C,F1*
X69370000Y-127470000D03*
X69370000Y-122390000D03*
X84690000Y-127470000D03*
X84690000Y-122390000D03*
G04 #@! TD*
D23*
G04 #@! TO.C,J4*
X58020000Y-75400000D03*
D24*
X58020000Y-72860000D03*
X58020000Y-70320000D03*
X58020000Y-67780000D03*
X58020000Y-65240000D03*
X58020000Y-62700000D03*
X58020000Y-60160000D03*
X58020000Y-57620000D03*
X58020000Y-55080000D03*
G04 #@! TD*
D25*
G04 #@! TO.C,Q2*
X72380000Y-106140000D03*
X72380000Y-110700000D03*
D26*
X66080000Y-108420000D03*
G04 #@! TD*
D25*
G04 #@! TO.C,Q4*
X72380000Y-98520000D03*
X72380000Y-103080000D03*
D26*
X66080000Y-100800000D03*
G04 #@! TD*
D25*
G04 #@! TO.C,Q6*
X72380000Y-90900000D03*
X72380000Y-95460000D03*
D26*
X66080000Y-93180000D03*
G04 #@! TD*
D21*
G04 #@! TO.C,R19*
X125250000Y-95085000D03*
X127950000Y-95085000D03*
G04 #@! TD*
G04 #@! TO.C,R20*
X125250000Y-98895000D03*
X127950000Y-98895000D03*
G04 #@! TD*
G04 #@! TO.C,R29*
X29150000Y-105600000D03*
X31850000Y-105600000D03*
G04 #@! TD*
G04 #@! TO.C,R30*
X29150000Y-101600000D03*
X31850000Y-101600000D03*
G04 #@! TD*
G04 #@! TO.C,R31*
X29150000Y-97600000D03*
X31850000Y-97600000D03*
G04 #@! TD*
G04 #@! TO.C,R32*
X29150000Y-93700000D03*
X31850000Y-93700000D03*
G04 #@! TD*
G04 #@! TO.C,R33*
X29150000Y-89700000D03*
X31850000Y-89700000D03*
G04 #@! TD*
G04 #@! TO.C,R34*
X29150000Y-82000000D03*
X31850000Y-82000000D03*
G04 #@! TD*
D22*
G04 #@! TO.C,R36*
X75800000Y-109770000D03*
X75800000Y-107070000D03*
G04 #@! TD*
G04 #@! TO.C,R38*
X75800000Y-102150000D03*
X75800000Y-99450000D03*
G04 #@! TD*
G04 #@! TO.C,R40*
X75800000Y-94530000D03*
X75800000Y-91830000D03*
G04 #@! TD*
D21*
G04 #@! TO.C,R45*
X75720000Y-76670000D03*
X78420000Y-76670000D03*
G04 #@! TD*
G04 #@! TO.C,R46*
X75720000Y-79210000D03*
X78420000Y-79210000D03*
G04 #@! TD*
G04 #@! TO.C,R49*
X75720000Y-69050000D03*
X78420000Y-69050000D03*
G04 #@! TD*
G04 #@! TO.C,R50*
X75720000Y-71590000D03*
X78420000Y-71590000D03*
G04 #@! TD*
G04 #@! TO.C,R53*
X75720000Y-61430000D03*
X78420000Y-61430000D03*
G04 #@! TD*
G04 #@! TO.C,R54*
X75720000Y-63970000D03*
X78420000Y-63970000D03*
G04 #@! TD*
G04 #@! TO.C,R55*
X75720000Y-53810000D03*
X78420000Y-53810000D03*
G04 #@! TD*
G04 #@! TO.C,R56*
X75720000Y-56350000D03*
X78420000Y-56350000D03*
G04 #@! TD*
G04 #@! TO.C,R59*
X31430000Y-74765000D03*
X28730000Y-74765000D03*
G04 #@! TD*
G04 #@! TO.C,R60*
X31430000Y-72860000D03*
X28730000Y-72860000D03*
G04 #@! TD*
G04 #@! TO.C,R61*
X31430000Y-70955000D03*
X28730000Y-70955000D03*
G04 #@! TD*
G04 #@! TO.C,R62*
X31430000Y-69050000D03*
X28730000Y-69050000D03*
G04 #@! TD*
G04 #@! TO.C,R63*
X31430000Y-67145000D03*
X28730000Y-67145000D03*
G04 #@! TD*
G04 #@! TO.C,R64*
X31430000Y-65240000D03*
X28730000Y-65240000D03*
G04 #@! TD*
G04 #@! TO.C,R65*
X31430000Y-63335000D03*
X28730000Y-63335000D03*
G04 #@! TD*
G04 #@! TO.C,R66*
X31430000Y-61430000D03*
X28730000Y-61430000D03*
G04 #@! TD*
D34*
G04 #@! TO.C,U7*
X95485000Y-56730000D03*
X96755000Y-56730000D03*
X98025000Y-56730000D03*
X99295000Y-56730000D03*
X100565000Y-56730000D03*
X101835000Y-56730000D03*
X103105000Y-56730000D03*
X104375000Y-56730000D03*
X105645000Y-56730000D03*
X105645000Y-66130000D03*
X104375000Y-66130000D03*
X103105000Y-66130000D03*
X101835000Y-66130000D03*
X100565000Y-66130000D03*
X99295000Y-66130000D03*
X98025000Y-66130000D03*
X96755000Y-66130000D03*
X95485000Y-66130000D03*
G04 #@! TD*
D10*
G04 #@! TO.C,*
X134000000Y-55000000D03*
G04 #@! TD*
D12*
G04 #@! TO.C,CFG*
X118000000Y-64000000D03*
D13*
X110380000Y-56380000D03*
X118000000Y-61460000D03*
X110380000Y-58920000D03*
X118000000Y-58920000D03*
X110380000Y-61460000D03*
X118000000Y-56380000D03*
X110380000Y-64000000D03*
G04 #@! TD*
M02*
