G04 #@! TF.GenerationSoftware,KiCad,Pcbnew,5.0.1*
G04 #@! TF.CreationDate,2018-10-27T09:57:50+02:00*
G04 #@! TF.ProjectId,afterglow_nano_smd,6166746572676C6F775F6E616E6F5F73,rev?*
G04 #@! TF.SameCoordinates,Original*
G04 #@! TF.FileFunction,Legend,Bot*
G04 #@! TF.FilePolarity,Positive*
%FSLAX46Y46*%
G04 Gerber Fmt 4.6, Leading zero omitted, Abs format (unit mm)*
G04 Created by KiCad (PCBNEW 5.0.1) date Sa 27 Okt 2018 09:57:50 CEST*
%MOMM*%
%LPD*%
G01*
G04 APERTURE LIST*
%ADD10C,0.120000*%
%ADD11C,0.150000*%
G04 APERTURE END LIST*
D10*
G04 #@! TO.C,R26*
X48680000Y-106900000D02*
X48680000Y-112100000D01*
X52320000Y-112100000D02*
X52320000Y-106900000D01*
G04 #@! TO.C,C2*
X85460000Y-108205000D02*
X86460000Y-108205000D01*
X86460000Y-109905000D02*
X85460000Y-109905000D01*
G04 #@! TO.C,C3*
X88920000Y-94315000D02*
X88920000Y-93315000D01*
X90620000Y-93315000D02*
X90620000Y-94315000D01*
G04 #@! TO.C,R17*
X127200000Y-86585000D02*
X126000000Y-86585000D01*
X126000000Y-88345000D02*
X127200000Y-88345000D01*
G04 #@! TO.C,R18*
X127200000Y-90395000D02*
X126000000Y-90395000D01*
X126000000Y-92155000D02*
X127200000Y-92155000D01*
G04 #@! TO.C,R21*
X127200000Y-102460000D02*
X126000000Y-102460000D01*
X126000000Y-104220000D02*
X127200000Y-104220000D01*
G04 #@! TO.C,R22*
X127200000Y-106270000D02*
X126000000Y-106270000D01*
X126000000Y-108030000D02*
X127200000Y-108030000D01*
G04 #@! TO.C,R23*
X127200000Y-110080000D02*
X126000000Y-110080000D01*
X126000000Y-111840000D02*
X127200000Y-111840000D01*
G04 #@! TO.C,R24*
X127200000Y-118335000D02*
X126000000Y-118335000D01*
X126000000Y-120095000D02*
X127200000Y-120095000D01*
G04 #@! TO.C,R25*
X92555000Y-99495000D02*
X92555000Y-98295000D01*
X90795000Y-98295000D02*
X90795000Y-99495000D01*
G04 #@! TO.C,R27*
X31100000Y-112620000D02*
X29900000Y-112620000D01*
X29900000Y-114380000D02*
X31100000Y-114380000D01*
G04 #@! TO.C,R28*
X31100000Y-108620000D02*
X29900000Y-108620000D01*
X29900000Y-110380000D02*
X31100000Y-110380000D01*
G04 #@! TO.C,Q10*
X69150000Y-74490000D02*
X70650000Y-74490000D01*
X70650000Y-74490000D02*
X70650000Y-74760000D01*
X70650000Y-74760000D02*
X73480000Y-74760000D01*
X69150000Y-81390000D02*
X70650000Y-81390000D01*
X70650000Y-81390000D02*
X70650000Y-81120000D01*
X70650000Y-81120000D02*
X71750000Y-81120000D01*
G04 #@! TO.C,Q12*
X69150000Y-66870000D02*
X70650000Y-66870000D01*
X70650000Y-66870000D02*
X70650000Y-67140000D01*
X70650000Y-67140000D02*
X73480000Y-67140000D01*
X69150000Y-73770000D02*
X70650000Y-73770000D01*
X70650000Y-73770000D02*
X70650000Y-73500000D01*
X70650000Y-73500000D02*
X71750000Y-73500000D01*
G04 #@! TO.C,Q14*
X69150000Y-59250000D02*
X70650000Y-59250000D01*
X70650000Y-59250000D02*
X70650000Y-59520000D01*
X70650000Y-59520000D02*
X73480000Y-59520000D01*
X69150000Y-66150000D02*
X70650000Y-66150000D01*
X70650000Y-66150000D02*
X70650000Y-65880000D01*
X70650000Y-65880000D02*
X71750000Y-65880000D01*
G04 #@! TO.C,Q15*
X69150000Y-51630000D02*
X70650000Y-51630000D01*
X70650000Y-51630000D02*
X70650000Y-51900000D01*
X70650000Y-51900000D02*
X73480000Y-51900000D01*
X69150000Y-58530000D02*
X70650000Y-58530000D01*
X70650000Y-58530000D02*
X70650000Y-58260000D01*
X70650000Y-58260000D02*
X71750000Y-58260000D01*
D11*
G04 #@! TO.C,U1*
X122150000Y-104145000D02*
X122125000Y-104145000D01*
X122150000Y-99995000D02*
X122045000Y-99995000D01*
X112000000Y-99995000D02*
X112105000Y-99995000D01*
X112000000Y-104145000D02*
X112105000Y-104145000D01*
X122150000Y-104145000D02*
X122150000Y-99995000D01*
X112000000Y-104145000D02*
X112000000Y-99995000D01*
X122125000Y-104145000D02*
X122125000Y-105520000D01*
G04 #@! TO.C,U2*
X127230000Y-73665000D02*
X127205000Y-73665000D01*
X127230000Y-69515000D02*
X127125000Y-69515000D01*
X117080000Y-69515000D02*
X117185000Y-69515000D01*
X117080000Y-73665000D02*
X117185000Y-73665000D01*
X127230000Y-73665000D02*
X127230000Y-69515000D01*
X117080000Y-73665000D02*
X117080000Y-69515000D01*
X127205000Y-73665000D02*
X127205000Y-75040000D01*
G04 #@! TO.C,U6*
X83885000Y-63965000D02*
X83885000Y-63940000D01*
X88035000Y-63965000D02*
X88035000Y-63860000D01*
X88035000Y-53815000D02*
X88035000Y-53920000D01*
X83885000Y-53815000D02*
X83885000Y-53920000D01*
X83885000Y-63965000D02*
X88035000Y-63965000D01*
X83885000Y-53815000D02*
X88035000Y-53815000D01*
X83885000Y-63940000D02*
X82510000Y-63940000D01*
D10*
G04 #@! TO.C,C4*
X98240000Y-118715000D02*
X98240000Y-119715000D01*
X96540000Y-119715000D02*
X96540000Y-118715000D01*
G04 #@! TO.C,Q2*
X69150000Y-104970000D02*
X70650000Y-104970000D01*
X70650000Y-104970000D02*
X70650000Y-105240000D01*
X70650000Y-105240000D02*
X73480000Y-105240000D01*
X69150000Y-111870000D02*
X70650000Y-111870000D01*
X70650000Y-111870000D02*
X70650000Y-111600000D01*
X70650000Y-111600000D02*
X71750000Y-111600000D01*
G04 #@! TO.C,Q4*
X69150000Y-97350000D02*
X70650000Y-97350000D01*
X70650000Y-97350000D02*
X70650000Y-97620000D01*
X70650000Y-97620000D02*
X73480000Y-97620000D01*
X69150000Y-104250000D02*
X70650000Y-104250000D01*
X70650000Y-104250000D02*
X70650000Y-103980000D01*
X70650000Y-103980000D02*
X71750000Y-103980000D01*
G04 #@! TO.C,Q6*
X69150000Y-89730000D02*
X70650000Y-89730000D01*
X70650000Y-89730000D02*
X70650000Y-90000000D01*
X70650000Y-90000000D02*
X73480000Y-90000000D01*
X69150000Y-96630000D02*
X70650000Y-96630000D01*
X70650000Y-96630000D02*
X70650000Y-96360000D01*
X70650000Y-96360000D02*
X71750000Y-96360000D01*
G04 #@! TO.C,R19*
X127200000Y-94205000D02*
X126000000Y-94205000D01*
X126000000Y-95965000D02*
X127200000Y-95965000D01*
G04 #@! TO.C,R20*
X127200000Y-98015000D02*
X126000000Y-98015000D01*
X126000000Y-99775000D02*
X127200000Y-99775000D01*
G04 #@! TO.C,R29*
X31100000Y-104720000D02*
X29900000Y-104720000D01*
X29900000Y-106480000D02*
X31100000Y-106480000D01*
G04 #@! TO.C,R30*
X31100000Y-100720000D02*
X29900000Y-100720000D01*
X29900000Y-102480000D02*
X31100000Y-102480000D01*
G04 #@! TO.C,R31*
X31100000Y-96720000D02*
X29900000Y-96720000D01*
X29900000Y-98480000D02*
X31100000Y-98480000D01*
G04 #@! TO.C,R32*
X31100000Y-92820000D02*
X29900000Y-92820000D01*
X29900000Y-94580000D02*
X31100000Y-94580000D01*
G04 #@! TO.C,R33*
X31100000Y-88820000D02*
X29900000Y-88820000D01*
X29900000Y-90580000D02*
X31100000Y-90580000D01*
G04 #@! TO.C,R34*
X31100000Y-81120000D02*
X29900000Y-81120000D01*
X29900000Y-82880000D02*
X31100000Y-82880000D01*
G04 #@! TO.C,R36*
X74920000Y-107820000D02*
X74920000Y-109020000D01*
X76680000Y-109020000D02*
X76680000Y-107820000D01*
G04 #@! TO.C,R38*
X74920000Y-100200000D02*
X74920000Y-101400000D01*
X76680000Y-101400000D02*
X76680000Y-100200000D01*
G04 #@! TO.C,R40*
X74920000Y-92580000D02*
X74920000Y-93780000D01*
X76680000Y-93780000D02*
X76680000Y-92580000D01*
G04 #@! TO.C,R45*
X77670000Y-75790000D02*
X76470000Y-75790000D01*
X76470000Y-77550000D02*
X77670000Y-77550000D01*
G04 #@! TO.C,R46*
X77670000Y-78330000D02*
X76470000Y-78330000D01*
X76470000Y-80090000D02*
X77670000Y-80090000D01*
G04 #@! TO.C,R49*
X77670000Y-68170000D02*
X76470000Y-68170000D01*
X76470000Y-69930000D02*
X77670000Y-69930000D01*
G04 #@! TO.C,R50*
X77670000Y-70710000D02*
X76470000Y-70710000D01*
X76470000Y-72470000D02*
X77670000Y-72470000D01*
G04 #@! TO.C,R53*
X77670000Y-60550000D02*
X76470000Y-60550000D01*
X76470000Y-62310000D02*
X77670000Y-62310000D01*
G04 #@! TO.C,R54*
X77670000Y-63090000D02*
X76470000Y-63090000D01*
X76470000Y-64850000D02*
X77670000Y-64850000D01*
G04 #@! TO.C,R55*
X77670000Y-52930000D02*
X76470000Y-52930000D01*
X76470000Y-54690000D02*
X77670000Y-54690000D01*
G04 #@! TO.C,R56*
X77670000Y-55470000D02*
X76470000Y-55470000D01*
X76470000Y-57230000D02*
X77670000Y-57230000D01*
G04 #@! TO.C,R59*
X29480000Y-75645000D02*
X30680000Y-75645000D01*
X30680000Y-73885000D02*
X29480000Y-73885000D01*
G04 #@! TO.C,R60*
X29480000Y-73740000D02*
X30680000Y-73740000D01*
X30680000Y-71980000D02*
X29480000Y-71980000D01*
G04 #@! TO.C,R61*
X29480000Y-71835000D02*
X30680000Y-71835000D01*
X30680000Y-70075000D02*
X29480000Y-70075000D01*
G04 #@! TO.C,R62*
X29480000Y-69930000D02*
X30680000Y-69930000D01*
X30680000Y-68170000D02*
X29480000Y-68170000D01*
G04 #@! TO.C,R63*
X29480000Y-68025000D02*
X30680000Y-68025000D01*
X30680000Y-66265000D02*
X29480000Y-66265000D01*
G04 #@! TO.C,R64*
X29480000Y-66120000D02*
X30680000Y-66120000D01*
X30680000Y-64360000D02*
X29480000Y-64360000D01*
G04 #@! TO.C,R65*
X29480000Y-64215000D02*
X30680000Y-64215000D01*
X30680000Y-62455000D02*
X29480000Y-62455000D01*
G04 #@! TO.C,R66*
X29480000Y-62310000D02*
X30680000Y-62310000D01*
X30680000Y-60550000D02*
X29480000Y-60550000D01*
D11*
G04 #@! TO.C,U7*
X94615000Y-57555000D02*
X94865000Y-57555000D01*
X94615000Y-65305000D02*
X94960000Y-65305000D01*
X106515000Y-65305000D02*
X106170000Y-65305000D01*
X106515000Y-57555000D02*
X106170000Y-57555000D01*
X94615000Y-57555000D02*
X94615000Y-65305000D01*
X106515000Y-57555000D02*
X106515000Y-65305000D01*
X94865000Y-57555000D02*
X94865000Y-55730000D01*
G04 #@! TO.C,R26*
X53552380Y-108857142D02*
X53076190Y-108523809D01*
X53552380Y-108285714D02*
X52552380Y-108285714D01*
X52552380Y-108666666D01*
X52600000Y-108761904D01*
X52647619Y-108809523D01*
X52742857Y-108857142D01*
X52885714Y-108857142D01*
X52980952Y-108809523D01*
X53028571Y-108761904D01*
X53076190Y-108666666D01*
X53076190Y-108285714D01*
X52647619Y-109238095D02*
X52600000Y-109285714D01*
X52552380Y-109380952D01*
X52552380Y-109619047D01*
X52600000Y-109714285D01*
X52647619Y-109761904D01*
X52742857Y-109809523D01*
X52838095Y-109809523D01*
X52980952Y-109761904D01*
X53552380Y-109190476D01*
X53552380Y-109809523D01*
X52552380Y-110666666D02*
X52552380Y-110476190D01*
X52600000Y-110380952D01*
X52647619Y-110333333D01*
X52790476Y-110238095D01*
X52980952Y-110190476D01*
X53361904Y-110190476D01*
X53457142Y-110238095D01*
X53504761Y-110285714D01*
X53552380Y-110380952D01*
X53552380Y-110571428D01*
X53504761Y-110666666D01*
X53457142Y-110714285D01*
X53361904Y-110761904D01*
X53123809Y-110761904D01*
X53028571Y-110714285D01*
X52980952Y-110666666D01*
X52933333Y-110571428D01*
X52933333Y-110380952D01*
X52980952Y-110285714D01*
X53028571Y-110238095D01*
X53123809Y-110190476D01*
G04 #@! TO.C,C2*
X86126666Y-107662142D02*
X86174285Y-107709761D01*
X86317142Y-107757380D01*
X86412380Y-107757380D01*
X86555238Y-107709761D01*
X86650476Y-107614523D01*
X86698095Y-107519285D01*
X86745714Y-107328809D01*
X86745714Y-107185952D01*
X86698095Y-106995476D01*
X86650476Y-106900238D01*
X86555238Y-106805000D01*
X86412380Y-106757380D01*
X86317142Y-106757380D01*
X86174285Y-106805000D01*
X86126666Y-106852619D01*
X85745714Y-106852619D02*
X85698095Y-106805000D01*
X85602857Y-106757380D01*
X85364761Y-106757380D01*
X85269523Y-106805000D01*
X85221904Y-106852619D01*
X85174285Y-106947857D01*
X85174285Y-107043095D01*
X85221904Y-107185952D01*
X85793333Y-107757380D01*
X85174285Y-107757380D01*
G04 #@! TO.C,C3*
X92127142Y-93648333D02*
X92174761Y-93600714D01*
X92222380Y-93457857D01*
X92222380Y-93362619D01*
X92174761Y-93219761D01*
X92079523Y-93124523D01*
X91984285Y-93076904D01*
X91793809Y-93029285D01*
X91650952Y-93029285D01*
X91460476Y-93076904D01*
X91365238Y-93124523D01*
X91270000Y-93219761D01*
X91222380Y-93362619D01*
X91222380Y-93457857D01*
X91270000Y-93600714D01*
X91317619Y-93648333D01*
X91222380Y-93981666D02*
X91222380Y-94600714D01*
X91603333Y-94267380D01*
X91603333Y-94410238D01*
X91650952Y-94505476D01*
X91698571Y-94553095D01*
X91793809Y-94600714D01*
X92031904Y-94600714D01*
X92127142Y-94553095D01*
X92174761Y-94505476D01*
X92222380Y-94410238D01*
X92222380Y-94124523D01*
X92174761Y-94029285D01*
X92127142Y-93981666D01*
G04 #@! TO.C,R17*
X127242857Y-89617380D02*
X127576190Y-89141190D01*
X127814285Y-89617380D02*
X127814285Y-88617380D01*
X127433333Y-88617380D01*
X127338095Y-88665000D01*
X127290476Y-88712619D01*
X127242857Y-88807857D01*
X127242857Y-88950714D01*
X127290476Y-89045952D01*
X127338095Y-89093571D01*
X127433333Y-89141190D01*
X127814285Y-89141190D01*
X126290476Y-89617380D02*
X126861904Y-89617380D01*
X126576190Y-89617380D02*
X126576190Y-88617380D01*
X126671428Y-88760238D01*
X126766666Y-88855476D01*
X126861904Y-88903095D01*
X125957142Y-88617380D02*
X125290476Y-88617380D01*
X125719047Y-89617380D01*
G04 #@! TO.C,R18*
X127242857Y-93427380D02*
X127576190Y-92951190D01*
X127814285Y-93427380D02*
X127814285Y-92427380D01*
X127433333Y-92427380D01*
X127338095Y-92475000D01*
X127290476Y-92522619D01*
X127242857Y-92617857D01*
X127242857Y-92760714D01*
X127290476Y-92855952D01*
X127338095Y-92903571D01*
X127433333Y-92951190D01*
X127814285Y-92951190D01*
X126290476Y-93427380D02*
X126861904Y-93427380D01*
X126576190Y-93427380D02*
X126576190Y-92427380D01*
X126671428Y-92570238D01*
X126766666Y-92665476D01*
X126861904Y-92713095D01*
X125719047Y-92855952D02*
X125814285Y-92808333D01*
X125861904Y-92760714D01*
X125909523Y-92665476D01*
X125909523Y-92617857D01*
X125861904Y-92522619D01*
X125814285Y-92475000D01*
X125719047Y-92427380D01*
X125528571Y-92427380D01*
X125433333Y-92475000D01*
X125385714Y-92522619D01*
X125338095Y-92617857D01*
X125338095Y-92665476D01*
X125385714Y-92760714D01*
X125433333Y-92808333D01*
X125528571Y-92855952D01*
X125719047Y-92855952D01*
X125814285Y-92903571D01*
X125861904Y-92951190D01*
X125909523Y-93046428D01*
X125909523Y-93236904D01*
X125861904Y-93332142D01*
X125814285Y-93379761D01*
X125719047Y-93427380D01*
X125528571Y-93427380D01*
X125433333Y-93379761D01*
X125385714Y-93332142D01*
X125338095Y-93236904D01*
X125338095Y-93046428D01*
X125385714Y-92951190D01*
X125433333Y-92903571D01*
X125528571Y-92855952D01*
G04 #@! TO.C,R21*
X127242857Y-105492380D02*
X127576190Y-105016190D01*
X127814285Y-105492380D02*
X127814285Y-104492380D01*
X127433333Y-104492380D01*
X127338095Y-104540000D01*
X127290476Y-104587619D01*
X127242857Y-104682857D01*
X127242857Y-104825714D01*
X127290476Y-104920952D01*
X127338095Y-104968571D01*
X127433333Y-105016190D01*
X127814285Y-105016190D01*
X126861904Y-104587619D02*
X126814285Y-104540000D01*
X126719047Y-104492380D01*
X126480952Y-104492380D01*
X126385714Y-104540000D01*
X126338095Y-104587619D01*
X126290476Y-104682857D01*
X126290476Y-104778095D01*
X126338095Y-104920952D01*
X126909523Y-105492380D01*
X126290476Y-105492380D01*
X125338095Y-105492380D02*
X125909523Y-105492380D01*
X125623809Y-105492380D02*
X125623809Y-104492380D01*
X125719047Y-104635238D01*
X125814285Y-104730476D01*
X125909523Y-104778095D01*
G04 #@! TO.C,R22*
X127242857Y-109302380D02*
X127576190Y-108826190D01*
X127814285Y-109302380D02*
X127814285Y-108302380D01*
X127433333Y-108302380D01*
X127338095Y-108350000D01*
X127290476Y-108397619D01*
X127242857Y-108492857D01*
X127242857Y-108635714D01*
X127290476Y-108730952D01*
X127338095Y-108778571D01*
X127433333Y-108826190D01*
X127814285Y-108826190D01*
X126861904Y-108397619D02*
X126814285Y-108350000D01*
X126719047Y-108302380D01*
X126480952Y-108302380D01*
X126385714Y-108350000D01*
X126338095Y-108397619D01*
X126290476Y-108492857D01*
X126290476Y-108588095D01*
X126338095Y-108730952D01*
X126909523Y-109302380D01*
X126290476Y-109302380D01*
X125909523Y-108397619D02*
X125861904Y-108350000D01*
X125766666Y-108302380D01*
X125528571Y-108302380D01*
X125433333Y-108350000D01*
X125385714Y-108397619D01*
X125338095Y-108492857D01*
X125338095Y-108588095D01*
X125385714Y-108730952D01*
X125957142Y-109302380D01*
X125338095Y-109302380D01*
G04 #@! TO.C,R23*
X127242857Y-113112380D02*
X127576190Y-112636190D01*
X127814285Y-113112380D02*
X127814285Y-112112380D01*
X127433333Y-112112380D01*
X127338095Y-112160000D01*
X127290476Y-112207619D01*
X127242857Y-112302857D01*
X127242857Y-112445714D01*
X127290476Y-112540952D01*
X127338095Y-112588571D01*
X127433333Y-112636190D01*
X127814285Y-112636190D01*
X126861904Y-112207619D02*
X126814285Y-112160000D01*
X126719047Y-112112380D01*
X126480952Y-112112380D01*
X126385714Y-112160000D01*
X126338095Y-112207619D01*
X126290476Y-112302857D01*
X126290476Y-112398095D01*
X126338095Y-112540952D01*
X126909523Y-113112380D01*
X126290476Y-113112380D01*
X125957142Y-112112380D02*
X125338095Y-112112380D01*
X125671428Y-112493333D01*
X125528571Y-112493333D01*
X125433333Y-112540952D01*
X125385714Y-112588571D01*
X125338095Y-112683809D01*
X125338095Y-112921904D01*
X125385714Y-113017142D01*
X125433333Y-113064761D01*
X125528571Y-113112380D01*
X125814285Y-113112380D01*
X125909523Y-113064761D01*
X125957142Y-113017142D01*
G04 #@! TO.C,R24*
X127242857Y-121367380D02*
X127576190Y-120891190D01*
X127814285Y-121367380D02*
X127814285Y-120367380D01*
X127433333Y-120367380D01*
X127338095Y-120415000D01*
X127290476Y-120462619D01*
X127242857Y-120557857D01*
X127242857Y-120700714D01*
X127290476Y-120795952D01*
X127338095Y-120843571D01*
X127433333Y-120891190D01*
X127814285Y-120891190D01*
X126861904Y-120462619D02*
X126814285Y-120415000D01*
X126719047Y-120367380D01*
X126480952Y-120367380D01*
X126385714Y-120415000D01*
X126338095Y-120462619D01*
X126290476Y-120557857D01*
X126290476Y-120653095D01*
X126338095Y-120795952D01*
X126909523Y-121367380D01*
X126290476Y-121367380D01*
X125433333Y-120700714D02*
X125433333Y-121367380D01*
X125671428Y-120319761D02*
X125909523Y-121034047D01*
X125290476Y-121034047D01*
G04 #@! TO.C,R25*
X90427380Y-98252142D02*
X89951190Y-97918809D01*
X90427380Y-97680714D02*
X89427380Y-97680714D01*
X89427380Y-98061666D01*
X89475000Y-98156904D01*
X89522619Y-98204523D01*
X89617857Y-98252142D01*
X89760714Y-98252142D01*
X89855952Y-98204523D01*
X89903571Y-98156904D01*
X89951190Y-98061666D01*
X89951190Y-97680714D01*
X89522619Y-98633095D02*
X89475000Y-98680714D01*
X89427380Y-98775952D01*
X89427380Y-99014047D01*
X89475000Y-99109285D01*
X89522619Y-99156904D01*
X89617857Y-99204523D01*
X89713095Y-99204523D01*
X89855952Y-99156904D01*
X90427380Y-98585476D01*
X90427380Y-99204523D01*
X89427380Y-100109285D02*
X89427380Y-99633095D01*
X89903571Y-99585476D01*
X89855952Y-99633095D01*
X89808333Y-99728333D01*
X89808333Y-99966428D01*
X89855952Y-100061666D01*
X89903571Y-100109285D01*
X89998809Y-100156904D01*
X90236904Y-100156904D01*
X90332142Y-100109285D01*
X90379761Y-100061666D01*
X90427380Y-99966428D01*
X90427380Y-99728333D01*
X90379761Y-99633095D01*
X90332142Y-99585476D01*
G04 #@! TO.C,R27*
X31142857Y-115652380D02*
X31476190Y-115176190D01*
X31714285Y-115652380D02*
X31714285Y-114652380D01*
X31333333Y-114652380D01*
X31238095Y-114700000D01*
X31190476Y-114747619D01*
X31142857Y-114842857D01*
X31142857Y-114985714D01*
X31190476Y-115080952D01*
X31238095Y-115128571D01*
X31333333Y-115176190D01*
X31714285Y-115176190D01*
X30761904Y-114747619D02*
X30714285Y-114700000D01*
X30619047Y-114652380D01*
X30380952Y-114652380D01*
X30285714Y-114700000D01*
X30238095Y-114747619D01*
X30190476Y-114842857D01*
X30190476Y-114938095D01*
X30238095Y-115080952D01*
X30809523Y-115652380D01*
X30190476Y-115652380D01*
X29857142Y-114652380D02*
X29190476Y-114652380D01*
X29619047Y-115652380D01*
G04 #@! TO.C,R28*
X31142857Y-111652380D02*
X31476190Y-111176190D01*
X31714285Y-111652380D02*
X31714285Y-110652380D01*
X31333333Y-110652380D01*
X31238095Y-110700000D01*
X31190476Y-110747619D01*
X31142857Y-110842857D01*
X31142857Y-110985714D01*
X31190476Y-111080952D01*
X31238095Y-111128571D01*
X31333333Y-111176190D01*
X31714285Y-111176190D01*
X30761904Y-110747619D02*
X30714285Y-110700000D01*
X30619047Y-110652380D01*
X30380952Y-110652380D01*
X30285714Y-110700000D01*
X30238095Y-110747619D01*
X30190476Y-110842857D01*
X30190476Y-110938095D01*
X30238095Y-111080952D01*
X30809523Y-111652380D01*
X30190476Y-111652380D01*
X29619047Y-111080952D02*
X29714285Y-111033333D01*
X29761904Y-110985714D01*
X29809523Y-110890476D01*
X29809523Y-110842857D01*
X29761904Y-110747619D01*
X29714285Y-110700000D01*
X29619047Y-110652380D01*
X29428571Y-110652380D01*
X29333333Y-110700000D01*
X29285714Y-110747619D01*
X29238095Y-110842857D01*
X29238095Y-110890476D01*
X29285714Y-110985714D01*
X29333333Y-111033333D01*
X29428571Y-111080952D01*
X29619047Y-111080952D01*
X29714285Y-111128571D01*
X29761904Y-111176190D01*
X29809523Y-111271428D01*
X29809523Y-111461904D01*
X29761904Y-111557142D01*
X29714285Y-111604761D01*
X29619047Y-111652380D01*
X29428571Y-111652380D01*
X29333333Y-111604761D01*
X29285714Y-111557142D01*
X29238095Y-111461904D01*
X29238095Y-111271428D01*
X29285714Y-111176190D01*
X29333333Y-111128571D01*
X29428571Y-111080952D01*
G04 #@! TO.C,Q10*
X62071428Y-75047619D02*
X62166666Y-75000000D01*
X62261904Y-74904761D01*
X62404761Y-74761904D01*
X62500000Y-74714285D01*
X62595238Y-74714285D01*
X62547619Y-74952380D02*
X62642857Y-74904761D01*
X62738095Y-74809523D01*
X62785714Y-74619047D01*
X62785714Y-74285714D01*
X62738095Y-74095238D01*
X62642857Y-74000000D01*
X62547619Y-73952380D01*
X62357142Y-73952380D01*
X62261904Y-74000000D01*
X62166666Y-74095238D01*
X62119047Y-74285714D01*
X62119047Y-74619047D01*
X62166666Y-74809523D01*
X62261904Y-74904761D01*
X62357142Y-74952380D01*
X62547619Y-74952380D01*
X61166666Y-74952380D02*
X61738095Y-74952380D01*
X61452380Y-74952380D02*
X61452380Y-73952380D01*
X61547619Y-74095238D01*
X61642857Y-74190476D01*
X61738095Y-74238095D01*
X60547619Y-73952380D02*
X60452380Y-73952380D01*
X60357142Y-74000000D01*
X60309523Y-74047619D01*
X60261904Y-74142857D01*
X60214285Y-74333333D01*
X60214285Y-74571428D01*
X60261904Y-74761904D01*
X60309523Y-74857142D01*
X60357142Y-74904761D01*
X60452380Y-74952380D01*
X60547619Y-74952380D01*
X60642857Y-74904761D01*
X60690476Y-74857142D01*
X60738095Y-74761904D01*
X60785714Y-74571428D01*
X60785714Y-74333333D01*
X60738095Y-74142857D01*
X60690476Y-74047619D01*
X60642857Y-74000000D01*
X60547619Y-73952380D01*
G04 #@! TO.C,Q12*
X62071428Y-67547619D02*
X62166666Y-67500000D01*
X62261904Y-67404761D01*
X62404761Y-67261904D01*
X62500000Y-67214285D01*
X62595238Y-67214285D01*
X62547619Y-67452380D02*
X62642857Y-67404761D01*
X62738095Y-67309523D01*
X62785714Y-67119047D01*
X62785714Y-66785714D01*
X62738095Y-66595238D01*
X62642857Y-66500000D01*
X62547619Y-66452380D01*
X62357142Y-66452380D01*
X62261904Y-66500000D01*
X62166666Y-66595238D01*
X62119047Y-66785714D01*
X62119047Y-67119047D01*
X62166666Y-67309523D01*
X62261904Y-67404761D01*
X62357142Y-67452380D01*
X62547619Y-67452380D01*
X61166666Y-67452380D02*
X61738095Y-67452380D01*
X61452380Y-67452380D02*
X61452380Y-66452380D01*
X61547619Y-66595238D01*
X61642857Y-66690476D01*
X61738095Y-66738095D01*
X60785714Y-66547619D02*
X60738095Y-66500000D01*
X60642857Y-66452380D01*
X60404761Y-66452380D01*
X60309523Y-66500000D01*
X60261904Y-66547619D01*
X60214285Y-66642857D01*
X60214285Y-66738095D01*
X60261904Y-66880952D01*
X60833333Y-67452380D01*
X60214285Y-67452380D01*
G04 #@! TO.C,Q14*
X62071428Y-59547619D02*
X62166666Y-59500000D01*
X62261904Y-59404761D01*
X62404761Y-59261904D01*
X62500000Y-59214285D01*
X62595238Y-59214285D01*
X62547619Y-59452380D02*
X62642857Y-59404761D01*
X62738095Y-59309523D01*
X62785714Y-59119047D01*
X62785714Y-58785714D01*
X62738095Y-58595238D01*
X62642857Y-58500000D01*
X62547619Y-58452380D01*
X62357142Y-58452380D01*
X62261904Y-58500000D01*
X62166666Y-58595238D01*
X62119047Y-58785714D01*
X62119047Y-59119047D01*
X62166666Y-59309523D01*
X62261904Y-59404761D01*
X62357142Y-59452380D01*
X62547619Y-59452380D01*
X61166666Y-59452380D02*
X61738095Y-59452380D01*
X61452380Y-59452380D02*
X61452380Y-58452380D01*
X61547619Y-58595238D01*
X61642857Y-58690476D01*
X61738095Y-58738095D01*
X60309523Y-58785714D02*
X60309523Y-59452380D01*
X60547619Y-58404761D02*
X60785714Y-59119047D01*
X60166666Y-59119047D01*
G04 #@! TO.C,Q15*
X61571428Y-52547619D02*
X61666666Y-52500000D01*
X61761904Y-52404761D01*
X61904761Y-52261904D01*
X62000000Y-52214285D01*
X62095238Y-52214285D01*
X62047619Y-52452380D02*
X62142857Y-52404761D01*
X62238095Y-52309523D01*
X62285714Y-52119047D01*
X62285714Y-51785714D01*
X62238095Y-51595238D01*
X62142857Y-51500000D01*
X62047619Y-51452380D01*
X61857142Y-51452380D01*
X61761904Y-51500000D01*
X61666666Y-51595238D01*
X61619047Y-51785714D01*
X61619047Y-52119047D01*
X61666666Y-52309523D01*
X61761904Y-52404761D01*
X61857142Y-52452380D01*
X62047619Y-52452380D01*
X60666666Y-52452380D02*
X61238095Y-52452380D01*
X60952380Y-52452380D02*
X60952380Y-51452380D01*
X61047619Y-51595238D01*
X61142857Y-51690476D01*
X61238095Y-51738095D01*
X59761904Y-51452380D02*
X60238095Y-51452380D01*
X60285714Y-51928571D01*
X60238095Y-51880952D01*
X60142857Y-51833333D01*
X59904761Y-51833333D01*
X59809523Y-51880952D01*
X59761904Y-51928571D01*
X59714285Y-52023809D01*
X59714285Y-52261904D01*
X59761904Y-52357142D01*
X59809523Y-52404761D01*
X59904761Y-52452380D01*
X60142857Y-52452380D01*
X60238095Y-52404761D01*
X60285714Y-52357142D01*
G04 #@! TO.C,U1*
X122527380Y-101308095D02*
X123336904Y-101308095D01*
X123432142Y-101355714D01*
X123479761Y-101403333D01*
X123527380Y-101498571D01*
X123527380Y-101689047D01*
X123479761Y-101784285D01*
X123432142Y-101831904D01*
X123336904Y-101879523D01*
X122527380Y-101879523D01*
X123527380Y-102879523D02*
X123527380Y-102308095D01*
X123527380Y-102593809D02*
X122527380Y-102593809D01*
X122670238Y-102498571D01*
X122765476Y-102403333D01*
X122813095Y-102308095D01*
G04 #@! TO.C,U2*
X127607380Y-70828095D02*
X128416904Y-70828095D01*
X128512142Y-70875714D01*
X128559761Y-70923333D01*
X128607380Y-71018571D01*
X128607380Y-71209047D01*
X128559761Y-71304285D01*
X128512142Y-71351904D01*
X128416904Y-71399523D01*
X127607380Y-71399523D01*
X127702619Y-71828095D02*
X127655000Y-71875714D01*
X127607380Y-71970952D01*
X127607380Y-72209047D01*
X127655000Y-72304285D01*
X127702619Y-72351904D01*
X127797857Y-72399523D01*
X127893095Y-72399523D01*
X128035952Y-72351904D01*
X128607380Y-71780476D01*
X128607380Y-72399523D01*
G04 #@! TO.C,U6*
X86721904Y-64342380D02*
X86721904Y-65151904D01*
X86674285Y-65247142D01*
X86626666Y-65294761D01*
X86531428Y-65342380D01*
X86340952Y-65342380D01*
X86245714Y-65294761D01*
X86198095Y-65247142D01*
X86150476Y-65151904D01*
X86150476Y-64342380D01*
X85245714Y-64342380D02*
X85436190Y-64342380D01*
X85531428Y-64390000D01*
X85579047Y-64437619D01*
X85674285Y-64580476D01*
X85721904Y-64770952D01*
X85721904Y-65151904D01*
X85674285Y-65247142D01*
X85626666Y-65294761D01*
X85531428Y-65342380D01*
X85340952Y-65342380D01*
X85245714Y-65294761D01*
X85198095Y-65247142D01*
X85150476Y-65151904D01*
X85150476Y-64913809D01*
X85198095Y-64818571D01*
X85245714Y-64770952D01*
X85340952Y-64723333D01*
X85531428Y-64723333D01*
X85626666Y-64770952D01*
X85674285Y-64818571D01*
X85721904Y-64913809D01*
G04 #@! TO.C,C4*
X99497142Y-119048333D02*
X99544761Y-119000714D01*
X99592380Y-118857857D01*
X99592380Y-118762619D01*
X99544761Y-118619761D01*
X99449523Y-118524523D01*
X99354285Y-118476904D01*
X99163809Y-118429285D01*
X99020952Y-118429285D01*
X98830476Y-118476904D01*
X98735238Y-118524523D01*
X98640000Y-118619761D01*
X98592380Y-118762619D01*
X98592380Y-118857857D01*
X98640000Y-119000714D01*
X98687619Y-119048333D01*
X98925714Y-119905476D02*
X99592380Y-119905476D01*
X98544761Y-119667380D02*
X99259047Y-119429285D01*
X99259047Y-120048333D01*
G04 #@! TO.C,Q2*
X62095238Y-105547619D02*
X62190476Y-105500000D01*
X62285714Y-105404761D01*
X62428571Y-105261904D01*
X62523809Y-105214285D01*
X62619047Y-105214285D01*
X62571428Y-105452380D02*
X62666666Y-105404761D01*
X62761904Y-105309523D01*
X62809523Y-105119047D01*
X62809523Y-104785714D01*
X62761904Y-104595238D01*
X62666666Y-104500000D01*
X62571428Y-104452380D01*
X62380952Y-104452380D01*
X62285714Y-104500000D01*
X62190476Y-104595238D01*
X62142857Y-104785714D01*
X62142857Y-105119047D01*
X62190476Y-105309523D01*
X62285714Y-105404761D01*
X62380952Y-105452380D01*
X62571428Y-105452380D01*
X61761904Y-104547619D02*
X61714285Y-104500000D01*
X61619047Y-104452380D01*
X61380952Y-104452380D01*
X61285714Y-104500000D01*
X61238095Y-104547619D01*
X61190476Y-104642857D01*
X61190476Y-104738095D01*
X61238095Y-104880952D01*
X61809523Y-105452380D01*
X61190476Y-105452380D01*
G04 #@! TO.C,Q4*
X62095238Y-98047619D02*
X62190476Y-98000000D01*
X62285714Y-97904761D01*
X62428571Y-97761904D01*
X62523809Y-97714285D01*
X62619047Y-97714285D01*
X62571428Y-97952380D02*
X62666666Y-97904761D01*
X62761904Y-97809523D01*
X62809523Y-97619047D01*
X62809523Y-97285714D01*
X62761904Y-97095238D01*
X62666666Y-97000000D01*
X62571428Y-96952380D01*
X62380952Y-96952380D01*
X62285714Y-97000000D01*
X62190476Y-97095238D01*
X62142857Y-97285714D01*
X62142857Y-97619047D01*
X62190476Y-97809523D01*
X62285714Y-97904761D01*
X62380952Y-97952380D01*
X62571428Y-97952380D01*
X61285714Y-97285714D02*
X61285714Y-97952380D01*
X61523809Y-96904761D02*
X61761904Y-97619047D01*
X61142857Y-97619047D01*
G04 #@! TO.C,Q6*
X62095238Y-90047619D02*
X62190476Y-90000000D01*
X62285714Y-89904761D01*
X62428571Y-89761904D01*
X62523809Y-89714285D01*
X62619047Y-89714285D01*
X62571428Y-89952380D02*
X62666666Y-89904761D01*
X62761904Y-89809523D01*
X62809523Y-89619047D01*
X62809523Y-89285714D01*
X62761904Y-89095238D01*
X62666666Y-89000000D01*
X62571428Y-88952380D01*
X62380952Y-88952380D01*
X62285714Y-89000000D01*
X62190476Y-89095238D01*
X62142857Y-89285714D01*
X62142857Y-89619047D01*
X62190476Y-89809523D01*
X62285714Y-89904761D01*
X62380952Y-89952380D01*
X62571428Y-89952380D01*
X61285714Y-88952380D02*
X61476190Y-88952380D01*
X61571428Y-89000000D01*
X61619047Y-89047619D01*
X61714285Y-89190476D01*
X61761904Y-89380952D01*
X61761904Y-89761904D01*
X61714285Y-89857142D01*
X61666666Y-89904761D01*
X61571428Y-89952380D01*
X61380952Y-89952380D01*
X61285714Y-89904761D01*
X61238095Y-89857142D01*
X61190476Y-89761904D01*
X61190476Y-89523809D01*
X61238095Y-89428571D01*
X61285714Y-89380952D01*
X61380952Y-89333333D01*
X61571428Y-89333333D01*
X61666666Y-89380952D01*
X61714285Y-89428571D01*
X61761904Y-89523809D01*
G04 #@! TO.C,R19*
X127242857Y-97237380D02*
X127576190Y-96761190D01*
X127814285Y-97237380D02*
X127814285Y-96237380D01*
X127433333Y-96237380D01*
X127338095Y-96285000D01*
X127290476Y-96332619D01*
X127242857Y-96427857D01*
X127242857Y-96570714D01*
X127290476Y-96665952D01*
X127338095Y-96713571D01*
X127433333Y-96761190D01*
X127814285Y-96761190D01*
X126290476Y-97237380D02*
X126861904Y-97237380D01*
X126576190Y-97237380D02*
X126576190Y-96237380D01*
X126671428Y-96380238D01*
X126766666Y-96475476D01*
X126861904Y-96523095D01*
X125814285Y-97237380D02*
X125623809Y-97237380D01*
X125528571Y-97189761D01*
X125480952Y-97142142D01*
X125385714Y-96999285D01*
X125338095Y-96808809D01*
X125338095Y-96427857D01*
X125385714Y-96332619D01*
X125433333Y-96285000D01*
X125528571Y-96237380D01*
X125719047Y-96237380D01*
X125814285Y-96285000D01*
X125861904Y-96332619D01*
X125909523Y-96427857D01*
X125909523Y-96665952D01*
X125861904Y-96761190D01*
X125814285Y-96808809D01*
X125719047Y-96856428D01*
X125528571Y-96856428D01*
X125433333Y-96808809D01*
X125385714Y-96761190D01*
X125338095Y-96665952D01*
G04 #@! TO.C,R20*
X127242857Y-101047380D02*
X127576190Y-100571190D01*
X127814285Y-101047380D02*
X127814285Y-100047380D01*
X127433333Y-100047380D01*
X127338095Y-100095000D01*
X127290476Y-100142619D01*
X127242857Y-100237857D01*
X127242857Y-100380714D01*
X127290476Y-100475952D01*
X127338095Y-100523571D01*
X127433333Y-100571190D01*
X127814285Y-100571190D01*
X126861904Y-100142619D02*
X126814285Y-100095000D01*
X126719047Y-100047380D01*
X126480952Y-100047380D01*
X126385714Y-100095000D01*
X126338095Y-100142619D01*
X126290476Y-100237857D01*
X126290476Y-100333095D01*
X126338095Y-100475952D01*
X126909523Y-101047380D01*
X126290476Y-101047380D01*
X125671428Y-100047380D02*
X125576190Y-100047380D01*
X125480952Y-100095000D01*
X125433333Y-100142619D01*
X125385714Y-100237857D01*
X125338095Y-100428333D01*
X125338095Y-100666428D01*
X125385714Y-100856904D01*
X125433333Y-100952142D01*
X125480952Y-100999761D01*
X125576190Y-101047380D01*
X125671428Y-101047380D01*
X125766666Y-100999761D01*
X125814285Y-100952142D01*
X125861904Y-100856904D01*
X125909523Y-100666428D01*
X125909523Y-100428333D01*
X125861904Y-100237857D01*
X125814285Y-100142619D01*
X125766666Y-100095000D01*
X125671428Y-100047380D01*
G04 #@! TO.C,R29*
X31142857Y-107752380D02*
X31476190Y-107276190D01*
X31714285Y-107752380D02*
X31714285Y-106752380D01*
X31333333Y-106752380D01*
X31238095Y-106800000D01*
X31190476Y-106847619D01*
X31142857Y-106942857D01*
X31142857Y-107085714D01*
X31190476Y-107180952D01*
X31238095Y-107228571D01*
X31333333Y-107276190D01*
X31714285Y-107276190D01*
X30761904Y-106847619D02*
X30714285Y-106800000D01*
X30619047Y-106752380D01*
X30380952Y-106752380D01*
X30285714Y-106800000D01*
X30238095Y-106847619D01*
X30190476Y-106942857D01*
X30190476Y-107038095D01*
X30238095Y-107180952D01*
X30809523Y-107752380D01*
X30190476Y-107752380D01*
X29714285Y-107752380D02*
X29523809Y-107752380D01*
X29428571Y-107704761D01*
X29380952Y-107657142D01*
X29285714Y-107514285D01*
X29238095Y-107323809D01*
X29238095Y-106942857D01*
X29285714Y-106847619D01*
X29333333Y-106800000D01*
X29428571Y-106752380D01*
X29619047Y-106752380D01*
X29714285Y-106800000D01*
X29761904Y-106847619D01*
X29809523Y-106942857D01*
X29809523Y-107180952D01*
X29761904Y-107276190D01*
X29714285Y-107323809D01*
X29619047Y-107371428D01*
X29428571Y-107371428D01*
X29333333Y-107323809D01*
X29285714Y-107276190D01*
X29238095Y-107180952D01*
G04 #@! TO.C,R30*
X31142857Y-103752380D02*
X31476190Y-103276190D01*
X31714285Y-103752380D02*
X31714285Y-102752380D01*
X31333333Y-102752380D01*
X31238095Y-102800000D01*
X31190476Y-102847619D01*
X31142857Y-102942857D01*
X31142857Y-103085714D01*
X31190476Y-103180952D01*
X31238095Y-103228571D01*
X31333333Y-103276190D01*
X31714285Y-103276190D01*
X30809523Y-102752380D02*
X30190476Y-102752380D01*
X30523809Y-103133333D01*
X30380952Y-103133333D01*
X30285714Y-103180952D01*
X30238095Y-103228571D01*
X30190476Y-103323809D01*
X30190476Y-103561904D01*
X30238095Y-103657142D01*
X30285714Y-103704761D01*
X30380952Y-103752380D01*
X30666666Y-103752380D01*
X30761904Y-103704761D01*
X30809523Y-103657142D01*
X29571428Y-102752380D02*
X29476190Y-102752380D01*
X29380952Y-102800000D01*
X29333333Y-102847619D01*
X29285714Y-102942857D01*
X29238095Y-103133333D01*
X29238095Y-103371428D01*
X29285714Y-103561904D01*
X29333333Y-103657142D01*
X29380952Y-103704761D01*
X29476190Y-103752380D01*
X29571428Y-103752380D01*
X29666666Y-103704761D01*
X29714285Y-103657142D01*
X29761904Y-103561904D01*
X29809523Y-103371428D01*
X29809523Y-103133333D01*
X29761904Y-102942857D01*
X29714285Y-102847619D01*
X29666666Y-102800000D01*
X29571428Y-102752380D01*
G04 #@! TO.C,R31*
X31142857Y-99752380D02*
X31476190Y-99276190D01*
X31714285Y-99752380D02*
X31714285Y-98752380D01*
X31333333Y-98752380D01*
X31238095Y-98800000D01*
X31190476Y-98847619D01*
X31142857Y-98942857D01*
X31142857Y-99085714D01*
X31190476Y-99180952D01*
X31238095Y-99228571D01*
X31333333Y-99276190D01*
X31714285Y-99276190D01*
X30809523Y-98752380D02*
X30190476Y-98752380D01*
X30523809Y-99133333D01*
X30380952Y-99133333D01*
X30285714Y-99180952D01*
X30238095Y-99228571D01*
X30190476Y-99323809D01*
X30190476Y-99561904D01*
X30238095Y-99657142D01*
X30285714Y-99704761D01*
X30380952Y-99752380D01*
X30666666Y-99752380D01*
X30761904Y-99704761D01*
X30809523Y-99657142D01*
X29238095Y-99752380D02*
X29809523Y-99752380D01*
X29523809Y-99752380D02*
X29523809Y-98752380D01*
X29619047Y-98895238D01*
X29714285Y-98990476D01*
X29809523Y-99038095D01*
G04 #@! TO.C,R32*
X31142857Y-95852380D02*
X31476190Y-95376190D01*
X31714285Y-95852380D02*
X31714285Y-94852380D01*
X31333333Y-94852380D01*
X31238095Y-94900000D01*
X31190476Y-94947619D01*
X31142857Y-95042857D01*
X31142857Y-95185714D01*
X31190476Y-95280952D01*
X31238095Y-95328571D01*
X31333333Y-95376190D01*
X31714285Y-95376190D01*
X30809523Y-94852380D02*
X30190476Y-94852380D01*
X30523809Y-95233333D01*
X30380952Y-95233333D01*
X30285714Y-95280952D01*
X30238095Y-95328571D01*
X30190476Y-95423809D01*
X30190476Y-95661904D01*
X30238095Y-95757142D01*
X30285714Y-95804761D01*
X30380952Y-95852380D01*
X30666666Y-95852380D01*
X30761904Y-95804761D01*
X30809523Y-95757142D01*
X29809523Y-94947619D02*
X29761904Y-94900000D01*
X29666666Y-94852380D01*
X29428571Y-94852380D01*
X29333333Y-94900000D01*
X29285714Y-94947619D01*
X29238095Y-95042857D01*
X29238095Y-95138095D01*
X29285714Y-95280952D01*
X29857142Y-95852380D01*
X29238095Y-95852380D01*
G04 #@! TO.C,R33*
X31142857Y-91852380D02*
X31476190Y-91376190D01*
X31714285Y-91852380D02*
X31714285Y-90852380D01*
X31333333Y-90852380D01*
X31238095Y-90900000D01*
X31190476Y-90947619D01*
X31142857Y-91042857D01*
X31142857Y-91185714D01*
X31190476Y-91280952D01*
X31238095Y-91328571D01*
X31333333Y-91376190D01*
X31714285Y-91376190D01*
X30809523Y-90852380D02*
X30190476Y-90852380D01*
X30523809Y-91233333D01*
X30380952Y-91233333D01*
X30285714Y-91280952D01*
X30238095Y-91328571D01*
X30190476Y-91423809D01*
X30190476Y-91661904D01*
X30238095Y-91757142D01*
X30285714Y-91804761D01*
X30380952Y-91852380D01*
X30666666Y-91852380D01*
X30761904Y-91804761D01*
X30809523Y-91757142D01*
X29857142Y-90852380D02*
X29238095Y-90852380D01*
X29571428Y-91233333D01*
X29428571Y-91233333D01*
X29333333Y-91280952D01*
X29285714Y-91328571D01*
X29238095Y-91423809D01*
X29238095Y-91661904D01*
X29285714Y-91757142D01*
X29333333Y-91804761D01*
X29428571Y-91852380D01*
X29714285Y-91852380D01*
X29809523Y-91804761D01*
X29857142Y-91757142D01*
G04 #@! TO.C,R34*
X31142857Y-84152380D02*
X31476190Y-83676190D01*
X31714285Y-84152380D02*
X31714285Y-83152380D01*
X31333333Y-83152380D01*
X31238095Y-83200000D01*
X31190476Y-83247619D01*
X31142857Y-83342857D01*
X31142857Y-83485714D01*
X31190476Y-83580952D01*
X31238095Y-83628571D01*
X31333333Y-83676190D01*
X31714285Y-83676190D01*
X30809523Y-83152380D02*
X30190476Y-83152380D01*
X30523809Y-83533333D01*
X30380952Y-83533333D01*
X30285714Y-83580952D01*
X30238095Y-83628571D01*
X30190476Y-83723809D01*
X30190476Y-83961904D01*
X30238095Y-84057142D01*
X30285714Y-84104761D01*
X30380952Y-84152380D01*
X30666666Y-84152380D01*
X30761904Y-84104761D01*
X30809523Y-84057142D01*
X29333333Y-83485714D02*
X29333333Y-84152380D01*
X29571428Y-83104761D02*
X29809523Y-83819047D01*
X29190476Y-83819047D01*
G04 #@! TO.C,R36*
X77952380Y-107777142D02*
X77476190Y-107443809D01*
X77952380Y-107205714D02*
X76952380Y-107205714D01*
X76952380Y-107586666D01*
X77000000Y-107681904D01*
X77047619Y-107729523D01*
X77142857Y-107777142D01*
X77285714Y-107777142D01*
X77380952Y-107729523D01*
X77428571Y-107681904D01*
X77476190Y-107586666D01*
X77476190Y-107205714D01*
X76952380Y-108110476D02*
X76952380Y-108729523D01*
X77333333Y-108396190D01*
X77333333Y-108539047D01*
X77380952Y-108634285D01*
X77428571Y-108681904D01*
X77523809Y-108729523D01*
X77761904Y-108729523D01*
X77857142Y-108681904D01*
X77904761Y-108634285D01*
X77952380Y-108539047D01*
X77952380Y-108253333D01*
X77904761Y-108158095D01*
X77857142Y-108110476D01*
X76952380Y-109586666D02*
X76952380Y-109396190D01*
X77000000Y-109300952D01*
X77047619Y-109253333D01*
X77190476Y-109158095D01*
X77380952Y-109110476D01*
X77761904Y-109110476D01*
X77857142Y-109158095D01*
X77904761Y-109205714D01*
X77952380Y-109300952D01*
X77952380Y-109491428D01*
X77904761Y-109586666D01*
X77857142Y-109634285D01*
X77761904Y-109681904D01*
X77523809Y-109681904D01*
X77428571Y-109634285D01*
X77380952Y-109586666D01*
X77333333Y-109491428D01*
X77333333Y-109300952D01*
X77380952Y-109205714D01*
X77428571Y-109158095D01*
X77523809Y-109110476D01*
G04 #@! TO.C,R38*
X77952380Y-100157142D02*
X77476190Y-99823809D01*
X77952380Y-99585714D02*
X76952380Y-99585714D01*
X76952380Y-99966666D01*
X77000000Y-100061904D01*
X77047619Y-100109523D01*
X77142857Y-100157142D01*
X77285714Y-100157142D01*
X77380952Y-100109523D01*
X77428571Y-100061904D01*
X77476190Y-99966666D01*
X77476190Y-99585714D01*
X76952380Y-100490476D02*
X76952380Y-101109523D01*
X77333333Y-100776190D01*
X77333333Y-100919047D01*
X77380952Y-101014285D01*
X77428571Y-101061904D01*
X77523809Y-101109523D01*
X77761904Y-101109523D01*
X77857142Y-101061904D01*
X77904761Y-101014285D01*
X77952380Y-100919047D01*
X77952380Y-100633333D01*
X77904761Y-100538095D01*
X77857142Y-100490476D01*
X77380952Y-101680952D02*
X77333333Y-101585714D01*
X77285714Y-101538095D01*
X77190476Y-101490476D01*
X77142857Y-101490476D01*
X77047619Y-101538095D01*
X77000000Y-101585714D01*
X76952380Y-101680952D01*
X76952380Y-101871428D01*
X77000000Y-101966666D01*
X77047619Y-102014285D01*
X77142857Y-102061904D01*
X77190476Y-102061904D01*
X77285714Y-102014285D01*
X77333333Y-101966666D01*
X77380952Y-101871428D01*
X77380952Y-101680952D01*
X77428571Y-101585714D01*
X77476190Y-101538095D01*
X77571428Y-101490476D01*
X77761904Y-101490476D01*
X77857142Y-101538095D01*
X77904761Y-101585714D01*
X77952380Y-101680952D01*
X77952380Y-101871428D01*
X77904761Y-101966666D01*
X77857142Y-102014285D01*
X77761904Y-102061904D01*
X77571428Y-102061904D01*
X77476190Y-102014285D01*
X77428571Y-101966666D01*
X77380952Y-101871428D01*
G04 #@! TO.C,R40*
X77952380Y-92537142D02*
X77476190Y-92203809D01*
X77952380Y-91965714D02*
X76952380Y-91965714D01*
X76952380Y-92346666D01*
X77000000Y-92441904D01*
X77047619Y-92489523D01*
X77142857Y-92537142D01*
X77285714Y-92537142D01*
X77380952Y-92489523D01*
X77428571Y-92441904D01*
X77476190Y-92346666D01*
X77476190Y-91965714D01*
X77285714Y-93394285D02*
X77952380Y-93394285D01*
X76904761Y-93156190D02*
X77619047Y-92918095D01*
X77619047Y-93537142D01*
X76952380Y-94108571D02*
X76952380Y-94203809D01*
X77000000Y-94299047D01*
X77047619Y-94346666D01*
X77142857Y-94394285D01*
X77333333Y-94441904D01*
X77571428Y-94441904D01*
X77761904Y-94394285D01*
X77857142Y-94346666D01*
X77904761Y-94299047D01*
X77952380Y-94203809D01*
X77952380Y-94108571D01*
X77904761Y-94013333D01*
X77857142Y-93965714D01*
X77761904Y-93918095D01*
X77571428Y-93870476D01*
X77333333Y-93870476D01*
X77142857Y-93918095D01*
X77047619Y-93965714D01*
X77000000Y-94013333D01*
X76952380Y-94108571D01*
G04 #@! TO.C,R45*
X82142857Y-76952380D02*
X82476190Y-76476190D01*
X82714285Y-76952380D02*
X82714285Y-75952380D01*
X82333333Y-75952380D01*
X82238095Y-76000000D01*
X82190476Y-76047619D01*
X82142857Y-76142857D01*
X82142857Y-76285714D01*
X82190476Y-76380952D01*
X82238095Y-76428571D01*
X82333333Y-76476190D01*
X82714285Y-76476190D01*
X81285714Y-76285714D02*
X81285714Y-76952380D01*
X81523809Y-75904761D02*
X81761904Y-76619047D01*
X81142857Y-76619047D01*
X80285714Y-75952380D02*
X80761904Y-75952380D01*
X80809523Y-76428571D01*
X80761904Y-76380952D01*
X80666666Y-76333333D01*
X80428571Y-76333333D01*
X80333333Y-76380952D01*
X80285714Y-76428571D01*
X80238095Y-76523809D01*
X80238095Y-76761904D01*
X80285714Y-76857142D01*
X80333333Y-76904761D01*
X80428571Y-76952380D01*
X80666666Y-76952380D01*
X80761904Y-76904761D01*
X80809523Y-76857142D01*
G04 #@! TO.C,R46*
X82142857Y-79452380D02*
X82476190Y-78976190D01*
X82714285Y-79452380D02*
X82714285Y-78452380D01*
X82333333Y-78452380D01*
X82238095Y-78500000D01*
X82190476Y-78547619D01*
X82142857Y-78642857D01*
X82142857Y-78785714D01*
X82190476Y-78880952D01*
X82238095Y-78928571D01*
X82333333Y-78976190D01*
X82714285Y-78976190D01*
X81285714Y-78785714D02*
X81285714Y-79452380D01*
X81523809Y-78404761D02*
X81761904Y-79119047D01*
X81142857Y-79119047D01*
X80333333Y-78452380D02*
X80523809Y-78452380D01*
X80619047Y-78500000D01*
X80666666Y-78547619D01*
X80761904Y-78690476D01*
X80809523Y-78880952D01*
X80809523Y-79261904D01*
X80761904Y-79357142D01*
X80714285Y-79404761D01*
X80619047Y-79452380D01*
X80428571Y-79452380D01*
X80333333Y-79404761D01*
X80285714Y-79357142D01*
X80238095Y-79261904D01*
X80238095Y-79023809D01*
X80285714Y-78928571D01*
X80333333Y-78880952D01*
X80428571Y-78833333D01*
X80619047Y-78833333D01*
X80714285Y-78880952D01*
X80761904Y-78928571D01*
X80809523Y-79023809D01*
G04 #@! TO.C,R49*
X82142857Y-69452380D02*
X82476190Y-68976190D01*
X82714285Y-69452380D02*
X82714285Y-68452380D01*
X82333333Y-68452380D01*
X82238095Y-68500000D01*
X82190476Y-68547619D01*
X82142857Y-68642857D01*
X82142857Y-68785714D01*
X82190476Y-68880952D01*
X82238095Y-68928571D01*
X82333333Y-68976190D01*
X82714285Y-68976190D01*
X81285714Y-68785714D02*
X81285714Y-69452380D01*
X81523809Y-68404761D02*
X81761904Y-69119047D01*
X81142857Y-69119047D01*
X80714285Y-69452380D02*
X80523809Y-69452380D01*
X80428571Y-69404761D01*
X80380952Y-69357142D01*
X80285714Y-69214285D01*
X80238095Y-69023809D01*
X80238095Y-68642857D01*
X80285714Y-68547619D01*
X80333333Y-68500000D01*
X80428571Y-68452380D01*
X80619047Y-68452380D01*
X80714285Y-68500000D01*
X80761904Y-68547619D01*
X80809523Y-68642857D01*
X80809523Y-68880952D01*
X80761904Y-68976190D01*
X80714285Y-69023809D01*
X80619047Y-69071428D01*
X80428571Y-69071428D01*
X80333333Y-69023809D01*
X80285714Y-68976190D01*
X80238095Y-68880952D01*
G04 #@! TO.C,R50*
X82142857Y-71952380D02*
X82476190Y-71476190D01*
X82714285Y-71952380D02*
X82714285Y-70952380D01*
X82333333Y-70952380D01*
X82238095Y-71000000D01*
X82190476Y-71047619D01*
X82142857Y-71142857D01*
X82142857Y-71285714D01*
X82190476Y-71380952D01*
X82238095Y-71428571D01*
X82333333Y-71476190D01*
X82714285Y-71476190D01*
X81238095Y-70952380D02*
X81714285Y-70952380D01*
X81761904Y-71428571D01*
X81714285Y-71380952D01*
X81619047Y-71333333D01*
X81380952Y-71333333D01*
X81285714Y-71380952D01*
X81238095Y-71428571D01*
X81190476Y-71523809D01*
X81190476Y-71761904D01*
X81238095Y-71857142D01*
X81285714Y-71904761D01*
X81380952Y-71952380D01*
X81619047Y-71952380D01*
X81714285Y-71904761D01*
X81761904Y-71857142D01*
X80571428Y-70952380D02*
X80476190Y-70952380D01*
X80380952Y-71000000D01*
X80333333Y-71047619D01*
X80285714Y-71142857D01*
X80238095Y-71333333D01*
X80238095Y-71571428D01*
X80285714Y-71761904D01*
X80333333Y-71857142D01*
X80380952Y-71904761D01*
X80476190Y-71952380D01*
X80571428Y-71952380D01*
X80666666Y-71904761D01*
X80714285Y-71857142D01*
X80761904Y-71761904D01*
X80809523Y-71571428D01*
X80809523Y-71333333D01*
X80761904Y-71142857D01*
X80714285Y-71047619D01*
X80666666Y-71000000D01*
X80571428Y-70952380D01*
G04 #@! TO.C,R53*
X81642857Y-61952380D02*
X81976190Y-61476190D01*
X82214285Y-61952380D02*
X82214285Y-60952380D01*
X81833333Y-60952380D01*
X81738095Y-61000000D01*
X81690476Y-61047619D01*
X81642857Y-61142857D01*
X81642857Y-61285714D01*
X81690476Y-61380952D01*
X81738095Y-61428571D01*
X81833333Y-61476190D01*
X82214285Y-61476190D01*
X80738095Y-60952380D02*
X81214285Y-60952380D01*
X81261904Y-61428571D01*
X81214285Y-61380952D01*
X81119047Y-61333333D01*
X80880952Y-61333333D01*
X80785714Y-61380952D01*
X80738095Y-61428571D01*
X80690476Y-61523809D01*
X80690476Y-61761904D01*
X80738095Y-61857142D01*
X80785714Y-61904761D01*
X80880952Y-61952380D01*
X81119047Y-61952380D01*
X81214285Y-61904761D01*
X81261904Y-61857142D01*
X80357142Y-60952380D02*
X79738095Y-60952380D01*
X80071428Y-61333333D01*
X79928571Y-61333333D01*
X79833333Y-61380952D01*
X79785714Y-61428571D01*
X79738095Y-61523809D01*
X79738095Y-61761904D01*
X79785714Y-61857142D01*
X79833333Y-61904761D01*
X79928571Y-61952380D01*
X80214285Y-61952380D01*
X80309523Y-61904761D01*
X80357142Y-61857142D01*
G04 #@! TO.C,R54*
X81642857Y-64452380D02*
X81976190Y-63976190D01*
X82214285Y-64452380D02*
X82214285Y-63452380D01*
X81833333Y-63452380D01*
X81738095Y-63500000D01*
X81690476Y-63547619D01*
X81642857Y-63642857D01*
X81642857Y-63785714D01*
X81690476Y-63880952D01*
X81738095Y-63928571D01*
X81833333Y-63976190D01*
X82214285Y-63976190D01*
X80738095Y-63452380D02*
X81214285Y-63452380D01*
X81261904Y-63928571D01*
X81214285Y-63880952D01*
X81119047Y-63833333D01*
X80880952Y-63833333D01*
X80785714Y-63880952D01*
X80738095Y-63928571D01*
X80690476Y-64023809D01*
X80690476Y-64261904D01*
X80738095Y-64357142D01*
X80785714Y-64404761D01*
X80880952Y-64452380D01*
X81119047Y-64452380D01*
X81214285Y-64404761D01*
X81261904Y-64357142D01*
X79833333Y-63785714D02*
X79833333Y-64452380D01*
X80071428Y-63404761D02*
X80309523Y-64119047D01*
X79690476Y-64119047D01*
G04 #@! TO.C,R55*
X81642857Y-54452380D02*
X81976190Y-53976190D01*
X82214285Y-54452380D02*
X82214285Y-53452380D01*
X81833333Y-53452380D01*
X81738095Y-53500000D01*
X81690476Y-53547619D01*
X81642857Y-53642857D01*
X81642857Y-53785714D01*
X81690476Y-53880952D01*
X81738095Y-53928571D01*
X81833333Y-53976190D01*
X82214285Y-53976190D01*
X80738095Y-53452380D02*
X81214285Y-53452380D01*
X81261904Y-53928571D01*
X81214285Y-53880952D01*
X81119047Y-53833333D01*
X80880952Y-53833333D01*
X80785714Y-53880952D01*
X80738095Y-53928571D01*
X80690476Y-54023809D01*
X80690476Y-54261904D01*
X80738095Y-54357142D01*
X80785714Y-54404761D01*
X80880952Y-54452380D01*
X81119047Y-54452380D01*
X81214285Y-54404761D01*
X81261904Y-54357142D01*
X79785714Y-53452380D02*
X80261904Y-53452380D01*
X80309523Y-53928571D01*
X80261904Y-53880952D01*
X80166666Y-53833333D01*
X79928571Y-53833333D01*
X79833333Y-53880952D01*
X79785714Y-53928571D01*
X79738095Y-54023809D01*
X79738095Y-54261904D01*
X79785714Y-54357142D01*
X79833333Y-54404761D01*
X79928571Y-54452380D01*
X80166666Y-54452380D01*
X80261904Y-54404761D01*
X80309523Y-54357142D01*
G04 #@! TO.C,R56*
X81642857Y-56952380D02*
X81976190Y-56476190D01*
X82214285Y-56952380D02*
X82214285Y-55952380D01*
X81833333Y-55952380D01*
X81738095Y-56000000D01*
X81690476Y-56047619D01*
X81642857Y-56142857D01*
X81642857Y-56285714D01*
X81690476Y-56380952D01*
X81738095Y-56428571D01*
X81833333Y-56476190D01*
X82214285Y-56476190D01*
X80738095Y-55952380D02*
X81214285Y-55952380D01*
X81261904Y-56428571D01*
X81214285Y-56380952D01*
X81119047Y-56333333D01*
X80880952Y-56333333D01*
X80785714Y-56380952D01*
X80738095Y-56428571D01*
X80690476Y-56523809D01*
X80690476Y-56761904D01*
X80738095Y-56857142D01*
X80785714Y-56904761D01*
X80880952Y-56952380D01*
X81119047Y-56952380D01*
X81214285Y-56904761D01*
X81261904Y-56857142D01*
X79833333Y-55952380D02*
X80023809Y-55952380D01*
X80119047Y-56000000D01*
X80166666Y-56047619D01*
X80261904Y-56190476D01*
X80309523Y-56380952D01*
X80309523Y-56761904D01*
X80261904Y-56857142D01*
X80214285Y-56904761D01*
X80119047Y-56952380D01*
X79928571Y-56952380D01*
X79833333Y-56904761D01*
X79785714Y-56857142D01*
X79738095Y-56761904D01*
X79738095Y-56523809D01*
X79785714Y-56428571D01*
X79833333Y-56380952D01*
X79928571Y-56333333D01*
X80119047Y-56333333D01*
X80214285Y-56380952D01*
X80261904Y-56428571D01*
X80309523Y-56523809D01*
G04 #@! TO.C,R59*
X34642857Y-75452380D02*
X34976190Y-74976190D01*
X35214285Y-75452380D02*
X35214285Y-74452380D01*
X34833333Y-74452380D01*
X34738095Y-74500000D01*
X34690476Y-74547619D01*
X34642857Y-74642857D01*
X34642857Y-74785714D01*
X34690476Y-74880952D01*
X34738095Y-74928571D01*
X34833333Y-74976190D01*
X35214285Y-74976190D01*
X33738095Y-74452380D02*
X34214285Y-74452380D01*
X34261904Y-74928571D01*
X34214285Y-74880952D01*
X34119047Y-74833333D01*
X33880952Y-74833333D01*
X33785714Y-74880952D01*
X33738095Y-74928571D01*
X33690476Y-75023809D01*
X33690476Y-75261904D01*
X33738095Y-75357142D01*
X33785714Y-75404761D01*
X33880952Y-75452380D01*
X34119047Y-75452380D01*
X34214285Y-75404761D01*
X34261904Y-75357142D01*
X33214285Y-75452380D02*
X33023809Y-75452380D01*
X32928571Y-75404761D01*
X32880952Y-75357142D01*
X32785714Y-75214285D01*
X32738095Y-75023809D01*
X32738095Y-74642857D01*
X32785714Y-74547619D01*
X32833333Y-74500000D01*
X32928571Y-74452380D01*
X33119047Y-74452380D01*
X33214285Y-74500000D01*
X33261904Y-74547619D01*
X33309523Y-74642857D01*
X33309523Y-74880952D01*
X33261904Y-74976190D01*
X33214285Y-75023809D01*
X33119047Y-75071428D01*
X32928571Y-75071428D01*
X32833333Y-75023809D01*
X32785714Y-74976190D01*
X32738095Y-74880952D01*
G04 #@! TO.C,R60*
X34642857Y-73452380D02*
X34976190Y-72976190D01*
X35214285Y-73452380D02*
X35214285Y-72452380D01*
X34833333Y-72452380D01*
X34738095Y-72500000D01*
X34690476Y-72547619D01*
X34642857Y-72642857D01*
X34642857Y-72785714D01*
X34690476Y-72880952D01*
X34738095Y-72928571D01*
X34833333Y-72976190D01*
X35214285Y-72976190D01*
X33785714Y-72452380D02*
X33976190Y-72452380D01*
X34071428Y-72500000D01*
X34119047Y-72547619D01*
X34214285Y-72690476D01*
X34261904Y-72880952D01*
X34261904Y-73261904D01*
X34214285Y-73357142D01*
X34166666Y-73404761D01*
X34071428Y-73452380D01*
X33880952Y-73452380D01*
X33785714Y-73404761D01*
X33738095Y-73357142D01*
X33690476Y-73261904D01*
X33690476Y-73023809D01*
X33738095Y-72928571D01*
X33785714Y-72880952D01*
X33880952Y-72833333D01*
X34071428Y-72833333D01*
X34166666Y-72880952D01*
X34214285Y-72928571D01*
X34261904Y-73023809D01*
X33071428Y-72452380D02*
X32976190Y-72452380D01*
X32880952Y-72500000D01*
X32833333Y-72547619D01*
X32785714Y-72642857D01*
X32738095Y-72833333D01*
X32738095Y-73071428D01*
X32785714Y-73261904D01*
X32833333Y-73357142D01*
X32880952Y-73404761D01*
X32976190Y-73452380D01*
X33071428Y-73452380D01*
X33166666Y-73404761D01*
X33214285Y-73357142D01*
X33261904Y-73261904D01*
X33309523Y-73071428D01*
X33309523Y-72833333D01*
X33261904Y-72642857D01*
X33214285Y-72547619D01*
X33166666Y-72500000D01*
X33071428Y-72452380D01*
G04 #@! TO.C,R61*
X34642857Y-71452380D02*
X34976190Y-70976190D01*
X35214285Y-71452380D02*
X35214285Y-70452380D01*
X34833333Y-70452380D01*
X34738095Y-70500000D01*
X34690476Y-70547619D01*
X34642857Y-70642857D01*
X34642857Y-70785714D01*
X34690476Y-70880952D01*
X34738095Y-70928571D01*
X34833333Y-70976190D01*
X35214285Y-70976190D01*
X33785714Y-70452380D02*
X33976190Y-70452380D01*
X34071428Y-70500000D01*
X34119047Y-70547619D01*
X34214285Y-70690476D01*
X34261904Y-70880952D01*
X34261904Y-71261904D01*
X34214285Y-71357142D01*
X34166666Y-71404761D01*
X34071428Y-71452380D01*
X33880952Y-71452380D01*
X33785714Y-71404761D01*
X33738095Y-71357142D01*
X33690476Y-71261904D01*
X33690476Y-71023809D01*
X33738095Y-70928571D01*
X33785714Y-70880952D01*
X33880952Y-70833333D01*
X34071428Y-70833333D01*
X34166666Y-70880952D01*
X34214285Y-70928571D01*
X34261904Y-71023809D01*
X32738095Y-71452380D02*
X33309523Y-71452380D01*
X33023809Y-71452380D02*
X33023809Y-70452380D01*
X33119047Y-70595238D01*
X33214285Y-70690476D01*
X33309523Y-70738095D01*
G04 #@! TO.C,R62*
X34642857Y-69452380D02*
X34976190Y-68976190D01*
X35214285Y-69452380D02*
X35214285Y-68452380D01*
X34833333Y-68452380D01*
X34738095Y-68500000D01*
X34690476Y-68547619D01*
X34642857Y-68642857D01*
X34642857Y-68785714D01*
X34690476Y-68880952D01*
X34738095Y-68928571D01*
X34833333Y-68976190D01*
X35214285Y-68976190D01*
X33785714Y-68452380D02*
X33976190Y-68452380D01*
X34071428Y-68500000D01*
X34119047Y-68547619D01*
X34214285Y-68690476D01*
X34261904Y-68880952D01*
X34261904Y-69261904D01*
X34214285Y-69357142D01*
X34166666Y-69404761D01*
X34071428Y-69452380D01*
X33880952Y-69452380D01*
X33785714Y-69404761D01*
X33738095Y-69357142D01*
X33690476Y-69261904D01*
X33690476Y-69023809D01*
X33738095Y-68928571D01*
X33785714Y-68880952D01*
X33880952Y-68833333D01*
X34071428Y-68833333D01*
X34166666Y-68880952D01*
X34214285Y-68928571D01*
X34261904Y-69023809D01*
X33309523Y-68547619D02*
X33261904Y-68500000D01*
X33166666Y-68452380D01*
X32928571Y-68452380D01*
X32833333Y-68500000D01*
X32785714Y-68547619D01*
X32738095Y-68642857D01*
X32738095Y-68738095D01*
X32785714Y-68880952D01*
X33357142Y-69452380D01*
X32738095Y-69452380D01*
G04 #@! TO.C,R63*
X34642857Y-67452380D02*
X34976190Y-66976190D01*
X35214285Y-67452380D02*
X35214285Y-66452380D01*
X34833333Y-66452380D01*
X34738095Y-66500000D01*
X34690476Y-66547619D01*
X34642857Y-66642857D01*
X34642857Y-66785714D01*
X34690476Y-66880952D01*
X34738095Y-66928571D01*
X34833333Y-66976190D01*
X35214285Y-66976190D01*
X33785714Y-66452380D02*
X33976190Y-66452380D01*
X34071428Y-66500000D01*
X34119047Y-66547619D01*
X34214285Y-66690476D01*
X34261904Y-66880952D01*
X34261904Y-67261904D01*
X34214285Y-67357142D01*
X34166666Y-67404761D01*
X34071428Y-67452380D01*
X33880952Y-67452380D01*
X33785714Y-67404761D01*
X33738095Y-67357142D01*
X33690476Y-67261904D01*
X33690476Y-67023809D01*
X33738095Y-66928571D01*
X33785714Y-66880952D01*
X33880952Y-66833333D01*
X34071428Y-66833333D01*
X34166666Y-66880952D01*
X34214285Y-66928571D01*
X34261904Y-67023809D01*
X33357142Y-66452380D02*
X32738095Y-66452380D01*
X33071428Y-66833333D01*
X32928571Y-66833333D01*
X32833333Y-66880952D01*
X32785714Y-66928571D01*
X32738095Y-67023809D01*
X32738095Y-67261904D01*
X32785714Y-67357142D01*
X32833333Y-67404761D01*
X32928571Y-67452380D01*
X33214285Y-67452380D01*
X33309523Y-67404761D01*
X33357142Y-67357142D01*
G04 #@! TO.C,R64*
X34642857Y-65952380D02*
X34976190Y-65476190D01*
X35214285Y-65952380D02*
X35214285Y-64952380D01*
X34833333Y-64952380D01*
X34738095Y-65000000D01*
X34690476Y-65047619D01*
X34642857Y-65142857D01*
X34642857Y-65285714D01*
X34690476Y-65380952D01*
X34738095Y-65428571D01*
X34833333Y-65476190D01*
X35214285Y-65476190D01*
X33785714Y-64952380D02*
X33976190Y-64952380D01*
X34071428Y-65000000D01*
X34119047Y-65047619D01*
X34214285Y-65190476D01*
X34261904Y-65380952D01*
X34261904Y-65761904D01*
X34214285Y-65857142D01*
X34166666Y-65904761D01*
X34071428Y-65952380D01*
X33880952Y-65952380D01*
X33785714Y-65904761D01*
X33738095Y-65857142D01*
X33690476Y-65761904D01*
X33690476Y-65523809D01*
X33738095Y-65428571D01*
X33785714Y-65380952D01*
X33880952Y-65333333D01*
X34071428Y-65333333D01*
X34166666Y-65380952D01*
X34214285Y-65428571D01*
X34261904Y-65523809D01*
X32833333Y-65285714D02*
X32833333Y-65952380D01*
X33071428Y-64904761D02*
X33309523Y-65619047D01*
X32690476Y-65619047D01*
G04 #@! TO.C,R65*
X34642857Y-63952380D02*
X34976190Y-63476190D01*
X35214285Y-63952380D02*
X35214285Y-62952380D01*
X34833333Y-62952380D01*
X34738095Y-63000000D01*
X34690476Y-63047619D01*
X34642857Y-63142857D01*
X34642857Y-63285714D01*
X34690476Y-63380952D01*
X34738095Y-63428571D01*
X34833333Y-63476190D01*
X35214285Y-63476190D01*
X33785714Y-62952380D02*
X33976190Y-62952380D01*
X34071428Y-63000000D01*
X34119047Y-63047619D01*
X34214285Y-63190476D01*
X34261904Y-63380952D01*
X34261904Y-63761904D01*
X34214285Y-63857142D01*
X34166666Y-63904761D01*
X34071428Y-63952380D01*
X33880952Y-63952380D01*
X33785714Y-63904761D01*
X33738095Y-63857142D01*
X33690476Y-63761904D01*
X33690476Y-63523809D01*
X33738095Y-63428571D01*
X33785714Y-63380952D01*
X33880952Y-63333333D01*
X34071428Y-63333333D01*
X34166666Y-63380952D01*
X34214285Y-63428571D01*
X34261904Y-63523809D01*
X32785714Y-62952380D02*
X33261904Y-62952380D01*
X33309523Y-63428571D01*
X33261904Y-63380952D01*
X33166666Y-63333333D01*
X32928571Y-63333333D01*
X32833333Y-63380952D01*
X32785714Y-63428571D01*
X32738095Y-63523809D01*
X32738095Y-63761904D01*
X32785714Y-63857142D01*
X32833333Y-63904761D01*
X32928571Y-63952380D01*
X33166666Y-63952380D01*
X33261904Y-63904761D01*
X33309523Y-63857142D01*
G04 #@! TO.C,R66*
X34642857Y-61952380D02*
X34976190Y-61476190D01*
X35214285Y-61952380D02*
X35214285Y-60952380D01*
X34833333Y-60952380D01*
X34738095Y-61000000D01*
X34690476Y-61047619D01*
X34642857Y-61142857D01*
X34642857Y-61285714D01*
X34690476Y-61380952D01*
X34738095Y-61428571D01*
X34833333Y-61476190D01*
X35214285Y-61476190D01*
X33785714Y-60952380D02*
X33976190Y-60952380D01*
X34071428Y-61000000D01*
X34119047Y-61047619D01*
X34214285Y-61190476D01*
X34261904Y-61380952D01*
X34261904Y-61761904D01*
X34214285Y-61857142D01*
X34166666Y-61904761D01*
X34071428Y-61952380D01*
X33880952Y-61952380D01*
X33785714Y-61904761D01*
X33738095Y-61857142D01*
X33690476Y-61761904D01*
X33690476Y-61523809D01*
X33738095Y-61428571D01*
X33785714Y-61380952D01*
X33880952Y-61333333D01*
X34071428Y-61333333D01*
X34166666Y-61380952D01*
X34214285Y-61428571D01*
X34261904Y-61523809D01*
X32833333Y-60952380D02*
X33023809Y-60952380D01*
X33119047Y-61000000D01*
X33166666Y-61047619D01*
X33261904Y-61190476D01*
X33309523Y-61380952D01*
X33309523Y-61761904D01*
X33261904Y-61857142D01*
X33214285Y-61904761D01*
X33119047Y-61952380D01*
X32928571Y-61952380D01*
X32833333Y-61904761D01*
X32785714Y-61857142D01*
X32738095Y-61761904D01*
X32738095Y-61523809D01*
X32785714Y-61428571D01*
X32833333Y-61380952D01*
X32928571Y-61333333D01*
X33119047Y-61333333D01*
X33214285Y-61380952D01*
X33261904Y-61428571D01*
X33309523Y-61523809D01*
G04 #@! TO.C,U7*
X93142380Y-60668095D02*
X93951904Y-60668095D01*
X94047142Y-60715714D01*
X94094761Y-60763333D01*
X94142380Y-60858571D01*
X94142380Y-61049047D01*
X94094761Y-61144285D01*
X94047142Y-61191904D01*
X93951904Y-61239523D01*
X93142380Y-61239523D01*
X93142380Y-61620476D02*
X93142380Y-62287142D01*
X94142380Y-61858571D01*
G04 #@! TD*
M02*
