G04 #@! TF.FileFunction,Soldermask,Bot*
%FSLAX46Y46*%
G04 Gerber Fmt 4.6, Leading zero omitted, Abs format (unit mm)*
G04 Created by KiCad (PCBNEW 4.0.7) date 01/26/18 09:32:34*
%MOMM*%
%LPD*%
G01*
G04 APERTURE LIST*
%ADD10C,0.100000*%
%ADD11C,0.250000*%
%ADD12R,1.600000X1.600000*%
%ADD13O,1.600000X1.600000*%
%ADD14R,1.800000X1.800000*%
%ADD15O,1.800000X1.800000*%
%ADD16R,1.500000X1.250000*%
%ADD17R,1.250000X1.500000*%
%ADD18R,1.500000X1.300000*%
%ADD19R,2.286000X1.574800*%
%ADD20O,2.286000X1.574800*%
%ADD21R,1.300000X1.500000*%
%ADD22C,4.300000*%
%ADD23R,2.600000X2.000000*%
%ADD24O,2.600000X2.000000*%
%ADD25R,4.000000X3.000000*%
%ADD26O,4.000000X3.000000*%
%ADD27R,2.200000X1.200000*%
%ADD28R,6.400000X5.800000*%
%ADD29R,0.600000X1.500000*%
%ADD30R,1.500000X0.600000*%
%ADD31R,2.000000X2.000000*%
%ADD32C,2.000000*%
%ADD33R,2.800000X2.800000*%
%ADD34O,2.800000X2.800000*%
%ADD35C,2.350000*%
%ADD36R,0.600000X2.000000*%
G04 APERTURE END LIST*
D10*
D11*
X127291430Y-53158333D02*
X127339050Y-53110714D01*
X127434288Y-52967857D01*
X127481907Y-52872619D01*
X127529526Y-52729762D01*
X127577145Y-52491667D01*
X127577145Y-52301190D01*
X127529526Y-52063095D01*
X127481907Y-51920238D01*
X127434288Y-51825000D01*
X127339050Y-51682143D01*
X127291430Y-51634524D01*
X126481906Y-52729762D02*
X126577144Y-52777381D01*
X126767621Y-52777381D01*
X126862859Y-52729762D01*
X126910478Y-52682143D01*
X126958097Y-52586905D01*
X126958097Y-52301190D01*
X126910478Y-52205952D01*
X126862859Y-52158333D01*
X126767621Y-52110714D01*
X126577144Y-52110714D01*
X126481906Y-52158333D01*
X126148573Y-53158333D02*
X126100954Y-53110714D01*
X126005716Y-52967857D01*
X125958097Y-52872619D01*
X125910478Y-52729762D01*
X125862859Y-52491667D01*
X125862859Y-52301190D01*
X125910478Y-52063095D01*
X125958097Y-51920238D01*
X126005716Y-51825000D01*
X126100954Y-51682143D01*
X126148573Y-51634524D01*
X124672382Y-51872619D02*
X124624763Y-51825000D01*
X124529525Y-51777381D01*
X124291429Y-51777381D01*
X124196191Y-51825000D01*
X124148572Y-51872619D01*
X124100953Y-51967857D01*
X124100953Y-52063095D01*
X124148572Y-52205952D01*
X124720001Y-52777381D01*
X124100953Y-52777381D01*
X123481906Y-51777381D02*
X123386667Y-51777381D01*
X123291429Y-51825000D01*
X123243810Y-51872619D01*
X123196191Y-51967857D01*
X123148572Y-52158333D01*
X123148572Y-52396429D01*
X123196191Y-52586905D01*
X123243810Y-52682143D01*
X123291429Y-52729762D01*
X123386667Y-52777381D01*
X123481906Y-52777381D01*
X123577144Y-52729762D01*
X123624763Y-52682143D01*
X123672382Y-52586905D01*
X123720001Y-52396429D01*
X123720001Y-52158333D01*
X123672382Y-51967857D01*
X123624763Y-51872619D01*
X123577144Y-51825000D01*
X123481906Y-51777381D01*
X122196191Y-52777381D02*
X122767620Y-52777381D01*
X122481906Y-52777381D02*
X122481906Y-51777381D01*
X122577144Y-51920238D01*
X122672382Y-52015476D01*
X122767620Y-52063095D01*
X121862858Y-51777381D02*
X121196191Y-51777381D01*
X121624763Y-52777381D01*
X120053334Y-52777381D02*
X120053334Y-52110714D01*
X120053334Y-52205952D02*
X120005715Y-52158333D01*
X119910477Y-52110714D01*
X119767619Y-52110714D01*
X119672381Y-52158333D01*
X119624762Y-52253571D01*
X119624762Y-52777381D01*
X119624762Y-52253571D02*
X119577143Y-52158333D01*
X119481905Y-52110714D01*
X119339048Y-52110714D01*
X119243810Y-52158333D01*
X119196191Y-52253571D01*
X119196191Y-52777381D01*
X118577144Y-52777381D02*
X118672382Y-52729762D01*
X118720001Y-52682143D01*
X118767620Y-52586905D01*
X118767620Y-52301190D01*
X118720001Y-52205952D01*
X118672382Y-52158333D01*
X118577144Y-52110714D01*
X118434286Y-52110714D01*
X118339048Y-52158333D01*
X118291429Y-52205952D01*
X118243810Y-52301190D01*
X118243810Y-52586905D01*
X118291429Y-52682143D01*
X118339048Y-52729762D01*
X118434286Y-52777381D01*
X118577144Y-52777381D01*
X117815239Y-52777381D02*
X117815239Y-52110714D01*
X117815239Y-52301190D02*
X117767620Y-52205952D01*
X117720001Y-52158333D01*
X117624763Y-52110714D01*
X117529524Y-52110714D01*
X117196191Y-52777381D02*
X117196191Y-51777381D01*
X117196191Y-52158333D02*
X117100953Y-52110714D01*
X116910476Y-52110714D01*
X116815238Y-52158333D01*
X116767619Y-52205952D01*
X116720000Y-52301190D01*
X116720000Y-52586905D01*
X116767619Y-52682143D01*
X116815238Y-52729762D01*
X116910476Y-52777381D01*
X117100953Y-52777381D01*
X117196191Y-52729762D01*
X116291429Y-52777381D02*
X116291429Y-52110714D01*
X116291429Y-51777381D02*
X116339048Y-51825000D01*
X116291429Y-51872619D01*
X116243810Y-51825000D01*
X116291429Y-51777381D01*
X116291429Y-51872619D01*
X115386667Y-52777381D02*
X115386667Y-51777381D01*
X115386667Y-52729762D02*
X115481905Y-52777381D01*
X115672382Y-52777381D01*
X115767620Y-52729762D01*
X115815239Y-52682143D01*
X115862858Y-52586905D01*
X115862858Y-52301190D01*
X115815239Y-52205952D01*
X115767620Y-52158333D01*
X115672382Y-52110714D01*
X115481905Y-52110714D01*
X115386667Y-52158333D01*
X113720000Y-52729762D02*
X113815238Y-52777381D01*
X114005715Y-52777381D01*
X114100953Y-52729762D01*
X114148572Y-52682143D01*
X114196191Y-52586905D01*
X114196191Y-52301190D01*
X114148572Y-52205952D01*
X114100953Y-52158333D01*
X114005715Y-52110714D01*
X113815238Y-52110714D01*
X113720000Y-52158333D01*
X113148572Y-52777381D02*
X113243810Y-52729762D01*
X113291429Y-52682143D01*
X113339048Y-52586905D01*
X113339048Y-52301190D01*
X113291429Y-52205952D01*
X113243810Y-52158333D01*
X113148572Y-52110714D01*
X113005714Y-52110714D01*
X112910476Y-52158333D01*
X112862857Y-52205952D01*
X112815238Y-52301190D01*
X112815238Y-52586905D01*
X112862857Y-52682143D01*
X112910476Y-52729762D01*
X113005714Y-52777381D01*
X113148572Y-52777381D01*
X112386667Y-52777381D02*
X112386667Y-52110714D01*
X112386667Y-52301190D02*
X112339048Y-52205952D01*
X112291429Y-52158333D01*
X112196191Y-52110714D01*
X112100952Y-52110714D01*
X111767619Y-52110714D02*
X111767619Y-52777381D01*
X111767619Y-52205952D02*
X111720000Y-52158333D01*
X111624762Y-52110714D01*
X111481904Y-52110714D01*
X111386666Y-52158333D01*
X111339047Y-52253571D01*
X111339047Y-52777381D01*
X111005714Y-52110714D02*
X110624762Y-52110714D01*
X110862857Y-52777381D02*
X110862857Y-51920238D01*
X110815238Y-51825000D01*
X110720000Y-51777381D01*
X110624762Y-51777381D01*
X110148571Y-52777381D02*
X110243809Y-52729762D01*
X110291428Y-52634524D01*
X110291428Y-51777381D01*
X109339046Y-52777381D02*
X109339046Y-52253571D01*
X109386665Y-52158333D01*
X109481903Y-52110714D01*
X109672380Y-52110714D01*
X109767618Y-52158333D01*
X109339046Y-52729762D02*
X109434284Y-52777381D01*
X109672380Y-52777381D01*
X109767618Y-52729762D01*
X109815237Y-52634524D01*
X109815237Y-52539286D01*
X109767618Y-52444048D01*
X109672380Y-52396429D01*
X109434284Y-52396429D01*
X109339046Y-52348810D01*
X108862856Y-52777381D02*
X108862856Y-51777381D01*
X108767618Y-52396429D02*
X108481903Y-52777381D01*
X108481903Y-52110714D02*
X108862856Y-52491667D01*
X107672379Y-52729762D02*
X107767617Y-52777381D01*
X107958094Y-52777381D01*
X108053332Y-52729762D01*
X108100951Y-52634524D01*
X108100951Y-52253571D01*
X108053332Y-52158333D01*
X107958094Y-52110714D01*
X107767617Y-52110714D01*
X107672379Y-52158333D01*
X107624760Y-52253571D01*
X107624760Y-52348810D01*
X108100951Y-52444048D01*
X107243808Y-52729762D02*
X107148570Y-52777381D01*
X106958094Y-52777381D01*
X106862855Y-52729762D01*
X106815236Y-52634524D01*
X106815236Y-52586905D01*
X106862855Y-52491667D01*
X106958094Y-52444048D01*
X107100951Y-52444048D01*
X107196189Y-52396429D01*
X107243808Y-52301190D01*
X107243808Y-52253571D01*
X107196189Y-52158333D01*
X107100951Y-52110714D01*
X106958094Y-52110714D01*
X106862855Y-52158333D01*
D12*
X104375000Y-75400000D03*
D13*
X111995000Y-83020000D03*
X104375000Y-77940000D03*
X111995000Y-80480000D03*
X104375000Y-80480000D03*
X111995000Y-77940000D03*
X104375000Y-83020000D03*
X111995000Y-75400000D03*
D14*
X87230000Y-97625000D03*
D15*
X87230000Y-95085000D03*
X87230000Y-92545000D03*
D16*
X87210000Y-109055000D03*
X84710000Y-109055000D03*
D17*
X89770000Y-92565000D03*
X89770000Y-95065000D03*
D18*
X125250000Y-87465000D03*
X127950000Y-87465000D03*
D19*
X109455000Y-125565000D03*
D20*
X109455000Y-123025000D03*
X109455000Y-120485000D03*
X109455000Y-117945000D03*
X109455000Y-115405000D03*
X109455000Y-112865000D03*
X109455000Y-110325000D03*
X109455000Y-107785000D03*
X109455000Y-105245000D03*
X109455000Y-102705000D03*
X109455000Y-100165000D03*
X109455000Y-97625000D03*
X109455000Y-95085000D03*
X109455000Y-92545000D03*
X109455000Y-90005000D03*
X94215000Y-90005000D03*
X94215000Y-92545000D03*
X94215000Y-95085000D03*
X94215000Y-97625000D03*
X94215000Y-100165000D03*
X94215000Y-102705000D03*
X94215000Y-105245000D03*
X94215000Y-107785000D03*
X94215000Y-110325000D03*
X94215000Y-112865000D03*
X94215000Y-115405000D03*
X94215000Y-117945000D03*
X94215000Y-120485000D03*
X94215000Y-123025000D03*
X94215000Y-125565000D03*
D18*
X125250000Y-91275000D03*
X127950000Y-91275000D03*
X125250000Y-103340000D03*
X127950000Y-103340000D03*
X125250000Y-107150000D03*
X127950000Y-107150000D03*
X125250000Y-110960000D03*
X127950000Y-110960000D03*
X125250000Y-119215000D03*
X127950000Y-119215000D03*
D21*
X91675000Y-97545000D03*
X91675000Y-100245000D03*
D18*
X78260000Y-107150000D03*
X80960000Y-107150000D03*
D22*
X132950000Y-55715000D03*
X30500000Y-55500000D03*
X30500000Y-124500000D03*
X132950000Y-124930000D03*
D23*
X132950000Y-62065000D03*
D24*
X132950000Y-64605000D03*
X132950000Y-67145000D03*
X132950000Y-69685000D03*
X132950000Y-72225000D03*
X132950000Y-74765000D03*
X132950000Y-77305000D03*
X132950000Y-79845000D03*
X132950000Y-82385000D03*
D25*
X56750000Y-126200000D03*
D26*
X56750000Y-122237600D03*
D23*
X47860000Y-75400000D03*
D24*
X47860000Y-72860000D03*
X47860000Y-70320000D03*
X47860000Y-67780000D03*
X47860000Y-65240000D03*
X47860000Y-62700000D03*
X47860000Y-60160000D03*
X47860000Y-57620000D03*
X47860000Y-55080000D03*
D23*
X37700000Y-75400000D03*
D24*
X37700000Y-72860000D03*
X37700000Y-70320000D03*
X37700000Y-67780000D03*
X37700000Y-65240000D03*
X37700000Y-62700000D03*
X37700000Y-60160000D03*
X37700000Y-57620000D03*
X37700000Y-55080000D03*
D25*
X41510000Y-126200000D03*
D26*
X41510000Y-122237600D03*
X41510000Y-118275200D03*
D27*
X72380000Y-75660000D03*
X72380000Y-80220000D03*
D28*
X66080000Y-77940000D03*
D27*
X72380000Y-68040000D03*
X72380000Y-72600000D03*
D28*
X66080000Y-70320000D03*
D27*
X72380000Y-60420000D03*
X72380000Y-64980000D03*
D28*
X66080000Y-62700000D03*
D27*
X72380000Y-52800000D03*
X72380000Y-57360000D03*
D28*
X66080000Y-55080000D03*
D29*
X121520000Y-104770000D03*
X120250000Y-104770000D03*
X118980000Y-104770000D03*
X117710000Y-104770000D03*
X116440000Y-104770000D03*
X115170000Y-104770000D03*
X113900000Y-104770000D03*
X112630000Y-104770000D03*
X112630000Y-99370000D03*
X113900000Y-99370000D03*
X115170000Y-99370000D03*
X116440000Y-99370000D03*
X117710000Y-99370000D03*
X118980000Y-99370000D03*
X120250000Y-99370000D03*
X121520000Y-99370000D03*
X126600000Y-74290000D03*
X125330000Y-74290000D03*
X124060000Y-74290000D03*
X122790000Y-74290000D03*
X121520000Y-74290000D03*
X120250000Y-74290000D03*
X118980000Y-74290000D03*
X117710000Y-74290000D03*
X117710000Y-68890000D03*
X118980000Y-68890000D03*
X120250000Y-68890000D03*
X121520000Y-68890000D03*
X122790000Y-68890000D03*
X124060000Y-68890000D03*
X125330000Y-68890000D03*
X126600000Y-68890000D03*
D30*
X83260000Y-63335000D03*
X83260000Y-62065000D03*
X83260000Y-60795000D03*
X83260000Y-59525000D03*
X83260000Y-58255000D03*
X83260000Y-56985000D03*
X83260000Y-55715000D03*
X83260000Y-54445000D03*
X88660000Y-54445000D03*
X88660000Y-55715000D03*
X88660000Y-56985000D03*
X88660000Y-58255000D03*
X88660000Y-59525000D03*
X88660000Y-60795000D03*
X88660000Y-62065000D03*
X88660000Y-63335000D03*
D31*
X89770000Y-105880000D03*
D32*
X84770000Y-105880000D03*
D17*
X97390000Y-120465000D03*
X97390000Y-117965000D03*
D33*
X89135000Y-113500000D03*
D34*
X78975000Y-113500000D03*
D35*
X69370000Y-127470000D03*
X69370000Y-122390000D03*
X84690000Y-127470000D03*
X84690000Y-122390000D03*
D25*
X131045000Y-87465000D03*
D26*
X131045000Y-91427400D03*
X131045000Y-95389800D03*
X131045000Y-99352200D03*
X131045000Y-103314600D03*
X131045000Y-107277000D03*
X131045000Y-111239400D03*
X131045000Y-115201800D03*
X131045000Y-119164200D03*
D23*
X58020000Y-75400000D03*
D24*
X58020000Y-72860000D03*
X58020000Y-70320000D03*
X58020000Y-67780000D03*
X58020000Y-65240000D03*
X58020000Y-62700000D03*
X58020000Y-60160000D03*
X58020000Y-57620000D03*
X58020000Y-55080000D03*
D25*
X56750000Y-113500000D03*
D26*
X56750000Y-109537600D03*
X56750000Y-105575200D03*
X56750000Y-101612800D03*
X56750000Y-97650400D03*
X56750000Y-93688000D03*
X56750000Y-89725600D03*
X56750000Y-85763200D03*
X56750000Y-81800800D03*
D25*
X41510000Y-113500000D03*
D26*
X41510000Y-109537600D03*
X41510000Y-105575200D03*
X41510000Y-101612800D03*
X41510000Y-97650400D03*
X41510000Y-93688000D03*
X41510000Y-89725600D03*
X41510000Y-85763200D03*
X41510000Y-81800800D03*
D27*
X72380000Y-106140000D03*
X72380000Y-110700000D03*
D28*
X66080000Y-108420000D03*
D27*
X72380000Y-98520000D03*
X72380000Y-103080000D03*
D28*
X66080000Y-100800000D03*
D27*
X72380000Y-90900000D03*
X72380000Y-95460000D03*
D28*
X66080000Y-93180000D03*
D18*
X125250000Y-95085000D03*
X127950000Y-95085000D03*
X125250000Y-98895000D03*
X127950000Y-98895000D03*
X78260000Y-99530000D03*
X80960000Y-99530000D03*
X78260000Y-91910000D03*
X80960000Y-91910000D03*
D21*
X75800000Y-109770000D03*
X75800000Y-107070000D03*
X75800000Y-102150000D03*
X75800000Y-99450000D03*
X75800000Y-94530000D03*
X75800000Y-91830000D03*
D18*
X75720000Y-76670000D03*
X78420000Y-76670000D03*
X75720000Y-79210000D03*
X78420000Y-79210000D03*
X75720000Y-69050000D03*
X78420000Y-69050000D03*
X75720000Y-71590000D03*
X78420000Y-71590000D03*
X75720000Y-61430000D03*
X78420000Y-61430000D03*
X75720000Y-63970000D03*
X78420000Y-63970000D03*
X75720000Y-53810000D03*
X78420000Y-53810000D03*
X75720000Y-56350000D03*
X78420000Y-56350000D03*
X31430000Y-74765000D03*
X28730000Y-74765000D03*
X31430000Y-72860000D03*
X28730000Y-72860000D03*
X31430000Y-70955000D03*
X28730000Y-70955000D03*
X31430000Y-69050000D03*
X28730000Y-69050000D03*
X31430000Y-67145000D03*
X28730000Y-67145000D03*
X31430000Y-65240000D03*
X28730000Y-65240000D03*
X31430000Y-63335000D03*
X28730000Y-63335000D03*
X31430000Y-61430000D03*
X28730000Y-61430000D03*
D36*
X95485000Y-56730000D03*
X96755000Y-56730000D03*
X98025000Y-56730000D03*
X99295000Y-56730000D03*
X100565000Y-56730000D03*
X101835000Y-56730000D03*
X103105000Y-56730000D03*
X104375000Y-56730000D03*
X105645000Y-56730000D03*
X105645000Y-66130000D03*
X104375000Y-66130000D03*
X103105000Y-66130000D03*
X101835000Y-66130000D03*
X100565000Y-66130000D03*
X99295000Y-66130000D03*
X98025000Y-66130000D03*
X96755000Y-66130000D03*
X95485000Y-66130000D03*
M02*
