M48
INCH,TZ
T1C0.0157
T2C0.0315
T3C0.0394
T4C0.0472
T5C0.0531
T6C0.0551
T7C0.0669
T8C0.1693
%
G90
G05
T1
X31000Y-23500
X31500Y-21000
X31593Y-29685
X32250Y-21000
X33593Y-21435
X34343Y-22435
X34343Y-22935
X34343Y-23435
X34593Y-33685
X34843Y-33185
X34843Y-34185
X35433Y-34843
X36093Y-20935
X36093Y-26435
X37343Y-33435
X37593Y-29435
X38093Y-25185
X38593Y-24935
X38593Y-28935
X38843Y-30685
X39093Y-24685
X39093Y-29935
X39593Y-24435
X39593Y-28435
X40093Y-24185
X40093Y-28685
X40593Y-23935
X40593Y-27935
X41093Y-23685
X41093Y-27435
X41593Y-26935
X41593Y-40435
X43701Y-34449
X44343Y-43435
X44488Y-24803
X44843Y-40435
X45593Y-27685
X45593Y-29435
X47343Y-37435
X48093Y-28435
X48343Y-40685
X48622Y-50000
X49803Y-33858
X49803Y-35236
X49803Y-45472
X49843Y-26435
X49843Y-38185
X49843Y-39685
X49843Y-41435
X49843Y-42935
X49843Y-47685
X50343Y-33185
X50843Y-29435
X50843Y-30435
X50843Y-31435
X50843Y-32435
T2
X12795Y-30610
X27953Y-21654
X28150Y-24803
X28150Y-27756
X28343Y-30685
X28343Y-36685
X28343Y-39685
X28343Y-42685
X28593Y-33685
X29331Y-23228
X29331Y-26181
X29331Y-29134
X29843Y-35185
X29843Y-38185
X29843Y-41185
X29843Y-44185
X32093Y-27185
X33843Y-25935
X34093Y-21185
X34093Y-21935
X41593Y-23435
X46654Y-39943
X47047Y-33071
X43457Y-22197
X43457Y-23197
X43457Y-24197
X43457Y-25197
X46457Y-22197
X46457Y-23197
X46457Y-24197
X46457Y-25197
X37110Y-35409
X37110Y-36409
X37110Y-37409
X37110Y-38409
X37110Y-39409
X37110Y-40409
X37110Y-41409
X37110Y-42409
X37110Y-43409
X37110Y-44409
X37110Y-45409
X37110Y-46409
X37110Y-47409
X37110Y-48409
X37110Y-49409
X43110Y-35409
X43110Y-36409
X43110Y-37409
X43110Y-38409
X43110Y-39409
X43110Y-40409
X43110Y-41409
X43110Y-42409
X43110Y-43409
X43110Y-44409
X43110Y-45409
X43110Y-46409
X43110Y-47409
X43110Y-48409
X43110Y-49409
T3
X45669Y-49213
X45669Y-47441
X34343Y-36435
X34343Y-37435
X34343Y-38435
X33374Y-41685
X35343Y-41685
X45669Y-45669
T4
X14843Y-21685
X14843Y-22685
X14843Y-23685
X14843Y-24685
X14843Y-25685
X14843Y-26685
X14843Y-27685
X14843Y-28685
X14843Y-29685
X52343Y-24435
X52343Y-25435
X52343Y-26435
X52343Y-27435
X52343Y-28435
X52343Y-29435
X52343Y-30435
X52343Y-31435
X52343Y-32435
X22843Y-21685
X22843Y-22685
X22843Y-23685
X22843Y-24685
X22843Y-25685
X22843Y-26685
X22843Y-27685
X22843Y-28685
X22843Y-29685
X18843Y-21685
X18843Y-22685
X18843Y-23685
X18843Y-24685
X18843Y-25685
X18843Y-26685
X18843Y-27685
X18843Y-28685
X18843Y-29685
T5
X27311Y-48185
X27311Y-50185
X33343Y-48185
X33343Y-50185
T6
X31093Y-44685
X35093Y-44685
T7
X22343Y-32205
X22343Y-33765
X22343Y-35325
X22343Y-36885
X22343Y-38445
X22343Y-40005
X22343Y-41565
X22343Y-43125
X22343Y-44685
X16343Y-32205
X16343Y-33765
X16343Y-35325
X16343Y-36885
X16343Y-38445
X16343Y-40005
X16343Y-41565
X16343Y-43125
X16343Y-44685
X16343Y-46565
X16343Y-48125
X16343Y-49685
X51593Y-34435
X51593Y-35995
X51593Y-37555
X51593Y-39115
X51593Y-40675
X51593Y-42235
X51593Y-43795
X51593Y-45355
X51593Y-46915
X22343Y-48125
X22343Y-49685
T8
X11811Y-49606
X52756Y-21654
X52953Y-49606
X11614Y-21654
T0
M30
