G04 #@! TF.FileFunction,Legend,Bot*
%FSLAX46Y46*%
G04 Gerber Fmt 4.6, Leading zero omitted, Abs format (unit mm)*
G04 Created by KiCad (PCBNEW 4.0.7) date 01/26/18 13:22:03*
%MOMM*%
%LPD*%
G01*
G04 APERTURE LIST*
%ADD10C,0.100000*%
%ADD11C,0.120000*%
%ADD12C,0.150000*%
G04 APERTURE END LIST*
D10*
D11*
X85460000Y-108205000D02*
X86460000Y-108205000D01*
X86460000Y-109905000D02*
X85460000Y-109905000D01*
X88920000Y-94315000D02*
X88920000Y-93315000D01*
X90620000Y-93315000D02*
X90620000Y-94315000D01*
X127200000Y-86585000D02*
X126000000Y-86585000D01*
X126000000Y-88345000D02*
X127200000Y-88345000D01*
X127200000Y-90395000D02*
X126000000Y-90395000D01*
X126000000Y-92155000D02*
X127200000Y-92155000D01*
X127200000Y-102460000D02*
X126000000Y-102460000D01*
X126000000Y-104220000D02*
X127200000Y-104220000D01*
X127200000Y-106270000D02*
X126000000Y-106270000D01*
X126000000Y-108030000D02*
X127200000Y-108030000D01*
X127200000Y-110080000D02*
X126000000Y-110080000D01*
X126000000Y-111840000D02*
X127200000Y-111840000D01*
X127200000Y-118335000D02*
X126000000Y-118335000D01*
X126000000Y-120095000D02*
X127200000Y-120095000D01*
X92555000Y-99495000D02*
X92555000Y-98295000D01*
X90795000Y-98295000D02*
X90795000Y-99495000D01*
X107795000Y-81080000D02*
X107795000Y-79880000D01*
X106035000Y-79880000D02*
X106035000Y-81080000D01*
X80210000Y-106270000D02*
X79010000Y-106270000D01*
X79010000Y-108030000D02*
X80210000Y-108030000D01*
X69150000Y-74490000D02*
X70650000Y-74490000D01*
X70650000Y-74490000D02*
X70650000Y-74760000D01*
X70650000Y-74760000D02*
X73480000Y-74760000D01*
X69150000Y-81390000D02*
X70650000Y-81390000D01*
X70650000Y-81390000D02*
X70650000Y-81120000D01*
X70650000Y-81120000D02*
X71750000Y-81120000D01*
X69150000Y-66870000D02*
X70650000Y-66870000D01*
X70650000Y-66870000D02*
X70650000Y-67140000D01*
X70650000Y-67140000D02*
X73480000Y-67140000D01*
X69150000Y-73770000D02*
X70650000Y-73770000D01*
X70650000Y-73770000D02*
X70650000Y-73500000D01*
X70650000Y-73500000D02*
X71750000Y-73500000D01*
X69150000Y-59250000D02*
X70650000Y-59250000D01*
X70650000Y-59250000D02*
X70650000Y-59520000D01*
X70650000Y-59520000D02*
X73480000Y-59520000D01*
X69150000Y-66150000D02*
X70650000Y-66150000D01*
X70650000Y-66150000D02*
X70650000Y-65880000D01*
X70650000Y-65880000D02*
X71750000Y-65880000D01*
X69150000Y-51630000D02*
X70650000Y-51630000D01*
X70650000Y-51630000D02*
X70650000Y-51900000D01*
X70650000Y-51900000D02*
X73480000Y-51900000D01*
X69150000Y-58530000D02*
X70650000Y-58530000D01*
X70650000Y-58530000D02*
X70650000Y-58260000D01*
X70650000Y-58260000D02*
X71750000Y-58260000D01*
D12*
X122150000Y-104145000D02*
X122125000Y-104145000D01*
X122150000Y-99995000D02*
X122045000Y-99995000D01*
X112000000Y-99995000D02*
X112105000Y-99995000D01*
X112000000Y-104145000D02*
X112105000Y-104145000D01*
X122150000Y-104145000D02*
X122150000Y-99995000D01*
X112000000Y-104145000D02*
X112000000Y-99995000D01*
X122125000Y-104145000D02*
X122125000Y-105520000D01*
X127230000Y-73665000D02*
X127205000Y-73665000D01*
X127230000Y-69515000D02*
X127125000Y-69515000D01*
X117080000Y-69515000D02*
X117185000Y-69515000D01*
X117080000Y-73665000D02*
X117185000Y-73665000D01*
X127230000Y-73665000D02*
X127230000Y-69515000D01*
X117080000Y-73665000D02*
X117080000Y-69515000D01*
X127205000Y-73665000D02*
X127205000Y-75040000D01*
X83885000Y-63965000D02*
X83885000Y-63940000D01*
X88035000Y-63965000D02*
X88035000Y-63860000D01*
X88035000Y-53815000D02*
X88035000Y-53920000D01*
X83885000Y-53815000D02*
X83885000Y-53920000D01*
X83885000Y-63965000D02*
X88035000Y-63965000D01*
X83885000Y-53815000D02*
X88035000Y-53815000D01*
X83885000Y-63940000D02*
X82510000Y-63940000D01*
D11*
X98240000Y-118715000D02*
X98240000Y-119715000D01*
X96540000Y-119715000D02*
X96540000Y-118715000D01*
X69150000Y-104970000D02*
X70650000Y-104970000D01*
X70650000Y-104970000D02*
X70650000Y-105240000D01*
X70650000Y-105240000D02*
X73480000Y-105240000D01*
X69150000Y-111870000D02*
X70650000Y-111870000D01*
X70650000Y-111870000D02*
X70650000Y-111600000D01*
X70650000Y-111600000D02*
X71750000Y-111600000D01*
X69150000Y-97350000D02*
X70650000Y-97350000D01*
X70650000Y-97350000D02*
X70650000Y-97620000D01*
X70650000Y-97620000D02*
X73480000Y-97620000D01*
X69150000Y-104250000D02*
X70650000Y-104250000D01*
X70650000Y-104250000D02*
X70650000Y-103980000D01*
X70650000Y-103980000D02*
X71750000Y-103980000D01*
X69150000Y-89730000D02*
X70650000Y-89730000D01*
X70650000Y-89730000D02*
X70650000Y-90000000D01*
X70650000Y-90000000D02*
X73480000Y-90000000D01*
X69150000Y-96630000D02*
X70650000Y-96630000D01*
X70650000Y-96630000D02*
X70650000Y-96360000D01*
X70650000Y-96360000D02*
X71750000Y-96360000D01*
X127200000Y-94205000D02*
X126000000Y-94205000D01*
X126000000Y-95965000D02*
X127200000Y-95965000D01*
X127200000Y-98015000D02*
X126000000Y-98015000D01*
X126000000Y-99775000D02*
X127200000Y-99775000D01*
X80210000Y-98650000D02*
X79010000Y-98650000D01*
X79010000Y-100410000D02*
X80210000Y-100410000D01*
X80210000Y-91030000D02*
X79010000Y-91030000D01*
X79010000Y-92790000D02*
X80210000Y-92790000D01*
X74920000Y-107820000D02*
X74920000Y-109020000D01*
X76680000Y-109020000D02*
X76680000Y-107820000D01*
X74920000Y-100200000D02*
X74920000Y-101400000D01*
X76680000Y-101400000D02*
X76680000Y-100200000D01*
X74920000Y-92580000D02*
X74920000Y-93780000D01*
X76680000Y-93780000D02*
X76680000Y-92580000D01*
X77670000Y-75790000D02*
X76470000Y-75790000D01*
X76470000Y-77550000D02*
X77670000Y-77550000D01*
X77670000Y-78330000D02*
X76470000Y-78330000D01*
X76470000Y-80090000D02*
X77670000Y-80090000D01*
X77670000Y-68170000D02*
X76470000Y-68170000D01*
X76470000Y-69930000D02*
X77670000Y-69930000D01*
X77670000Y-70710000D02*
X76470000Y-70710000D01*
X76470000Y-72470000D02*
X77670000Y-72470000D01*
X77670000Y-60550000D02*
X76470000Y-60550000D01*
X76470000Y-62310000D02*
X77670000Y-62310000D01*
X77670000Y-63090000D02*
X76470000Y-63090000D01*
X76470000Y-64850000D02*
X77670000Y-64850000D01*
X77670000Y-52930000D02*
X76470000Y-52930000D01*
X76470000Y-54690000D02*
X77670000Y-54690000D01*
X77670000Y-55470000D02*
X76470000Y-55470000D01*
X76470000Y-57230000D02*
X77670000Y-57230000D01*
X29480000Y-75645000D02*
X30680000Y-75645000D01*
X30680000Y-73885000D02*
X29480000Y-73885000D01*
X29480000Y-73740000D02*
X30680000Y-73740000D01*
X30680000Y-71980000D02*
X29480000Y-71980000D01*
X29480000Y-71835000D02*
X30680000Y-71835000D01*
X30680000Y-70075000D02*
X29480000Y-70075000D01*
X29480000Y-69930000D02*
X30680000Y-69930000D01*
X30680000Y-68170000D02*
X29480000Y-68170000D01*
X29480000Y-68025000D02*
X30680000Y-68025000D01*
X30680000Y-66265000D02*
X29480000Y-66265000D01*
X29480000Y-66120000D02*
X30680000Y-66120000D01*
X30680000Y-64360000D02*
X29480000Y-64360000D01*
X29480000Y-64215000D02*
X30680000Y-64215000D01*
X30680000Y-62455000D02*
X29480000Y-62455000D01*
X29480000Y-62310000D02*
X30680000Y-62310000D01*
X30680000Y-60550000D02*
X29480000Y-60550000D01*
D12*
X94615000Y-57555000D02*
X94865000Y-57555000D01*
X94615000Y-65305000D02*
X94960000Y-65305000D01*
X106515000Y-65305000D02*
X106170000Y-65305000D01*
X106515000Y-57555000D02*
X106170000Y-57555000D01*
X94615000Y-57555000D02*
X94615000Y-65305000D01*
X106515000Y-57555000D02*
X106515000Y-65305000D01*
X94865000Y-57555000D02*
X94865000Y-55730000D01*
X86126666Y-107662143D02*
X86174285Y-107709762D01*
X86317142Y-107757381D01*
X86412380Y-107757381D01*
X86555238Y-107709762D01*
X86650476Y-107614524D01*
X86698095Y-107519286D01*
X86745714Y-107328810D01*
X86745714Y-107185952D01*
X86698095Y-106995476D01*
X86650476Y-106900238D01*
X86555238Y-106805000D01*
X86412380Y-106757381D01*
X86317142Y-106757381D01*
X86174285Y-106805000D01*
X86126666Y-106852619D01*
X85745714Y-106852619D02*
X85698095Y-106805000D01*
X85602857Y-106757381D01*
X85364761Y-106757381D01*
X85269523Y-106805000D01*
X85221904Y-106852619D01*
X85174285Y-106947857D01*
X85174285Y-107043095D01*
X85221904Y-107185952D01*
X85793333Y-107757381D01*
X85174285Y-107757381D01*
X92127143Y-93648334D02*
X92174762Y-93600715D01*
X92222381Y-93457858D01*
X92222381Y-93362620D01*
X92174762Y-93219762D01*
X92079524Y-93124524D01*
X91984286Y-93076905D01*
X91793810Y-93029286D01*
X91650952Y-93029286D01*
X91460476Y-93076905D01*
X91365238Y-93124524D01*
X91270000Y-93219762D01*
X91222381Y-93362620D01*
X91222381Y-93457858D01*
X91270000Y-93600715D01*
X91317619Y-93648334D01*
X91222381Y-93981667D02*
X91222381Y-94600715D01*
X91603333Y-94267381D01*
X91603333Y-94410239D01*
X91650952Y-94505477D01*
X91698571Y-94553096D01*
X91793810Y-94600715D01*
X92031905Y-94600715D01*
X92127143Y-94553096D01*
X92174762Y-94505477D01*
X92222381Y-94410239D01*
X92222381Y-94124524D01*
X92174762Y-94029286D01*
X92127143Y-93981667D01*
X127242857Y-89617381D02*
X127576191Y-89141190D01*
X127814286Y-89617381D02*
X127814286Y-88617381D01*
X127433333Y-88617381D01*
X127338095Y-88665000D01*
X127290476Y-88712619D01*
X127242857Y-88807857D01*
X127242857Y-88950714D01*
X127290476Y-89045952D01*
X127338095Y-89093571D01*
X127433333Y-89141190D01*
X127814286Y-89141190D01*
X126290476Y-89617381D02*
X126861905Y-89617381D01*
X126576191Y-89617381D02*
X126576191Y-88617381D01*
X126671429Y-88760238D01*
X126766667Y-88855476D01*
X126861905Y-88903095D01*
X125957143Y-88617381D02*
X125290476Y-88617381D01*
X125719048Y-89617381D01*
X127242857Y-93427381D02*
X127576191Y-92951190D01*
X127814286Y-93427381D02*
X127814286Y-92427381D01*
X127433333Y-92427381D01*
X127338095Y-92475000D01*
X127290476Y-92522619D01*
X127242857Y-92617857D01*
X127242857Y-92760714D01*
X127290476Y-92855952D01*
X127338095Y-92903571D01*
X127433333Y-92951190D01*
X127814286Y-92951190D01*
X126290476Y-93427381D02*
X126861905Y-93427381D01*
X126576191Y-93427381D02*
X126576191Y-92427381D01*
X126671429Y-92570238D01*
X126766667Y-92665476D01*
X126861905Y-92713095D01*
X125719048Y-92855952D02*
X125814286Y-92808333D01*
X125861905Y-92760714D01*
X125909524Y-92665476D01*
X125909524Y-92617857D01*
X125861905Y-92522619D01*
X125814286Y-92475000D01*
X125719048Y-92427381D01*
X125528571Y-92427381D01*
X125433333Y-92475000D01*
X125385714Y-92522619D01*
X125338095Y-92617857D01*
X125338095Y-92665476D01*
X125385714Y-92760714D01*
X125433333Y-92808333D01*
X125528571Y-92855952D01*
X125719048Y-92855952D01*
X125814286Y-92903571D01*
X125861905Y-92951190D01*
X125909524Y-93046429D01*
X125909524Y-93236905D01*
X125861905Y-93332143D01*
X125814286Y-93379762D01*
X125719048Y-93427381D01*
X125528571Y-93427381D01*
X125433333Y-93379762D01*
X125385714Y-93332143D01*
X125338095Y-93236905D01*
X125338095Y-93046429D01*
X125385714Y-92951190D01*
X125433333Y-92903571D01*
X125528571Y-92855952D01*
X127242857Y-105492381D02*
X127576191Y-105016190D01*
X127814286Y-105492381D02*
X127814286Y-104492381D01*
X127433333Y-104492381D01*
X127338095Y-104540000D01*
X127290476Y-104587619D01*
X127242857Y-104682857D01*
X127242857Y-104825714D01*
X127290476Y-104920952D01*
X127338095Y-104968571D01*
X127433333Y-105016190D01*
X127814286Y-105016190D01*
X126861905Y-104587619D02*
X126814286Y-104540000D01*
X126719048Y-104492381D01*
X126480952Y-104492381D01*
X126385714Y-104540000D01*
X126338095Y-104587619D01*
X126290476Y-104682857D01*
X126290476Y-104778095D01*
X126338095Y-104920952D01*
X126909524Y-105492381D01*
X126290476Y-105492381D01*
X125338095Y-105492381D02*
X125909524Y-105492381D01*
X125623810Y-105492381D02*
X125623810Y-104492381D01*
X125719048Y-104635238D01*
X125814286Y-104730476D01*
X125909524Y-104778095D01*
X127242857Y-109302381D02*
X127576191Y-108826190D01*
X127814286Y-109302381D02*
X127814286Y-108302381D01*
X127433333Y-108302381D01*
X127338095Y-108350000D01*
X127290476Y-108397619D01*
X127242857Y-108492857D01*
X127242857Y-108635714D01*
X127290476Y-108730952D01*
X127338095Y-108778571D01*
X127433333Y-108826190D01*
X127814286Y-108826190D01*
X126861905Y-108397619D02*
X126814286Y-108350000D01*
X126719048Y-108302381D01*
X126480952Y-108302381D01*
X126385714Y-108350000D01*
X126338095Y-108397619D01*
X126290476Y-108492857D01*
X126290476Y-108588095D01*
X126338095Y-108730952D01*
X126909524Y-109302381D01*
X126290476Y-109302381D01*
X125909524Y-108397619D02*
X125861905Y-108350000D01*
X125766667Y-108302381D01*
X125528571Y-108302381D01*
X125433333Y-108350000D01*
X125385714Y-108397619D01*
X125338095Y-108492857D01*
X125338095Y-108588095D01*
X125385714Y-108730952D01*
X125957143Y-109302381D01*
X125338095Y-109302381D01*
X127242857Y-113112381D02*
X127576191Y-112636190D01*
X127814286Y-113112381D02*
X127814286Y-112112381D01*
X127433333Y-112112381D01*
X127338095Y-112160000D01*
X127290476Y-112207619D01*
X127242857Y-112302857D01*
X127242857Y-112445714D01*
X127290476Y-112540952D01*
X127338095Y-112588571D01*
X127433333Y-112636190D01*
X127814286Y-112636190D01*
X126861905Y-112207619D02*
X126814286Y-112160000D01*
X126719048Y-112112381D01*
X126480952Y-112112381D01*
X126385714Y-112160000D01*
X126338095Y-112207619D01*
X126290476Y-112302857D01*
X126290476Y-112398095D01*
X126338095Y-112540952D01*
X126909524Y-113112381D01*
X126290476Y-113112381D01*
X125957143Y-112112381D02*
X125338095Y-112112381D01*
X125671429Y-112493333D01*
X125528571Y-112493333D01*
X125433333Y-112540952D01*
X125385714Y-112588571D01*
X125338095Y-112683810D01*
X125338095Y-112921905D01*
X125385714Y-113017143D01*
X125433333Y-113064762D01*
X125528571Y-113112381D01*
X125814286Y-113112381D01*
X125909524Y-113064762D01*
X125957143Y-113017143D01*
X127242857Y-121367381D02*
X127576191Y-120891190D01*
X127814286Y-121367381D02*
X127814286Y-120367381D01*
X127433333Y-120367381D01*
X127338095Y-120415000D01*
X127290476Y-120462619D01*
X127242857Y-120557857D01*
X127242857Y-120700714D01*
X127290476Y-120795952D01*
X127338095Y-120843571D01*
X127433333Y-120891190D01*
X127814286Y-120891190D01*
X126861905Y-120462619D02*
X126814286Y-120415000D01*
X126719048Y-120367381D01*
X126480952Y-120367381D01*
X126385714Y-120415000D01*
X126338095Y-120462619D01*
X126290476Y-120557857D01*
X126290476Y-120653095D01*
X126338095Y-120795952D01*
X126909524Y-121367381D01*
X126290476Y-121367381D01*
X125433333Y-120700714D02*
X125433333Y-121367381D01*
X125671429Y-120319762D02*
X125909524Y-121034048D01*
X125290476Y-121034048D01*
X90427381Y-98252143D02*
X89951190Y-97918809D01*
X90427381Y-97680714D02*
X89427381Y-97680714D01*
X89427381Y-98061667D01*
X89475000Y-98156905D01*
X89522619Y-98204524D01*
X89617857Y-98252143D01*
X89760714Y-98252143D01*
X89855952Y-98204524D01*
X89903571Y-98156905D01*
X89951190Y-98061667D01*
X89951190Y-97680714D01*
X89522619Y-98633095D02*
X89475000Y-98680714D01*
X89427381Y-98775952D01*
X89427381Y-99014048D01*
X89475000Y-99109286D01*
X89522619Y-99156905D01*
X89617857Y-99204524D01*
X89713095Y-99204524D01*
X89855952Y-99156905D01*
X90427381Y-98585476D01*
X90427381Y-99204524D01*
X89427381Y-100109286D02*
X89427381Y-99633095D01*
X89903571Y-99585476D01*
X89855952Y-99633095D01*
X89808333Y-99728333D01*
X89808333Y-99966429D01*
X89855952Y-100061667D01*
X89903571Y-100109286D01*
X89998810Y-100156905D01*
X90236905Y-100156905D01*
X90332143Y-100109286D01*
X90379762Y-100061667D01*
X90427381Y-99966429D01*
X90427381Y-99728333D01*
X90379762Y-99633095D01*
X90332143Y-99585476D01*
X105667381Y-79837143D02*
X105191190Y-79503809D01*
X105667381Y-79265714D02*
X104667381Y-79265714D01*
X104667381Y-79646667D01*
X104715000Y-79741905D01*
X104762619Y-79789524D01*
X104857857Y-79837143D01*
X105000714Y-79837143D01*
X105095952Y-79789524D01*
X105143571Y-79741905D01*
X105191190Y-79646667D01*
X105191190Y-79265714D01*
X104762619Y-80218095D02*
X104715000Y-80265714D01*
X104667381Y-80360952D01*
X104667381Y-80599048D01*
X104715000Y-80694286D01*
X104762619Y-80741905D01*
X104857857Y-80789524D01*
X104953095Y-80789524D01*
X105095952Y-80741905D01*
X105667381Y-80170476D01*
X105667381Y-80789524D01*
X104667381Y-81646667D02*
X104667381Y-81456190D01*
X104715000Y-81360952D01*
X104762619Y-81313333D01*
X104905476Y-81218095D01*
X105095952Y-81170476D01*
X105476905Y-81170476D01*
X105572143Y-81218095D01*
X105619762Y-81265714D01*
X105667381Y-81360952D01*
X105667381Y-81551429D01*
X105619762Y-81646667D01*
X105572143Y-81694286D01*
X105476905Y-81741905D01*
X105238810Y-81741905D01*
X105143571Y-81694286D01*
X105095952Y-81646667D01*
X105048333Y-81551429D01*
X105048333Y-81360952D01*
X105095952Y-81265714D01*
X105143571Y-81218095D01*
X105238810Y-81170476D01*
X80252857Y-109302381D02*
X80586191Y-108826190D01*
X80824286Y-109302381D02*
X80824286Y-108302381D01*
X80443333Y-108302381D01*
X80348095Y-108350000D01*
X80300476Y-108397619D01*
X80252857Y-108492857D01*
X80252857Y-108635714D01*
X80300476Y-108730952D01*
X80348095Y-108778571D01*
X80443333Y-108826190D01*
X80824286Y-108826190D01*
X79871905Y-108397619D02*
X79824286Y-108350000D01*
X79729048Y-108302381D01*
X79490952Y-108302381D01*
X79395714Y-108350000D01*
X79348095Y-108397619D01*
X79300476Y-108492857D01*
X79300476Y-108588095D01*
X79348095Y-108730952D01*
X79919524Y-109302381D01*
X79300476Y-109302381D01*
X78729048Y-108730952D02*
X78824286Y-108683333D01*
X78871905Y-108635714D01*
X78919524Y-108540476D01*
X78919524Y-108492857D01*
X78871905Y-108397619D01*
X78824286Y-108350000D01*
X78729048Y-108302381D01*
X78538571Y-108302381D01*
X78443333Y-108350000D01*
X78395714Y-108397619D01*
X78348095Y-108492857D01*
X78348095Y-108540476D01*
X78395714Y-108635714D01*
X78443333Y-108683333D01*
X78538571Y-108730952D01*
X78729048Y-108730952D01*
X78824286Y-108778571D01*
X78871905Y-108826190D01*
X78919524Y-108921429D01*
X78919524Y-109111905D01*
X78871905Y-109207143D01*
X78824286Y-109254762D01*
X78729048Y-109302381D01*
X78538571Y-109302381D01*
X78443333Y-109254762D01*
X78395714Y-109207143D01*
X78348095Y-109111905D01*
X78348095Y-108921429D01*
X78395714Y-108826190D01*
X78443333Y-108778571D01*
X78538571Y-108730952D01*
X68751428Y-73987619D02*
X68846666Y-73940000D01*
X68941904Y-73844762D01*
X69084761Y-73701905D01*
X69180000Y-73654286D01*
X69275238Y-73654286D01*
X69227619Y-73892381D02*
X69322857Y-73844762D01*
X69418095Y-73749524D01*
X69465714Y-73559048D01*
X69465714Y-73225714D01*
X69418095Y-73035238D01*
X69322857Y-72940000D01*
X69227619Y-72892381D01*
X69037142Y-72892381D01*
X68941904Y-72940000D01*
X68846666Y-73035238D01*
X68799047Y-73225714D01*
X68799047Y-73559048D01*
X68846666Y-73749524D01*
X68941904Y-73844762D01*
X69037142Y-73892381D01*
X69227619Y-73892381D01*
X67846666Y-73892381D02*
X68418095Y-73892381D01*
X68132381Y-73892381D02*
X68132381Y-72892381D01*
X68227619Y-73035238D01*
X68322857Y-73130476D01*
X68418095Y-73178095D01*
X67227619Y-72892381D02*
X67132380Y-72892381D01*
X67037142Y-72940000D01*
X66989523Y-72987619D01*
X66941904Y-73082857D01*
X66894285Y-73273333D01*
X66894285Y-73511429D01*
X66941904Y-73701905D01*
X66989523Y-73797143D01*
X67037142Y-73844762D01*
X67132380Y-73892381D01*
X67227619Y-73892381D01*
X67322857Y-73844762D01*
X67370476Y-73797143D01*
X67418095Y-73701905D01*
X67465714Y-73511429D01*
X67465714Y-73273333D01*
X67418095Y-73082857D01*
X67370476Y-72987619D01*
X67322857Y-72940000D01*
X67227619Y-72892381D01*
X68751428Y-66367619D02*
X68846666Y-66320000D01*
X68941904Y-66224762D01*
X69084761Y-66081905D01*
X69180000Y-66034286D01*
X69275238Y-66034286D01*
X69227619Y-66272381D02*
X69322857Y-66224762D01*
X69418095Y-66129524D01*
X69465714Y-65939048D01*
X69465714Y-65605714D01*
X69418095Y-65415238D01*
X69322857Y-65320000D01*
X69227619Y-65272381D01*
X69037142Y-65272381D01*
X68941904Y-65320000D01*
X68846666Y-65415238D01*
X68799047Y-65605714D01*
X68799047Y-65939048D01*
X68846666Y-66129524D01*
X68941904Y-66224762D01*
X69037142Y-66272381D01*
X69227619Y-66272381D01*
X67846666Y-66272381D02*
X68418095Y-66272381D01*
X68132381Y-66272381D02*
X68132381Y-65272381D01*
X68227619Y-65415238D01*
X68322857Y-65510476D01*
X68418095Y-65558095D01*
X67465714Y-65367619D02*
X67418095Y-65320000D01*
X67322857Y-65272381D01*
X67084761Y-65272381D01*
X66989523Y-65320000D01*
X66941904Y-65367619D01*
X66894285Y-65462857D01*
X66894285Y-65558095D01*
X66941904Y-65700952D01*
X67513333Y-66272381D01*
X66894285Y-66272381D01*
X68751428Y-58747619D02*
X68846666Y-58700000D01*
X68941904Y-58604762D01*
X69084761Y-58461905D01*
X69180000Y-58414286D01*
X69275238Y-58414286D01*
X69227619Y-58652381D02*
X69322857Y-58604762D01*
X69418095Y-58509524D01*
X69465714Y-58319048D01*
X69465714Y-57985714D01*
X69418095Y-57795238D01*
X69322857Y-57700000D01*
X69227619Y-57652381D01*
X69037142Y-57652381D01*
X68941904Y-57700000D01*
X68846666Y-57795238D01*
X68799047Y-57985714D01*
X68799047Y-58319048D01*
X68846666Y-58509524D01*
X68941904Y-58604762D01*
X69037142Y-58652381D01*
X69227619Y-58652381D01*
X67846666Y-58652381D02*
X68418095Y-58652381D01*
X68132381Y-58652381D02*
X68132381Y-57652381D01*
X68227619Y-57795238D01*
X68322857Y-57890476D01*
X68418095Y-57938095D01*
X66989523Y-57985714D02*
X66989523Y-58652381D01*
X67227619Y-57604762D02*
X67465714Y-58319048D01*
X66846666Y-58319048D01*
X68751428Y-51127619D02*
X68846666Y-51080000D01*
X68941904Y-50984762D01*
X69084761Y-50841905D01*
X69180000Y-50794286D01*
X69275238Y-50794286D01*
X69227619Y-51032381D02*
X69322857Y-50984762D01*
X69418095Y-50889524D01*
X69465714Y-50699048D01*
X69465714Y-50365714D01*
X69418095Y-50175238D01*
X69322857Y-50080000D01*
X69227619Y-50032381D01*
X69037142Y-50032381D01*
X68941904Y-50080000D01*
X68846666Y-50175238D01*
X68799047Y-50365714D01*
X68799047Y-50699048D01*
X68846666Y-50889524D01*
X68941904Y-50984762D01*
X69037142Y-51032381D01*
X69227619Y-51032381D01*
X67846666Y-51032381D02*
X68418095Y-51032381D01*
X68132381Y-51032381D02*
X68132381Y-50032381D01*
X68227619Y-50175238D01*
X68322857Y-50270476D01*
X68418095Y-50318095D01*
X66941904Y-50032381D02*
X67418095Y-50032381D01*
X67465714Y-50508571D01*
X67418095Y-50460952D01*
X67322857Y-50413333D01*
X67084761Y-50413333D01*
X66989523Y-50460952D01*
X66941904Y-50508571D01*
X66894285Y-50603810D01*
X66894285Y-50841905D01*
X66941904Y-50937143D01*
X66989523Y-50984762D01*
X67084761Y-51032381D01*
X67322857Y-51032381D01*
X67418095Y-50984762D01*
X67465714Y-50937143D01*
X122527381Y-101308095D02*
X123336905Y-101308095D01*
X123432143Y-101355714D01*
X123479762Y-101403333D01*
X123527381Y-101498571D01*
X123527381Y-101689048D01*
X123479762Y-101784286D01*
X123432143Y-101831905D01*
X123336905Y-101879524D01*
X122527381Y-101879524D01*
X123527381Y-102879524D02*
X123527381Y-102308095D01*
X123527381Y-102593809D02*
X122527381Y-102593809D01*
X122670238Y-102498571D01*
X122765476Y-102403333D01*
X122813095Y-102308095D01*
X127607381Y-70828095D02*
X128416905Y-70828095D01*
X128512143Y-70875714D01*
X128559762Y-70923333D01*
X128607381Y-71018571D01*
X128607381Y-71209048D01*
X128559762Y-71304286D01*
X128512143Y-71351905D01*
X128416905Y-71399524D01*
X127607381Y-71399524D01*
X127702619Y-71828095D02*
X127655000Y-71875714D01*
X127607381Y-71970952D01*
X127607381Y-72209048D01*
X127655000Y-72304286D01*
X127702619Y-72351905D01*
X127797857Y-72399524D01*
X127893095Y-72399524D01*
X128035952Y-72351905D01*
X128607381Y-71780476D01*
X128607381Y-72399524D01*
X86721905Y-64342381D02*
X86721905Y-65151905D01*
X86674286Y-65247143D01*
X86626667Y-65294762D01*
X86531429Y-65342381D01*
X86340952Y-65342381D01*
X86245714Y-65294762D01*
X86198095Y-65247143D01*
X86150476Y-65151905D01*
X86150476Y-64342381D01*
X85245714Y-64342381D02*
X85436191Y-64342381D01*
X85531429Y-64390000D01*
X85579048Y-64437619D01*
X85674286Y-64580476D01*
X85721905Y-64770952D01*
X85721905Y-65151905D01*
X85674286Y-65247143D01*
X85626667Y-65294762D01*
X85531429Y-65342381D01*
X85340952Y-65342381D01*
X85245714Y-65294762D01*
X85198095Y-65247143D01*
X85150476Y-65151905D01*
X85150476Y-64913810D01*
X85198095Y-64818571D01*
X85245714Y-64770952D01*
X85340952Y-64723333D01*
X85531429Y-64723333D01*
X85626667Y-64770952D01*
X85674286Y-64818571D01*
X85721905Y-64913810D01*
X99497143Y-119048334D02*
X99544762Y-119000715D01*
X99592381Y-118857858D01*
X99592381Y-118762620D01*
X99544762Y-118619762D01*
X99449524Y-118524524D01*
X99354286Y-118476905D01*
X99163810Y-118429286D01*
X99020952Y-118429286D01*
X98830476Y-118476905D01*
X98735238Y-118524524D01*
X98640000Y-118619762D01*
X98592381Y-118762620D01*
X98592381Y-118857858D01*
X98640000Y-119000715D01*
X98687619Y-119048334D01*
X98925714Y-119905477D02*
X99592381Y-119905477D01*
X98544762Y-119667381D02*
X99259048Y-119429286D01*
X99259048Y-120048334D01*
X68275238Y-104467619D02*
X68370476Y-104420000D01*
X68465714Y-104324762D01*
X68608571Y-104181905D01*
X68703810Y-104134286D01*
X68799048Y-104134286D01*
X68751429Y-104372381D02*
X68846667Y-104324762D01*
X68941905Y-104229524D01*
X68989524Y-104039048D01*
X68989524Y-103705714D01*
X68941905Y-103515238D01*
X68846667Y-103420000D01*
X68751429Y-103372381D01*
X68560952Y-103372381D01*
X68465714Y-103420000D01*
X68370476Y-103515238D01*
X68322857Y-103705714D01*
X68322857Y-104039048D01*
X68370476Y-104229524D01*
X68465714Y-104324762D01*
X68560952Y-104372381D01*
X68751429Y-104372381D01*
X67941905Y-103467619D02*
X67894286Y-103420000D01*
X67799048Y-103372381D01*
X67560952Y-103372381D01*
X67465714Y-103420000D01*
X67418095Y-103467619D01*
X67370476Y-103562857D01*
X67370476Y-103658095D01*
X67418095Y-103800952D01*
X67989524Y-104372381D01*
X67370476Y-104372381D01*
X68275238Y-96847619D02*
X68370476Y-96800000D01*
X68465714Y-96704762D01*
X68608571Y-96561905D01*
X68703810Y-96514286D01*
X68799048Y-96514286D01*
X68751429Y-96752381D02*
X68846667Y-96704762D01*
X68941905Y-96609524D01*
X68989524Y-96419048D01*
X68989524Y-96085714D01*
X68941905Y-95895238D01*
X68846667Y-95800000D01*
X68751429Y-95752381D01*
X68560952Y-95752381D01*
X68465714Y-95800000D01*
X68370476Y-95895238D01*
X68322857Y-96085714D01*
X68322857Y-96419048D01*
X68370476Y-96609524D01*
X68465714Y-96704762D01*
X68560952Y-96752381D01*
X68751429Y-96752381D01*
X67465714Y-96085714D02*
X67465714Y-96752381D01*
X67703810Y-95704762D02*
X67941905Y-96419048D01*
X67322857Y-96419048D01*
X68275238Y-89227619D02*
X68370476Y-89180000D01*
X68465714Y-89084762D01*
X68608571Y-88941905D01*
X68703810Y-88894286D01*
X68799048Y-88894286D01*
X68751429Y-89132381D02*
X68846667Y-89084762D01*
X68941905Y-88989524D01*
X68989524Y-88799048D01*
X68989524Y-88465714D01*
X68941905Y-88275238D01*
X68846667Y-88180000D01*
X68751429Y-88132381D01*
X68560952Y-88132381D01*
X68465714Y-88180000D01*
X68370476Y-88275238D01*
X68322857Y-88465714D01*
X68322857Y-88799048D01*
X68370476Y-88989524D01*
X68465714Y-89084762D01*
X68560952Y-89132381D01*
X68751429Y-89132381D01*
X67465714Y-88132381D02*
X67656191Y-88132381D01*
X67751429Y-88180000D01*
X67799048Y-88227619D01*
X67894286Y-88370476D01*
X67941905Y-88560952D01*
X67941905Y-88941905D01*
X67894286Y-89037143D01*
X67846667Y-89084762D01*
X67751429Y-89132381D01*
X67560952Y-89132381D01*
X67465714Y-89084762D01*
X67418095Y-89037143D01*
X67370476Y-88941905D01*
X67370476Y-88703810D01*
X67418095Y-88608571D01*
X67465714Y-88560952D01*
X67560952Y-88513333D01*
X67751429Y-88513333D01*
X67846667Y-88560952D01*
X67894286Y-88608571D01*
X67941905Y-88703810D01*
X127242857Y-97237381D02*
X127576191Y-96761190D01*
X127814286Y-97237381D02*
X127814286Y-96237381D01*
X127433333Y-96237381D01*
X127338095Y-96285000D01*
X127290476Y-96332619D01*
X127242857Y-96427857D01*
X127242857Y-96570714D01*
X127290476Y-96665952D01*
X127338095Y-96713571D01*
X127433333Y-96761190D01*
X127814286Y-96761190D01*
X126290476Y-97237381D02*
X126861905Y-97237381D01*
X126576191Y-97237381D02*
X126576191Y-96237381D01*
X126671429Y-96380238D01*
X126766667Y-96475476D01*
X126861905Y-96523095D01*
X125814286Y-97237381D02*
X125623810Y-97237381D01*
X125528571Y-97189762D01*
X125480952Y-97142143D01*
X125385714Y-96999286D01*
X125338095Y-96808810D01*
X125338095Y-96427857D01*
X125385714Y-96332619D01*
X125433333Y-96285000D01*
X125528571Y-96237381D01*
X125719048Y-96237381D01*
X125814286Y-96285000D01*
X125861905Y-96332619D01*
X125909524Y-96427857D01*
X125909524Y-96665952D01*
X125861905Y-96761190D01*
X125814286Y-96808810D01*
X125719048Y-96856429D01*
X125528571Y-96856429D01*
X125433333Y-96808810D01*
X125385714Y-96761190D01*
X125338095Y-96665952D01*
X127242857Y-101047381D02*
X127576191Y-100571190D01*
X127814286Y-101047381D02*
X127814286Y-100047381D01*
X127433333Y-100047381D01*
X127338095Y-100095000D01*
X127290476Y-100142619D01*
X127242857Y-100237857D01*
X127242857Y-100380714D01*
X127290476Y-100475952D01*
X127338095Y-100523571D01*
X127433333Y-100571190D01*
X127814286Y-100571190D01*
X126861905Y-100142619D02*
X126814286Y-100095000D01*
X126719048Y-100047381D01*
X126480952Y-100047381D01*
X126385714Y-100095000D01*
X126338095Y-100142619D01*
X126290476Y-100237857D01*
X126290476Y-100333095D01*
X126338095Y-100475952D01*
X126909524Y-101047381D01*
X126290476Y-101047381D01*
X125671429Y-100047381D02*
X125576190Y-100047381D01*
X125480952Y-100095000D01*
X125433333Y-100142619D01*
X125385714Y-100237857D01*
X125338095Y-100428333D01*
X125338095Y-100666429D01*
X125385714Y-100856905D01*
X125433333Y-100952143D01*
X125480952Y-100999762D01*
X125576190Y-101047381D01*
X125671429Y-101047381D01*
X125766667Y-100999762D01*
X125814286Y-100952143D01*
X125861905Y-100856905D01*
X125909524Y-100666429D01*
X125909524Y-100428333D01*
X125861905Y-100237857D01*
X125814286Y-100142619D01*
X125766667Y-100095000D01*
X125671429Y-100047381D01*
X80252857Y-101682381D02*
X80586191Y-101206190D01*
X80824286Y-101682381D02*
X80824286Y-100682381D01*
X80443333Y-100682381D01*
X80348095Y-100730000D01*
X80300476Y-100777619D01*
X80252857Y-100872857D01*
X80252857Y-101015714D01*
X80300476Y-101110952D01*
X80348095Y-101158571D01*
X80443333Y-101206190D01*
X80824286Y-101206190D01*
X79919524Y-100682381D02*
X79300476Y-100682381D01*
X79633810Y-101063333D01*
X79490952Y-101063333D01*
X79395714Y-101110952D01*
X79348095Y-101158571D01*
X79300476Y-101253810D01*
X79300476Y-101491905D01*
X79348095Y-101587143D01*
X79395714Y-101634762D01*
X79490952Y-101682381D01*
X79776667Y-101682381D01*
X79871905Y-101634762D01*
X79919524Y-101587143D01*
X78681429Y-100682381D02*
X78586190Y-100682381D01*
X78490952Y-100730000D01*
X78443333Y-100777619D01*
X78395714Y-100872857D01*
X78348095Y-101063333D01*
X78348095Y-101301429D01*
X78395714Y-101491905D01*
X78443333Y-101587143D01*
X78490952Y-101634762D01*
X78586190Y-101682381D01*
X78681429Y-101682381D01*
X78776667Y-101634762D01*
X78824286Y-101587143D01*
X78871905Y-101491905D01*
X78919524Y-101301429D01*
X78919524Y-101063333D01*
X78871905Y-100872857D01*
X78824286Y-100777619D01*
X78776667Y-100730000D01*
X78681429Y-100682381D01*
X80252857Y-94062381D02*
X80586191Y-93586190D01*
X80824286Y-94062381D02*
X80824286Y-93062381D01*
X80443333Y-93062381D01*
X80348095Y-93110000D01*
X80300476Y-93157619D01*
X80252857Y-93252857D01*
X80252857Y-93395714D01*
X80300476Y-93490952D01*
X80348095Y-93538571D01*
X80443333Y-93586190D01*
X80824286Y-93586190D01*
X79919524Y-93062381D02*
X79300476Y-93062381D01*
X79633810Y-93443333D01*
X79490952Y-93443333D01*
X79395714Y-93490952D01*
X79348095Y-93538571D01*
X79300476Y-93633810D01*
X79300476Y-93871905D01*
X79348095Y-93967143D01*
X79395714Y-94014762D01*
X79490952Y-94062381D01*
X79776667Y-94062381D01*
X79871905Y-94014762D01*
X79919524Y-93967143D01*
X78919524Y-93157619D02*
X78871905Y-93110000D01*
X78776667Y-93062381D01*
X78538571Y-93062381D01*
X78443333Y-93110000D01*
X78395714Y-93157619D01*
X78348095Y-93252857D01*
X78348095Y-93348095D01*
X78395714Y-93490952D01*
X78967143Y-94062381D01*
X78348095Y-94062381D01*
X77952381Y-107777143D02*
X77476190Y-107443809D01*
X77952381Y-107205714D02*
X76952381Y-107205714D01*
X76952381Y-107586667D01*
X77000000Y-107681905D01*
X77047619Y-107729524D01*
X77142857Y-107777143D01*
X77285714Y-107777143D01*
X77380952Y-107729524D01*
X77428571Y-107681905D01*
X77476190Y-107586667D01*
X77476190Y-107205714D01*
X76952381Y-108110476D02*
X76952381Y-108729524D01*
X77333333Y-108396190D01*
X77333333Y-108539048D01*
X77380952Y-108634286D01*
X77428571Y-108681905D01*
X77523810Y-108729524D01*
X77761905Y-108729524D01*
X77857143Y-108681905D01*
X77904762Y-108634286D01*
X77952381Y-108539048D01*
X77952381Y-108253333D01*
X77904762Y-108158095D01*
X77857143Y-108110476D01*
X76952381Y-109586667D02*
X76952381Y-109396190D01*
X77000000Y-109300952D01*
X77047619Y-109253333D01*
X77190476Y-109158095D01*
X77380952Y-109110476D01*
X77761905Y-109110476D01*
X77857143Y-109158095D01*
X77904762Y-109205714D01*
X77952381Y-109300952D01*
X77952381Y-109491429D01*
X77904762Y-109586667D01*
X77857143Y-109634286D01*
X77761905Y-109681905D01*
X77523810Y-109681905D01*
X77428571Y-109634286D01*
X77380952Y-109586667D01*
X77333333Y-109491429D01*
X77333333Y-109300952D01*
X77380952Y-109205714D01*
X77428571Y-109158095D01*
X77523810Y-109110476D01*
X77952381Y-100157143D02*
X77476190Y-99823809D01*
X77952381Y-99585714D02*
X76952381Y-99585714D01*
X76952381Y-99966667D01*
X77000000Y-100061905D01*
X77047619Y-100109524D01*
X77142857Y-100157143D01*
X77285714Y-100157143D01*
X77380952Y-100109524D01*
X77428571Y-100061905D01*
X77476190Y-99966667D01*
X77476190Y-99585714D01*
X76952381Y-100490476D02*
X76952381Y-101109524D01*
X77333333Y-100776190D01*
X77333333Y-100919048D01*
X77380952Y-101014286D01*
X77428571Y-101061905D01*
X77523810Y-101109524D01*
X77761905Y-101109524D01*
X77857143Y-101061905D01*
X77904762Y-101014286D01*
X77952381Y-100919048D01*
X77952381Y-100633333D01*
X77904762Y-100538095D01*
X77857143Y-100490476D01*
X77380952Y-101680952D02*
X77333333Y-101585714D01*
X77285714Y-101538095D01*
X77190476Y-101490476D01*
X77142857Y-101490476D01*
X77047619Y-101538095D01*
X77000000Y-101585714D01*
X76952381Y-101680952D01*
X76952381Y-101871429D01*
X77000000Y-101966667D01*
X77047619Y-102014286D01*
X77142857Y-102061905D01*
X77190476Y-102061905D01*
X77285714Y-102014286D01*
X77333333Y-101966667D01*
X77380952Y-101871429D01*
X77380952Y-101680952D01*
X77428571Y-101585714D01*
X77476190Y-101538095D01*
X77571429Y-101490476D01*
X77761905Y-101490476D01*
X77857143Y-101538095D01*
X77904762Y-101585714D01*
X77952381Y-101680952D01*
X77952381Y-101871429D01*
X77904762Y-101966667D01*
X77857143Y-102014286D01*
X77761905Y-102061905D01*
X77571429Y-102061905D01*
X77476190Y-102014286D01*
X77428571Y-101966667D01*
X77380952Y-101871429D01*
X77952381Y-92537143D02*
X77476190Y-92203809D01*
X77952381Y-91965714D02*
X76952381Y-91965714D01*
X76952381Y-92346667D01*
X77000000Y-92441905D01*
X77047619Y-92489524D01*
X77142857Y-92537143D01*
X77285714Y-92537143D01*
X77380952Y-92489524D01*
X77428571Y-92441905D01*
X77476190Y-92346667D01*
X77476190Y-91965714D01*
X77285714Y-93394286D02*
X77952381Y-93394286D01*
X76904762Y-93156190D02*
X77619048Y-92918095D01*
X77619048Y-93537143D01*
X76952381Y-94108571D02*
X76952381Y-94203810D01*
X77000000Y-94299048D01*
X77047619Y-94346667D01*
X77142857Y-94394286D01*
X77333333Y-94441905D01*
X77571429Y-94441905D01*
X77761905Y-94394286D01*
X77857143Y-94346667D01*
X77904762Y-94299048D01*
X77952381Y-94203810D01*
X77952381Y-94108571D01*
X77904762Y-94013333D01*
X77857143Y-93965714D01*
X77761905Y-93918095D01*
X77571429Y-93870476D01*
X77333333Y-93870476D01*
X77142857Y-93918095D01*
X77047619Y-93965714D01*
X77000000Y-94013333D01*
X76952381Y-94108571D01*
X77712857Y-78822381D02*
X78046191Y-78346190D01*
X78284286Y-78822381D02*
X78284286Y-77822381D01*
X77903333Y-77822381D01*
X77808095Y-77870000D01*
X77760476Y-77917619D01*
X77712857Y-78012857D01*
X77712857Y-78155714D01*
X77760476Y-78250952D01*
X77808095Y-78298571D01*
X77903333Y-78346190D01*
X78284286Y-78346190D01*
X76855714Y-78155714D02*
X76855714Y-78822381D01*
X77093810Y-77774762D02*
X77331905Y-78489048D01*
X76712857Y-78489048D01*
X75855714Y-77822381D02*
X76331905Y-77822381D01*
X76379524Y-78298571D01*
X76331905Y-78250952D01*
X76236667Y-78203333D01*
X75998571Y-78203333D01*
X75903333Y-78250952D01*
X75855714Y-78298571D01*
X75808095Y-78393810D01*
X75808095Y-78631905D01*
X75855714Y-78727143D01*
X75903333Y-78774762D01*
X75998571Y-78822381D01*
X76236667Y-78822381D01*
X76331905Y-78774762D01*
X76379524Y-78727143D01*
X77712857Y-81362381D02*
X78046191Y-80886190D01*
X78284286Y-81362381D02*
X78284286Y-80362381D01*
X77903333Y-80362381D01*
X77808095Y-80410000D01*
X77760476Y-80457619D01*
X77712857Y-80552857D01*
X77712857Y-80695714D01*
X77760476Y-80790952D01*
X77808095Y-80838571D01*
X77903333Y-80886190D01*
X78284286Y-80886190D01*
X76855714Y-80695714D02*
X76855714Y-81362381D01*
X77093810Y-80314762D02*
X77331905Y-81029048D01*
X76712857Y-81029048D01*
X75903333Y-80362381D02*
X76093810Y-80362381D01*
X76189048Y-80410000D01*
X76236667Y-80457619D01*
X76331905Y-80600476D01*
X76379524Y-80790952D01*
X76379524Y-81171905D01*
X76331905Y-81267143D01*
X76284286Y-81314762D01*
X76189048Y-81362381D01*
X75998571Y-81362381D01*
X75903333Y-81314762D01*
X75855714Y-81267143D01*
X75808095Y-81171905D01*
X75808095Y-80933810D01*
X75855714Y-80838571D01*
X75903333Y-80790952D01*
X75998571Y-80743333D01*
X76189048Y-80743333D01*
X76284286Y-80790952D01*
X76331905Y-80838571D01*
X76379524Y-80933810D01*
X77712857Y-71202381D02*
X78046191Y-70726190D01*
X78284286Y-71202381D02*
X78284286Y-70202381D01*
X77903333Y-70202381D01*
X77808095Y-70250000D01*
X77760476Y-70297619D01*
X77712857Y-70392857D01*
X77712857Y-70535714D01*
X77760476Y-70630952D01*
X77808095Y-70678571D01*
X77903333Y-70726190D01*
X78284286Y-70726190D01*
X76855714Y-70535714D02*
X76855714Y-71202381D01*
X77093810Y-70154762D02*
X77331905Y-70869048D01*
X76712857Y-70869048D01*
X76284286Y-71202381D02*
X76093810Y-71202381D01*
X75998571Y-71154762D01*
X75950952Y-71107143D01*
X75855714Y-70964286D01*
X75808095Y-70773810D01*
X75808095Y-70392857D01*
X75855714Y-70297619D01*
X75903333Y-70250000D01*
X75998571Y-70202381D01*
X76189048Y-70202381D01*
X76284286Y-70250000D01*
X76331905Y-70297619D01*
X76379524Y-70392857D01*
X76379524Y-70630952D01*
X76331905Y-70726190D01*
X76284286Y-70773810D01*
X76189048Y-70821429D01*
X75998571Y-70821429D01*
X75903333Y-70773810D01*
X75855714Y-70726190D01*
X75808095Y-70630952D01*
X77712857Y-73742381D02*
X78046191Y-73266190D01*
X78284286Y-73742381D02*
X78284286Y-72742381D01*
X77903333Y-72742381D01*
X77808095Y-72790000D01*
X77760476Y-72837619D01*
X77712857Y-72932857D01*
X77712857Y-73075714D01*
X77760476Y-73170952D01*
X77808095Y-73218571D01*
X77903333Y-73266190D01*
X78284286Y-73266190D01*
X76808095Y-72742381D02*
X77284286Y-72742381D01*
X77331905Y-73218571D01*
X77284286Y-73170952D01*
X77189048Y-73123333D01*
X76950952Y-73123333D01*
X76855714Y-73170952D01*
X76808095Y-73218571D01*
X76760476Y-73313810D01*
X76760476Y-73551905D01*
X76808095Y-73647143D01*
X76855714Y-73694762D01*
X76950952Y-73742381D01*
X77189048Y-73742381D01*
X77284286Y-73694762D01*
X77331905Y-73647143D01*
X76141429Y-72742381D02*
X76046190Y-72742381D01*
X75950952Y-72790000D01*
X75903333Y-72837619D01*
X75855714Y-72932857D01*
X75808095Y-73123333D01*
X75808095Y-73361429D01*
X75855714Y-73551905D01*
X75903333Y-73647143D01*
X75950952Y-73694762D01*
X76046190Y-73742381D01*
X76141429Y-73742381D01*
X76236667Y-73694762D01*
X76284286Y-73647143D01*
X76331905Y-73551905D01*
X76379524Y-73361429D01*
X76379524Y-73123333D01*
X76331905Y-72932857D01*
X76284286Y-72837619D01*
X76236667Y-72790000D01*
X76141429Y-72742381D01*
X77712857Y-63582381D02*
X78046191Y-63106190D01*
X78284286Y-63582381D02*
X78284286Y-62582381D01*
X77903333Y-62582381D01*
X77808095Y-62630000D01*
X77760476Y-62677619D01*
X77712857Y-62772857D01*
X77712857Y-62915714D01*
X77760476Y-63010952D01*
X77808095Y-63058571D01*
X77903333Y-63106190D01*
X78284286Y-63106190D01*
X76808095Y-62582381D02*
X77284286Y-62582381D01*
X77331905Y-63058571D01*
X77284286Y-63010952D01*
X77189048Y-62963333D01*
X76950952Y-62963333D01*
X76855714Y-63010952D01*
X76808095Y-63058571D01*
X76760476Y-63153810D01*
X76760476Y-63391905D01*
X76808095Y-63487143D01*
X76855714Y-63534762D01*
X76950952Y-63582381D01*
X77189048Y-63582381D01*
X77284286Y-63534762D01*
X77331905Y-63487143D01*
X76427143Y-62582381D02*
X75808095Y-62582381D01*
X76141429Y-62963333D01*
X75998571Y-62963333D01*
X75903333Y-63010952D01*
X75855714Y-63058571D01*
X75808095Y-63153810D01*
X75808095Y-63391905D01*
X75855714Y-63487143D01*
X75903333Y-63534762D01*
X75998571Y-63582381D01*
X76284286Y-63582381D01*
X76379524Y-63534762D01*
X76427143Y-63487143D01*
X77712857Y-66122381D02*
X78046191Y-65646190D01*
X78284286Y-66122381D02*
X78284286Y-65122381D01*
X77903333Y-65122381D01*
X77808095Y-65170000D01*
X77760476Y-65217619D01*
X77712857Y-65312857D01*
X77712857Y-65455714D01*
X77760476Y-65550952D01*
X77808095Y-65598571D01*
X77903333Y-65646190D01*
X78284286Y-65646190D01*
X76808095Y-65122381D02*
X77284286Y-65122381D01*
X77331905Y-65598571D01*
X77284286Y-65550952D01*
X77189048Y-65503333D01*
X76950952Y-65503333D01*
X76855714Y-65550952D01*
X76808095Y-65598571D01*
X76760476Y-65693810D01*
X76760476Y-65931905D01*
X76808095Y-66027143D01*
X76855714Y-66074762D01*
X76950952Y-66122381D01*
X77189048Y-66122381D01*
X77284286Y-66074762D01*
X77331905Y-66027143D01*
X75903333Y-65455714D02*
X75903333Y-66122381D01*
X76141429Y-65074762D02*
X76379524Y-65789048D01*
X75760476Y-65789048D01*
X77712857Y-55962381D02*
X78046191Y-55486190D01*
X78284286Y-55962381D02*
X78284286Y-54962381D01*
X77903333Y-54962381D01*
X77808095Y-55010000D01*
X77760476Y-55057619D01*
X77712857Y-55152857D01*
X77712857Y-55295714D01*
X77760476Y-55390952D01*
X77808095Y-55438571D01*
X77903333Y-55486190D01*
X78284286Y-55486190D01*
X76808095Y-54962381D02*
X77284286Y-54962381D01*
X77331905Y-55438571D01*
X77284286Y-55390952D01*
X77189048Y-55343333D01*
X76950952Y-55343333D01*
X76855714Y-55390952D01*
X76808095Y-55438571D01*
X76760476Y-55533810D01*
X76760476Y-55771905D01*
X76808095Y-55867143D01*
X76855714Y-55914762D01*
X76950952Y-55962381D01*
X77189048Y-55962381D01*
X77284286Y-55914762D01*
X77331905Y-55867143D01*
X75855714Y-54962381D02*
X76331905Y-54962381D01*
X76379524Y-55438571D01*
X76331905Y-55390952D01*
X76236667Y-55343333D01*
X75998571Y-55343333D01*
X75903333Y-55390952D01*
X75855714Y-55438571D01*
X75808095Y-55533810D01*
X75808095Y-55771905D01*
X75855714Y-55867143D01*
X75903333Y-55914762D01*
X75998571Y-55962381D01*
X76236667Y-55962381D01*
X76331905Y-55914762D01*
X76379524Y-55867143D01*
X77712857Y-58502381D02*
X78046191Y-58026190D01*
X78284286Y-58502381D02*
X78284286Y-57502381D01*
X77903333Y-57502381D01*
X77808095Y-57550000D01*
X77760476Y-57597619D01*
X77712857Y-57692857D01*
X77712857Y-57835714D01*
X77760476Y-57930952D01*
X77808095Y-57978571D01*
X77903333Y-58026190D01*
X78284286Y-58026190D01*
X76808095Y-57502381D02*
X77284286Y-57502381D01*
X77331905Y-57978571D01*
X77284286Y-57930952D01*
X77189048Y-57883333D01*
X76950952Y-57883333D01*
X76855714Y-57930952D01*
X76808095Y-57978571D01*
X76760476Y-58073810D01*
X76760476Y-58311905D01*
X76808095Y-58407143D01*
X76855714Y-58454762D01*
X76950952Y-58502381D01*
X77189048Y-58502381D01*
X77284286Y-58454762D01*
X77331905Y-58407143D01*
X75903333Y-57502381D02*
X76093810Y-57502381D01*
X76189048Y-57550000D01*
X76236667Y-57597619D01*
X76331905Y-57740476D01*
X76379524Y-57930952D01*
X76379524Y-58311905D01*
X76331905Y-58407143D01*
X76284286Y-58454762D01*
X76189048Y-58502381D01*
X75998571Y-58502381D01*
X75903333Y-58454762D01*
X75855714Y-58407143D01*
X75808095Y-58311905D01*
X75808095Y-58073810D01*
X75855714Y-57978571D01*
X75903333Y-57930952D01*
X75998571Y-57883333D01*
X76189048Y-57883333D01*
X76284286Y-57930952D01*
X76331905Y-57978571D01*
X76379524Y-58073810D01*
X30722857Y-73517381D02*
X31056191Y-73041190D01*
X31294286Y-73517381D02*
X31294286Y-72517381D01*
X30913333Y-72517381D01*
X30818095Y-72565000D01*
X30770476Y-72612619D01*
X30722857Y-72707857D01*
X30722857Y-72850714D01*
X30770476Y-72945952D01*
X30818095Y-72993571D01*
X30913333Y-73041190D01*
X31294286Y-73041190D01*
X29818095Y-72517381D02*
X30294286Y-72517381D01*
X30341905Y-72993571D01*
X30294286Y-72945952D01*
X30199048Y-72898333D01*
X29960952Y-72898333D01*
X29865714Y-72945952D01*
X29818095Y-72993571D01*
X29770476Y-73088810D01*
X29770476Y-73326905D01*
X29818095Y-73422143D01*
X29865714Y-73469762D01*
X29960952Y-73517381D01*
X30199048Y-73517381D01*
X30294286Y-73469762D01*
X30341905Y-73422143D01*
X29294286Y-73517381D02*
X29103810Y-73517381D01*
X29008571Y-73469762D01*
X28960952Y-73422143D01*
X28865714Y-73279286D01*
X28818095Y-73088810D01*
X28818095Y-72707857D01*
X28865714Y-72612619D01*
X28913333Y-72565000D01*
X29008571Y-72517381D01*
X29199048Y-72517381D01*
X29294286Y-72565000D01*
X29341905Y-72612619D01*
X29389524Y-72707857D01*
X29389524Y-72945952D01*
X29341905Y-73041190D01*
X29294286Y-73088810D01*
X29199048Y-73136429D01*
X29008571Y-73136429D01*
X28913333Y-73088810D01*
X28865714Y-73041190D01*
X28818095Y-72945952D01*
X30722857Y-71612381D02*
X31056191Y-71136190D01*
X31294286Y-71612381D02*
X31294286Y-70612381D01*
X30913333Y-70612381D01*
X30818095Y-70660000D01*
X30770476Y-70707619D01*
X30722857Y-70802857D01*
X30722857Y-70945714D01*
X30770476Y-71040952D01*
X30818095Y-71088571D01*
X30913333Y-71136190D01*
X31294286Y-71136190D01*
X29865714Y-70612381D02*
X30056191Y-70612381D01*
X30151429Y-70660000D01*
X30199048Y-70707619D01*
X30294286Y-70850476D01*
X30341905Y-71040952D01*
X30341905Y-71421905D01*
X30294286Y-71517143D01*
X30246667Y-71564762D01*
X30151429Y-71612381D01*
X29960952Y-71612381D01*
X29865714Y-71564762D01*
X29818095Y-71517143D01*
X29770476Y-71421905D01*
X29770476Y-71183810D01*
X29818095Y-71088571D01*
X29865714Y-71040952D01*
X29960952Y-70993333D01*
X30151429Y-70993333D01*
X30246667Y-71040952D01*
X30294286Y-71088571D01*
X30341905Y-71183810D01*
X29151429Y-70612381D02*
X29056190Y-70612381D01*
X28960952Y-70660000D01*
X28913333Y-70707619D01*
X28865714Y-70802857D01*
X28818095Y-70993333D01*
X28818095Y-71231429D01*
X28865714Y-71421905D01*
X28913333Y-71517143D01*
X28960952Y-71564762D01*
X29056190Y-71612381D01*
X29151429Y-71612381D01*
X29246667Y-71564762D01*
X29294286Y-71517143D01*
X29341905Y-71421905D01*
X29389524Y-71231429D01*
X29389524Y-70993333D01*
X29341905Y-70802857D01*
X29294286Y-70707619D01*
X29246667Y-70660000D01*
X29151429Y-70612381D01*
X30722857Y-69707381D02*
X31056191Y-69231190D01*
X31294286Y-69707381D02*
X31294286Y-68707381D01*
X30913333Y-68707381D01*
X30818095Y-68755000D01*
X30770476Y-68802619D01*
X30722857Y-68897857D01*
X30722857Y-69040714D01*
X30770476Y-69135952D01*
X30818095Y-69183571D01*
X30913333Y-69231190D01*
X31294286Y-69231190D01*
X29865714Y-68707381D02*
X30056191Y-68707381D01*
X30151429Y-68755000D01*
X30199048Y-68802619D01*
X30294286Y-68945476D01*
X30341905Y-69135952D01*
X30341905Y-69516905D01*
X30294286Y-69612143D01*
X30246667Y-69659762D01*
X30151429Y-69707381D01*
X29960952Y-69707381D01*
X29865714Y-69659762D01*
X29818095Y-69612143D01*
X29770476Y-69516905D01*
X29770476Y-69278810D01*
X29818095Y-69183571D01*
X29865714Y-69135952D01*
X29960952Y-69088333D01*
X30151429Y-69088333D01*
X30246667Y-69135952D01*
X30294286Y-69183571D01*
X30341905Y-69278810D01*
X28818095Y-69707381D02*
X29389524Y-69707381D01*
X29103810Y-69707381D02*
X29103810Y-68707381D01*
X29199048Y-68850238D01*
X29294286Y-68945476D01*
X29389524Y-68993095D01*
X30722857Y-67802381D02*
X31056191Y-67326190D01*
X31294286Y-67802381D02*
X31294286Y-66802381D01*
X30913333Y-66802381D01*
X30818095Y-66850000D01*
X30770476Y-66897619D01*
X30722857Y-66992857D01*
X30722857Y-67135714D01*
X30770476Y-67230952D01*
X30818095Y-67278571D01*
X30913333Y-67326190D01*
X31294286Y-67326190D01*
X29865714Y-66802381D02*
X30056191Y-66802381D01*
X30151429Y-66850000D01*
X30199048Y-66897619D01*
X30294286Y-67040476D01*
X30341905Y-67230952D01*
X30341905Y-67611905D01*
X30294286Y-67707143D01*
X30246667Y-67754762D01*
X30151429Y-67802381D01*
X29960952Y-67802381D01*
X29865714Y-67754762D01*
X29818095Y-67707143D01*
X29770476Y-67611905D01*
X29770476Y-67373810D01*
X29818095Y-67278571D01*
X29865714Y-67230952D01*
X29960952Y-67183333D01*
X30151429Y-67183333D01*
X30246667Y-67230952D01*
X30294286Y-67278571D01*
X30341905Y-67373810D01*
X29389524Y-66897619D02*
X29341905Y-66850000D01*
X29246667Y-66802381D01*
X29008571Y-66802381D01*
X28913333Y-66850000D01*
X28865714Y-66897619D01*
X28818095Y-66992857D01*
X28818095Y-67088095D01*
X28865714Y-67230952D01*
X29437143Y-67802381D01*
X28818095Y-67802381D01*
X30722857Y-65897381D02*
X31056191Y-65421190D01*
X31294286Y-65897381D02*
X31294286Y-64897381D01*
X30913333Y-64897381D01*
X30818095Y-64945000D01*
X30770476Y-64992619D01*
X30722857Y-65087857D01*
X30722857Y-65230714D01*
X30770476Y-65325952D01*
X30818095Y-65373571D01*
X30913333Y-65421190D01*
X31294286Y-65421190D01*
X29865714Y-64897381D02*
X30056191Y-64897381D01*
X30151429Y-64945000D01*
X30199048Y-64992619D01*
X30294286Y-65135476D01*
X30341905Y-65325952D01*
X30341905Y-65706905D01*
X30294286Y-65802143D01*
X30246667Y-65849762D01*
X30151429Y-65897381D01*
X29960952Y-65897381D01*
X29865714Y-65849762D01*
X29818095Y-65802143D01*
X29770476Y-65706905D01*
X29770476Y-65468810D01*
X29818095Y-65373571D01*
X29865714Y-65325952D01*
X29960952Y-65278333D01*
X30151429Y-65278333D01*
X30246667Y-65325952D01*
X30294286Y-65373571D01*
X30341905Y-65468810D01*
X29437143Y-64897381D02*
X28818095Y-64897381D01*
X29151429Y-65278333D01*
X29008571Y-65278333D01*
X28913333Y-65325952D01*
X28865714Y-65373571D01*
X28818095Y-65468810D01*
X28818095Y-65706905D01*
X28865714Y-65802143D01*
X28913333Y-65849762D01*
X29008571Y-65897381D01*
X29294286Y-65897381D01*
X29389524Y-65849762D01*
X29437143Y-65802143D01*
X30722857Y-63992381D02*
X31056191Y-63516190D01*
X31294286Y-63992381D02*
X31294286Y-62992381D01*
X30913333Y-62992381D01*
X30818095Y-63040000D01*
X30770476Y-63087619D01*
X30722857Y-63182857D01*
X30722857Y-63325714D01*
X30770476Y-63420952D01*
X30818095Y-63468571D01*
X30913333Y-63516190D01*
X31294286Y-63516190D01*
X29865714Y-62992381D02*
X30056191Y-62992381D01*
X30151429Y-63040000D01*
X30199048Y-63087619D01*
X30294286Y-63230476D01*
X30341905Y-63420952D01*
X30341905Y-63801905D01*
X30294286Y-63897143D01*
X30246667Y-63944762D01*
X30151429Y-63992381D01*
X29960952Y-63992381D01*
X29865714Y-63944762D01*
X29818095Y-63897143D01*
X29770476Y-63801905D01*
X29770476Y-63563810D01*
X29818095Y-63468571D01*
X29865714Y-63420952D01*
X29960952Y-63373333D01*
X30151429Y-63373333D01*
X30246667Y-63420952D01*
X30294286Y-63468571D01*
X30341905Y-63563810D01*
X28913333Y-63325714D02*
X28913333Y-63992381D01*
X29151429Y-62944762D02*
X29389524Y-63659048D01*
X28770476Y-63659048D01*
X30722857Y-62087381D02*
X31056191Y-61611190D01*
X31294286Y-62087381D02*
X31294286Y-61087381D01*
X30913333Y-61087381D01*
X30818095Y-61135000D01*
X30770476Y-61182619D01*
X30722857Y-61277857D01*
X30722857Y-61420714D01*
X30770476Y-61515952D01*
X30818095Y-61563571D01*
X30913333Y-61611190D01*
X31294286Y-61611190D01*
X29865714Y-61087381D02*
X30056191Y-61087381D01*
X30151429Y-61135000D01*
X30199048Y-61182619D01*
X30294286Y-61325476D01*
X30341905Y-61515952D01*
X30341905Y-61896905D01*
X30294286Y-61992143D01*
X30246667Y-62039762D01*
X30151429Y-62087381D01*
X29960952Y-62087381D01*
X29865714Y-62039762D01*
X29818095Y-61992143D01*
X29770476Y-61896905D01*
X29770476Y-61658810D01*
X29818095Y-61563571D01*
X29865714Y-61515952D01*
X29960952Y-61468333D01*
X30151429Y-61468333D01*
X30246667Y-61515952D01*
X30294286Y-61563571D01*
X30341905Y-61658810D01*
X28865714Y-61087381D02*
X29341905Y-61087381D01*
X29389524Y-61563571D01*
X29341905Y-61515952D01*
X29246667Y-61468333D01*
X29008571Y-61468333D01*
X28913333Y-61515952D01*
X28865714Y-61563571D01*
X28818095Y-61658810D01*
X28818095Y-61896905D01*
X28865714Y-61992143D01*
X28913333Y-62039762D01*
X29008571Y-62087381D01*
X29246667Y-62087381D01*
X29341905Y-62039762D01*
X29389524Y-61992143D01*
X30722857Y-60182381D02*
X31056191Y-59706190D01*
X31294286Y-60182381D02*
X31294286Y-59182381D01*
X30913333Y-59182381D01*
X30818095Y-59230000D01*
X30770476Y-59277619D01*
X30722857Y-59372857D01*
X30722857Y-59515714D01*
X30770476Y-59610952D01*
X30818095Y-59658571D01*
X30913333Y-59706190D01*
X31294286Y-59706190D01*
X29865714Y-59182381D02*
X30056191Y-59182381D01*
X30151429Y-59230000D01*
X30199048Y-59277619D01*
X30294286Y-59420476D01*
X30341905Y-59610952D01*
X30341905Y-59991905D01*
X30294286Y-60087143D01*
X30246667Y-60134762D01*
X30151429Y-60182381D01*
X29960952Y-60182381D01*
X29865714Y-60134762D01*
X29818095Y-60087143D01*
X29770476Y-59991905D01*
X29770476Y-59753810D01*
X29818095Y-59658571D01*
X29865714Y-59610952D01*
X29960952Y-59563333D01*
X30151429Y-59563333D01*
X30246667Y-59610952D01*
X30294286Y-59658571D01*
X30341905Y-59753810D01*
X28913333Y-59182381D02*
X29103810Y-59182381D01*
X29199048Y-59230000D01*
X29246667Y-59277619D01*
X29341905Y-59420476D01*
X29389524Y-59610952D01*
X29389524Y-59991905D01*
X29341905Y-60087143D01*
X29294286Y-60134762D01*
X29199048Y-60182381D01*
X29008571Y-60182381D01*
X28913333Y-60134762D01*
X28865714Y-60087143D01*
X28818095Y-59991905D01*
X28818095Y-59753810D01*
X28865714Y-59658571D01*
X28913333Y-59610952D01*
X29008571Y-59563333D01*
X29199048Y-59563333D01*
X29294286Y-59610952D01*
X29341905Y-59658571D01*
X29389524Y-59753810D01*
X93142381Y-60668095D02*
X93951905Y-60668095D01*
X94047143Y-60715714D01*
X94094762Y-60763333D01*
X94142381Y-60858571D01*
X94142381Y-61049048D01*
X94094762Y-61144286D01*
X94047143Y-61191905D01*
X93951905Y-61239524D01*
X93142381Y-61239524D01*
X93142381Y-61620476D02*
X93142381Y-62287143D01*
X94142381Y-61858571D01*
M02*
