G04 #@! TF.GenerationSoftware,KiCad,Pcbnew,5.0.1*
G04 #@! TF.CreationDate,2018-10-27T09:57:49+02:00*
G04 #@! TF.ProjectId,afterglow_nano_smd,6166746572676C6F775F6E616E6F5F73,rev?*
G04 #@! TF.SameCoordinates,Original*
G04 #@! TF.FileFunction,Copper,L2,Bot,Signal*
G04 #@! TF.FilePolarity,Positive*
%FSLAX46Y46*%
G04 Gerber Fmt 4.6, Leading zero omitted, Abs format (unit mm)*
G04 Created by KiCad (PCBNEW 5.0.1) date Sa 27 Okt 2018 09:57:49 CEST*
%MOMM*%
%LPD*%
G01*
G04 APERTURE LIST*
G04 #@! TA.AperFunction,NonConductor*
%ADD10C,0.250000*%
G04 #@! TD*
G04 #@! TA.AperFunction,ComponentPad*
%ADD11R,1.700000X1.700000*%
G04 #@! TD*
G04 #@! TA.AperFunction,ComponentPad*
%ADD12R,1.600000X1.600000*%
G04 #@! TD*
G04 #@! TA.AperFunction,ComponentPad*
%ADD13O,1.600000X1.600000*%
G04 #@! TD*
G04 #@! TA.AperFunction,ComponentPad*
%ADD14R,4.000000X3.000000*%
G04 #@! TD*
G04 #@! TA.AperFunction,ComponentPad*
%ADD15O,4.000000X3.000000*%
G04 #@! TD*
G04 #@! TA.AperFunction,SMDPad,CuDef*
%ADD16R,3.200000X2.700000*%
G04 #@! TD*
G04 #@! TA.AperFunction,ComponentPad*
%ADD17R,1.800000X1.800000*%
G04 #@! TD*
G04 #@! TA.AperFunction,ComponentPad*
%ADD18O,1.800000X1.800000*%
G04 #@! TD*
G04 #@! TA.AperFunction,SMDPad,CuDef*
%ADD19R,1.500000X1.250000*%
G04 #@! TD*
G04 #@! TA.AperFunction,SMDPad,CuDef*
%ADD20R,1.250000X1.500000*%
G04 #@! TD*
G04 #@! TA.AperFunction,SMDPad,CuDef*
%ADD21R,1.500000X1.300000*%
G04 #@! TD*
G04 #@! TA.AperFunction,SMDPad,CuDef*
%ADD22R,1.300000X1.500000*%
G04 #@! TD*
G04 #@! TA.AperFunction,ComponentPad*
%ADD23R,2.600000X2.000000*%
G04 #@! TD*
G04 #@! TA.AperFunction,ComponentPad*
%ADD24O,2.600000X2.000000*%
G04 #@! TD*
G04 #@! TA.AperFunction,SMDPad,CuDef*
%ADD25R,2.200000X1.200000*%
G04 #@! TD*
G04 #@! TA.AperFunction,SMDPad,CuDef*
%ADD26R,6.400000X5.800000*%
G04 #@! TD*
G04 #@! TA.AperFunction,SMDPad,CuDef*
%ADD27R,3.050000X2.750000*%
G04 #@! TD*
G04 #@! TA.AperFunction,SMDPad,CuDef*
%ADD28R,0.600000X1.500000*%
G04 #@! TD*
G04 #@! TA.AperFunction,SMDPad,CuDef*
%ADD29R,1.500000X0.600000*%
G04 #@! TD*
G04 #@! TA.AperFunction,ComponentPad*
%ADD30R,2.000000X2.000000*%
G04 #@! TD*
G04 #@! TA.AperFunction,ComponentPad*
%ADD31C,2.000000*%
G04 #@! TD*
G04 #@! TA.AperFunction,ComponentPad*
%ADD32R,2.800000X2.800000*%
G04 #@! TD*
G04 #@! TA.AperFunction,ComponentPad*
%ADD33O,2.800000X2.800000*%
G04 #@! TD*
G04 #@! TA.AperFunction,ComponentPad*
%ADD34C,2.350000*%
G04 #@! TD*
G04 #@! TA.AperFunction,SMDPad,CuDef*
%ADD35R,0.600000X2.000000*%
G04 #@! TD*
G04 #@! TA.AperFunction,ViaPad*
%ADD36C,0.600000*%
G04 #@! TD*
G04 #@! TA.AperFunction,ViaPad*
%ADD37C,1.000000*%
G04 #@! TD*
G04 #@! TA.AperFunction,Conductor*
%ADD38C,0.500000*%
G04 #@! TD*
G04 #@! TA.AperFunction,Conductor*
%ADD39C,1.500000*%
G04 #@! TD*
G04 #@! TA.AperFunction,Conductor*
%ADD40C,1.750000*%
G04 #@! TD*
G04 APERTURE END LIST*
D10*
X128071428Y-54333333D02*
X128119047Y-54285714D01*
X128214285Y-54142857D01*
X128261904Y-54047619D01*
X128309523Y-53904761D01*
X128357142Y-53666666D01*
X128357142Y-53476190D01*
X128309523Y-53238095D01*
X128261904Y-53095238D01*
X128214285Y-53000000D01*
X128119047Y-52857142D01*
X128071428Y-52809523D01*
X127261904Y-53904761D02*
X127357142Y-53952380D01*
X127547619Y-53952380D01*
X127642857Y-53904761D01*
X127690476Y-53857142D01*
X127738095Y-53761904D01*
X127738095Y-53476190D01*
X127690476Y-53380952D01*
X127642857Y-53333333D01*
X127547619Y-53285714D01*
X127357142Y-53285714D01*
X127261904Y-53333333D01*
X126928571Y-54333333D02*
X126880952Y-54285714D01*
X126785714Y-54142857D01*
X126738095Y-54047619D01*
X126690476Y-53904761D01*
X126642857Y-53666666D01*
X126642857Y-53476190D01*
X126690476Y-53238095D01*
X126738095Y-53095238D01*
X126785714Y-53000000D01*
X126880952Y-52857142D01*
X126928571Y-52809523D01*
X125452380Y-53047619D02*
X125404761Y-53000000D01*
X125309523Y-52952380D01*
X125071428Y-52952380D01*
X124976190Y-53000000D01*
X124928571Y-53047619D01*
X124880952Y-53142857D01*
X124880952Y-53238095D01*
X124928571Y-53380952D01*
X125500000Y-53952380D01*
X124880952Y-53952380D01*
X124261904Y-52952380D02*
X124166666Y-52952380D01*
X124071428Y-53000000D01*
X124023809Y-53047619D01*
X123976190Y-53142857D01*
X123928571Y-53333333D01*
X123928571Y-53571428D01*
X123976190Y-53761904D01*
X124023809Y-53857142D01*
X124071428Y-53904761D01*
X124166666Y-53952380D01*
X124261904Y-53952380D01*
X124357142Y-53904761D01*
X124404761Y-53857142D01*
X124452380Y-53761904D01*
X124500000Y-53571428D01*
X124500000Y-53333333D01*
X124452380Y-53142857D01*
X124404761Y-53047619D01*
X124357142Y-53000000D01*
X124261904Y-52952380D01*
X122976190Y-53952380D02*
X123547619Y-53952380D01*
X123261904Y-53952380D02*
X123261904Y-52952380D01*
X123357142Y-53095238D01*
X123452380Y-53190476D01*
X123547619Y-53238095D01*
X122404761Y-53380952D02*
X122500000Y-53333333D01*
X122547619Y-53285714D01*
X122595238Y-53190476D01*
X122595238Y-53142857D01*
X122547619Y-53047619D01*
X122500000Y-53000000D01*
X122404761Y-52952380D01*
X122214285Y-52952380D01*
X122119047Y-53000000D01*
X122071428Y-53047619D01*
X122023809Y-53142857D01*
X122023809Y-53190476D01*
X122071428Y-53285714D01*
X122119047Y-53333333D01*
X122214285Y-53380952D01*
X122404761Y-53380952D01*
X122500000Y-53428571D01*
X122547619Y-53476190D01*
X122595238Y-53571428D01*
X122595238Y-53761904D01*
X122547619Y-53857142D01*
X122500000Y-53904761D01*
X122404761Y-53952380D01*
X122214285Y-53952380D01*
X122119047Y-53904761D01*
X122071428Y-53857142D01*
X122023809Y-53761904D01*
X122023809Y-53571428D01*
X122071428Y-53476190D01*
X122119047Y-53428571D01*
X122214285Y-53380952D01*
X120833333Y-53952380D02*
X120833333Y-53285714D01*
X120833333Y-53380952D02*
X120785714Y-53333333D01*
X120690476Y-53285714D01*
X120547619Y-53285714D01*
X120452380Y-53333333D01*
X120404761Y-53428571D01*
X120404761Y-53952380D01*
X120404761Y-53428571D02*
X120357142Y-53333333D01*
X120261904Y-53285714D01*
X120119047Y-53285714D01*
X120023809Y-53333333D01*
X119976190Y-53428571D01*
X119976190Y-53952380D01*
X119357142Y-53952380D02*
X119452380Y-53904761D01*
X119500000Y-53857142D01*
X119547619Y-53761904D01*
X119547619Y-53476190D01*
X119500000Y-53380952D01*
X119452380Y-53333333D01*
X119357142Y-53285714D01*
X119214285Y-53285714D01*
X119119047Y-53333333D01*
X119071428Y-53380952D01*
X119023809Y-53476190D01*
X119023809Y-53761904D01*
X119071428Y-53857142D01*
X119119047Y-53904761D01*
X119214285Y-53952380D01*
X119357142Y-53952380D01*
X118595238Y-53952380D02*
X118595238Y-53285714D01*
X118595238Y-53476190D02*
X118547619Y-53380952D01*
X118500000Y-53333333D01*
X118404761Y-53285714D01*
X118309523Y-53285714D01*
X117976190Y-53952380D02*
X117976190Y-52952380D01*
X117976190Y-53333333D02*
X117880952Y-53285714D01*
X117690476Y-53285714D01*
X117595238Y-53333333D01*
X117547619Y-53380952D01*
X117500000Y-53476190D01*
X117500000Y-53761904D01*
X117547619Y-53857142D01*
X117595238Y-53904761D01*
X117690476Y-53952380D01*
X117880952Y-53952380D01*
X117976190Y-53904761D01*
X117071428Y-53952380D02*
X117071428Y-53285714D01*
X117071428Y-52952380D02*
X117119047Y-53000000D01*
X117071428Y-53047619D01*
X117023809Y-53000000D01*
X117071428Y-52952380D01*
X117071428Y-53047619D01*
X116166666Y-53952380D02*
X116166666Y-52952380D01*
X116166666Y-53904761D02*
X116261904Y-53952380D01*
X116452380Y-53952380D01*
X116547619Y-53904761D01*
X116595238Y-53857142D01*
X116642857Y-53761904D01*
X116642857Y-53476190D01*
X116595238Y-53380952D01*
X116547619Y-53333333D01*
X116452380Y-53285714D01*
X116261904Y-53285714D01*
X116166666Y-53333333D01*
X114500000Y-53904761D02*
X114595238Y-53952380D01*
X114785714Y-53952380D01*
X114880952Y-53904761D01*
X114928571Y-53857142D01*
X114976190Y-53761904D01*
X114976190Y-53476190D01*
X114928571Y-53380952D01*
X114880952Y-53333333D01*
X114785714Y-53285714D01*
X114595238Y-53285714D01*
X114500000Y-53333333D01*
X113928571Y-53952380D02*
X114023809Y-53904761D01*
X114071428Y-53857142D01*
X114119047Y-53761904D01*
X114119047Y-53476190D01*
X114071428Y-53380952D01*
X114023809Y-53333333D01*
X113928571Y-53285714D01*
X113785714Y-53285714D01*
X113690476Y-53333333D01*
X113642857Y-53380952D01*
X113595238Y-53476190D01*
X113595238Y-53761904D01*
X113642857Y-53857142D01*
X113690476Y-53904761D01*
X113785714Y-53952380D01*
X113928571Y-53952380D01*
X113166666Y-53952380D02*
X113166666Y-53285714D01*
X113166666Y-53476190D02*
X113119047Y-53380952D01*
X113071428Y-53333333D01*
X112976190Y-53285714D01*
X112880952Y-53285714D01*
X112547619Y-53285714D02*
X112547619Y-53952380D01*
X112547619Y-53380952D02*
X112500000Y-53333333D01*
X112404761Y-53285714D01*
X112261904Y-53285714D01*
X112166666Y-53333333D01*
X112119047Y-53428571D01*
X112119047Y-53952380D01*
X111785714Y-53285714D02*
X111404761Y-53285714D01*
X111642857Y-53952380D02*
X111642857Y-53095238D01*
X111595238Y-53000000D01*
X111500000Y-52952380D01*
X111404761Y-52952380D01*
X110928571Y-53952380D02*
X111023809Y-53904761D01*
X111071428Y-53809523D01*
X111071428Y-52952380D01*
X110119047Y-53952380D02*
X110119047Y-53428571D01*
X110166666Y-53333333D01*
X110261904Y-53285714D01*
X110452380Y-53285714D01*
X110547619Y-53333333D01*
X110119047Y-53904761D02*
X110214285Y-53952380D01*
X110452380Y-53952380D01*
X110547619Y-53904761D01*
X110595238Y-53809523D01*
X110595238Y-53714285D01*
X110547619Y-53619047D01*
X110452380Y-53571428D01*
X110214285Y-53571428D01*
X110119047Y-53523809D01*
X109642857Y-53952380D02*
X109642857Y-52952380D01*
X109547619Y-53571428D02*
X109261904Y-53952380D01*
X109261904Y-53285714D02*
X109642857Y-53666666D01*
X108452380Y-53904761D02*
X108547619Y-53952380D01*
X108738095Y-53952380D01*
X108833333Y-53904761D01*
X108880952Y-53809523D01*
X108880952Y-53428571D01*
X108833333Y-53333333D01*
X108738095Y-53285714D01*
X108547619Y-53285714D01*
X108452380Y-53333333D01*
X108404761Y-53428571D01*
X108404761Y-53523809D01*
X108880952Y-53619047D01*
X108023809Y-53904761D02*
X107928571Y-53952380D01*
X107738095Y-53952380D01*
X107642857Y-53904761D01*
X107595238Y-53809523D01*
X107595238Y-53761904D01*
X107642857Y-53666666D01*
X107738095Y-53619047D01*
X107880952Y-53619047D01*
X107976190Y-53571428D01*
X108023809Y-53476190D01*
X108023809Y-53428571D01*
X107976190Y-53333333D01*
X107880952Y-53285714D01*
X107738095Y-53285714D01*
X107642857Y-53333333D01*
D11*
G04 #@! TO.P,18V,1*
G04 #@! TO.N,/18V*
X116000000Y-120500000D03*
G04 #@! TD*
G04 #@! TO.P,5V,1*
G04 #@! TO.N,/5V*
X116000000Y-116000000D03*
G04 #@! TD*
G04 #@! TO.P,GND,1*
G04 #@! TO.N,GND*
X116000000Y-125000000D03*
G04 #@! TD*
D12*
G04 #@! TO.P,A1,1*
G04 #@! TO.N,N/C*
X109500000Y-125500000D03*
D13*
G04 #@! TO.P,A1,17*
X94260000Y-92480000D03*
G04 #@! TO.P,A1,2*
X109500000Y-122960000D03*
G04 #@! TO.P,A1,18*
X94260000Y-95020000D03*
G04 #@! TO.P,A1,3*
X109500000Y-120420000D03*
G04 #@! TO.P,A1,19*
G04 #@! TO.N,/SUP_GND*
X94260000Y-97560000D03*
G04 #@! TO.P,A1,4*
G04 #@! TO.N,GND*
X109500000Y-117880000D03*
G04 #@! TO.P,A1,20*
G04 #@! TO.N,Net-(A1-Pad20)*
X94260000Y-100100000D03*
G04 #@! TO.P,A1,5*
G04 #@! TO.N,/IN_DATA*
X109500000Y-115340000D03*
G04 #@! TO.P,A1,21*
G04 #@! TO.N,N/C*
X94260000Y-102640000D03*
G04 #@! TO.P,A1,6*
G04 #@! TO.N,/IN_CLK*
X109500000Y-112800000D03*
G04 #@! TO.P,A1,22*
G04 #@! TO.N,N/C*
X94260000Y-105180000D03*
G04 #@! TO.P,A1,7*
G04 #@! TO.N,/IN_LOAD*
X109500000Y-110260000D03*
G04 #@! TO.P,A1,23*
G04 #@! TO.N,N/C*
X94260000Y-107720000D03*
G04 #@! TO.P,A1,8*
G04 #@! TO.N,/OUT_DATA*
X109500000Y-107720000D03*
G04 #@! TO.P,A1,24*
G04 #@! TO.N,N/C*
X94260000Y-110260000D03*
G04 #@! TO.P,A1,9*
G04 #@! TO.N,/OUT_CLK*
X109500000Y-105180000D03*
G04 #@! TO.P,A1,25*
G04 #@! TO.N,N/C*
X94260000Y-112800000D03*
G04 #@! TO.P,A1,10*
G04 #@! TO.N,/OUT_LOAD*
X109500000Y-102640000D03*
G04 #@! TO.P,A1,26*
G04 #@! TO.N,N/C*
X94260000Y-115340000D03*
G04 #@! TO.P,A1,11*
G04 #@! TO.N,Net-(A1-Pad11)*
X109500000Y-100100000D03*
G04 #@! TO.P,A1,27*
G04 #@! TO.N,/5V*
X94260000Y-117880000D03*
G04 #@! TO.P,A1,12*
G04 #@! TO.N,Net-(A1-Pad12)*
X109500000Y-97560000D03*
G04 #@! TO.P,A1,28*
G04 #@! TO.N,N/C*
X94260000Y-120420000D03*
G04 #@! TO.P,A1,13*
G04 #@! TO.N,Net-(A1-Pad13)*
X109500000Y-95020000D03*
G04 #@! TO.P,A1,29*
G04 #@! TO.N,GND*
X94260000Y-122960000D03*
G04 #@! TO.P,A1,14*
G04 #@! TO.N,Net-(A1-Pad14)*
X109500000Y-92480000D03*
G04 #@! TO.P,A1,30*
G04 #@! TO.N,N/C*
X94260000Y-125500000D03*
G04 #@! TO.P,A1,15*
X109500000Y-89940000D03*
G04 #@! TO.P,A1,16*
X94260000Y-89940000D03*
G04 #@! TD*
D14*
G04 #@! TO.P,J7,1*
G04 #@! TO.N,/J137_CO1*
X41510000Y-113500000D03*
D15*
G04 #@! TO.P,J7,2*
G04 #@! TO.N,/J137_CO2*
X41510000Y-109537600D03*
G04 #@! TO.P,J7,3*
G04 #@! TO.N,/J137_CO3*
X41510000Y-105575200D03*
G04 #@! TO.P,J7,4*
G04 #@! TO.N,/J137_CO4*
X41510000Y-101612800D03*
G04 #@! TO.P,J7,5*
G04 #@! TO.N,/J137_CO5*
X41510000Y-97650400D03*
G04 #@! TO.P,J7,6*
G04 #@! TO.N,/J137_CO6*
X41510000Y-93688000D03*
G04 #@! TO.P,J7,7*
G04 #@! TO.N,/J137_CO7*
X41510000Y-89725600D03*
G04 #@! TO.P,J7,8*
G04 #@! TO.N,N/C*
X41510000Y-85763200D03*
G04 #@! TO.P,J7,9*
G04 #@! TO.N,/J137_CO8*
X41510000Y-81800800D03*
G04 #@! TD*
G04 #@! TO.P,J5,9*
G04 #@! TO.N,/J137_CO8*
X56750000Y-81800800D03*
G04 #@! TO.P,J5,8*
G04 #@! TO.N,N/C*
X56750000Y-85763200D03*
G04 #@! TO.P,J5,7*
G04 #@! TO.N,/J137_CO7*
X56750000Y-89725600D03*
G04 #@! TO.P,J5,6*
G04 #@! TO.N,/J137_CO6*
X56750000Y-93688000D03*
G04 #@! TO.P,J5,5*
G04 #@! TO.N,/J137_CO5*
X56750000Y-97650400D03*
G04 #@! TO.P,J5,4*
G04 #@! TO.N,/J137_CO4*
X56750000Y-101612800D03*
G04 #@! TO.P,J5,3*
G04 #@! TO.N,/J137_CO3*
X56750000Y-105575200D03*
G04 #@! TO.P,J5,2*
G04 #@! TO.N,/J137_CO2*
X56750000Y-109537600D03*
D14*
G04 #@! TO.P,J5,1*
G04 #@! TO.N,/J137_CO1*
X56750000Y-113500000D03*
G04 #@! TD*
G04 #@! TO.P,J1,1*
G04 #@! TO.N,Net-(J1-Pad1)*
X131045000Y-87465000D03*
D15*
G04 #@! TO.P,J1,2*
G04 #@! TO.N,Net-(J1-Pad2)*
X131045000Y-91427400D03*
G04 #@! TO.P,J1,3*
G04 #@! TO.N,Net-(J1-Pad3)*
X131045000Y-95389800D03*
G04 #@! TO.P,J1,4*
G04 #@! TO.N,Net-(J1-Pad4)*
X131045000Y-99352200D03*
G04 #@! TO.P,J1,5*
G04 #@! TO.N,Net-(J1-Pad5)*
X131045000Y-103314600D03*
G04 #@! TO.P,J1,6*
G04 #@! TO.N,Net-(J1-Pad6)*
X131045000Y-107277000D03*
G04 #@! TO.P,J1,7*
G04 #@! TO.N,Net-(J1-Pad7)*
X131045000Y-111239400D03*
G04 #@! TO.P,J1,8*
G04 #@! TO.N,N/C*
X131045000Y-115201800D03*
G04 #@! TO.P,J1,9*
G04 #@! TO.N,Net-(J1-Pad9)*
X131045000Y-119164200D03*
G04 #@! TD*
D16*
G04 #@! TO.P,R26,1*
G04 #@! TO.N,GND*
X50500000Y-113450000D03*
G04 #@! TO.P,R26,2*
G04 #@! TO.N,/SUP_GND*
X50500000Y-105550000D03*
G04 #@! TD*
D17*
G04 #@! TO.P,U3,1*
G04 #@! TO.N,Net-(C1-Pad1)*
X87230000Y-97625000D03*
D18*
G04 #@! TO.P,U3,2*
G04 #@! TO.N,GND*
X87230000Y-95085000D03*
G04 #@! TO.P,U3,3*
G04 #@! TO.N,/5V*
X87230000Y-92545000D03*
G04 #@! TD*
D19*
G04 #@! TO.P,C2,1*
G04 #@! TO.N,Net-(C1-Pad1)*
X87210000Y-109055000D03*
G04 #@! TO.P,C2,2*
G04 #@! TO.N,GND*
X84710000Y-109055000D03*
G04 #@! TD*
D20*
G04 #@! TO.P,C3,1*
G04 #@! TO.N,/5V*
X89770000Y-92565000D03*
G04 #@! TO.P,C3,2*
G04 #@! TO.N,GND*
X89770000Y-95065000D03*
G04 #@! TD*
D21*
G04 #@! TO.P,R17,1*
G04 #@! TO.N,/CI1*
X125250000Y-87465000D03*
G04 #@! TO.P,R17,2*
G04 #@! TO.N,Net-(J1-Pad1)*
X127950000Y-87465000D03*
G04 #@! TD*
G04 #@! TO.P,R18,1*
G04 #@! TO.N,/CI2*
X125250000Y-91275000D03*
G04 #@! TO.P,R18,2*
G04 #@! TO.N,Net-(J1-Pad2)*
X127950000Y-91275000D03*
G04 #@! TD*
G04 #@! TO.P,R21,1*
G04 #@! TO.N,/CI5*
X125250000Y-103340000D03*
G04 #@! TO.P,R21,2*
G04 #@! TO.N,Net-(J1-Pad5)*
X127950000Y-103340000D03*
G04 #@! TD*
G04 #@! TO.P,R22,1*
G04 #@! TO.N,/CI6*
X125250000Y-107150000D03*
G04 #@! TO.P,R22,2*
G04 #@! TO.N,Net-(J1-Pad6)*
X127950000Y-107150000D03*
G04 #@! TD*
G04 #@! TO.P,R23,1*
G04 #@! TO.N,/CI7*
X125250000Y-110960000D03*
G04 #@! TO.P,R23,2*
G04 #@! TO.N,Net-(J1-Pad7)*
X127950000Y-110960000D03*
G04 #@! TD*
G04 #@! TO.P,R24,1*
G04 #@! TO.N,/CI8*
X125250000Y-119215000D03*
G04 #@! TO.P,R24,2*
G04 #@! TO.N,Net-(J1-Pad9)*
X127950000Y-119215000D03*
G04 #@! TD*
D22*
G04 #@! TO.P,R25,1*
G04 #@! TO.N,/5V*
X91675000Y-97545000D03*
G04 #@! TO.P,R25,2*
G04 #@! TO.N,Net-(A1-Pad20)*
X91675000Y-100245000D03*
G04 #@! TD*
D21*
G04 #@! TO.P,R27,1*
G04 #@! TO.N,/SUP_GND*
X29150000Y-113500000D03*
G04 #@! TO.P,R27,2*
G04 #@! TO.N,/J137_CO1*
X31850000Y-113500000D03*
G04 #@! TD*
G04 #@! TO.P,R28,1*
G04 #@! TO.N,/SUP_GND*
X29150000Y-109500000D03*
G04 #@! TO.P,R28,2*
G04 #@! TO.N,/J137_CO2*
X31850000Y-109500000D03*
G04 #@! TD*
D23*
G04 #@! TO.P,J2,1*
G04 #@! TO.N,/RI1*
X132950000Y-62065000D03*
D24*
G04 #@! TO.P,J2,2*
G04 #@! TO.N,/RI2*
X132950000Y-64605000D03*
G04 #@! TO.P,J2,3*
G04 #@! TO.N,N/C*
X132950000Y-67145000D03*
G04 #@! TO.P,J2,4*
G04 #@! TO.N,/RI3*
X132950000Y-69685000D03*
G04 #@! TO.P,J2,5*
G04 #@! TO.N,/RI4*
X132950000Y-72225000D03*
G04 #@! TO.P,J2,6*
G04 #@! TO.N,/RI5*
X132950000Y-74765000D03*
G04 #@! TO.P,J2,7*
G04 #@! TO.N,/RI6*
X132950000Y-77305000D03*
G04 #@! TO.P,J2,8*
G04 #@! TO.N,/RI7*
X132950000Y-79845000D03*
G04 #@! TO.P,J2,9*
G04 #@! TO.N,/RI8*
X132950000Y-82385000D03*
G04 #@! TD*
D14*
G04 #@! TO.P,J3,1*
G04 #@! TO.N,Net-(F1-Pad2)*
X56750000Y-126200000D03*
D15*
G04 #@! TO.P,J3,2*
G04 #@! TO.N,GND*
X56750000Y-122237600D03*
G04 #@! TD*
D23*
G04 #@! TO.P,J6,1*
G04 #@! TO.N,/J133_RO1*
X47860000Y-75400000D03*
D24*
G04 #@! TO.P,J6,2*
G04 #@! TO.N,/J133_RO2*
X47860000Y-72860000D03*
G04 #@! TO.P,J6,3*
G04 #@! TO.N,N/C*
X47860000Y-70320000D03*
G04 #@! TO.P,J6,4*
G04 #@! TO.N,/J133_RO3*
X47860000Y-67780000D03*
G04 #@! TO.P,J6,5*
G04 #@! TO.N,/J133_RO4*
X47860000Y-65240000D03*
G04 #@! TO.P,J6,6*
G04 #@! TO.N,/J133_RO5*
X47860000Y-62700000D03*
G04 #@! TO.P,J6,7*
G04 #@! TO.N,/J133_RO6*
X47860000Y-60160000D03*
G04 #@! TO.P,J6,8*
G04 #@! TO.N,/J133_RO7*
X47860000Y-57620000D03*
G04 #@! TO.P,J6,9*
G04 #@! TO.N,/J133_RO8*
X47860000Y-55080000D03*
G04 #@! TD*
D23*
G04 #@! TO.P,J8,1*
G04 #@! TO.N,/J133_RO1*
X37700000Y-75400000D03*
D24*
G04 #@! TO.P,J8,2*
G04 #@! TO.N,/J133_RO2*
X37700000Y-72860000D03*
G04 #@! TO.P,J8,3*
G04 #@! TO.N,N/C*
X37700000Y-70320000D03*
G04 #@! TO.P,J8,4*
G04 #@! TO.N,/J133_RO3*
X37700000Y-67780000D03*
G04 #@! TO.P,J8,5*
G04 #@! TO.N,/J133_RO4*
X37700000Y-65240000D03*
G04 #@! TO.P,J8,6*
G04 #@! TO.N,/J133_RO5*
X37700000Y-62700000D03*
G04 #@! TO.P,J8,7*
G04 #@! TO.N,/J133_RO6*
X37700000Y-60160000D03*
G04 #@! TO.P,J8,8*
G04 #@! TO.N,/J133_RO7*
X37700000Y-57620000D03*
G04 #@! TO.P,J8,9*
G04 #@! TO.N,/J133_RO8*
X37700000Y-55080000D03*
G04 #@! TD*
D14*
G04 #@! TO.P,J9,1*
G04 #@! TO.N,N/C*
X41510000Y-126200000D03*
D15*
G04 #@! TO.P,J9,2*
G04 #@! TO.N,/J137_CO7*
X41510000Y-122237600D03*
G04 #@! TO.P,J9,3*
G04 #@! TO.N,/J137_CO8*
X41510000Y-118275200D03*
G04 #@! TD*
D25*
G04 #@! TO.P,Q10,1*
G04 #@! TO.N,Net-(Q10-Pad1)*
X72380000Y-75660000D03*
G04 #@! TO.P,Q10,3*
G04 #@! TO.N,/SUP_GND*
X72380000Y-80220000D03*
D26*
G04 #@! TO.P,Q10,2*
G04 #@! TO.N,/J133_RO2*
X66080000Y-77940000D03*
D27*
X64405000Y-79465000D03*
X67755000Y-76415000D03*
X64405000Y-76415000D03*
X67755000Y-79465000D03*
G04 #@! TD*
D25*
G04 #@! TO.P,Q12,1*
G04 #@! TO.N,Net-(Q12-Pad1)*
X72380000Y-68040000D03*
G04 #@! TO.P,Q12,3*
G04 #@! TO.N,/SUP_GND*
X72380000Y-72600000D03*
D26*
G04 #@! TO.P,Q12,2*
G04 #@! TO.N,/J133_RO4*
X66080000Y-70320000D03*
D27*
X64405000Y-71845000D03*
X67755000Y-68795000D03*
X64405000Y-68795000D03*
X67755000Y-71845000D03*
G04 #@! TD*
D25*
G04 #@! TO.P,Q14,1*
G04 #@! TO.N,Net-(Q14-Pad1)*
X72380000Y-60420000D03*
G04 #@! TO.P,Q14,3*
G04 #@! TO.N,/SUP_GND*
X72380000Y-64980000D03*
D26*
G04 #@! TO.P,Q14,2*
G04 #@! TO.N,/J133_RO6*
X66080000Y-62700000D03*
D27*
X64405000Y-64225000D03*
X67755000Y-61175000D03*
X64405000Y-61175000D03*
X67755000Y-64225000D03*
G04 #@! TD*
D25*
G04 #@! TO.P,Q15,1*
G04 #@! TO.N,Net-(Q15-Pad1)*
X72380000Y-52800000D03*
G04 #@! TO.P,Q15,3*
G04 #@! TO.N,/SUP_GND*
X72380000Y-57360000D03*
D26*
G04 #@! TO.P,Q15,2*
G04 #@! TO.N,/J133_RO7*
X66080000Y-55080000D03*
D27*
X64405000Y-56605000D03*
X67755000Y-53555000D03*
X64405000Y-53555000D03*
X67755000Y-56605000D03*
G04 #@! TD*
D28*
G04 #@! TO.P,U1,1*
G04 #@! TO.N,/IN_LOAD*
X121520000Y-104770000D03*
G04 #@! TO.P,U1,2*
G04 #@! TO.N,/IN_CLK*
X120250000Y-104770000D03*
G04 #@! TO.P,U1,3*
G04 #@! TO.N,/CI5*
X118980000Y-104770000D03*
G04 #@! TO.P,U1,4*
G04 #@! TO.N,/CI6*
X117710000Y-104770000D03*
G04 #@! TO.P,U1,5*
G04 #@! TO.N,/CI7*
X116440000Y-104770000D03*
G04 #@! TO.P,U1,6*
G04 #@! TO.N,/CI8*
X115170000Y-104770000D03*
G04 #@! TO.P,U1,7*
G04 #@! TO.N,N/C*
X113900000Y-104770000D03*
G04 #@! TO.P,U1,8*
G04 #@! TO.N,GND*
X112630000Y-104770000D03*
G04 #@! TO.P,U1,9*
G04 #@! TO.N,/IN_DATA*
X112630000Y-99370000D03*
G04 #@! TO.P,U1,10*
G04 #@! TO.N,Net-(U1-Pad10)*
X113900000Y-99370000D03*
G04 #@! TO.P,U1,11*
G04 #@! TO.N,/CI1*
X115170000Y-99370000D03*
G04 #@! TO.P,U1,12*
G04 #@! TO.N,/CI2*
X116440000Y-99370000D03*
G04 #@! TO.P,U1,13*
G04 #@! TO.N,/CI3*
X117710000Y-99370000D03*
G04 #@! TO.P,U1,14*
G04 #@! TO.N,/CI4*
X118980000Y-99370000D03*
G04 #@! TO.P,U1,15*
G04 #@! TO.N,GND*
X120250000Y-99370000D03*
G04 #@! TO.P,U1,16*
G04 #@! TO.N,/5V*
X121520000Y-99370000D03*
G04 #@! TD*
G04 #@! TO.P,U2,1*
G04 #@! TO.N,/IN_LOAD*
X126600000Y-74290000D03*
G04 #@! TO.P,U2,2*
G04 #@! TO.N,/IN_CLK*
X125330000Y-74290000D03*
G04 #@! TO.P,U2,3*
G04 #@! TO.N,/RI5*
X124060000Y-74290000D03*
G04 #@! TO.P,U2,4*
G04 #@! TO.N,/RI6*
X122790000Y-74290000D03*
G04 #@! TO.P,U2,5*
G04 #@! TO.N,/RI7*
X121520000Y-74290000D03*
G04 #@! TO.P,U2,6*
G04 #@! TO.N,/RI8*
X120250000Y-74290000D03*
G04 #@! TO.P,U2,7*
G04 #@! TO.N,N/C*
X118980000Y-74290000D03*
G04 #@! TO.P,U2,8*
G04 #@! TO.N,GND*
X117710000Y-74290000D03*
G04 #@! TO.P,U2,9*
G04 #@! TO.N,Net-(U1-Pad10)*
X117710000Y-68890000D03*
G04 #@! TO.P,U2,10*
G04 #@! TO.N,N/C*
X118980000Y-68890000D03*
G04 #@! TO.P,U2,11*
G04 #@! TO.N,/RI1*
X120250000Y-68890000D03*
G04 #@! TO.P,U2,12*
G04 #@! TO.N,/RI2*
X121520000Y-68890000D03*
G04 #@! TO.P,U2,13*
G04 #@! TO.N,/RI3*
X122790000Y-68890000D03*
G04 #@! TO.P,U2,14*
G04 #@! TO.N,/RI4*
X124060000Y-68890000D03*
G04 #@! TO.P,U2,15*
G04 #@! TO.N,GND*
X125330000Y-68890000D03*
G04 #@! TO.P,U2,16*
G04 #@! TO.N,/5V*
X126600000Y-68890000D03*
G04 #@! TD*
D29*
G04 #@! TO.P,U6,1*
G04 #@! TO.N,/RO2*
X83260000Y-63335000D03*
G04 #@! TO.P,U6,2*
G04 #@! TO.N,/RO3*
X83260000Y-62065000D03*
G04 #@! TO.P,U6,3*
G04 #@! TO.N,/RO4*
X83260000Y-60795000D03*
G04 #@! TO.P,U6,4*
G04 #@! TO.N,/RO5*
X83260000Y-59525000D03*
G04 #@! TO.P,U6,5*
G04 #@! TO.N,/RO6*
X83260000Y-58255000D03*
G04 #@! TO.P,U6,6*
G04 #@! TO.N,/RO7*
X83260000Y-56985000D03*
G04 #@! TO.P,U6,7*
G04 #@! TO.N,/RO8*
X83260000Y-55715000D03*
G04 #@! TO.P,U6,8*
G04 #@! TO.N,GND*
X83260000Y-54445000D03*
G04 #@! TO.P,U6,9*
G04 #@! TO.N,N/C*
X88660000Y-54445000D03*
G04 #@! TO.P,U6,10*
G04 #@! TO.N,/5V*
X88660000Y-55715000D03*
G04 #@! TO.P,U6,11*
G04 #@! TO.N,/OUT_CLK*
X88660000Y-56985000D03*
G04 #@! TO.P,U6,12*
G04 #@! TO.N,/OUT_LOAD*
X88660000Y-58255000D03*
G04 #@! TO.P,U6,13*
G04 #@! TO.N,Net-(A1-Pad20)*
X88660000Y-59525000D03*
G04 #@! TO.P,U6,14*
G04 #@! TO.N,Net-(U5-Pad9)*
X88660000Y-60795000D03*
G04 #@! TO.P,U6,15*
G04 #@! TO.N,/RO1*
X88660000Y-62065000D03*
G04 #@! TO.P,U6,16*
G04 #@! TO.N,/5V*
X88660000Y-63335000D03*
G04 #@! TD*
D30*
G04 #@! TO.P,C1,1*
G04 #@! TO.N,Net-(C1-Pad1)*
X89770000Y-105880000D03*
D31*
G04 #@! TO.P,C1,2*
G04 #@! TO.N,GND*
X84770000Y-105880000D03*
G04 #@! TD*
D20*
G04 #@! TO.P,C4,1*
G04 #@! TO.N,GND*
X97390000Y-120465000D03*
G04 #@! TO.P,C4,2*
G04 #@! TO.N,/5V*
X97390000Y-117965000D03*
G04 #@! TD*
D32*
G04 #@! TO.P,D1,1*
G04 #@! TO.N,Net-(C1-Pad1)*
X89135000Y-113500000D03*
D33*
G04 #@! TO.P,D1,2*
G04 #@! TO.N,/18V*
X78975000Y-113500000D03*
G04 #@! TD*
D34*
G04 #@! TO.P,F1,2*
G04 #@! TO.N,Net-(F1-Pad2)*
X69370000Y-127470000D03*
X69370000Y-122390000D03*
G04 #@! TO.P,F1,1*
G04 #@! TO.N,/18V*
X84690000Y-127470000D03*
X84690000Y-122390000D03*
G04 #@! TD*
D23*
G04 #@! TO.P,J4,1*
G04 #@! TO.N,/J133_RO1*
X58020000Y-75400000D03*
D24*
G04 #@! TO.P,J4,2*
G04 #@! TO.N,/J133_RO2*
X58020000Y-72860000D03*
G04 #@! TO.P,J4,3*
G04 #@! TO.N,N/C*
X58020000Y-70320000D03*
G04 #@! TO.P,J4,4*
G04 #@! TO.N,/J133_RO3*
X58020000Y-67780000D03*
G04 #@! TO.P,J4,5*
G04 #@! TO.N,/J133_RO4*
X58020000Y-65240000D03*
G04 #@! TO.P,J4,6*
G04 #@! TO.N,/J133_RO5*
X58020000Y-62700000D03*
G04 #@! TO.P,J4,7*
G04 #@! TO.N,/J133_RO6*
X58020000Y-60160000D03*
G04 #@! TO.P,J4,8*
G04 #@! TO.N,/J133_RO7*
X58020000Y-57620000D03*
G04 #@! TO.P,J4,9*
G04 #@! TO.N,/J133_RO8*
X58020000Y-55080000D03*
G04 #@! TD*
D25*
G04 #@! TO.P,Q2,1*
G04 #@! TO.N,/CO2*
X72380000Y-106140000D03*
G04 #@! TO.P,Q2,3*
G04 #@! TO.N,/18V*
X72380000Y-110700000D03*
D26*
G04 #@! TO.P,Q2,2*
G04 #@! TO.N,/J137_CO2*
X66080000Y-108420000D03*
D27*
X64405000Y-109945000D03*
X67755000Y-106895000D03*
X64405000Y-106895000D03*
X67755000Y-109945000D03*
G04 #@! TD*
D25*
G04 #@! TO.P,Q4,1*
G04 #@! TO.N,/CO4*
X72380000Y-98520000D03*
G04 #@! TO.P,Q4,3*
G04 #@! TO.N,/18V*
X72380000Y-103080000D03*
D26*
G04 #@! TO.P,Q4,2*
G04 #@! TO.N,/J137_CO4*
X66080000Y-100800000D03*
D27*
X64405000Y-102325000D03*
X67755000Y-99275000D03*
X64405000Y-99275000D03*
X67755000Y-102325000D03*
G04 #@! TD*
D25*
G04 #@! TO.P,Q6,1*
G04 #@! TO.N,/CO6*
X72380000Y-90900000D03*
G04 #@! TO.P,Q6,3*
G04 #@! TO.N,/18V*
X72380000Y-95460000D03*
D26*
G04 #@! TO.P,Q6,2*
G04 #@! TO.N,/J137_CO6*
X66080000Y-93180000D03*
D27*
X64405000Y-94705000D03*
X67755000Y-91655000D03*
X64405000Y-91655000D03*
X67755000Y-94705000D03*
G04 #@! TD*
D21*
G04 #@! TO.P,R19,1*
G04 #@! TO.N,/CI3*
X125250000Y-95085000D03*
G04 #@! TO.P,R19,2*
G04 #@! TO.N,Net-(J1-Pad3)*
X127950000Y-95085000D03*
G04 #@! TD*
G04 #@! TO.P,R20,1*
G04 #@! TO.N,/CI4*
X125250000Y-98895000D03*
G04 #@! TO.P,R20,2*
G04 #@! TO.N,Net-(J1-Pad4)*
X127950000Y-98895000D03*
G04 #@! TD*
G04 #@! TO.P,R29,1*
G04 #@! TO.N,/SUP_GND*
X29150000Y-105600000D03*
G04 #@! TO.P,R29,2*
G04 #@! TO.N,/J137_CO3*
X31850000Y-105600000D03*
G04 #@! TD*
G04 #@! TO.P,R30,1*
G04 #@! TO.N,/SUP_GND*
X29150000Y-101600000D03*
G04 #@! TO.P,R30,2*
G04 #@! TO.N,/J137_CO4*
X31850000Y-101600000D03*
G04 #@! TD*
G04 #@! TO.P,R31,1*
G04 #@! TO.N,/SUP_GND*
X29150000Y-97600000D03*
G04 #@! TO.P,R31,2*
G04 #@! TO.N,/J137_CO5*
X31850000Y-97600000D03*
G04 #@! TD*
G04 #@! TO.P,R32,1*
G04 #@! TO.N,/SUP_GND*
X29150000Y-93700000D03*
G04 #@! TO.P,R32,2*
G04 #@! TO.N,/J137_CO6*
X31850000Y-93700000D03*
G04 #@! TD*
G04 #@! TO.P,R33,1*
G04 #@! TO.N,/SUP_GND*
X29150000Y-89700000D03*
G04 #@! TO.P,R33,2*
G04 #@! TO.N,/J137_CO7*
X31850000Y-89700000D03*
G04 #@! TD*
G04 #@! TO.P,R34,1*
G04 #@! TO.N,/SUP_GND*
X29150000Y-82000000D03*
G04 #@! TO.P,R34,2*
G04 #@! TO.N,/J137_CO8*
X31850000Y-82000000D03*
G04 #@! TD*
D22*
G04 #@! TO.P,R36,1*
G04 #@! TO.N,/18V*
X75800000Y-109770000D03*
G04 #@! TO.P,R36,2*
G04 #@! TO.N,/CO2*
X75800000Y-107070000D03*
G04 #@! TD*
G04 #@! TO.P,R38,1*
G04 #@! TO.N,/18V*
X75800000Y-102150000D03*
G04 #@! TO.P,R38,2*
G04 #@! TO.N,/CO4*
X75800000Y-99450000D03*
G04 #@! TD*
G04 #@! TO.P,R40,1*
G04 #@! TO.N,/18V*
X75800000Y-94530000D03*
G04 #@! TO.P,R40,2*
G04 #@! TO.N,/CO6*
X75800000Y-91830000D03*
G04 #@! TD*
D21*
G04 #@! TO.P,R45,1*
G04 #@! TO.N,Net-(Q10-Pad1)*
X75720000Y-76670000D03*
G04 #@! TO.P,R45,2*
G04 #@! TO.N,/RO2*
X78420000Y-76670000D03*
G04 #@! TD*
G04 #@! TO.P,R46,1*
G04 #@! TO.N,/SUP_GND*
X75720000Y-79210000D03*
G04 #@! TO.P,R46,2*
G04 #@! TO.N,/RO2*
X78420000Y-79210000D03*
G04 #@! TD*
G04 #@! TO.P,R49,1*
G04 #@! TO.N,Net-(Q12-Pad1)*
X75720000Y-69050000D03*
G04 #@! TO.P,R49,2*
G04 #@! TO.N,/RO4*
X78420000Y-69050000D03*
G04 #@! TD*
G04 #@! TO.P,R50,1*
G04 #@! TO.N,/SUP_GND*
X75720000Y-71590000D03*
G04 #@! TO.P,R50,2*
G04 #@! TO.N,/RO4*
X78420000Y-71590000D03*
G04 #@! TD*
G04 #@! TO.P,R53,1*
G04 #@! TO.N,Net-(Q14-Pad1)*
X75720000Y-61430000D03*
G04 #@! TO.P,R53,2*
G04 #@! TO.N,/RO6*
X78420000Y-61430000D03*
G04 #@! TD*
G04 #@! TO.P,R54,1*
G04 #@! TO.N,/SUP_GND*
X75720000Y-63970000D03*
G04 #@! TO.P,R54,2*
G04 #@! TO.N,/RO6*
X78420000Y-63970000D03*
G04 #@! TD*
G04 #@! TO.P,R55,1*
G04 #@! TO.N,Net-(Q15-Pad1)*
X75720000Y-53810000D03*
G04 #@! TO.P,R55,2*
G04 #@! TO.N,/RO7*
X78420000Y-53810000D03*
G04 #@! TD*
G04 #@! TO.P,R56,1*
G04 #@! TO.N,/SUP_GND*
X75720000Y-56350000D03*
G04 #@! TO.P,R56,2*
G04 #@! TO.N,/RO7*
X78420000Y-56350000D03*
G04 #@! TD*
G04 #@! TO.P,R59,1*
G04 #@! TO.N,/J133_RO1*
X31430000Y-74765000D03*
G04 #@! TO.P,R59,2*
G04 #@! TO.N,/18V*
X28730000Y-74765000D03*
G04 #@! TD*
G04 #@! TO.P,R60,1*
G04 #@! TO.N,/J133_RO2*
X31430000Y-72860000D03*
G04 #@! TO.P,R60,2*
G04 #@! TO.N,/18V*
X28730000Y-72860000D03*
G04 #@! TD*
G04 #@! TO.P,R61,1*
G04 #@! TO.N,/J133_RO3*
X31430000Y-70955000D03*
G04 #@! TO.P,R61,2*
G04 #@! TO.N,/18V*
X28730000Y-70955000D03*
G04 #@! TD*
G04 #@! TO.P,R62,1*
G04 #@! TO.N,/J133_RO4*
X31430000Y-69050000D03*
G04 #@! TO.P,R62,2*
G04 #@! TO.N,/18V*
X28730000Y-69050000D03*
G04 #@! TD*
G04 #@! TO.P,R63,1*
G04 #@! TO.N,/J133_RO5*
X31430000Y-67145000D03*
G04 #@! TO.P,R63,2*
G04 #@! TO.N,/18V*
X28730000Y-67145000D03*
G04 #@! TD*
G04 #@! TO.P,R64,1*
G04 #@! TO.N,/J133_RO6*
X31430000Y-65240000D03*
G04 #@! TO.P,R64,2*
G04 #@! TO.N,/18V*
X28730000Y-65240000D03*
G04 #@! TD*
G04 #@! TO.P,R65,1*
G04 #@! TO.N,/J133_RO7*
X31430000Y-63335000D03*
G04 #@! TO.P,R65,2*
G04 #@! TO.N,/18V*
X28730000Y-63335000D03*
G04 #@! TD*
G04 #@! TO.P,R66,1*
G04 #@! TO.N,/J133_RO8*
X31430000Y-61430000D03*
G04 #@! TO.P,R66,2*
G04 #@! TO.N,/18V*
X28730000Y-61430000D03*
G04 #@! TD*
D35*
G04 #@! TO.P,U7,1*
G04 #@! TO.N,Net-(U5-Pad15)*
X95485000Y-56730000D03*
G04 #@! TO.P,U7,2*
G04 #@! TO.N,Net-(U5-Pad1)*
X96755000Y-56730000D03*
G04 #@! TO.P,U7,3*
G04 #@! TO.N,Net-(U5-Pad2)*
X98025000Y-56730000D03*
G04 #@! TO.P,U7,4*
G04 #@! TO.N,Net-(U5-Pad3)*
X99295000Y-56730000D03*
G04 #@! TO.P,U7,5*
G04 #@! TO.N,Net-(U5-Pad4)*
X100565000Y-56730000D03*
G04 #@! TO.P,U7,6*
G04 #@! TO.N,Net-(U5-Pad5)*
X101835000Y-56730000D03*
G04 #@! TO.P,U7,7*
G04 #@! TO.N,Net-(U5-Pad6)*
X103105000Y-56730000D03*
G04 #@! TO.P,U7,8*
G04 #@! TO.N,Net-(U5-Pad7)*
X104375000Y-56730000D03*
G04 #@! TO.P,U7,9*
G04 #@! TO.N,GND*
X105645000Y-56730000D03*
G04 #@! TO.P,U7,10*
G04 #@! TO.N,/18V*
X105645000Y-66130000D03*
G04 #@! TO.P,U7,11*
G04 #@! TO.N,/CO8*
X104375000Y-66130000D03*
G04 #@! TO.P,U7,12*
G04 #@! TO.N,/CO7*
X103105000Y-66130000D03*
G04 #@! TO.P,U7,13*
G04 #@! TO.N,/CO6*
X101835000Y-66130000D03*
G04 #@! TO.P,U7,14*
G04 #@! TO.N,/CO5*
X100565000Y-66130000D03*
G04 #@! TO.P,U7,15*
G04 #@! TO.N,/CO4*
X99295000Y-66130000D03*
G04 #@! TO.P,U7,16*
G04 #@! TO.N,/CO3*
X98025000Y-66130000D03*
G04 #@! TO.P,U7,17*
G04 #@! TO.N,/CO2*
X96755000Y-66130000D03*
G04 #@! TO.P,U7,18*
G04 #@! TO.N,/CO1*
X95485000Y-66130000D03*
G04 #@! TD*
D12*
G04 #@! TO.P,SW1,1*
G04 #@! TO.N,GND*
X118000000Y-64000000D03*
D13*
G04 #@! TO.P,SW1,5*
G04 #@! TO.N,Net-(A1-Pad14)*
X110380000Y-56380000D03*
G04 #@! TO.P,SW1,2*
G04 #@! TO.N,GND*
X118000000Y-61460000D03*
G04 #@! TO.P,SW1,6*
G04 #@! TO.N,Net-(A1-Pad13)*
X110380000Y-58920000D03*
G04 #@! TO.P,SW1,3*
G04 #@! TO.N,GND*
X118000000Y-58920000D03*
G04 #@! TO.P,SW1,7*
G04 #@! TO.N,Net-(A1-Pad12)*
X110380000Y-61460000D03*
G04 #@! TO.P,SW1,4*
G04 #@! TO.N,GND*
X118000000Y-56380000D03*
G04 #@! TO.P,SW1,8*
G04 #@! TO.N,Net-(A1-Pad11)*
X110380000Y-64000000D03*
G04 #@! TD*
D36*
G04 #@! TO.N,/18V*
X105645000Y-68415000D03*
D37*
X71990000Y-108420000D03*
X71990000Y-100800000D03*
X71990000Y-93180000D03*
X72625000Y-85560000D03*
X75800000Y-89370000D03*
X75800000Y-96990000D03*
X75800000Y-104610000D03*
X75800000Y-112230000D03*
X32500000Y-77750000D03*
G04 #@! TO.N,GND*
X105645000Y-59525000D03*
X86595000Y-53810000D03*
X119500000Y-84000000D03*
X118500000Y-101455000D03*
D36*
G04 #@! TO.N,/RI5*
X129140000Y-74765000D03*
G04 #@! TO.N,/RI6*
X129140000Y-77305000D03*
G04 #@! TO.N,/RI7*
X129140000Y-79845000D03*
G04 #@! TO.N,/RI8*
X129140000Y-82385000D03*
G04 #@! TO.N,/RO1*
X80245000Y-75400000D03*
D37*
G04 #@! TO.N,/RO3*
X81515000Y-69050000D03*
D36*
G04 #@! TO.N,/RO5*
X78740000Y-59690000D03*
G04 #@! TO.N,/RO8*
X80010000Y-53340000D03*
G04 #@! TO.N,/CI1*
X126500000Y-86000000D03*
G04 #@! TO.N,/CI2*
X126500000Y-89500000D03*
G04 #@! TO.N,/CI3*
X126600000Y-96990000D03*
G04 #@! TO.N,/CI4*
X126600000Y-100800000D03*
G04 #@! TO.N,/CI5*
X126600000Y-105245000D03*
G04 #@! TO.N,/CI6*
X126600000Y-109055000D03*
G04 #@! TO.N,/CI7*
X126500000Y-115500000D03*
G04 #@! TO.N,/CI8*
X126600000Y-121120000D03*
G04 #@! TO.N,/CO1*
X95485000Y-74765000D03*
G04 #@! TO.N,/CO2*
X98660000Y-77940000D03*
X88500000Y-86830000D03*
G04 #@! TO.N,/CO3*
X98025000Y-73495000D03*
G04 #@! TO.N,/CO4*
X99295000Y-76035000D03*
X87865000Y-85560000D03*
G04 #@! TO.N,/CO5*
X100565000Y-72225000D03*
G04 #@! TO.N,/CO6*
X101835000Y-72860000D03*
X88500000Y-84290000D03*
G04 #@! TO.N,/CO7*
X103105000Y-70955000D03*
G04 #@! TO.N,/CO8*
X104375000Y-69685000D03*
G04 #@! TO.N,/IN_LOAD*
X127870000Y-84290000D03*
X122790000Y-103340000D03*
X112630000Y-110325000D03*
X123500000Y-127000000D03*
G04 #@! TO.N,/IN_CLK*
X122155000Y-72225000D03*
X113900000Y-102705000D03*
G04 #@! TO.N,/OUT_DATA*
X91675000Y-67145000D03*
G04 #@! TO.N,/OUT_CLK*
X87230000Y-56985000D03*
G04 #@! TO.N,/OUT_LOAD*
X105645000Y-102705000D03*
X87230000Y-58255000D03*
G04 #@! TO.N,Net-(U5-Pad9)*
X85325000Y-54445000D03*
G04 #@! TO.N,Net-(U5-Pad1)*
X96755000Y-63970000D03*
G04 #@! TO.N,Net-(U5-Pad2)*
X98025000Y-63335000D03*
G04 #@! TO.N,Net-(U5-Pad3)*
X99295000Y-62700000D03*
G04 #@! TO.N,Net-(U5-Pad4)*
X100565000Y-62065000D03*
G04 #@! TO.N,Net-(U5-Pad5)*
X101835000Y-61430000D03*
G04 #@! TO.N,Net-(U5-Pad6)*
X103105000Y-60795000D03*
G04 #@! TO.N,Net-(U5-Pad7)*
X104375000Y-60160000D03*
G04 #@! TO.N,Net-(U5-Pad15)*
X81915000Y-53340000D03*
G04 #@! TO.N,/5V*
X115805000Y-74765000D03*
X115805000Y-70320000D03*
X120250000Y-95085000D03*
X91675000Y-53175000D03*
X94850000Y-84925000D03*
X126600000Y-67145000D03*
D37*
X85960000Y-65875000D03*
X86595000Y-55715000D03*
D36*
G04 #@! TO.N,Net-(A1-Pad20)*
X87230000Y-59525000D03*
G04 #@! TO.N,Net-(A1-Pad11)*
X111000000Y-87500000D03*
G04 #@! TO.N,Net-(A1-Pad12)*
X113000000Y-63000000D03*
D37*
G04 #@! TO.N,/SUP_GND*
X71990000Y-77940000D03*
X74500000Y-74000000D03*
X71500000Y-70500000D03*
X74500000Y-66500000D03*
X71500000Y-63000000D03*
X74500000Y-59000000D03*
X71000000Y-55000000D03*
D36*
X90000000Y-88500000D03*
G04 #@! TD*
D38*
G04 #@! TO.N,/18V*
X105645000Y-68415000D02*
X105645000Y-66130000D01*
D39*
X75800000Y-112230000D02*
X77705000Y-112230000D01*
X77705000Y-112230000D02*
X78975000Y-113500000D01*
X84690000Y-122390000D02*
X81515000Y-122390000D01*
X78975000Y-119850000D02*
X78975000Y-117310000D01*
X81515000Y-122390000D02*
X78975000Y-119850000D01*
X78975000Y-117310000D02*
X78975000Y-113500000D01*
X84690000Y-127470000D02*
X84690000Y-122390000D01*
X72380000Y-108810000D02*
X72380000Y-110700000D01*
X71990000Y-108420000D02*
X72380000Y-108810000D01*
X72380000Y-101190000D02*
X72380000Y-103080000D01*
X71990000Y-100800000D02*
X72380000Y-101190000D01*
X72380000Y-93570000D02*
X72380000Y-95460000D01*
X71990000Y-93180000D02*
X72380000Y-93570000D01*
X75800000Y-89370000D02*
X75800000Y-88735000D01*
X75800000Y-88735000D02*
X72625000Y-85560000D01*
X75800000Y-96990000D02*
X74530000Y-95720000D01*
X74530000Y-95720000D02*
X72640000Y-95720000D01*
X72640000Y-95720000D02*
X72380000Y-95460000D01*
X75800000Y-104610000D02*
X74530000Y-103340000D01*
X74530000Y-103340000D02*
X72640000Y-103340000D01*
X72640000Y-103340000D02*
X72380000Y-103080000D01*
X75800000Y-112230000D02*
X74530000Y-110960000D01*
X74530000Y-110960000D02*
X72640000Y-110960000D01*
X72640000Y-110960000D02*
X72380000Y-110700000D01*
D38*
X28730000Y-72860000D02*
X28730000Y-74765000D01*
X28730000Y-70955000D02*
X28730000Y-72860000D01*
X28730000Y-69050000D02*
X28730000Y-70955000D01*
X28730000Y-67145000D02*
X28730000Y-69050000D01*
X28730000Y-65240000D02*
X28730000Y-67145000D01*
X28730000Y-63335000D02*
X28730000Y-65240000D01*
X28730000Y-61430000D02*
X28730000Y-63335000D01*
X72380000Y-110700000D02*
X74870000Y-110700000D01*
X74870000Y-110700000D02*
X75800000Y-109770000D01*
X72380000Y-103080000D02*
X74870000Y-103080000D01*
X74870000Y-103080000D02*
X75800000Y-102150000D01*
X72380000Y-95460000D02*
X74870000Y-95460000D01*
X74870000Y-95460000D02*
X75800000Y-94530000D01*
X31815000Y-77750000D02*
X32500000Y-77750000D01*
X28730000Y-74765000D02*
X28830000Y-74765000D01*
X28830000Y-74765000D02*
X31815000Y-77750000D01*
X113500000Y-120500000D02*
X116000000Y-120500000D01*
X112500000Y-121500000D02*
X113500000Y-120500000D01*
X112500000Y-127000000D02*
X112500000Y-121500000D01*
X84690000Y-127470000D02*
X112030000Y-127470000D01*
X112030000Y-127470000D02*
X112500000Y-127000000D01*
G04 #@! TO.N,GND*
X97390000Y-120465000D02*
X97390000Y-121755000D01*
X97390000Y-121755000D02*
X96120000Y-123025000D01*
X96120000Y-123025000D02*
X94215000Y-123025000D01*
X89770000Y-95065000D02*
X87250000Y-95065000D01*
X87250000Y-95065000D02*
X87230000Y-95085000D01*
X84710000Y-109055000D02*
X84710000Y-105940000D01*
X84710000Y-105940000D02*
X84770000Y-105880000D01*
X125330000Y-68890000D02*
X125330000Y-70320000D01*
X125330000Y-70320000D02*
X124695000Y-70955000D01*
X124695000Y-70955000D02*
X118345000Y-70955000D01*
X118345000Y-70955000D02*
X117710000Y-71590000D01*
X117710000Y-71590000D02*
X117710000Y-74290000D01*
X120250000Y-100800000D02*
X120250000Y-99370000D01*
X112630000Y-104770000D02*
X112630000Y-102070000D01*
X112630000Y-102070000D02*
X113265000Y-101435000D01*
D39*
X87230000Y-95085000D02*
X85960000Y-95085000D01*
X84770000Y-96275000D02*
X84770000Y-105880000D01*
X85960000Y-95085000D02*
X84770000Y-96275000D01*
D38*
X105645000Y-56730000D02*
X105645000Y-59525000D01*
X84530000Y-53175000D02*
X83260000Y-54445000D01*
X85960000Y-53175000D02*
X84530000Y-53175000D01*
X86595000Y-53810000D02*
X85960000Y-53175000D01*
D40*
X56250000Y-122237600D02*
X52512400Y-118500000D01*
X56750000Y-122237600D02*
X56250000Y-122237600D01*
X50500000Y-116550000D02*
X50500000Y-113450000D01*
X52450000Y-118500000D02*
X50500000Y-116550000D01*
X52512400Y-118500000D02*
X52450000Y-118500000D01*
D38*
X117710000Y-76035000D02*
X117710000Y-74290000D01*
X118345000Y-76670000D02*
X117710000Y-76035000D01*
X119500000Y-84000000D02*
X118345000Y-82845000D01*
X118345000Y-82845000D02*
X118345000Y-76670000D01*
X117200001Y-55580001D02*
X118000000Y-56380000D01*
X116449999Y-54829999D02*
X117200001Y-55580001D01*
X108345001Y-54829999D02*
X116449999Y-54829999D01*
X106445000Y-56730000D02*
X108345001Y-54829999D01*
X105645000Y-56730000D02*
X106445000Y-56730000D01*
X118480000Y-101435000D02*
X118500000Y-101455000D01*
X113265000Y-101435000D02*
X118480000Y-101435000D01*
X119595000Y-101455000D02*
X118500000Y-101455000D01*
X120250000Y-100800000D02*
X119595000Y-101455000D01*
D39*
G04 #@! TO.N,Net-(F1-Pad2)*
X69370000Y-122390000D02*
X69370000Y-127470000D01*
X56750000Y-126200000D02*
X68100000Y-126200000D01*
X68100000Y-126200000D02*
X69370000Y-127470000D01*
D38*
G04 #@! TO.N,Net-(J1-Pad1)*
X127950000Y-87465000D02*
X131045000Y-87465000D01*
G04 #@! TO.N,Net-(J1-Pad2)*
X127950000Y-91275000D02*
X130892600Y-91275000D01*
X130892600Y-91275000D02*
X131045000Y-91427400D01*
G04 #@! TO.N,Net-(J1-Pad3)*
X127950000Y-95085000D02*
X130740200Y-95085000D01*
X130740200Y-95085000D02*
X131045000Y-95389800D01*
G04 #@! TO.N,Net-(J1-Pad4)*
X127950000Y-98895000D02*
X130587800Y-98895000D01*
X130587800Y-98895000D02*
X131045000Y-99352200D01*
G04 #@! TO.N,Net-(J1-Pad5)*
X127950000Y-103340000D02*
X131019600Y-103340000D01*
X131019600Y-103340000D02*
X131045000Y-103314600D01*
G04 #@! TO.N,Net-(J1-Pad6)*
X127950000Y-107150000D02*
X130918000Y-107150000D01*
X130918000Y-107150000D02*
X131045000Y-107277000D01*
G04 #@! TO.N,Net-(J1-Pad7)*
X127950000Y-110960000D02*
X130765600Y-110960000D01*
X130765600Y-110960000D02*
X131045000Y-111239400D01*
G04 #@! TO.N,Net-(J1-Pad9)*
X127950000Y-119215000D02*
X130994200Y-119215000D01*
X130994200Y-119215000D02*
X131045000Y-119164200D01*
G04 #@! TO.N,/RI1*
X120250000Y-68890000D02*
X120250000Y-62065000D01*
X120250000Y-62065000D02*
X132950000Y-62065000D01*
G04 #@! TO.N,/RI2*
X121520000Y-68890000D02*
X121520000Y-63335000D01*
X130410000Y-63335000D02*
X131680000Y-64605000D01*
X121520000Y-63335000D02*
X130410000Y-63335000D01*
X131680000Y-64605000D02*
X132950000Y-64605000D01*
G04 #@! TO.N,/RI3*
X122790000Y-68890000D02*
X122790000Y-64605000D01*
X130410000Y-68415000D02*
X131680000Y-69685000D01*
X130410000Y-65240000D02*
X130410000Y-68415000D01*
X129775000Y-64605000D02*
X130410000Y-65240000D01*
X122790000Y-64605000D02*
X129775000Y-64605000D01*
X131680000Y-69685000D02*
X132950000Y-69685000D01*
G04 #@! TO.N,/RI4*
X124060000Y-68890000D02*
X124060000Y-65875000D01*
X129140000Y-69050000D02*
X132315000Y-72225000D01*
X129140000Y-65875000D02*
X129140000Y-69050000D01*
X124060000Y-65875000D02*
X129140000Y-65875000D01*
X132315000Y-72225000D02*
X132950000Y-72225000D01*
G04 #@! TO.N,/RI5*
X124060000Y-74290000D02*
X124060000Y-76035000D01*
X129140000Y-76035000D02*
X129140000Y-74765000D01*
X124060000Y-76035000D02*
X129140000Y-76035000D01*
X132315000Y-74765000D02*
X132950000Y-74765000D01*
G04 #@! TO.N,/RI6*
X122790000Y-74290000D02*
X122790000Y-77305000D01*
X122790000Y-77305000D02*
X129140000Y-77305000D01*
X131680000Y-77305000D02*
X132950000Y-77305000D01*
G04 #@! TO.N,/RI7*
X121520000Y-74290000D02*
X121520000Y-79210000D01*
X122155000Y-79845000D02*
X129140000Y-79845000D01*
X121520000Y-79210000D02*
X122155000Y-79845000D01*
G04 #@! TO.N,/RI8*
X120250000Y-74290000D02*
X120250000Y-80480000D01*
X122155000Y-82385000D02*
X129140000Y-82385000D01*
X120250000Y-80480000D02*
X122155000Y-82385000D01*
G04 #@! TO.N,/J137_CO1*
X31850000Y-113500000D02*
X41510000Y-113500000D01*
D40*
G04 #@! TO.N,/J137_CO2*
X56750000Y-109537600D02*
X56902400Y-109690000D01*
X56902400Y-109690000D02*
X60560000Y-109690000D01*
X60560000Y-109690000D02*
X61830000Y-108420000D01*
X61830000Y-108420000D02*
X66080000Y-108420000D01*
D38*
X31887600Y-109537600D02*
X31850000Y-109500000D01*
X41510000Y-109537600D02*
X31887600Y-109537600D01*
G04 #@! TO.N,/J137_CO3*
X41485200Y-105600000D02*
X41510000Y-105575200D01*
X31850000Y-105600000D02*
X41485200Y-105600000D01*
D40*
G04 #@! TO.N,/J137_CO4*
X56750000Y-101612800D02*
X57562800Y-100800000D01*
X57562800Y-100800000D02*
X66080000Y-100800000D01*
D38*
X41497200Y-101600000D02*
X41510000Y-101612800D01*
X31850000Y-101600000D02*
X41497200Y-101600000D01*
G04 #@! TO.N,/J137_CO5*
X41459600Y-97600000D02*
X41510000Y-97650400D01*
X31850000Y-97600000D02*
X41459600Y-97600000D01*
D40*
G04 #@! TO.N,/J137_CO6*
X56750000Y-93688000D02*
X57258000Y-93180000D01*
X57258000Y-93180000D02*
X66080000Y-93180000D01*
D38*
X41498000Y-93700000D02*
X41510000Y-93688000D01*
X31850000Y-93700000D02*
X41498000Y-93700000D01*
D40*
G04 #@! TO.N,/J137_CO7*
X45260000Y-89725600D02*
X41510000Y-89725600D01*
X46500000Y-90965600D02*
X45260000Y-89725600D01*
X46500000Y-120997600D02*
X46500000Y-90965600D01*
X45260000Y-122237600D02*
X46500000Y-120997600D01*
X41510000Y-122237600D02*
X45260000Y-122237600D01*
D38*
X41484400Y-89700000D02*
X41510000Y-89725600D01*
X31850000Y-89700000D02*
X41484400Y-89700000D01*
G04 #@! TO.N,/J137_CO8*
X41310800Y-82000000D02*
X41510000Y-81800800D01*
X31850000Y-82000000D02*
X41310800Y-82000000D01*
G04 #@! TO.N,/J133_RO1*
X31430000Y-74765000D02*
X33890000Y-74765000D01*
X34525000Y-75400000D02*
X37700000Y-75400000D01*
X33890000Y-74765000D02*
X34525000Y-75400000D01*
G04 #@! TO.N,/J133_RO2*
X31430000Y-72860000D02*
X37700000Y-72860000D01*
D40*
X37700000Y-72860000D02*
X47860000Y-72860000D01*
X47860000Y-72860000D02*
X58020000Y-72860000D01*
X58020000Y-72860000D02*
X60560000Y-72860000D01*
X60560000Y-72860000D02*
X65640000Y-77940000D01*
X65640000Y-77940000D02*
X66080000Y-77940000D01*
D38*
G04 #@! TO.N,/J133_RO3*
X31430000Y-70955000D02*
X33255000Y-70955000D01*
X33255000Y-70955000D02*
X36430000Y-67780000D01*
X36430000Y-67780000D02*
X37700000Y-67780000D01*
G04 #@! TO.N,/J133_RO4*
X31430000Y-69050000D02*
X32620000Y-69050000D01*
X32620000Y-69050000D02*
X36430000Y-65240000D01*
X36430000Y-65240000D02*
X37700000Y-65240000D01*
D40*
X37700000Y-65240000D02*
X47860000Y-65240000D01*
X47860000Y-65240000D02*
X58020000Y-65240000D01*
X58020000Y-65240000D02*
X60560000Y-65240000D01*
X60560000Y-65240000D02*
X65640000Y-70320000D01*
X65640000Y-70320000D02*
X66080000Y-70320000D01*
D38*
G04 #@! TO.N,/J133_RO5*
X31430000Y-67145000D02*
X32620000Y-67145000D01*
X32620000Y-67145000D02*
X37065000Y-62700000D01*
X37065000Y-62700000D02*
X37700000Y-62700000D01*
G04 #@! TO.N,/J133_RO6*
X31430000Y-65240000D02*
X32620000Y-65240000D01*
X35160000Y-60160000D02*
X37700000Y-60160000D01*
X34525000Y-60795000D02*
X35160000Y-60160000D01*
X34525000Y-63335000D02*
X34525000Y-60795000D01*
X32620000Y-65240000D02*
X34525000Y-63335000D01*
D40*
X37700000Y-60160000D02*
X47860000Y-60160000D01*
X47860000Y-60160000D02*
X58020000Y-60160000D01*
X58020000Y-60160000D02*
X60560000Y-60160000D01*
X60560000Y-60160000D02*
X63100000Y-62700000D01*
X63100000Y-62700000D02*
X66080000Y-62700000D01*
D38*
G04 #@! TO.N,/J133_RO7*
X31430000Y-63335000D02*
X32620000Y-63335000D01*
X35795000Y-57620000D02*
X37700000Y-57620000D01*
X33255000Y-60160000D02*
X35795000Y-57620000D01*
X33255000Y-62700000D02*
X33255000Y-60160000D01*
X32620000Y-63335000D02*
X33255000Y-62700000D01*
D40*
X37700000Y-57620000D02*
X47860000Y-57620000D01*
X47860000Y-57620000D02*
X58020000Y-57620000D01*
X58020000Y-57620000D02*
X60560000Y-57620000D01*
X60560000Y-57620000D02*
X63100000Y-55080000D01*
D38*
G04 #@! TO.N,/J133_RO8*
X31430000Y-61430000D02*
X31430000Y-60080000D01*
X31430000Y-60080000D02*
X36430000Y-55080000D01*
X36430000Y-55080000D02*
X37700000Y-55080000D01*
G04 #@! TO.N,/RO1*
X88660000Y-62065000D02*
X85960000Y-62065000D01*
X81515000Y-74130000D02*
X80245000Y-75400000D01*
X81515000Y-72860000D02*
X81515000Y-74130000D01*
X84690000Y-69685000D02*
X81515000Y-72860000D01*
X84690000Y-65240000D02*
X84690000Y-69685000D01*
X85325000Y-64605000D02*
X84690000Y-65240000D01*
X85325000Y-62700000D02*
X85325000Y-64605000D01*
X85960000Y-62065000D02*
X85325000Y-62700000D01*
G04 #@! TO.N,/RO2*
X83260000Y-63335000D02*
X83260000Y-69210000D01*
X78420000Y-74685000D02*
X78420000Y-76670000D01*
X80245000Y-72860000D02*
X78420000Y-74685000D01*
X80245000Y-72225000D02*
X80245000Y-72860000D01*
X83260000Y-69210000D02*
X80245000Y-72225000D01*
X78420000Y-76670000D02*
X78420000Y-79210000D01*
G04 #@! TO.N,/RO3*
X83260000Y-62065000D02*
X82150000Y-62065000D01*
X81515000Y-62700000D02*
X81515000Y-69050000D01*
X82150000Y-62065000D02*
X81515000Y-62700000D01*
G04 #@! TO.N,/RO4*
X83260000Y-60795000D02*
X81515000Y-60795000D01*
X79610000Y-69050000D02*
X78420000Y-69050000D01*
X80245000Y-68415000D02*
X79610000Y-69050000D01*
X80245000Y-62065000D02*
X80245000Y-68415000D01*
X81515000Y-60795000D02*
X80245000Y-62065000D01*
X78420000Y-69050000D02*
X78420000Y-71590000D01*
G04 #@! TO.N,/RO5*
X83260000Y-59525000D02*
X78905000Y-59525000D01*
X78905000Y-59525000D02*
X78740000Y-59690000D01*
G04 #@! TO.N,/RO6*
X83260000Y-58255000D02*
X77635000Y-58255000D01*
X77470000Y-60480000D02*
X78420000Y-61430000D01*
X77470000Y-58420000D02*
X77470000Y-60480000D01*
X77635000Y-58255000D02*
X77470000Y-58420000D01*
X78420000Y-61430000D02*
X78420000Y-63970000D01*
G04 #@! TO.N,/RO7*
X83260000Y-56985000D02*
X79055000Y-56985000D01*
X79055000Y-56985000D02*
X78420000Y-56350000D01*
X78420000Y-56350000D02*
X78420000Y-53810000D01*
G04 #@! TO.N,/RO8*
X83260000Y-55715000D02*
X81750000Y-55715000D01*
X80010000Y-53975000D02*
X80010000Y-53340000D01*
X81750000Y-55715000D02*
X80010000Y-53975000D01*
G04 #@! TO.N,/CI1*
X125250000Y-87465000D02*
X125250000Y-88020000D01*
X115170000Y-99370000D02*
X115170000Y-91275000D01*
X118980000Y-87465000D02*
X125250000Y-87465000D01*
X115170000Y-91275000D02*
X118980000Y-87465000D01*
X125250000Y-87465000D02*
X125250000Y-87250000D01*
X125250000Y-87250000D02*
X126500000Y-86000000D01*
G04 #@! TO.N,/CI2*
X125250000Y-91275000D02*
X117075000Y-91275000D01*
X116440000Y-91910000D02*
X116440000Y-99370000D01*
X117075000Y-91275000D02*
X116440000Y-91910000D01*
X125250000Y-91275000D02*
X125250000Y-90750000D01*
X125250000Y-90750000D02*
X126500000Y-89500000D01*
G04 #@! TO.N,/CI3*
X125250000Y-95085000D02*
X125250000Y-95005000D01*
X125250000Y-95005000D02*
X122790000Y-92545000D01*
X117710000Y-92545000D02*
X117710000Y-99370000D01*
X122790000Y-92545000D02*
X117710000Y-92545000D01*
X125250000Y-95085000D02*
X125250000Y-95640000D01*
X125250000Y-95640000D02*
X126600000Y-96990000D01*
G04 #@! TO.N,/CI4*
X125250000Y-98895000D02*
X125250000Y-97545000D01*
X118980000Y-93815000D02*
X118980000Y-99370000D01*
X121520000Y-93815000D02*
X118980000Y-93815000D01*
X125250000Y-97545000D02*
X121520000Y-93815000D01*
X125250000Y-98895000D02*
X125250000Y-98815000D01*
X125250000Y-98895000D02*
X125250000Y-99450000D01*
X125250000Y-99450000D02*
X126600000Y-100800000D01*
X125250000Y-98895000D02*
X125250000Y-98975000D01*
G04 #@! TO.N,/CI5*
X125250000Y-103340000D02*
X125250000Y-104055000D01*
X118980000Y-105880000D02*
X118980000Y-104770000D01*
X120250000Y-107150000D02*
X118980000Y-105880000D01*
X122155000Y-107150000D02*
X120250000Y-107150000D01*
X125250000Y-104055000D02*
X122155000Y-107150000D01*
X125250000Y-103340000D02*
X125250000Y-103895000D01*
X125250000Y-103895000D02*
X126600000Y-105245000D01*
G04 #@! TO.N,/CI6*
X125250000Y-107150000D02*
X125250000Y-107865000D01*
X117710000Y-106515000D02*
X117710000Y-104770000D01*
X120250000Y-109055000D02*
X117710000Y-106515000D01*
X124060000Y-109055000D02*
X120250000Y-109055000D01*
X125250000Y-107865000D02*
X124060000Y-109055000D01*
X125250000Y-107150000D02*
X125250000Y-107705000D01*
X125250000Y-107705000D02*
X126600000Y-109055000D01*
G04 #@! TO.N,/CI7*
X125250000Y-110960000D02*
X125250000Y-111515000D01*
X125250000Y-110960000D02*
X120250000Y-110960000D01*
X116440000Y-107150000D02*
X116440000Y-104770000D01*
X120250000Y-110960000D02*
X116440000Y-107150000D01*
X125250000Y-110960000D02*
X125250000Y-114250000D01*
X125250000Y-114250000D02*
X126500000Y-115500000D01*
G04 #@! TO.N,/CI8*
X125250000Y-119215000D02*
X125250000Y-119770000D01*
X125250000Y-119770000D02*
X126600000Y-121120000D01*
X125250000Y-119215000D02*
X125250000Y-117865000D01*
X115170000Y-107785000D02*
X115170000Y-104770000D01*
X125250000Y-117865000D02*
X115170000Y-107785000D01*
G04 #@! TO.N,/CO1*
X95485000Y-74765000D02*
X95485000Y-66130000D01*
G04 #@! TO.N,/CO2*
X96755000Y-76035000D02*
X96755000Y-66130000D01*
X98660000Y-77940000D02*
X96755000Y-76035000D01*
X85960000Y-86830000D02*
X88500000Y-86830000D01*
X84055000Y-88735000D02*
X85960000Y-86830000D01*
X84055000Y-93815000D02*
X84055000Y-88735000D01*
X82785000Y-95085000D02*
X84055000Y-93815000D01*
X75880000Y-107150000D02*
X74870000Y-106140000D01*
X74870000Y-106140000D02*
X72380000Y-106140000D01*
X75800000Y-106970000D02*
X75800000Y-107070000D01*
X82785000Y-99985000D02*
X75800000Y-106970000D01*
X82785000Y-95085000D02*
X82785000Y-99985000D01*
G04 #@! TO.N,/CO3*
X98025000Y-73495000D02*
X98025000Y-66130000D01*
G04 #@! TO.N,/CO4*
X99295000Y-76035000D02*
X99295000Y-66130000D01*
X85325000Y-85560000D02*
X87865000Y-85560000D01*
X82785000Y-88100000D02*
X85325000Y-85560000D01*
X82785000Y-93180000D02*
X82785000Y-88100000D01*
X80960000Y-95005000D02*
X82785000Y-93180000D01*
X75880000Y-99530000D02*
X74870000Y-98520000D01*
X74870000Y-98520000D02*
X72380000Y-98520000D01*
X80960000Y-95005000D02*
X80960000Y-97040000D01*
X78550000Y-99450000D02*
X75800000Y-99450000D01*
X80960000Y-97040000D02*
X78550000Y-99450000D01*
G04 #@! TO.N,/CO5*
X100565000Y-72225000D02*
X100565000Y-66130000D01*
G04 #@! TO.N,/CO6*
X101835000Y-72860000D02*
X101835000Y-66130000D01*
X75880000Y-91910000D02*
X74870000Y-90900000D01*
X74870000Y-90900000D02*
X72380000Y-90900000D01*
X77150000Y-91830000D02*
X75800000Y-91830000D01*
X88500000Y-84290000D02*
X84690000Y-84290000D01*
X84690000Y-84290000D02*
X77150000Y-91830000D01*
G04 #@! TO.N,/CO7*
X103105000Y-70955000D02*
X103105000Y-66130000D01*
G04 #@! TO.N,/CO8*
X104375000Y-69685000D02*
X104375000Y-66130000D01*
G04 #@! TO.N,/IN_LOAD*
X126600000Y-74290000D02*
X126600000Y-72860000D01*
X129140000Y-84290000D02*
X127870000Y-84290000D01*
X130410000Y-83020000D02*
X129140000Y-84290000D01*
X130410000Y-73495000D02*
X130410000Y-83020000D01*
X129140000Y-72225000D02*
X130410000Y-73495000D01*
X127235000Y-72225000D02*
X129140000Y-72225000D01*
X126600000Y-72860000D02*
X127235000Y-72225000D01*
X121520000Y-104770000D02*
X121520000Y-104610000D01*
X121520000Y-104610000D02*
X122790000Y-103340000D01*
X115825000Y-110325000D02*
X115000000Y-110325000D01*
X115170000Y-110325000D02*
X115000000Y-110325000D01*
X115000000Y-110325000D02*
X112630000Y-110325000D01*
X115825000Y-110325000D02*
X121500000Y-116000000D01*
X121500000Y-125000000D02*
X123500000Y-127000000D01*
X121500000Y-116000000D02*
X121500000Y-125000000D01*
G04 #@! TO.N,/IN_DATA*
X112630000Y-99370000D02*
X112630000Y-99530000D01*
X112630000Y-99530000D02*
X111360000Y-100800000D01*
X111360000Y-100800000D02*
X111360000Y-114770000D01*
X111360000Y-114770000D02*
X110725000Y-115405000D01*
X110725000Y-115405000D02*
X109455000Y-115405000D01*
G04 #@! TO.N,/IN_CLK*
X125330000Y-74290000D02*
X125330000Y-72860000D01*
X124695000Y-72225000D02*
X122155000Y-72225000D01*
X125330000Y-72860000D02*
X124695000Y-72225000D01*
X120250000Y-104770000D02*
X120250000Y-102705000D01*
X120250000Y-102705000D02*
X113900000Y-102705000D01*
G04 #@! TO.N,Net-(U1-Pad10)*
X113900000Y-99370000D02*
X113900000Y-69685000D01*
X114695000Y-68890000D02*
X117710000Y-68890000D01*
X113900000Y-69685000D02*
X114695000Y-68890000D01*
G04 #@! TO.N,/OUT_DATA*
X106915000Y-107785000D02*
X109455000Y-107785000D01*
X104375000Y-105245000D02*
X106915000Y-107785000D01*
X104375000Y-90005000D02*
X104375000Y-105245000D01*
X91675000Y-77305000D02*
X104375000Y-90005000D01*
X91675000Y-67145000D02*
X91675000Y-77305000D01*
G04 #@! TO.N,/OUT_CLK*
X88660000Y-56985000D02*
X94215000Y-56985000D01*
X107550000Y-105245000D02*
X109455000Y-105245000D01*
X106915000Y-104610000D02*
X107550000Y-105245000D01*
X106915000Y-88735000D02*
X106915000Y-104610000D01*
X94215000Y-76035000D02*
X106915000Y-88735000D01*
X94215000Y-56985000D02*
X94215000Y-76035000D01*
X87230000Y-56985000D02*
X88660000Y-56985000D01*
G04 #@! TO.N,/OUT_LOAD*
X88660000Y-58255000D02*
X92945000Y-58255000D01*
X105645000Y-89370000D02*
X105645000Y-102705000D01*
X92945000Y-76670000D02*
X105645000Y-89370000D01*
X92945000Y-58255000D02*
X92945000Y-76670000D01*
X87230000Y-58255000D02*
X88660000Y-58255000D01*
G04 #@! TO.N,Net-(U5-Pad9)*
X88660000Y-60795000D02*
X86595000Y-60795000D01*
X85325000Y-59525000D02*
X85325000Y-54445000D01*
X86595000Y-60795000D02*
X85325000Y-59525000D01*
G04 #@! TO.N,Net-(C1-Pad1)*
X87210000Y-109055000D02*
X89135000Y-109055000D01*
X89135000Y-109055000D02*
X89135000Y-106515000D01*
X89135000Y-106515000D02*
X89770000Y-105880000D01*
D39*
X87230000Y-97625000D02*
X87230000Y-103340000D01*
X87230000Y-103340000D02*
X89770000Y-105880000D01*
X89135000Y-113500000D02*
X89135000Y-106515000D01*
X89135000Y-106515000D02*
X89770000Y-105880000D01*
D38*
G04 #@! TO.N,Net-(Q10-Pad1)*
X75720000Y-76670000D02*
X73390000Y-76670000D01*
X73390000Y-76670000D02*
X72380000Y-75660000D01*
G04 #@! TO.N,Net-(Q12-Pad1)*
X75720000Y-69050000D02*
X73390000Y-69050000D01*
X73390000Y-69050000D02*
X72380000Y-68040000D01*
G04 #@! TO.N,Net-(Q14-Pad1)*
X75720000Y-61430000D02*
X73390000Y-61430000D01*
X73390000Y-61430000D02*
X72380000Y-60420000D01*
G04 #@! TO.N,Net-(Q15-Pad1)*
X75720000Y-53810000D02*
X73390000Y-53810000D01*
X73390000Y-53810000D02*
X72380000Y-52800000D01*
G04 #@! TO.N,Net-(U5-Pad1)*
X96755000Y-56730000D02*
X96755000Y-63970000D01*
G04 #@! TO.N,Net-(U5-Pad2)*
X98025000Y-56730000D02*
X98025000Y-63335000D01*
G04 #@! TO.N,Net-(U5-Pad3)*
X99295000Y-56730000D02*
X99295000Y-62700000D01*
G04 #@! TO.N,Net-(U5-Pad4)*
X100565000Y-56730000D02*
X100565000Y-62065000D01*
G04 #@! TO.N,Net-(U5-Pad5)*
X101835000Y-56730000D02*
X101835000Y-61430000D01*
G04 #@! TO.N,Net-(U5-Pad6)*
X103105000Y-56730000D02*
X103105000Y-60795000D01*
G04 #@! TO.N,Net-(U5-Pad7)*
X104375000Y-56730000D02*
X104375000Y-60160000D01*
G04 #@! TO.N,Net-(U5-Pad15)*
X95485000Y-54845000D02*
X95485000Y-56730000D01*
X92710000Y-52070000D02*
X95485000Y-54845000D01*
X83185000Y-52070000D02*
X92710000Y-52070000D01*
X81915000Y-53340000D02*
X83185000Y-52070000D01*
G04 #@! TO.N,/5V*
X115805000Y-70320000D02*
X115805000Y-74765000D01*
X121520000Y-99370000D02*
X121520000Y-96355000D01*
X121520000Y-96355000D02*
X120250000Y-95085000D01*
X88660000Y-55715000D02*
X90405000Y-55715000D01*
X91675000Y-54445000D02*
X91675000Y-53175000D01*
X90405000Y-55715000D02*
X91675000Y-54445000D01*
X91675000Y-97545000D02*
X91675000Y-88100000D01*
X88660000Y-63335000D02*
X88660000Y-81040000D01*
X88660000Y-81040000D02*
X89770000Y-82150000D01*
X94215000Y-117945000D02*
X92945000Y-117945000D01*
X90485000Y-97545000D02*
X91675000Y-97545000D01*
X89770000Y-98260000D02*
X90485000Y-97545000D01*
X89770000Y-101435000D02*
X89770000Y-98260000D01*
X91675000Y-103340000D02*
X89770000Y-101435000D01*
X91675000Y-116675000D02*
X91675000Y-103340000D01*
X92945000Y-117945000D02*
X91675000Y-116675000D01*
X97390000Y-117965000D02*
X94235000Y-117965000D01*
X94235000Y-117965000D02*
X94215000Y-117945000D01*
X91675000Y-97545000D02*
X91675000Y-93180000D01*
X91060000Y-92565000D02*
X89770000Y-92565000D01*
X91675000Y-93180000D02*
X91060000Y-92565000D01*
X89770000Y-92565000D02*
X87250000Y-92565000D01*
X87250000Y-92565000D02*
X87230000Y-92545000D01*
X126600000Y-68890000D02*
X126600000Y-67145000D01*
X85960000Y-65875000D02*
X88500000Y-63335000D01*
X88500000Y-63335000D02*
X88660000Y-63335000D01*
X86595000Y-55715000D02*
X88660000Y-55715000D01*
X89770000Y-82150000D02*
X92075000Y-82150000D01*
X93775000Y-83850000D02*
X93775000Y-86000000D01*
X91675000Y-88100000D02*
X93775000Y-86000000D01*
X92075000Y-82150000D02*
X93775000Y-83850000D01*
X93775000Y-86000000D02*
X94850000Y-84925000D01*
G04 #@! TO.N,Net-(A1-Pad20)*
X91675000Y-100245000D02*
X94135000Y-100245000D01*
X94135000Y-100245000D02*
X94215000Y-100165000D01*
X88660000Y-59525000D02*
X91675000Y-59525000D01*
X98660000Y-100165000D02*
X94215000Y-100165000D01*
X99295000Y-99530000D02*
X98660000Y-100165000D01*
X99295000Y-86830000D02*
X99295000Y-99530000D01*
X90405000Y-77940000D02*
X99295000Y-86830000D01*
X90405000Y-66510000D02*
X90405000Y-77940000D01*
X91040000Y-65875000D02*
X90405000Y-66510000D01*
X91675000Y-65875000D02*
X91040000Y-65875000D01*
X91675000Y-59525000D02*
X91675000Y-65875000D01*
X87230000Y-59525000D02*
X88660000Y-59525000D01*
G04 #@! TO.N,Net-(A1-Pad13)*
X107665010Y-61634990D02*
X110380000Y-58920000D01*
X109500000Y-95020000D02*
X107665010Y-93185010D01*
X107665010Y-93185010D02*
X107665010Y-61634990D01*
G04 #@! TO.N,Net-(A1-Pad11)*
X110380000Y-64000000D02*
X110380000Y-86880000D01*
X110380000Y-86880000D02*
X111000000Y-87500000D01*
G04 #@! TO.N,Net-(A1-Pad12)*
X112750010Y-63249990D02*
X113000000Y-63000000D01*
X109500000Y-97560000D02*
X112750010Y-94309990D01*
X112750010Y-94309990D02*
X112750010Y-63249990D01*
G04 #@! TO.N,Net-(A1-Pad14)*
X112000000Y-58000000D02*
X110380000Y-56380000D01*
X109500000Y-92480000D02*
X112000000Y-89980000D01*
X112000000Y-89980000D02*
X112000000Y-58000000D01*
G04 #@! TO.N,/SUP_GND*
X72380000Y-80220000D02*
X74710000Y-80220000D01*
X74710000Y-80220000D02*
X75720000Y-79210000D01*
X72380000Y-57360000D02*
X74710000Y-57360000D01*
X74710000Y-57360000D02*
X75720000Y-56350000D01*
X72380000Y-64980000D02*
X74710000Y-64980000D01*
X74710000Y-64980000D02*
X75720000Y-63970000D01*
X74710000Y-72600000D02*
X75720000Y-71590000D01*
X29150000Y-82000000D02*
X29150000Y-113500000D01*
X29200000Y-81950000D02*
X29150000Y-82000000D01*
X72380000Y-72600000D02*
X74710000Y-72600000D01*
D39*
X72380000Y-78330000D02*
X71990000Y-77940000D01*
X72380000Y-80220000D02*
X72380000Y-78330000D01*
D40*
X50500000Y-80500000D02*
X50500000Y-105550000D01*
X52500000Y-78500000D02*
X51500000Y-79500000D01*
X59000000Y-78500000D02*
X52500000Y-78500000D01*
X60500000Y-80000000D02*
X59000000Y-78500000D01*
X60500000Y-81500000D02*
X60500000Y-80000000D01*
X51500000Y-79500000D02*
X50500000Y-80500000D01*
X52074210Y-78925790D02*
X51500000Y-79500000D01*
X72380000Y-80220000D02*
X72380000Y-82570000D01*
X72380000Y-82570000D02*
X71450000Y-83500000D01*
X71450000Y-83500000D02*
X62500000Y-83500000D01*
X62500000Y-83500000D02*
X60500000Y-81500000D01*
D39*
X72380000Y-72600000D02*
X73100000Y-72600000D01*
X73100000Y-72600000D02*
X74500000Y-74000000D01*
X72380000Y-72600000D02*
X72380000Y-71380000D01*
X72380000Y-71380000D02*
X71500000Y-70500000D01*
X72380000Y-64980000D02*
X72980000Y-64980000D01*
X72980000Y-64980000D02*
X74500000Y-66500000D01*
X72380000Y-64980000D02*
X72380000Y-63880000D01*
X72380000Y-63880000D02*
X71500000Y-63000000D01*
X72860000Y-57360000D02*
X72380000Y-57360000D01*
X74500000Y-59000000D02*
X72860000Y-57360000D01*
X72380000Y-57360000D02*
X72380000Y-56380000D01*
X72380000Y-56380000D02*
X71000000Y-55000000D01*
D38*
X29250000Y-82000000D02*
X32250000Y-79000000D01*
X29150000Y-82000000D02*
X29250000Y-82000000D01*
X52000000Y-79000000D02*
X52074210Y-78925790D01*
X32250000Y-79000000D02*
X52000000Y-79000000D01*
X90000000Y-84235998D02*
X90000000Y-88500000D01*
X86374003Y-80610001D02*
X90000000Y-84235998D01*
X77220001Y-80610001D02*
X86374003Y-80610001D01*
X75720000Y-79210000D02*
X75820000Y-79210000D01*
X75820000Y-79210000D02*
X77220001Y-80610001D01*
G04 #@! TD*
M02*
