M48
;DRILL file {KiCad 4.0.7} date 01/26/18 09:32:46
;FORMAT={-:-/ absolute / inch / decimal}
FMAT,2
INCH,TZ
T1C0.016
T2C0.031
T3C0.032
T4C0.039
T5C0.047
T6C0.053
T7C0.055
T8C0.067
%
G90
G05
M72
T1
X1.9343Y-4.6185
X2.3343Y-4.6185
X3.1Y-2.35
X3.15Y-2.1
X3.1593Y-2.9685
X3.225Y-2.1
X3.3593Y-2.1435
X3.4343Y-2.2435
X3.4343Y-2.2935
X3.4343Y-2.3435
X3.4593Y-3.3685
X3.4843Y-3.3185
X3.4843Y-3.4185
X3.6093Y-2.0935
X3.6093Y-2.6435
X3.7343Y-3.3435
X3.7593Y-2.9435
X3.8093Y-2.5185
X3.8593Y-2.4935
X3.8593Y-2.8935
X3.8843Y-3.0685
X3.9093Y-2.4685
X3.9093Y-2.9935
X3.9593Y-2.4435
X3.9593Y-2.8435
X4.0093Y-2.4185
X4.0093Y-2.8685
X4.0593Y-2.3935
X4.0593Y-2.7935
X4.1093Y-2.3685
X4.1093Y-2.7435
X4.1093Y-4.5685
X4.1593Y-2.6935
X4.1593Y-4.0435
X4.4343Y-3.4185
X4.4343Y-3.8185
X4.4343Y-4.3435
X4.4843Y-4.0435
X4.5343Y-4.9685
X4.5593Y-2.9685
X4.6843Y-3.9935
X4.7343Y-2.8435
X4.7343Y-3.7435
X4.8343Y-4.0685
X4.8343Y-4.6435
X4.9093Y-3.3435
X4.9843Y-2.6435
X4.9843Y-3.5185
X4.9843Y-3.6685
X4.9843Y-3.8185
X4.9843Y-3.9685
X4.9843Y-4.1435
X4.9843Y-4.2935
X4.9843Y-4.4435
X4.9843Y-4.7685
X5.0343Y-3.3185
X5.0843Y-2.9435
X5.0843Y-3.0435
X5.0843Y-3.1435
X5.0843Y-3.2435
T2
X2.8343Y-2.1685
X2.8343Y-2.4685
X2.8343Y-2.7685
X2.8343Y-3.0685
X2.8343Y-3.6685
X2.8343Y-3.9685
X2.8343Y-4.2685
X2.8593Y-3.3685
X2.9593Y-2.3185
X2.9593Y-2.6185
X2.9593Y-2.9185
X2.9843Y-3.5185
X2.9843Y-3.8185
X2.9843Y-4.1185
X2.9843Y-4.4185
X3.2093Y-2.7185
X3.3843Y-2.5935
X3.4093Y-2.1185
X3.4093Y-2.1935
X4.1093Y-2.9685
X4.1093Y-3.0685
X4.1093Y-3.1685
X4.1093Y-3.2685
X4.1593Y-2.3435
X4.4093Y-2.9685
X4.4093Y-3.0685
X4.4093Y-3.1685
X4.4093Y-3.2685
T3
X3.7093Y-3.5435
X3.7093Y-3.6435
X3.7093Y-3.7435
X3.7093Y-3.8435
X3.7093Y-3.9435
X3.7093Y-4.0435
X3.7093Y-4.1435
X3.7093Y-4.2435
X3.7093Y-4.3435
X3.7093Y-4.4435
X3.7093Y-4.5435
X3.7093Y-4.6435
X3.7093Y-4.7435
X3.7093Y-4.8435
X3.7093Y-4.9435
X4.3093Y-3.5435
X4.3093Y-3.6435
X4.3093Y-3.7435
X4.3093Y-3.8435
X4.3093Y-3.9435
X4.3093Y-4.0435
X4.3093Y-4.1435
X4.3093Y-4.2435
X4.3093Y-4.3435
X4.3093Y-4.4435
X4.3093Y-4.5435
X4.3093Y-4.6435
X4.3093Y-4.7435
X4.3093Y-4.8435
X4.3093Y-4.9435
T4
X3.3374Y-4.1685
X3.4343Y-3.6435
X3.4343Y-3.7435
X3.4343Y-3.8435
X3.5343Y-4.1685
T5
X1.4843Y-2.1685
X1.4843Y-2.2685
X1.4843Y-2.3685
X1.4843Y-2.4685
X1.4843Y-2.5685
X1.4843Y-2.6685
X1.4843Y-2.7685
X1.4843Y-2.8685
X1.4843Y-2.9685
X1.8843Y-2.1685
X1.8843Y-2.2685
X1.8843Y-2.3685
X1.8843Y-2.4685
X1.8843Y-2.5685
X1.8843Y-2.6685
X1.8843Y-2.7685
X1.8843Y-2.8685
X1.8843Y-2.9685
X2.2843Y-2.1685
X2.2843Y-2.2685
X2.2843Y-2.3685
X2.2843Y-2.4685
X2.2843Y-2.5685
X2.2843Y-2.6685
X2.2843Y-2.7685
X2.2843Y-2.8685
X2.2843Y-2.9685
X5.2343Y-2.4435
X5.2343Y-2.5435
X5.2343Y-2.6435
X5.2343Y-2.7435
X5.2343Y-2.8435
X5.2343Y-2.9435
X5.2343Y-3.0435
X5.2343Y-3.1435
X5.2343Y-3.2435
T6
X2.7311Y-4.8185
X2.7311Y-5.0185
X3.3343Y-4.8185
X3.3343Y-5.0185
T7
X3.1093Y-4.4685
X3.5093Y-4.4685
T8
X1.6343Y-3.2205
X1.6343Y-3.3765
X1.6343Y-3.5325
X1.6343Y-3.6885
X1.6343Y-3.8445
X1.6343Y-4.0005
X1.6343Y-4.1565
X1.6343Y-4.3125
X1.6343Y-4.4685
X1.6343Y-4.6565
X1.6343Y-4.8125
X1.6343Y-4.9685
X2.2343Y-3.2205
X2.2343Y-3.3765
X2.2343Y-3.5325
X2.2343Y-3.6885
X2.2343Y-3.8445
X2.2343Y-4.0005
X2.2343Y-4.1565
X2.2343Y-4.3125
X2.2343Y-4.4685
X2.2343Y-4.8125
X2.2343Y-4.9685
X5.1593Y-3.4435
X5.1593Y-3.5995
X5.1593Y-3.7555
X5.1593Y-3.9115
X5.1593Y-4.0675
X5.1593Y-4.2235
X5.1593Y-4.3795
X5.1593Y-4.5355
X5.1593Y-4.6915
T0
M30
