<?xml version="1.0" encoding="UTF-8" standalone="no"?>
<!-- Created with Inkscape (http://www.inkscape.org/) -->

<svg
   width="89.500519mm"
   height="14.052652mm"
   viewBox="0 0 89.500519 14.052652"
   version="1.1"
   id="svg1"
   inkscape:version="1.3.2 (091e20ef0f, 2023-11-25, custom)"
   sodipodi:docname="afterglow_animated.svg"
   xmlns:inkscape="http://www.inkscape.org/namespaces/inkscape"
   xmlns:sodipodi="http://sodipodi.sourceforge.net/DTD/sodipodi-0.dtd"
   xmlns:xlink="http://www.w3.org/1999/xlink"
   xmlns="http://www.w3.org/2000/svg"
   xmlns:svg="http://www.w3.org/2000/svg">
  <sodipodi:namedview
     id="namedview1"
     pagecolor="#ffffff"
     bordercolor="#666666"
     borderopacity="1.0"
     inkscape:showpageshadow="2"
     inkscape:pageopacity="0.0"
     inkscape:pagecheckerboard="0"
     inkscape:deskcolor="#d1d1d1"
     inkscape:document-units="mm"
     inkscape:zoom="1.029826"
     inkscape:cx="210.22969"
     inkscape:cy="0"
     inkscape:window-width="2560"
     inkscape:window-height="1358"
     inkscape:window-x="0"
     inkscape:window-y="0"
     inkscape:window-maximized="1"
     inkscape:current-layer="layer1"
     showgrid="false" />
  <defs
     id="defs1">
    <rect
       x="165.56573"
       y="342.4653"
       width="469.51953"
       height="153.92847"
       id="rect1-1" />
    <rect
       x="165.56573"
       y="342.4653"
       width="469.51953"
       height="153.92847"
       id="rect1-8-5" />
    <pattern
       inkscape:collect="always"
       xlink:href="#DecorativePaper"
       preserveAspectRatio="xMidYMid"
       id="pattern22"
       patternTransform="matrix(0.34,0,0,0.34,6.112105,-61.674523)"
       x="-20"
       y="16" />
    <pattern
       patternUnits="userSpaceOnUse"
       width="100"
       height="100"
       id="DecorativePaper"
       style="fill:#ffffff"
       inkscape:stockid="Decorative Paper"
       preserveAspectRatio="xMidYMid"
       patternTransform="scale(0.5,0.5)"
       inkscape:collect="always"
       inkscape:isstock="true"
       inkscape:label="Decorative Paper">
      <path
         id="path163941"
         style="opacity:1;fill-opacity:0.994819;stroke-width:1"
         inkscape:transform-center-x="-0.022809513"
         inkscape:transform-center-y="0.17213445"
         d="m 95.49805,0 c 0.2337,0.655687 1.33166,1.004203 1.73437,1.650391 l 0.002,0.0019 c 0.0425,0.01128 0.0803,0.0198 0.12305,0.03125 -0.0136,0.05056 -0.0274,0.09646 -0.041,0.146484 0.33338,0.766429 0.14131,1.975512 0.89062,2.279297 C 98.81461,4.355647 99.39115,3.738046 100,3.326122 V 0 Z m 1.81836,1.830078 c -0.0263,-0.06034 -0.0485,-0.123616 -0.082,-0.177734 -5.39503,-1.43204 -9.126682,-1.557222 -12.402348,0.333984 -4.330124,2.499998 -5.92927,5.732002 -7.027343,9.830078 4.098069,1.098079 9.063243,1.697264 12.527341,-0.302734 3.43205,-1.981503 5.52214,-4.326625 6.98438,-9.683594 z M 100,3.666016 C 96.44152,7.35613 94.63867,10.404321 94.63867,14 c 0,4.999995 2.00001,8.000013 5,11 0.12095,-0.120944 0.24058,-0.252824 0.36133,-0.376953 z m 0,71.001953 C 97.22825,77.581702 94.63867,81.285412 94.63867,85 c 0,3.956986 0.98357,6.93711 4.87696,10.87305 0.0495,0.0325 0.0999,0.061 0.14843,0.0996 C 99.78318,95.85337 99.88445,95.74091 100,95.62304 Z M 99.66406,95.97266 c -0.009,0.009 -0.0162,0.0182 -0.0254,0.0273 -0.043,-0.043 -0.0807,-0.0842 -0.12304,-0.12696 -0.22218,-0.1458 -0.45293,-0.23001 -0.71094,-0.16601 -0.84738,0.2102 -0.75052,1.62874 -1.3125,2.29687 -0.56199,0.66813 -1.97713,0.81665 -2.03906,1.6875 -0.008,0.11138 0.0106,0.21244 0.0449,0.3086 H 100 V 96.27535 C 99.88915,96.166 99.77708,96.06253 99.66406,95.97262 Z M 83.5,85.529297 c -1.704673,-0.0074 -3.402407,0.306702 -5.195312,0.787109 1.098075,4.098074 3.063245,8.697264 6.527343,10.697264 3.464096,2 6.561299,2.63403 12.025389,1.16992 C 95.39332,92.7195 93.63351,89.392441 90.33203,87.486328 87.896338,86.08008 85.691722,85.538783 83.5,85.529297 Z M 0.638672,74 C 0.424614,74.214058 0.212968,74.444092 0,74.667969 V 95.62305 C 3.746981,91.80072 5.638672,88.689684 5.638672,85 c 0,-4.999995 -2.000004,-8.000003 -5,-11 z m 15.332031,12.173828 c -2.186294,-0.03678 -4.293342,0.312503 -6.025391,1.3125 -3.454717,1.994583 -5.550106,4.354532 -7.013671,9.787112 0.182098,0.0273 0.35088,0.0716 0.486328,0.16601 5.188444,1.33602 8.830172,1.42011 12.027343,-0.42578 4.330122,-2.5 5.929273,-5.732 7.027344,-9.830076 -2.049035,-0.549037 -4.315658,-0.972987 -6.501953,-1.009766 z M 3.417969,97.43945 c -0.169265,-0.0436 -0.325421,-0.0768 -0.498047,-0.12304 0.004,-0.0148 0.0077,-0.0282 0.01172,-0.043 C 2.343505,97.18521 1.579644,97.34221 1.039064,97.12302 0.658911,96.96893 0.330006,96.60093 0,96.27539 V 100 H 3.017578 C 3.213131,99.19311 4.051132,98.33961 3.628906,97.66211 3.571186,97.56951 3.499814,97.49652 3.417969,97.43945 Z M 0,0 V 3.326172 C 0.200629,3.190434 0.405626,3.078197 0.615234,3.025391 c 0.0085,-0.0085 0.01493,-0.01688 0.02344,-0.02539 0.0064,0.0064 0.01121,0.01315 0.01758,0.01953 C 1.502169,2.836995 2.705571,3.514336 3.25977,2.855468 3.821753,2.187341 2.910716,1.095463 2.972656,0.224609 2.97796,0.150044 2.999266,0.075558 3.017578,0 Z m 0.65625,3.019531 c -0.01189,0.0026 -0.02537,9.93e-4 -0.03711,0.0039 -0.0014,3.4e-4 -0.0025,0.0016 -0.0039,0.002 C 0.396993,3.243908 0.206283,3.452101 0,3.666016 V 24.623047 C 2.874373,21.668176 5.638672,17.838737 5.638672,14 5.638672,10.006389 4.640295,7.009952 0.65625,3.019531 Z M 8.712891,0.015625 C 7.185226,0.013225 5.468957,0.26737 3.419922,0.816406 c 1.464098,5.464097 3.223909,8.791155 6.52539,10.697266 4.330119,2.499997 7.929269,2.267996 12.027344,1.169922 C 20.874579,8.585521 18.90941,3.986329 15.445312,1.986328 13.280254,0.736331 11.258999,0.019694 8.712891,0.015625 Z m 44.546711,52.839891 c -0.561988,0.668128 -1.792958,-0.04298 -2.640332,0.167217 -0.847373,0.210199 -1.603289,1.414175 -2.41238,1.086156 -0.809091,-0.328019 -0.513177,-1.718487 -0.974941,-2.459432 -0.461764,-0.740944 -1.840403,-1.087814 -1.778461,-1.958669 0.06194,-0.870855 1.475797,-1.019102 2.037785,-1.68723 0.561987,-0.668128 0.465857,-2.086481 1.31323,-2.29668 0.847374,-0.210199 1.42527,1.088647 2.234362,1.416666 0.809091,0.328019 2.128319,-0.201701 2.590082,0.539244 0.461764,0.740945 -0.594932,1.691923 -0.656874,2.562778 -0.06194,0.870855 0.849517,1.961822 0.287529,2.62995 z m 6.686643,8.657629 c 4.330123,2.5 7.928198,2.267947 12.026277,1.169872 -1.098078,-4.098077 -3.06218,-8.696152 -6.526281,-10.696155 -3.464097,-1.999997 -6.562176,-2.63397 -12.026275,-1.169872 1.4641,5.464102 3.224794,8.790042 6.526279,10.696155 z M 40.331514,37.486862 c -4.330126,-2.5 -7.928205,-2.267947 -12.026279,-1.169872 1.098077,4.098077 3.062179,8.696152 6.526281,10.696155 3.464099,2 6.562173,2.633975 12.026274,1.169872 -1.464102,-5.464102 -3.224797,-8.79004 -6.526276,-10.696155 z m 25.114727,9.526283 c 4.330126,-2.500003 5.928206,-5.732053 7.026278,-9.830128 -4.098074,-1.098075 -9.062173,-1.696152 -12.526274,0.303845 -3.464105,2.000003 -5.562179,4.366028 -7.026281,9.830128 5.464103,1.4641 9.2248,1.602267 12.526277,-0.303845 z m -30.614725,4.973717 c -4.330129,2.5 -5.928204,5.732053 -7.026279,9.830128 4.098074,1.09808 9.062173,1.696155 12.526277,-0.303845 3.464099,-2.000003 5.562171,-4.366025 7.026274,-9.830128 -5.464099,-1.464102 -9.224793,-1.602265 -12.526272,0.303845 z m 20.80736,-16.986857 c 0,-5 -2,-8 -4.999999,-11 -3,3 -5.999996,6.999997 -5.999996,11 0,4 0.999999,7 4.999996,11 3.999999,-4 5.999999,-7.187775 5.999999,-11 z m -10.999995,29 c 0,5 1.999999,8 4.999996,10.999999 3,-3 5.999999,-6.999999 5.999999,-10.999999 0,-4.000003 -1,-7.000003 -4.999999,-11 -3.999997,3.999997 -5.999996,7.187775 -5.999996,11 z m 6.361112,32.000005 a 3,3 0 0 0 3,3 3,3 0 0 0 3,-3 3,3 0 0 0 -3,-3 3,3 0 0 0 -3,3 z M 92.99998,54.000005 a 3,3 0 0 0 3,3 3,3 0 0 0 3,-3 3,3 0 0 0 -3,-3 3,3 0 0 0 -3,3 z m -6.999996,6.999997 a 3,3 0 0 0 3,3 3,3 0 0 0 3,-3 3,3 0 0 0 -3,-3 3,3 0 0 0 -3,3 z m -6.999995,7.000003 a 3,3 0 0 0 3,3 3,3 0 0 0 3,-3 3,3 0 0 0 -3,-3 3,3 0 0 0 -3,3 z m -7.000001,6.999997 a 3,3 0 0 0 3,3 3,3 0 0 0 3,-3 3,3 0 0 0 -3,-3 3,3 0 0 0 -3,3 z m -6.999999,7.000003 a 3,3 0 0 0 3,3 3,3 0 0 0 3,-3 3,3 0 0 0 -3,-3 3,3 0 0 0 -3,3 z m -6.999998,6.999997 A 3,3 0 0 0 60.999993,92 a 3,3 0 0 0 3,-3 3,3 0 0 0 -3,-3 3,3 0 0 0 -3,3 z m -56.999983,-43 a 3,3 0 0 0 3,3 3,3 0 0 0 3,-3 3,3 0 0 0 -3,-3 3,3 0 0 0 -3,3 z M 42.999995,4.000006 a 3,3 0 0 0 3,3 3,3 0 0 0 3,-3 3,3 0 0 0 -3,-3.000004 3,3 0 0 0 -3,3.000004 z m -6.999999,6.999998 a 3,3 0 0 0 3,3 3,3 0 0 0 3,-3 3,3 0 0 0 -3,-3 3,3 0 0 0 -3,3 z m -6.999995,6.999999 A 3,3 0 0 0 32,21.000002 a 3,3 0 0 0 3,-3 3,3 0 0 0 -3,-3 3,3 0 0 0 -3,3 z M 22,25.000005 a 3,3 0 0 0 3,3 3,3 0 0 0 3,-3 3,3 0 0 0 -3,-3 3,3 0 0 0 -3,3 z m -6.999997,6.999997 a 3,3 0 0 0 3,3 3,3 0 0 0 3,-3 3,3 0 0 0 -3,-3 3,3 0 0 0 -3,3 z m -6.999999,7.000003 a 3,3 0 0 0 3,3 3,3 0 0 0 3,-3 3,3 0 0 0 -3,-3 3,3 0 0 0 -3,3 z m 90.999976,6.999997 a 3,3 0 0 1 -3,3 3,3 0 0 1 -3,-3 3,3 0 0 1 3,-3 3,3 0 0 1 3,3 z M 56.999991,4.000006 a 3,3 0 0 1 -3,3 3,3 0 0 1 -3,-3 3,3 0 0 1 3,-3.000004 3,3 0 0 1 3,3.000004 z m 7.000001,6.999998 a 3,3 0 0 1 -3,3 3,3 0 0 1 -3,-3 3,3 0 0 1 3,-3 3,3 0 0 1 3,3 z m 6.999996,6.999999 a 3,3 0 0 1 -3,3 3,3 0 0 1 -3,-3 3,3 0 0 1 3,-3 3,3 0 0 1 3,3 z m 7.000001,7.000002 a 3,3 0 0 1 -3,3 3,3 0 0 1 -3,-3 3,3 0 0 1 3,-3 3,3 0 0 1 3,3 z m 6.999996,6.999997 a 3,3 0 0 1 -3,3 3,3 0 0 1 -3,-3 3,3 0 0 1 3,-3 3,3 0 0 1 3,3 z m 6.999995,7.000003 a 3,3 0 0 1 -3,3 3,3 0 0 1 -3,-3 3,3 0 0 1 3,-3 3,3 0 0 1 3,3 z M 48.999993,96.00001 a 3,3 0 0 1 -3,3 3,3 0 0 1 -3,-3 3,3 0 0 1 3,-3 3,3 0 0 1 3,3 z M 7.000004,54.000005 a 3,3 0 0 1 -3,3 3,3 0 0 1 -3,-3 3,3 0 0 1 3,-3 3,3 0 0 1 3,3 z m 7,6.999997 a 3,3 0 0 1 -3,3 3,3 0 0 1 -3,-3 3,3 0 0 1 3,-3 3,3 0 0 1 3,3 z M 21,68.000005 a 3,3 0 0 1 -3,3 3,3 0 0 1 -3,-3 3,3 0 0 1 3,-3 3,3 0 0 1 3,3 z m 7.000001,6.999998 A 3,3 0 0 1 24.999999,78.000002 3,3 0 0 1 22,75.000003 a 3,3 0 0 1 3,-3 3,3 0 0 1 3,3 z m 6.999996,7.000002 a 3,3 0 0 1 -3,3 3,3 0 0 1 -3,-3 3,3 0 0 1 3,-3 3,3 0 0 1 3,3 z m 6.999998,6.999997 A 3,3 0 0 1 38.999996,92 a 3,3 0 0 1 -3,-3 3,3 0 0 1 3,-3 3,3 0 0 1 3,3 z" />
    </pattern>
    <filter
       inkscape:collect="always"
       style="color-interpolation-filters:sRGB"
       id="filter2"
       x="-0.26638676"
       y="-0.26638676"
       width="1.5327735"
       height="1.5327735">
      <feGaussianBlur
         inkscape:collect="always"
         stdDeviation="1.0176108"
         id="feGaussianBlur2" />
    </filter>
  </defs>
  <g
     inkscape:label="Layer 1"
     inkscape:groupmode="layer"
     id="layer1"
     transform="translate(-49.212498,-56.091663)">
    <path
       d="m 194.55841,398.46484 -1.28,-4.224 h -12.736 l -1.344,4.224 h -13.248 l 13.952,-40.256 h 13.824 l 14.016,40.256 z m -4.992,-32.896 q 1.024,0 1.728,-0.704 0.704,-0.704 0.704,-1.792 0,-0.96 -0.768,-1.664 -0.704,-0.768 -1.664,-0.768 -1.024,0 -1.792,0.704 -0.704,0.704 -0.704,1.728 0,1.088 0.704,1.792 0.768,0.704 1.792,0.704 z m 3.904,2.688 q 0,-1.024 -0.768,-1.728 -0.704,-0.768 -1.728,-0.768 -1.024,0 -1.728,0.768 -0.704,0.704 -0.704,1.728 0,1.024 0.64,1.792 0.704,0.704 1.792,0.704 1.024,0 1.728,-0.704 0.768,-0.768 0.768,-1.792 z m -9.344,-2.688 q 1.024,0 1.728,-0.704 0.704,-0.704 0.704,-1.792 0,-0.96 -0.768,-1.664 -0.704,-0.768 -1.664,-0.768 -1.088,0 -1.792,0.704 -0.704,0.704 -0.704,1.728 0,1.088 0.704,1.792 0.704,0.704 1.792,0.704 z m 11.136,7.872 q 0,-1.088 -0.768,-1.792 -0.704,-0.704 -1.728,-0.704 -1.024,0 -1.792,0.768 -0.704,0.704 -0.704,1.728 0,1.024 0.704,1.728 0.704,0.704 1.792,0.704 1.024,0 1.728,-0.704 0.768,-0.704 0.768,-1.728 z m -0.704,7.552 q 1.024,0 1.728,-0.704 0.704,-0.704 0.704,-1.792 0,-1.024 -0.704,-1.728 -0.704,-0.704 -1.728,-0.704 -1.024,0 -1.792,0.704 -0.704,0.704 -0.704,1.728 0,1.088 0.704,1.792 0.768,0.704 1.792,0.704 z m 4.224,2.688 q 0,-0.96 -0.768,-1.728 -0.704,-0.768 -1.728,-0.768 -1.024,0 -1.728,0.768 -0.704,0.704 -0.704,1.728 0,1.024 0.704,1.792 0.704,0.704 1.728,0.704 1.024,0 1.728,-0.704 0.768,-0.768 0.768,-1.792 z m 1.792,5.184 q 0,-1.024 -0.768,-1.728 -0.768,-0.768 -1.728,-0.768 -1.024,0 -1.728,0.704 -0.704,0.704 -0.704,1.792 0,1.024 0.704,1.728 0.704,0.704 1.728,0.704 1.024,0 1.728,-0.704 0.768,-0.704 0.768,-1.728 z m -13.76,-16.384 -3.392,11.712 h 6.848 z m 15.488,21.44 q 0,-1.024 -0.704,-1.728 -0.704,-0.704 -1.792,-0.704 -0.96,0 -1.728,0.768 -0.768,0.704 -0.768,1.664 0,1.088 0.704,1.792 0.768,0.704 1.792,0.704 1.088,0 1.792,-0.704 0.704,-0.704 0.704,-1.792 z m -9.664,-2.368 q 1.024,0 1.728,-0.704 0.704,-0.704 0.704,-1.792 0,-1.024 -0.704,-1.728 -0.704,-0.768 -1.728,-0.768 -1.024,0 -1.792,0.768 -0.704,0.704 -0.704,1.728 0,1.024 0.704,1.792 0.768,0.704 1.792,0.704 z m -3.456,-2.496 q 0,-1.024 -0.704,-1.728 -0.704,-0.768 -1.792,-0.768 -1.024,0 -1.792,0.768 -0.704,0.704 -0.704,1.728 0,1.024 0.768,1.792 0.768,0.704 1.728,0.704 1.088,0 1.792,-0.704 0.704,-0.704 0.704,-1.792 z m -5.76,0 q 0,-1.024 -0.768,-1.728 -0.704,-0.768 -1.728,-0.768 -1.024,0 -1.728,0.768 -0.704,0.704 -0.704,1.728 0,1.024 0.704,1.792 0.704,0.704 1.728,0.704 1.024,0 1.728,-0.704 0.768,-0.704 0.768,-1.792 z m -5.568,-0.192 q 0,-1.024 -0.768,-1.728 -0.768,-0.768 -1.728,-0.768 -1.024,0 -1.792,0.704 -0.704,0.704 -0.704,1.792 0,1.024 0.704,1.728 0.768,0.704 1.792,0.704 1.024,0 1.728,-0.704 0.768,-0.704 0.768,-1.728 z m -1.792,5.056 q 0,-0.96 -0.768,-1.664 -0.768,-0.768 -1.728,-0.768 -1.088,0 -1.792,0.704 -0.64,0.704 -0.64,1.728 0,1.088 0.64,1.792 0.704,0.704 1.792,0.704 1.024,0 1.728,-0.704 0.768,-0.704 0.768,-1.792 z m 8.832,-25.728 q 0,-0.96 -0.768,-1.728 -0.704,-0.768 -1.728,-0.768 -1.024,0 -1.728,0.768 -0.704,0.704 -0.704,1.728 0,1.024 0.704,1.792 0.704,0.704 1.728,0.704 1.024,0 1.728,-0.704 0.768,-0.768 0.768,-1.792 z m -1.728,5.184 q 0,-0.96 -0.768,-1.728 -0.704,-0.768 -1.728,-0.768 -1.024,0 -1.728,0.768 -0.704,0.704 -0.704,1.728 0,1.024 0.704,1.792 0.704,0.704 1.728,0.704 1.024,0 1.728,-0.704 0.768,-0.768 0.768,-1.792 z m -3.584,10.304 q 0,-0.96 -0.768,-1.728 -0.704,-0.768 -1.728,-0.768 -1.024,0 -1.728,0.768 -0.704,0.704 -0.704,1.728 0,1.024 0.704,1.792 0.704,0.704 1.728,0.704 1.024,0 1.728,-0.704 0.768,-0.768 0.768,-1.792 z m 1.792,-5.184 q 0,-0.96 -0.768,-1.728 -0.704,-0.768 -1.728,-0.768 -1.024,0 -1.728,0.768 -0.704,0.704 -0.704,1.728 0,1.024 0.704,1.792 0.704,0.704 1.728,0.704 1.024,0 1.728,-0.704 0.768,-0.768 0.768,-1.792 z m 29.05597,19.968 v -40.256 h 24.128 v 10.176 h -11.648 v 4.672 h 11.648 v 10.176 h -11.648 v 15.232 z m 20.48,-35.136 q 0,-1.024 -0.768,-1.728 -0.704,-0.768 -1.728,-0.768 -1.024,0 -1.728,0.768 -0.704,0.704 -0.704,1.728 0,1.024 0.704,1.728 0.704,0.704 1.728,0.704 1.024,0 1.728,-0.704 0.768,-0.704 0.768,-1.728 z m -5.888,0 q 0,-1.024 -0.768,-1.728 -0.704,-0.768 -1.728,-0.768 -1.088,0 -1.792,0.768 -0.704,0.704 -0.704,1.728 0,1.024 0.704,1.728 0.704,0.704 1.792,0.704 1.024,0 1.728,-0.704 0.768,-0.704 0.768,-1.728 z m -6.016,0 q 0,-1.024 -0.704,-1.728 -0.64,-0.768 -1.728,-0.768 -1.024,0 -1.792,0.768 -0.704,0.704 -0.704,1.728 0,1.024 0.704,1.728 0.768,0.704 1.792,0.704 1.088,0 1.728,-0.704 0.704,-0.704 0.704,-1.728 z m 11.904,14.784 q 0,-1.024 -0.768,-1.728 -0.704,-0.704 -1.728,-0.704 -1.024,0 -1.728,0.704 -0.704,0.704 -0.704,1.728 0,1.024 0.704,1.792 0.704,0.704 1.728,0.704 1.024,0 1.728,-0.704 0.768,-0.768 0.768,-1.792 z m -14.336,-6.4 q 1.088,0 1.728,-0.704 0.704,-0.704 0.704,-1.792 0,-1.024 -0.704,-1.728 -0.64,-0.768 -1.728,-0.768 -1.024,0 -1.792,0.768 -0.704,0.704 -0.704,1.728 0,1.088 0.704,1.792 0.768,0.704 1.792,0.704 z m 8.448,6.4 q 0,-1.024 -0.768,-1.728 -0.704,-0.704 -1.728,-0.704 -1.088,0 -1.792,0.704 -0.704,0.704 -0.704,1.728 0,1.024 0.704,1.792 0.704,0.704 1.792,0.704 1.024,0 1.728,-0.704 0.768,-0.768 0.768,-1.792 z m -8.448,-0.448 q 1.088,0 1.728,-0.704 0.704,-0.768 0.704,-1.792 0,-1.088 -0.704,-1.728 -0.64,-0.704 -1.728,-0.704 -1.024,0 -1.792,0.704 -0.704,0.64 -0.704,1.728 0,1.024 0.704,1.792 0.768,0.704 1.792,0.704 z m 2.432,3.456 q 0,-1.024 -0.704,-1.728 -0.64,-0.768 -1.728,-0.768 -1.024,0 -1.792,0.768 -0.704,0.704 -0.704,1.728 0,1.024 0.704,1.728 0.768,0.704 1.792,0.704 1.088,0 1.728,-0.704 0.704,-0.704 0.704,-1.728 z m -2.432,8.384 q 1.088,0 1.728,-0.704 0.704,-0.704 0.704,-1.792 0,-1.024 -0.704,-1.728 -0.64,-0.768 -1.728,-0.768 -1.024,0 -1.792,0.768 -0.704,0.704 -0.704,1.728 0,1.088 0.704,1.792 0.768,0.704 1.792,0.704 z m 0,5.952 q 1.088,0 1.728,-0.704 0.704,-0.768 0.704,-1.792 0,-1.024 -0.704,-1.728 -0.64,-0.704 -1.728,-0.704 -1.024,0 -1.792,0.704 -0.704,0.704 -0.704,1.728 0,1.024 0.704,1.792 0.768,0.704 1.792,0.704 z m 30.78403,3.008 v -29.76 h -10.496 v -10.496 h 33.408 v 10.496 h -10.496 v 29.76 z m 20.672,-35.136 q 0,-1.024 -0.768,-1.728 -0.704,-0.768 -1.728,-0.768 -1.088,0 -1.792,0.768 -0.64,0.704 -0.64,1.728 0,1.024 0.64,1.728 0.704,0.704 1.792,0.704 1.024,0 1.728,-0.704 0.768,-0.704 0.768,-1.728 z m -5.952,0 q 0,-1.024 -0.768,-1.728 -0.704,-0.768 -1.728,-0.768 -1.024,0 -1.792,0.768 -0.704,0.704 -0.704,1.728 0,1.024 0.704,1.728 0.768,0.704 1.792,0.704 1.024,0 1.728,-0.704 0.768,-0.704 0.768,-1.728 z m -5.952,0 q 0,-1.024 -0.704,-1.728 -0.704,-0.768 -1.728,-0.768 -1.088,0 -1.792,0.768 -0.704,0.704 -0.704,1.728 0,1.024 0.704,1.728 0.704,0.704 1.792,0.704 1.024,0 1.728,-0.704 0.704,-0.704 0.704,-1.728 z m -5.952,0 q 0,-1.024 -0.704,-1.728 -0.704,-0.768 -1.792,-0.768 -1.024,0 -1.728,0.768 -0.704,0.704 -0.704,1.728 0,1.024 0.704,1.728 0.704,0.704 1.728,0.704 1.088,0 1.792,-0.704 0.704,-0.704 0.704,-1.728 z m 3.52,8.384 q 1.024,0 1.728,-0.704 0.704,-0.704 0.704,-1.792 0,-1.024 -0.704,-1.728 -0.704,-0.768 -1.728,-0.768 -1.088,0 -1.792,0.768 -0.704,0.704 -0.704,1.728 0,1.088 0.704,1.792 0.704,0.704 1.792,0.704 z m -9.408,-8.384 q 0,-1.024 -0.768,-1.728 -0.704,-0.768 -1.728,-0.768 -1.024,0 -1.792,0.768 -0.704,0.704 -0.704,1.728 0,1.024 0.704,1.728 0.768,0.704 1.792,0.704 1.024,0 1.728,-0.704 0.768,-0.704 0.768,-1.728 z m 9.408,14.336 q 1.024,0 1.728,-0.704 0.704,-0.768 0.704,-1.792 0,-1.088 -0.704,-1.728 -0.704,-0.704 -1.728,-0.704 -1.088,0 -1.792,0.704 -0.704,0.64 -0.704,1.728 0,1.024 0.704,1.792 0.704,0.704 1.792,0.704 z m 2.432,3.456 q 0,-1.024 -0.704,-1.728 -0.704,-0.768 -1.728,-0.768 -1.088,0 -1.792,0.768 -0.704,0.704 -0.704,1.728 0,1.024 0.704,1.728 0.704,0.704 1.792,0.704 1.024,0 1.728,-0.704 0.704,-0.704 0.704,-1.728 z m -2.432,8.384 q 1.024,0 1.728,-0.704 0.704,-0.704 0.704,-1.792 0,-1.024 -0.704,-1.728 -0.704,-0.768 -1.728,-0.768 -1.088,0 -1.792,0.768 -0.704,0.704 -0.704,1.728 0,1.088 0.704,1.792 0.704,0.704 1.792,0.704 z m 0,5.952 q 1.024,0 1.728,-0.704 0.704,-0.768 0.704,-1.792 0,-1.024 -0.704,-1.728 -0.704,-0.704 -1.728,-0.704 -1.088,0 -1.792,0.704 -0.704,0.704 -0.704,1.728 0,1.024 0.704,1.792 0.704,0.704 1.792,0.704 z m 20.03199,3.008 v -40.256 h 24.128 v 10.176 h -11.648 v 4.672 h 11.648 v 10.176 h -11.648 v 4.672 h 11.648 v 10.56 z m 20.48,-35.136 q 0,-1.024 -0.768,-1.728 -0.704,-0.768 -1.728,-0.768 -1.024,0 -1.728,0.768 -0.704,0.704 -0.704,1.728 0,1.024 0.704,1.728 0.704,0.704 1.728,0.704 1.024,0 1.728,-0.704 0.768,-0.704 0.768,-1.728 z m -5.888,0 q 0,-1.024 -0.768,-1.728 -0.704,-0.768 -1.728,-0.768 -1.088,0 -1.792,0.768 -0.704,0.704 -0.704,1.728 0,1.024 0.704,1.728 0.704,0.704 1.792,0.704 1.024,0 1.728,-0.704 0.768,-0.704 0.768,-1.728 z m -6.016,0 q 0,-1.024 -0.704,-1.728 -0.64,-0.768 -1.728,-0.768 -1.024,0 -1.792,0.768 -0.704,0.704 -0.704,1.728 0,1.024 0.704,1.728 0.768,0.704 1.792,0.704 1.088,0 1.728,-0.704 0.704,-0.704 0.704,-1.728 z m 11.904,14.784 q 0,-1.024 -0.768,-1.728 -0.704,-0.704 -1.728,-0.704 -1.024,0 -1.728,0.704 -0.704,0.704 -0.704,1.728 0,1.024 0.704,1.792 0.704,0.704 1.728,0.704 1.024,0 1.728,-0.704 0.768,-0.768 0.768,-1.792 z m -14.336,-6.4 q 1.088,0 1.728,-0.704 0.704,-0.704 0.704,-1.792 0,-1.024 -0.704,-1.728 -0.64,-0.768 -1.728,-0.768 -1.024,0 -1.792,0.768 -0.704,0.704 -0.704,1.728 0,1.088 0.704,1.792 0.768,0.704 1.792,0.704 z m 8.448,6.4 q 0,-1.024 -0.768,-1.728 -0.704,-0.704 -1.728,-0.704 -1.088,0 -1.792,0.704 -0.704,0.704 -0.704,1.728 0,1.024 0.704,1.792 0.704,0.704 1.792,0.704 1.024,0 1.728,-0.704 0.768,-0.768 0.768,-1.792 z m -8.448,-0.448 q 1.088,0 1.728,-0.704 0.704,-0.768 0.704,-1.792 0,-1.088 -0.704,-1.728 -0.64,-0.704 -1.728,-0.704 -1.024,0 -1.792,0.704 -0.704,0.64 -0.704,1.728 0,1.024 0.704,1.792 0.768,0.704 1.792,0.704 z m 2.432,3.456 q 0,-1.024 -0.704,-1.728 -0.64,-0.768 -1.728,-0.768 -1.024,0 -1.792,0.768 -0.704,0.704 -0.704,1.728 0,1.024 0.704,1.728 0.768,0.704 1.792,0.704 1.088,0 1.728,-0.704 0.704,-0.704 0.704,-1.728 z m 11.904,11.84 q 0,-1.024 -0.768,-1.728 -0.704,-0.704 -1.728,-0.704 -1.024,0 -1.728,0.704 -0.704,0.704 -0.704,1.728 0,1.024 0.704,1.792 0.704,0.704 1.728,0.704 1.024,0 1.728,-0.704 0.768,-0.768 0.768,-1.792 z m -14.336,-3.456 q 1.088,0 1.728,-0.704 0.704,-0.704 0.704,-1.792 0,-1.024 -0.704,-1.728 -0.64,-0.768 -1.728,-0.768 -1.024,0 -1.792,0.768 -0.704,0.704 -0.704,1.728 0,1.088 0.704,1.792 0.768,0.704 1.792,0.704 z m 8.448,3.456 q 0,-1.024 -0.768,-1.728 -0.704,-0.704 -1.728,-0.704 -1.088,0 -1.792,0.704 -0.704,0.704 -0.704,1.728 0,1.024 0.704,1.792 0.704,0.704 1.792,0.704 1.024,0 1.728,-0.704 0.768,-0.768 0.768,-1.792 z m -8.448,2.496 q 1.088,0 1.728,-0.704 0.704,-0.768 0.704,-1.792 0,-1.024 -0.704,-1.728 -0.64,-0.704 -1.728,-0.704 -1.024,0 -1.792,0.704 -0.704,0.704 -0.704,1.728 0,1.024 0.704,1.792 0.768,0.704 1.792,0.704 z m 40.57601,3.008 -5.824,-11.264 v 11.264 h -12.48 v -40.256 h 15.296 q 3.456,0 6.272,0.96 2.88,0.96 4.864,2.688 2.048,1.728 3.136,4.224 1.088,2.496 1.088,5.568 0,4.224 -1.984,7.168 -1.984,2.88 -5.44,3.904 l 10.176,15.744 z m 7.168,-31.68 q 0,-1.024 -0.768,-1.728 -0.704,-0.704 -1.728,-0.704 -1.024,0 -1.728,0.704 -0.704,0.704 -0.704,1.728 0,1.088 0.704,1.792 0.704,0.704 1.728,0.704 1.024,0 1.728,-0.704 0.768,-0.768 0.768,-1.792 z m -4.928,-3.264 q 0,-0.96 -0.768,-1.728 -0.768,-0.768 -1.728,-0.768 -1.024,0 -1.728,0.768 -0.704,0.704 -0.704,1.728 0,1.088 0.704,1.792 0.704,0.704 1.728,0.704 1.024,0 1.728,-0.704 0.768,-0.704 0.768,-1.792 z m 3.712,11.136 q 0.96,0 1.664,-0.704 0.768,-0.768 0.768,-1.792 0,-1.024 -0.704,-1.728 -0.704,-0.704 -1.728,-0.704 -1.024,0 -1.792,0.704 -0.704,0.64 -0.704,1.728 0,1.024 0.704,1.792 0.768,0.704 1.792,0.704 z m -9.664,-11.456 q 0,-1.024 -0.704,-1.728 -0.64,-0.704 -1.728,-0.704 -1.024,0 -1.792,0.704 -0.704,0.64 -0.704,1.664 0,1.024 0.704,1.792 0.768,0.704 1.792,0.704 1.024,0 1.728,-0.704 0.704,-0.768 0.704,-1.728 z m 7.424,16.768 q 1.024,0 1.728,-0.704 0.704,-0.768 0.704,-1.792 0,-1.024 -0.704,-1.728 -0.704,-0.704 -1.728,-0.704 -1.024,0 -1.792,0.768 -0.704,0.704 -0.704,1.664 0,1.024 0.704,1.792 0.704,0.704 1.792,0.704 z m -8.192,-4.16 q 4.16,0 4.16,-3.776 0,-3.584 -4.416,-3.584 h -1.088 v 7.36 z m -5.248,-12.48 q 0,-1.024 -0.704,-1.728 -0.64,-0.768 -1.728,-0.768 -1.024,0 -1.792,0.768 -0.704,0.704 -0.704,1.728 0,1.024 0.704,1.728 0.768,0.704 1.792,0.704 1.088,0 1.728,-0.704 0.704,-0.704 0.704,-1.728 z m -2.432,8.384 q 1.088,0 1.728,-0.704 0.704,-0.704 0.704,-1.792 0,-1.024 -0.704,-1.728 -0.64,-0.768 -1.728,-0.768 -1.024,0 -1.792,0.768 -0.704,0.704 -0.704,1.728 0,1.088 0.704,1.792 0.768,0.704 1.792,0.704 z m 13.632,9.088 q 0,-1.088 -0.768,-1.728 -0.704,-0.704 -1.728,-0.704 -0.96,0 -1.728,0.704 -0.704,0.704 -0.704,1.728 0,1.024 0.704,1.792 0.704,0.704 1.728,0.704 1.024,0 1.728,-0.704 0.768,-0.768 0.768,-1.792 z m 2.368,6.208 q 0,-1.088 -0.704,-1.792 -0.704,-0.704 -1.792,-0.704 -0.96,0 -1.728,0.768 -0.704,0.704 -0.704,1.728 0,1.024 0.704,1.792 0.704,0.704 1.728,0.704 1.088,0 1.792,-0.704 0.704,-0.768 0.704,-1.792 z m -16,-9.344 q 1.088,0 1.728,-0.704 0.704,-0.768 0.704,-1.792 0,-1.088 -0.704,-1.728 -0.64,-0.704 -1.728,-0.704 -1.024,0 -1.792,0.704 -0.704,0.64 -0.704,1.728 0,1.024 0.704,1.792 0.768,0.704 1.792,0.704 z m 5.376,5.632 q 1.024,0 1.728,-0.704 0.704,-0.704 0.704,-1.792 0,-1.024 -0.704,-1.728 -0.704,-0.704 -1.728,-0.704 -1.088,0 -1.792,0.704 -0.704,0.704 -0.704,1.728 0,1.088 0.704,1.792 0.704,0.704 1.792,0.704 z m 13.632,9.792 q 0,-1.088 -0.768,-1.792 -0.704,-0.704 -1.728,-0.704 -1.024,0 -1.728,0.768 -0.704,0.704 -0.704,1.728 0,1.024 0.64,1.792 0.704,0.704 1.792,0.704 1.024,0 1.728,-0.704 0.768,-0.768 0.768,-1.792 z m -16.576,-11.968 q 0,-1.024 -0.704,-1.728 -0.64,-0.768 -1.728,-0.768 -1.024,0 -1.792,0.768 -0.704,0.704 -0.704,1.728 0,1.024 0.704,1.728 0.768,0.704 1.792,0.704 1.088,0 1.728,-0.704 0.704,-0.704 0.704,-1.728 z m -2.432,8.384 q 1.088,0 1.728,-0.704 0.704,-0.704 0.704,-1.792 0,-1.024 -0.704,-1.728 -0.64,-0.768 -1.728,-0.768 -1.024,0 -1.792,0.768 -0.704,0.704 -0.704,1.728 0,1.088 0.704,1.792 0.768,0.704 1.792,0.704 z m 0,5.952 q 1.088,0 1.728,-0.704 0.704,-0.768 0.704,-1.792 0,-1.024 -0.704,-1.728 -0.64,-0.704 -1.728,-0.704 -1.024,0 -1.792,0.704 -0.704,0.704 -0.704,1.728 0,1.024 0.704,1.792 0.768,0.704 1.792,0.704 z m 47.03996,-10.944 v -10.112 h 21.76 q 0.128,1.088 0.192,2.176 0.064,1.024 0.064,2.112 0,3.648 -1.024,6.976 -1.024,3.328 -3.52,6.4 -2.88,3.456 -7.104,5.312 -4.224,1.856 -9.216,1.856 -4.608,0 -8.512,-1.536 -3.84,-1.536 -6.656,-4.288 -2.816,-2.752 -4.416,-6.592 -1.536,-3.84 -1.536,-8.448 0,-4.48 1.6,-8.32 1.6,-3.84 4.416,-6.656 2.816,-2.816 6.72,-4.352 3.968,-1.6 8.576,-1.6 3.648,0 6.4,0.64 2.752,0.576 4.8,1.792 2.048,1.152 3.52,2.88 1.536,1.728 2.752,3.904 l -8.768,6.784 q -1.472,-2.56 -3.392,-3.712 -1.92,-1.152 -5.44,-1.152 -1.856,0 -3.456,0.704 -1.536,0.64 -2.752,1.92 -1.152,1.216 -1.856,3.072 -0.64,1.792 -0.64,4.096 0,1.984 0.576,3.776 0.64,1.728 1.792,3.072 1.152,1.344 2.816,2.112 1.664,0.768 3.712,0.768 4.352,0 7.04,-3.584 z m 14.336,-17.28 q 0,-1.024 -0.768,-1.728 -0.704,-0.768 -1.728,-0.768 -1.024,0 -1.728,0.768 -0.704,0.704 -0.704,1.728 0,1.024 0.704,1.792 0.704,0.704 1.728,0.704 0.96,0 1.728,-0.704 0.768,-0.768 0.768,-1.792 z m -5.056,-3.2 q 0,-1.024 -0.704,-1.728 -0.704,-0.704 -1.792,-0.704 -1.024,0 -1.728,0.704 -0.704,0.704 -0.704,1.728 0,1.024 0.704,1.792 0.704,0.704 1.728,0.704 1.024,0 1.728,-0.704 0.768,-0.768 0.768,-1.792 z m -8.32,1.6 q 1.088,0 1.728,-0.704 0.704,-0.704 0.704,-1.792 0,-1.024 -0.704,-1.728 -0.64,-0.768 -1.728,-0.768 -1.024,0 -1.792,0.768 -0.704,0.768 -0.704,1.728 0,1.088 0.704,1.792 0.768,0.704 1.792,0.704 z m 17.28,13.824 q 0,-1.024 -0.768,-1.728 -0.704,-0.768 -1.728,-0.768 -1.024,0 -1.728,0.704 -0.704,0.704 -0.704,1.792 0,1.024 0.704,1.728 0.704,0.704 1.728,0.704 1.088,0 1.792,-0.704 0.704,-0.704 0.704,-1.728 z m -5.44,0 q 0,-1.024 -0.768,-1.728 -0.704,-0.768 -1.664,-0.768 -1.024,0 -1.792,0.704 -0.704,0.704 -0.704,1.792 0,1.024 0.704,1.728 0.768,0.704 1.792,0.704 1.024,0 1.728,-0.704 0.704,-0.704 0.704,-1.728 z m -14.912,-14.912 q 0,-1.024 -0.768,-1.728 -0.704,-0.768 -1.728,-0.768 -1.088,0 -1.792,0.768 -0.704,0.704 -0.704,1.728 0,1.024 0.704,1.792 0.704,0.704 1.792,0.704 0.96,0 1.728,-0.768 0.768,-0.768 0.768,-1.728 z m 19.136,20.288 q 0,-1.024 -0.704,-1.728 -0.704,-0.768 -1.792,-0.768 -1.024,0 -1.728,0.768 -0.704,0.704 -0.704,1.728 0,1.024 0.704,1.728 0.704,0.704 1.728,0.704 1.088,0 1.792,-0.704 0.704,-0.704 0.704,-1.728 z m -9.664,-5.376 q 0,-1.024 -0.768,-1.728 -0.704,-0.768 -1.664,-0.768 -1.024,0 -1.792,0.704 -0.704,0.704 -0.704,1.792 0,1.024 0.704,1.728 0.768,0.704 1.792,0.704 1.024,0 1.728,-0.704 0.704,-0.704 0.704,-1.728 z m -14.144,-11.392 q 0,-1.024 -0.768,-1.728 -0.704,-0.704 -1.728,-0.704 -1.024,0 -1.792,0.704 -0.704,0.704 -0.704,1.728 0,1.024 0.704,1.792 0.768,0.704 1.792,0.704 0.96,0 1.728,-0.704 0.768,-0.768 0.768,-1.792 z m 20.48,21.312 q 0,-1.088 -0.768,-1.792 -0.704,-0.704 -1.728,-0.704 -1.088,0 -1.792,0.704 -0.704,0.704 -0.704,1.792 0,1.024 0.704,1.792 0.704,0.704 1.792,0.704 0.96,0 1.728,-0.768 0.768,-0.768 0.768,-1.728 z m -23.68,-16.576 q 0,-1.088 -0.768,-1.728 -0.704,-0.704 -1.728,-0.704 -1.024,0 -1.728,0.704 -0.704,0.64 -0.704,1.728 0,0.96 0.704,1.728 0.768,0.768 1.728,0.768 1.024,0 1.728,-0.704 0.768,-0.768 0.768,-1.792 z m 16.704,22.272 q 0.96,0 1.664,-0.704 0.768,-0.768 0.768,-1.792 0,-1.088 -0.704,-1.728 -0.704,-0.704 -1.728,-0.704 -1.024,0 -1.792,0.704 -0.704,0.64 -0.704,1.728 0,1.024 0.704,1.792 0.768,0.704 1.792,0.704 z m -17.664,-16.704 q 0,-1.088 -0.768,-1.792 -0.704,-0.704 -1.728,-0.704 -1.088,0 -1.792,0.704 -0.64,0.704 -0.64,1.792 0,1.024 0.64,1.728 0.704,0.704 1.792,0.704 1.024,0 1.728,-0.704 0.768,-0.704 0.768,-1.728 z m 11.84,17.728 q 1.088,0 1.728,-0.704 0.704,-0.768 0.704,-1.792 0,-1.024 -0.704,-1.728 -0.64,-0.704 -1.728,-0.704 -1.024,0 -1.792,0.704 -0.704,0.704 -0.704,1.728 0,1.024 0.704,1.792 0.768,0.704 1.792,0.704 z m -10.88,-12.16 q 0,-1.088 -0.768,-1.728 -0.704,-0.704 -1.728,-0.704 -1.024,0 -1.728,0.704 -0.704,0.64 -0.704,1.728 0,0.96 0.704,1.728 0.768,0.768 1.728,0.768 1.024,0 1.728,-0.704 0.768,-0.768 0.768,-1.792 z m 7.68,8.256 q 0,-1.024 -0.704,-1.728 -0.704,-0.768 -1.728,-0.768 -1.088,0 -1.792,0.768 -0.704,0.704 -0.704,1.728 0,1.024 0.704,1.728 0.704,0.704 1.792,0.704 0.96,0 1.664,-0.704 0.768,-0.704 0.768,-1.728 z m -4.48,-3.584 q 0,-1.024 -0.768,-1.728 -0.704,-0.704 -1.728,-0.704 -1.024,0 -1.792,0.704 -0.704,0.704 -0.704,1.728 0,1.024 0.704,1.792 0.768,0.704 1.792,0.704 0.96,0 1.728,-0.768 0.768,-0.768 0.768,-1.728 z m 32.63996,9.856 v -40.256 h 12.48 v 29.696 h 9.536 v 10.56 z m 8.576,-35.136 q 0,-1.024 -0.704,-1.728 -0.64,-0.768 -1.728,-0.768 -1.024,0 -1.792,0.768 -0.704,0.704 -0.704,1.728 0,1.024 0.704,1.728 0.768,0.704 1.792,0.704 1.088,0 1.728,-0.704 0.704,-0.704 0.704,-1.728 z m -2.432,8.384 q 1.088,0 1.728,-0.704 0.704,-0.704 0.704,-1.792 0,-1.024 -0.704,-1.728 -0.64,-0.768 -1.728,-0.768 -1.024,0 -1.792,0.768 -0.704,0.704 -0.704,1.728 0,1.088 0.704,1.792 0.768,0.704 1.792,0.704 z m 0,5.952 q 1.088,0 1.728,-0.704 0.704,-0.768 0.704,-1.792 0,-1.088 -0.704,-1.728 -0.64,-0.704 -1.728,-0.704 -1.024,0 -1.792,0.704 -0.704,0.64 -0.704,1.728 0,1.024 0.704,1.792 0.768,0.704 1.792,0.704 z m 2.432,3.456 q 0,-1.024 -0.704,-1.728 -0.64,-0.768 -1.728,-0.768 -1.024,0 -1.792,0.768 -0.704,0.704 -0.704,1.728 0,1.024 0.704,1.728 0.768,0.704 1.792,0.704 1.088,0 1.728,-0.704 0.704,-0.704 0.704,-1.728 z m 11.904,11.84 q 0,-1.024 -0.768,-1.728 -0.704,-0.704 -1.728,-0.704 -1.024,0 -1.728,0.704 -0.704,0.704 -0.704,1.728 0,1.024 0.704,1.792 0.704,0.704 1.728,0.704 1.024,0 1.728,-0.704 0.768,-0.768 0.768,-1.792 z m -14.336,-3.456 q 1.088,0 1.728,-0.704 0.704,-0.704 0.704,-1.792 0,-1.024 -0.704,-1.728 -0.64,-0.768 -1.728,-0.768 -1.024,0 -1.792,0.768 -0.704,0.704 -0.704,1.728 0,1.088 0.704,1.792 0.768,0.704 1.792,0.704 z m 8.448,3.456 q 0,-1.024 -0.768,-1.728 -0.704,-0.704 -1.728,-0.704 -1.088,0 -1.792,0.704 -0.704,0.704 -0.704,1.728 0,1.024 0.704,1.792 0.704,0.704 1.792,0.704 1.024,0 1.728,-0.704 0.768,-0.768 0.768,-1.792 z m -8.448,2.496 q 1.088,0 1.728,-0.704 0.704,-0.768 0.704,-1.792 0,-1.024 -0.704,-1.728 -0.64,-0.704 -1.728,-0.704 -1.024,0 -1.792,0.704 -0.704,0.704 -0.704,1.728 0,1.024 0.704,1.792 0.768,0.704 1.792,0.704 z"
       id="text1-4"
       style="font-size:64px;line-height:1.25;font-family:Budmo;-inkscape-font-specification:'Budmo, Normal';white-space:pre"
       transform="matrix(0.26458333,0,0,0.26458333,5.3047873,-36.93922)"
       aria-label="AFTERGL" />
    <path
       d="m 200.51041,398.46484 -5.12,-19.52 -5.376,19.52 h -11.328 l -12.736,-40.256 h 13.312 l 5.312,21.632 5.44,-21.632 h 11.072 l 5.312,21.632 5.376,-21.632 h 12.736 l -12.736,40.256 z m -7.744,-20.352 q 0,-1.024 -0.768,-1.728 -0.704,-0.704 -1.728,-0.704 -1.024,0 -1.728,0.704 -0.704,0.704 -0.704,1.728 0,1.024 0.704,1.792 0.768,0.704 1.728,0.704 1.024,0 1.728,-0.704 0.768,-0.768 0.768,-1.792 z m -16.384,-15.424 q 0,-1.024 -0.768,-1.728 -0.704,-0.704 -1.728,-0.704 -1.088,0 -1.792,0.704 -0.64,0.704 -0.64,1.728 0,1.024 0.64,1.792 0.704,0.704 1.792,0.704 1.024,0 1.728,-0.704 0.768,-0.768 0.768,-1.792 z m 1.6,5.184 q 0,-1.088 -0.768,-1.792 -0.704,-0.704 -1.728,-0.704 -1.088,0 -1.792,0.704 -0.704,0.704 -0.704,1.792 0,1.024 0.704,1.792 0.704,0.704 1.792,0.704 0.96,0 1.728,-0.768 0.768,-0.768 0.768,-1.728 z m 13.312,15.488 q 0,-1.088 -0.768,-1.792 -0.704,-0.704 -1.728,-0.704 -1.088,0 -1.792,0.704 -0.704,0.704 -0.704,1.792 0,1.024 0.704,1.792 0.704,0.704 1.792,0.704 0.96,0 1.728,-0.768 0.768,-0.768 0.768,-1.728 z m -11.712,-10.368 q 0,-1.024 -0.768,-1.728 -0.704,-0.768 -1.728,-0.768 -1.024,0 -1.792,0.768 -0.704,0.704 -0.704,1.728 0,1.088 0.704,1.792 0.768,0.64 1.792,0.64 0.96,0 1.728,-0.704 0.768,-0.704 0.768,-1.728 z m 1.344,5.12 q 0,-1.024 -0.768,-1.728 -0.704,-0.704 -1.728,-0.704 -1.088,0 -1.792,0.704 -0.64,0.704 -0.64,1.728 0,1.024 0.704,1.792 0.704,0.704 1.728,0.704 1.024,0 1.728,-0.704 0.768,-0.768 0.768,-1.792 z m -1.024,7.808 q 1.024,0 1.728,-0.704 0.704,-0.768 0.704,-1.792 0,-1.088 -0.704,-1.792 -0.704,-0.704 -1.728,-0.704 -1.024,0 -1.792,0.704 -0.704,0.704 -0.704,1.792 0,0.96 0.704,1.728 0.768,0.768 1.792,0.768 z m 6.976,7.424 q 0,-1.024 -0.768,-1.728 -0.704,-0.768 -1.728,-0.768 -1.024,0 -1.728,0.768 -0.704,0.704 -0.704,1.728 0,1.024 0.704,1.728 0.704,0.704 1.728,0.704 1.024,0 1.728,-0.704 0.768,-0.768 0.768,-1.728 z m 8.448,-25.728 q 0,-1.024 -0.704,-1.728 -0.64,-0.768 -1.728,-0.768 -1.024,0 -1.792,0.768 -0.704,0.704 -0.704,1.728 0,1.024 0.768,1.728 0.768,0.704 1.728,0.704 1.088,0 1.728,-0.704 0.704,-0.704 0.704,-1.728 z m -5.696,20.928 q 0,-1.024 -0.704,-1.728 -0.704,-0.704 -1.792,-0.704 -1.024,0 -1.728,0.704 -0.704,0.704 -0.704,1.728 0,1.024 0.704,1.792 0.704,0.704 1.728,0.704 1.088,0 1.792,-0.704 0.704,-0.768 0.704,-1.792 z m -5.568,0 q 0,-1.024 -0.704,-1.728 -0.704,-0.704 -1.792,-0.704 -1.024,0 -1.728,0.704 -0.704,0.704 -0.704,1.728 0,1.024 0.704,1.792 0.704,0.704 1.728,0.704 1.088,0 1.792,-0.704 0.704,-0.768 0.704,-1.792 z m 10.048,-15.616 q 0,-1.024 -0.704,-1.728 -0.704,-0.704 -1.792,-0.704 -1.024,0 -1.728,0.704 -0.704,0.704 -0.704,1.728 0,1.024 0.704,1.792 0.704,0.704 1.728,0.704 1.088,0 1.792,-0.704 0.704,-0.768 0.704,-1.792 z m -1.088,-10.24 q 0,1.024 0.704,1.792 0.704,0.704 1.792,0.704 1.024,0 1.728,-0.704 0.704,-0.768 0.704,-1.792 0,-1.024 -0.704,-1.728 -0.704,-0.704 -1.728,-0.704 -1.088,0 -1.792,0.704 -0.704,0.704 -0.704,1.728 z m 5.184,15.424 q 0,1.024 0.704,1.792 0.768,0.704 1.792,0.704 0.96,0 1.664,-0.704 0.768,-0.768 0.768,-1.792 0,-1.024 -0.704,-1.728 -0.704,-0.704 -1.728,-0.704 -1.024,0 -1.792,0.704 -0.704,0.704 -0.704,1.728 z m 16.384,-15.424 q 0,1.024 0.704,1.792 0.768,0.704 1.792,0.704 1.088,0 1.728,-0.704 0.704,-0.768 0.704,-1.792 0,-1.024 -0.704,-1.728 -0.64,-0.704 -1.728,-0.704 -1.024,0 -1.792,0.704 -0.704,0.704 -0.704,1.728 z m -1.6,5.184 q 0,0.96 0.768,1.728 0.768,0.768 1.728,0.768 1.088,0 1.792,-0.704 0.704,-0.768 0.704,-1.792 0,-1.088 -0.704,-1.792 -0.704,-0.704 -1.792,-0.704 -1.024,0 -1.792,0.704 -0.704,0.704 -0.704,1.792 z m -13.312,15.488 q 0,0.96 0.768,1.728 0.768,0.768 1.728,0.768 1.088,0 1.792,-0.704 0.704,-0.768 0.704,-1.792 0,-1.088 -0.704,-1.792 -0.704,-0.704 -1.792,-0.704 -1.024,0 -1.792,0.704 -0.704,0.704 -0.704,1.792 z m 11.712,-10.368 q 0,1.024 0.768,1.728 0.768,0.704 1.728,0.704 1.024,0 1.728,-0.64 0.768,-0.704 0.768,-1.792 0,-1.024 -0.768,-1.728 -0.704,-0.768 -1.728,-0.768 -1.024,0 -1.792,0.768 -0.704,0.704 -0.704,1.728 z m -1.344,5.12 q 0,1.024 0.704,1.792 0.768,0.704 1.792,0.704 1.024,0 1.728,-0.704 0.704,-0.768 0.704,-1.792 0,-1.024 -0.704,-1.728 -0.64,-0.704 -1.728,-0.704 -1.024,0 -1.792,0.704 -0.704,0.704 -0.704,1.728 z m 1.024,7.808 q 1.024,0 1.728,-0.768 0.768,-0.768 0.768,-1.728 0,-1.088 -0.768,-1.792 -0.704,-0.704 -1.728,-0.704 -1.024,0 -1.728,0.704 -0.704,0.704 -0.704,1.792 0,1.024 0.704,1.792 0.704,0.704 1.728,0.704 z m -6.976,7.424 q 0,0.96 0.704,1.728 0.768,0.704 1.792,0.704 1.024,0 1.728,-0.704 0.704,-0.704 0.704,-1.728 0,-1.024 -0.704,-1.728 -0.704,-0.768 -1.728,-0.768 -1.024,0 -1.792,0.768 -0.704,0.704 -0.704,1.728 z m -8.448,-25.728 q 0,1.024 0.64,1.728 0.704,0.704 1.792,0.704 0.96,0 1.728,-0.704 0.768,-0.704 0.768,-1.728 0,-1.024 -0.768,-1.728 -0.704,-0.768 -1.728,-0.768 -1.088,0 -1.792,0.768 -0.64,0.704 -0.64,1.728 z m 5.696,20.928 q 0,1.024 0.704,1.792 0.704,0.704 1.792,0.704 1.024,0 1.728,-0.704 0.704,-0.768 0.704,-1.792 0,-1.024 -0.704,-1.728 -0.704,-0.704 -1.728,-0.704 -1.088,0 -1.792,0.704 -0.704,0.704 -0.704,1.728 z m 5.568,0 q 0,1.024 0.704,1.792 0.704,0.704 1.792,0.704 1.024,0 1.728,-0.704 0.704,-0.768 0.704,-1.792 0,-1.024 -0.704,-1.728 -0.704,-0.704 -1.728,-0.704 -1.088,0 -1.792,0.704 -0.704,0.704 -0.704,1.728 z m -10.048,-15.616 q 0,1.024 0.704,1.792 0.704,0.704 1.792,0.704 1.024,0 1.728,-0.704 0.704,-0.768 0.704,-1.792 0,-1.024 -0.704,-1.728 -0.704,-0.704 -1.728,-0.704 -1.088,0 -1.792,0.704 -0.704,0.704 -0.704,1.728 z"
       id="text1-5"
       style="font-size:64px;line-height:1.25;font-family:Budmo;-inkscape-font-specification:'Budmo, Normal';white-space:pre"
       transform="matrix(0.26458333,0,0,0.26458333,79.311305,-36.941698)"
       aria-label="W" />
    <circle
       style="fill:#000000;fill-opacity:1;stroke:#000000;stroke-width:1.02292;stroke-linecap:round;stroke-linejoin:bevel;stroke-dasharray:none;stroke-opacity:1;paint-order:fill markers stroke"
       id="path1"
       cx="118.31679"
       cy="63.12088"
       r="5.1136451"
       inkscape:label="outer ring" />
    <circle
       style="fill:none;stroke:#00475f;stroke-width:0.3;stroke-linecap:round;stroke-linejoin:bevel;stroke-dasharray:none;stroke-opacity:1;paint-order:fill markers stroke"
       id="path1-9"
       cx="118.32618"
       cy="63.163704"
       r="5.1136451"
       inkscape:label="ring" />
    <circle
       style="mix-blend-mode:normal;fill:url(#pattern22);fill-opacity:1;stroke:none;stroke-width:0.268932;stroke-linecap:round;stroke-linejoin:bevel;stroke-dasharray:none;stroke-opacity:1;paint-order:fill markers stroke;filter:url(#filter2)"
       id="circle2"
       cx="118.36494"
       cy="63.117989"
       r="4.5840602"
       inkscape:label="insert">
      <animate
         attributeName="fill-opacity"
         values="0;0.5;1;1;0.5;0"
         dur="6s"
         repeatCount="indefinite" />
    </circle>
    <path
       sodipodi:type="star"
       style="opacity:0.496394;fill:#006c90;fill-opacity:0.355301;stroke:#002a38;stroke-width:0.300232;stroke-linecap:round;stroke-linejoin:bevel;stroke-dasharray:none;stroke-opacity:0.829742;paint-order:fill markers stroke"
       id="path2"
       inkscape:flatsided="false"
       sodipodi:sides="5"
       sodipodi:cx="65.502739"
       sodipodi:cy="62.56905"
       sodipodi:r1="2.893991"
       sodipodi:r2="8.5117378"
       sodipodi:arg1="0.52031466"
       sodipodi:arg2="1.1486332"
       inkscape:rounded="0.04"
       inkscape:randomized="0"
       d="m 68.013747,64.007807 c -0.127283,0.222143 1.210093,6.220788 0.976546,6.325691 -0.233548,0.104902 -3.829345,-4.879329 -4.079949,-4.931737 -0.250604,-0.05241 -5.542382,3.073196 -5.71432,2.883496 -0.171938,-0.1897 3.457184,-5.149719 3.429587,-5.404252 -0.0276,-0.254533 -4.635474,-4.321449 -4.50819,-4.543593 0.127283,-0.222143 5.966002,1.696628 6.19955,1.591725 0.233547,-0.104902 2.677502,-5.743998 2.928106,-5.69159 0.250603,0.05241 0.230007,6.198292 0.401945,6.387992 0.171938,0.1897 6.290261,0.771463 6.317859,1.025996 0.0276,0.254534 -5.82385,2.134128 -5.951134,2.356272 z"
       inkscape:transform-center-x="0.15642487"
       inkscape:transform-center-y="0.073394808"
       transform="matrix(0.54291347,0,0,0.54291347,82.848554,29.125013)"
       inkscape:label="star" />
  </g>
</svg>
