<?xml version="1.0" encoding="UTF-8" standalone="no"?>
<!-- Created with Inkscape (http://www.inkscape.org/) -->

<svg
   width="89.500519mm"
   height="14.052652mm"
   viewBox="0 0 89.500519 14.052652"
   version="1.1"
   id="svg1"
   inkscape:version="1.3.2 (091e20ef0f, 2023-11-25, custom)"
   sodipodi:docname="afterglow_animated.svg"
   xmlns:inkscape="http://www.inkscape.org/namespaces/inkscape"
   xmlns:sodipodi="http://sodipodi.sourceforge.net/DTD/sodipodi-0.dtd"
   xmlns:xlink="http://www.w3.org/1999/xlink"
   xmlns="http://www.w3.org/2000/svg"
   xmlns:svg="http://www.w3.org/2000/svg">
  <sodipodi:namedview
     id="namedview1"
     pagecolor="#ffffff"
     bordercolor="#666666"
     borderopacity="1.0"
     inkscape:showpageshadow="2"
     inkscape:pageopacity="0.0"
     inkscape:pagecheckerboard="0"
     inkscape:deskcolor="#d1d1d1"
     inkscape:document-units="mm"
     inkscape:zoom="2.9127878"
     inkscape:cx="203.07006"
     inkscape:cy="72.782508"
     inkscape:window-width="2560"
     inkscape:window-height="1358"
     inkscape:window-x="0"
     inkscape:window-y="0"
     inkscape:window-maximized="1"
     inkscape:current-layer="layer1"
     showgrid="false" />
  <defs
     id="defs1">
    <rect
       x="165.56573"
       y="342.4653"
       width="469.51953"
       height="153.92847"
       id="rect1-1" />
    <rect
       x="165.56573"
       y="342.4653"
       width="469.51953"
       height="153.92847"
       id="rect1-8-5" />
    <pattern
       inkscape:collect="always"
       xlink:href="#DecorativePaper"
       preserveAspectRatio="xMidYMid"
       id="pattern22"
       patternTransform="matrix(0.34,0,0,0.34,6.112105,-61.674523)"
       x="-20"
       y="16" />
    <pattern
       patternUnits="userSpaceOnUse"
       width="100"
       height="100"
       id="DecorativePaper"
       style="fill:#ffffff"
       inkscape:stockid="Decorative Paper"
       preserveAspectRatio="xMidYMid"
       patternTransform="scale(0.5,0.5)"
       inkscape:collect="always"
       inkscape:isstock="true"
       inkscape:label="Decorative Paper">
      <path
         id="path163941"
         style="opacity:1;fill-opacity:0.994819;stroke-width:1"
         inkscape:transform-center-x="-0.022809513"
         inkscape:transform-center-y="0.17213445"
         d="m 95.49805,0 c 0.2337,0.655687 1.33166,1.004203 1.73437,1.650391 l 0.002,0.0019 c 0.0425,0.01128 0.0803,0.0198 0.12305,0.03125 -0.0136,0.05056 -0.0274,0.09646 -0.041,0.146484 0.33338,0.766429 0.14131,1.975512 0.89062,2.279297 C 98.81461,4.355647 99.39115,3.738046 100,3.326122 V 0 Z m 1.81836,1.830078 c -0.0263,-0.06034 -0.0485,-0.123616 -0.082,-0.177734 -5.39503,-1.43204 -9.126682,-1.557222 -12.402348,0.333984 -4.330124,2.499998 -5.92927,5.732002 -7.027343,9.830078 4.098069,1.098079 9.063243,1.697264 12.527341,-0.302734 3.43205,-1.981503 5.52214,-4.326625 6.98438,-9.683594 z M 100,3.666016 C 96.44152,7.35613 94.63867,10.404321 94.63867,14 c 0,4.999995 2.00001,8.000013 5,11 0.12095,-0.120944 0.24058,-0.252824 0.36133,-0.376953 z m 0,71.001953 C 97.22825,77.581702 94.63867,81.285412 94.63867,85 c 0,3.956986 0.98357,6.93711 4.87696,10.87305 0.0495,0.0325 0.0999,0.061 0.14843,0.0996 C 99.78318,95.85337 99.88445,95.74091 100,95.62304 Z M 99.66406,95.97266 c -0.009,0.009 -0.0162,0.0182 -0.0254,0.0273 -0.043,-0.043 -0.0807,-0.0842 -0.12304,-0.12696 -0.22218,-0.1458 -0.45293,-0.23001 -0.71094,-0.16601 -0.84738,0.2102 -0.75052,1.62874 -1.3125,2.29687 -0.56199,0.66813 -1.97713,0.81665 -2.03906,1.6875 -0.008,0.11138 0.0106,0.21244 0.0449,0.3086 H 100 V 96.27535 C 99.88915,96.166 99.77708,96.06253 99.66406,95.97262 Z M 83.5,85.529297 c -1.704673,-0.0074 -3.402407,0.306702 -5.195312,0.787109 1.098075,4.098074 3.063245,8.697264 6.527343,10.697264 3.464096,2 6.561299,2.63403 12.025389,1.16992 C 95.39332,92.7195 93.63351,89.392441 90.33203,87.486328 87.896338,86.08008 85.691722,85.538783 83.5,85.529297 Z M 0.638672,74 C 0.424614,74.214058 0.212968,74.444092 0,74.667969 V 95.62305 C 3.746981,91.80072 5.638672,88.689684 5.638672,85 c 0,-4.999995 -2.000004,-8.000003 -5,-11 z m 15.332031,12.173828 c -2.186294,-0.03678 -4.293342,0.312503 -6.025391,1.3125 -3.454717,1.994583 -5.550106,4.354532 -7.013671,9.787112 0.182098,0.0273 0.35088,0.0716 0.486328,0.16601 5.188444,1.33602 8.830172,1.42011 12.027343,-0.42578 4.330122,-2.5 5.929273,-5.732 7.027344,-9.830076 -2.049035,-0.549037 -4.315658,-0.972987 -6.501953,-1.009766 z M 3.417969,97.43945 c -0.169265,-0.0436 -0.325421,-0.0768 -0.498047,-0.12304 0.004,-0.0148 0.0077,-0.0282 0.01172,-0.043 C 2.343505,97.18521 1.579644,97.34221 1.039064,97.12302 0.658911,96.96893 0.330006,96.60093 0,96.27539 V 100 H 3.017578 C 3.213131,99.19311 4.051132,98.33961 3.628906,97.66211 3.571186,97.56951 3.499814,97.49652 3.417969,97.43945 Z M 0,0 V 3.326172 C 0.200629,3.190434 0.405626,3.078197 0.615234,3.025391 c 0.0085,-0.0085 0.01493,-0.01688 0.02344,-0.02539 0.0064,0.0064 0.01121,0.01315 0.01758,0.01953 C 1.502169,2.836995 2.705571,3.514336 3.25977,2.855468 3.821753,2.187341 2.910716,1.095463 2.972656,0.224609 2.97796,0.150044 2.999266,0.075558 3.017578,0 Z m 0.65625,3.019531 c -0.01189,0.0026 -0.02537,9.93e-4 -0.03711,0.0039 -0.0014,3.4e-4 -0.0025,0.0016 -0.0039,0.002 C 0.396993,3.243908 0.206283,3.452101 0,3.666016 V 24.623047 C 2.874373,21.668176 5.638672,17.838737 5.638672,14 5.638672,10.006389 4.640295,7.009952 0.65625,3.019531 Z M 8.712891,0.015625 C 7.185226,0.013225 5.468957,0.26737 3.419922,0.816406 c 1.464098,5.464097 3.223909,8.791155 6.52539,10.697266 4.330119,2.499997 7.929269,2.267996 12.027344,1.169922 C 20.874579,8.585521 18.90941,3.986329 15.445312,1.986328 13.280254,0.736331 11.258999,0.019694 8.712891,0.015625 Z m 44.546711,52.839891 c -0.561988,0.668128 -1.792958,-0.04298 -2.640332,0.167217 -0.847373,0.210199 -1.603289,1.414175 -2.41238,1.086156 -0.809091,-0.328019 -0.513177,-1.718487 -0.974941,-2.459432 -0.461764,-0.740944 -1.840403,-1.087814 -1.778461,-1.958669 0.06194,-0.870855 1.475797,-1.019102 2.037785,-1.68723 0.561987,-0.668128 0.465857,-2.086481 1.31323,-2.29668 0.847374,-0.210199 1.42527,1.088647 2.234362,1.416666 0.809091,0.328019 2.128319,-0.201701 2.590082,0.539244 0.461764,0.740945 -0.594932,1.691923 -0.656874,2.562778 -0.06194,0.870855 0.849517,1.961822 0.287529,2.62995 z m 6.686643,8.657629 c 4.330123,2.5 7.928198,2.267947 12.026277,1.169872 -1.098078,-4.098077 -3.06218,-8.696152 -6.526281,-10.696155 -3.464097,-1.999997 -6.562176,-2.63397 -12.026275,-1.169872 1.4641,5.464102 3.224794,8.790042 6.526279,10.696155 z M 40.331514,37.486862 c -4.330126,-2.5 -7.928205,-2.267947 -12.026279,-1.169872 1.098077,4.098077 3.062179,8.696152 6.526281,10.696155 3.464099,2 6.562173,2.633975 12.026274,1.169872 -1.464102,-5.464102 -3.224797,-8.79004 -6.526276,-10.696155 z m 25.114727,9.526283 c 4.330126,-2.500003 5.928206,-5.732053 7.026278,-9.830128 -4.098074,-1.098075 -9.062173,-1.696152 -12.526274,0.303845 -3.464105,2.000003 -5.562179,4.366028 -7.026281,9.830128 5.464103,1.4641 9.2248,1.602267 12.526277,-0.303845 z m -30.614725,4.973717 c -4.330129,2.5 -5.928204,5.732053 -7.026279,9.830128 4.098074,1.09808 9.062173,1.696155 12.526277,-0.303845 3.464099,-2.000003 5.562171,-4.366025 7.026274,-9.830128 -5.464099,-1.464102 -9.224793,-1.602265 -12.526272,0.303845 z m 20.80736,-16.986857 c 0,-5 -2,-8 -4.999999,-11 -3,3 -5.999996,6.999997 -5.999996,11 0,4 0.999999,7 4.999996,11 3.999999,-4 5.999999,-7.187775 5.999999,-11 z m -10.999995,29 c 0,5 1.999999,8 4.999996,10.999999 3,-3 5.999999,-6.999999 5.999999,-10.999999 0,-4.000003 -1,-7.000003 -4.999999,-11 -3.999997,3.999997 -5.999996,7.187775 -5.999996,11 z m 6.361112,32.000005 a 3,3 0 0 0 3,3 3,3 0 0 0 3,-3 3,3 0 0 0 -3,-3 3,3 0 0 0 -3,3 z M 92.99998,54.000005 a 3,3 0 0 0 3,3 3,3 0 0 0 3,-3 3,3 0 0 0 -3,-3 3,3 0 0 0 -3,3 z m -6.999996,6.999997 a 3,3 0 0 0 3,3 3,3 0 0 0 3,-3 3,3 0 0 0 -3,-3 3,3 0 0 0 -3,3 z m -6.999995,7.000003 a 3,3 0 0 0 3,3 3,3 0 0 0 3,-3 3,3 0 0 0 -3,-3 3,3 0 0 0 -3,3 z m -7.000001,6.999997 a 3,3 0 0 0 3,3 3,3 0 0 0 3,-3 3,3 0 0 0 -3,-3 3,3 0 0 0 -3,3 z m -6.999999,7.000003 a 3,3 0 0 0 3,3 3,3 0 0 0 3,-3 3,3 0 0 0 -3,-3 3,3 0 0 0 -3,3 z m -6.999998,6.999997 A 3,3 0 0 0 60.999993,92 a 3,3 0 0 0 3,-3 3,3 0 0 0 -3,-3 3,3 0 0 0 -3,3 z m -56.999983,-43 a 3,3 0 0 0 3,3 3,3 0 0 0 3,-3 3,3 0 0 0 -3,-3 3,3 0 0 0 -3,3 z M 42.999995,4.000006 a 3,3 0 0 0 3,3 3,3 0 0 0 3,-3 3,3 0 0 0 -3,-3.000004 3,3 0 0 0 -3,3.000004 z m -6.999999,6.999998 a 3,3 0 0 0 3,3 3,3 0 0 0 3,-3 3,3 0 0 0 -3,-3 3,3 0 0 0 -3,3 z m -6.999995,6.999999 A 3,3 0 0 0 32,21.000002 a 3,3 0 0 0 3,-3 3,3 0 0 0 -3,-3 3,3 0 0 0 -3,3 z M 22,25.000005 a 3,3 0 0 0 3,3 3,3 0 0 0 3,-3 3,3 0 0 0 -3,-3 3,3 0 0 0 -3,3 z m -6.999997,6.999997 a 3,3 0 0 0 3,3 3,3 0 0 0 3,-3 3,3 0 0 0 -3,-3 3,3 0 0 0 -3,3 z m -6.999999,7.000003 a 3,3 0 0 0 3,3 3,3 0 0 0 3,-3 3,3 0 0 0 -3,-3 3,3 0 0 0 -3,3 z m 90.999976,6.999997 a 3,3 0 0 1 -3,3 3,3 0 0 1 -3,-3 3,3 0 0 1 3,-3 3,3 0 0 1 3,3 z M 56.999991,4.000006 a 3,3 0 0 1 -3,3 3,3 0 0 1 -3,-3 3,3 0 0 1 3,-3.000004 3,3 0 0 1 3,3.000004 z m 7.000001,6.999998 a 3,3 0 0 1 -3,3 3,3 0 0 1 -3,-3 3,3 0 0 1 3,-3 3,3 0 0 1 3,3 z m 6.999996,6.999999 a 3,3 0 0 1 -3,3 3,3 0 0 1 -3,-3 3,3 0 0 1 3,-3 3,3 0 0 1 3,3 z m 7.000001,7.000002 a 3,3 0 0 1 -3,3 3,3 0 0 1 -3,-3 3,3 0 0 1 3,-3 3,3 0 0 1 3,3 z m 6.999996,6.999997 a 3,3 0 0 1 -3,3 3,3 0 0 1 -3,-3 3,3 0 0 1 3,-3 3,3 0 0 1 3,3 z m 6.999995,7.000003 a 3,3 0 0 1 -3,3 3,3 0 0 1 -3,-3 3,3 0 0 1 3,-3 3,3 0 0 1 3,3 z M 48.999993,96.00001 a 3,3 0 0 1 -3,3 3,3 0 0 1 -3,-3 3,3 0 0 1 3,-3 3,3 0 0 1 3,3 z M 7.000004,54.000005 a 3,3 0 0 1 -3,3 3,3 0 0 1 -3,-3 3,3 0 0 1 3,-3 3,3 0 0 1 3,3 z m 7,6.999997 a 3,3 0 0 1 -3,3 3,3 0 0 1 -3,-3 3,3 0 0 1 3,-3 3,3 0 0 1 3,3 z M 21,68.000005 a 3,3 0 0 1 -3,3 3,3 0 0 1 -3,-3 3,3 0 0 1 3,-3 3,3 0 0 1 3,3 z m 7.000001,6.999998 A 3,3 0 0 1 24.999999,78.000002 3,3 0 0 1 22,75.000003 a 3,3 0 0 1 3,-3 3,3 0 0 1 3,3 z m 6.999996,7.000002 a 3,3 0 0 1 -3,3 3,3 0 0 1 -3,-3 3,3 0 0 1 3,-3 3,3 0 0 1 3,3 z m 6.999998,6.999997 A 3,3 0 0 1 38.999996,92 a 3,3 0 0 1 -3,-3 3,3 0 0 1 3,-3 3,3 0 0 1 3,3 z" />
    </pattern>
    <filter
       inkscape:collect="always"
       style="color-interpolation-filters:sRGB"
       id="filter2"
       x="-0.26638677"
       y="-0.26638674"
       width="1.5327735"
       height="1.5327735">
      <feGaussianBlur
         inkscape:collect="always"
         stdDeviation="1.0176108"
         id="feGaussianBlur2" />
    </filter>
  </defs>
  <g
     inkscape:label="Layer 1"
     inkscape:groupmode="layer"
     id="layer1"
     transform="translate(-49.212498,-56.091663)">
    <path
       d="m 56.781699,68.487934 -0.338666,-1.1176 h -3.369734 l -0.3556,1.1176 h -3.5052 l 3.691467,-10.651066 h 3.6576 l 3.7084,10.651066 z m -1.3208,-8.703733 q 0.270934,0 0.4572,-0.186267 0.186267,-0.186266 0.186267,-0.474133 0,-0.254 -0.2032,-0.440267 -0.186267,-0.2032 -0.440267,-0.2032 -0.270933,0 -0.474133,0.186267 -0.186267,0.186267 -0.186267,0.4572 0,0.287867 0.186267,0.474133 0.2032,0.186267 0.474133,0.186267 z m 1.032934,0.7112 q 0,-0.270933 -0.2032,-0.4572 -0.186267,-0.2032 -0.4572,-0.2032 -0.270934,0 -0.4572,0.2032 -0.186267,0.186267 -0.186267,0.4572 0,0.270933 0.169333,0.474133 0.186267,0.186267 0.474134,0.186267 0.270933,0 0.4572,-0.186267 0.2032,-0.2032 0.2032,-0.474133 z m -2.472267,-0.7112 q 0.270933,0 0.4572,-0.186267 0.186267,-0.186266 0.186267,-0.474133 0,-0.254 -0.2032,-0.440267 -0.186267,-0.2032 -0.440267,-0.2032 -0.287867,0 -0.474133,0.186267 -0.186267,0.186267 -0.186267,0.4572 0,0.287867 0.186267,0.474133 0.186266,0.186267 0.474133,0.186267 z m 2.9464,2.0828 q 0,-0.287867 -0.2032,-0.474133 -0.186267,-0.186267 -0.4572,-0.186267 -0.270933,0 -0.474133,0.2032 -0.186267,0.186267 -0.186267,0.4572 0,0.270933 0.186267,0.4572 0.186266,0.186267 0.474133,0.186267 0.270933,0 0.4572,-0.186267 0.2032,-0.186267 0.2032,-0.4572 z m -0.186267,1.998133 q 0.270934,0 0.4572,-0.186266 0.186267,-0.186267 0.186267,-0.474134 0,-0.270933 -0.186267,-0.4572 -0.186266,-0.186266 -0.4572,-0.186266 -0.270933,0 -0.474133,0.186266 -0.186267,0.186267 -0.186267,0.4572 0,0.287867 0.186267,0.474134 0.2032,0.186266 0.474133,0.186266 z m 1.1176,0.7112 q 0,-0.254 -0.2032,-0.4572 -0.186266,-0.2032 -0.4572,-0.2032 -0.270933,0 -0.4572,0.2032 -0.186266,0.186267 -0.186266,0.4572 0,0.270934 0.186266,0.474134 0.186267,0.186266 0.4572,0.186266 0.270934,0 0.4572,-0.186266 0.2032,-0.2032 0.2032,-0.474134 z m 0.474134,1.3716 q 0,-0.270933 -0.2032,-0.4572 -0.2032,-0.2032 -0.4572,-0.2032 -0.270934,0 -0.4572,0.186267 -0.186267,0.186267 -0.186267,0.474133 0,0.270934 0.186267,0.4572 0.186266,0.186267 0.4572,0.186267 0.270933,0 0.4572,-0.186267 0.2032,-0.186266 0.2032,-0.4572 z m -3.640667,-4.334933 -0.897467,3.0988 h 1.811867 z m 4.097867,5.672667 q 0,-0.270934 -0.186267,-0.4572 -0.186267,-0.186267 -0.474133,-0.186267 -0.254,0 -0.4572,0.2032 -0.2032,0.186267 -0.2032,0.440267 0,0.287866 0.186266,0.474133 0.2032,0.186267 0.474134,0.186267 0.287866,0 0.474133,-0.186267 0.186267,-0.186267 0.186267,-0.474133 z m -2.556934,-0.626534 q 0.270934,0 0.4572,-0.186266 0.186267,-0.186267 0.186267,-0.474134 0,-0.270933 -0.186267,-0.4572 -0.186266,-0.2032 -0.4572,-0.2032 -0.270933,0 -0.474133,0.2032 -0.186267,0.186267 -0.186267,0.4572 0,0.270934 0.186267,0.474134 0.2032,0.186266 0.474133,0.186266 z m -0.9144,-0.6604 q 0,-0.270933 -0.186266,-0.4572 -0.186267,-0.2032 -0.474134,-0.2032 -0.270933,0 -0.474133,0.2032 -0.186267,0.186267 -0.186267,0.4572 0,0.270934 0.2032,0.474134 0.2032,0.186266 0.4572,0.186266 0.287867,0 0.474134,-0.186266 0.186266,-0.186267 0.186266,-0.474134 z m -1.524,0 q 0,-0.270933 -0.2032,-0.4572 -0.186266,-0.2032 -0.4572,-0.2032 -0.270933,0 -0.4572,0.2032 -0.186266,0.186267 -0.186266,0.4572 0,0.270934 0.186266,0.474134 0.186267,0.186266 0.4572,0.186266 0.270934,0 0.4572,-0.186266 0.2032,-0.186267 0.2032,-0.474134 z m -1.4732,-0.0508 q 0,-0.270933 -0.2032,-0.4572 -0.2032,-0.2032 -0.4572,-0.2032 -0.270933,0 -0.474133,0.186267 -0.186267,0.186267 -0.186267,0.474133 0,0.270934 0.186267,0.4572 0.2032,0.186267 0.474133,0.186267 0.270934,0 0.4572,-0.186267 0.2032,-0.186266 0.2032,-0.4572 z m -0.474133,1.337734 q 0,-0.254 -0.2032,-0.440267 -0.2032,-0.2032 -0.4572,-0.2032 -0.287867,0 -0.474133,0.186267 -0.169334,0.186266 -0.169334,0.4572 0,0.287866 0.169334,0.474133 0.186266,0.186267 0.474133,0.186267 0.270933,0 0.4572,-0.186267 0.2032,-0.186267 0.2032,-0.474133 z m 2.3368,-6.8072 q 0,-0.254 -0.2032,-0.4572 -0.186267,-0.2032 -0.4572,-0.2032 -0.270933,0 -0.4572,0.2032 -0.186267,0.186266 -0.186267,0.4572 0,0.270933 0.186267,0.474133 0.186267,0.186267 0.4572,0.186267 0.270933,0 0.4572,-0.186267 0.2032,-0.2032 0.2032,-0.474133 z m -0.4572,1.3716 q 0,-0.254 -0.2032,-0.4572 -0.186267,-0.2032 -0.4572,-0.2032 -0.270933,0 -0.4572,0.2032 -0.186267,0.186266 -0.186267,0.4572 0,0.270933 0.186267,0.474133 0.186267,0.186267 0.4572,0.186267 0.270933,0 0.4572,-0.186267 0.2032,-0.2032 0.2032,-0.474133 z m -0.948267,2.726266 q 0,-0.254 -0.2032,-0.4572 -0.186266,-0.2032 -0.4572,-0.2032 -0.270933,0 -0.4572,0.2032 -0.186266,0.186267 -0.186266,0.4572 0,0.270934 0.186266,0.474134 0.186267,0.186266 0.4572,0.186266 0.270934,0 0.4572,-0.186266 0.2032,-0.2032 0.2032,-0.474134 z m 0.474134,-1.3716 q 0,-0.254 -0.2032,-0.4572 -0.186267,-0.2032 -0.4572,-0.2032 -0.270934,0 -0.4572,0.2032 -0.186267,0.186267 -0.186267,0.4572 0,0.270934 0.186267,0.474134 0.186266,0.186266 0.4572,0.186266 0.270933,0 0.4572,-0.186266 0.2032,-0.2032 0.2032,-0.474134 z m 7.687725,5.2832 V 57.836868 h 6.383867 v 2.6924 h -3.081867 v 1.236133 h 3.081867 v 2.6924 h -3.081867 v 4.030133 z m 5.418667,-9.2964 q 0,-0.270933 -0.2032,-0.4572 -0.186267,-0.2032 -0.4572,-0.2032 -0.270934,0 -0.4572,0.2032 -0.186267,0.186267 -0.186267,0.4572 0,0.270934 0.186267,0.4572 0.186266,0.186267 0.4572,0.186267 0.270933,0 0.4572,-0.186267 0.2032,-0.186266 0.2032,-0.4572 z m -1.557867,0 q 0,-0.270933 -0.2032,-0.4572 -0.186267,-0.2032 -0.4572,-0.2032 -0.287867,0 -0.474133,0.2032 -0.186267,0.186267 -0.186267,0.4572 0,0.270934 0.186267,0.4572 0.186266,0.186267 0.474133,0.186267 0.270933,0 0.4572,-0.186267 0.2032,-0.186266 0.2032,-0.4572 z m -1.591733,0 q 0,-0.270933 -0.186267,-0.4572 -0.169333,-0.2032 -0.4572,-0.2032 -0.270933,0 -0.474133,0.2032 -0.186267,0.186267 -0.186267,0.4572 0,0.270934 0.186267,0.4572 0.2032,0.186267 0.474133,0.186267 0.287867,0 0.4572,-0.186267 0.186267,-0.186266 0.186267,-0.4572 z m 3.1496,3.9116 q 0,-0.270933 -0.2032,-0.4572 -0.186267,-0.186266 -0.4572,-0.186266 -0.270934,0 -0.4572,0.186266 -0.186267,0.186267 -0.186267,0.4572 0,0.270934 0.186267,0.474134 0.186266,0.186266 0.4572,0.186266 0.270933,0 0.4572,-0.186266 0.2032,-0.2032 0.2032,-0.474134 z m -3.793067,-1.693333 q 0.287867,0 0.4572,-0.186267 0.186267,-0.186266 0.186267,-0.474133 0,-0.270933 -0.186267,-0.4572 -0.169333,-0.2032 -0.4572,-0.2032 -0.270933,0 -0.474133,0.2032 -0.186267,0.186267 -0.186267,0.4572 0,0.287867 0.186267,0.474133 0.2032,0.186267 0.474133,0.186267 z m 2.2352,1.693333 q 0,-0.270933 -0.2032,-0.4572 -0.186267,-0.186266 -0.4572,-0.186266 -0.287867,0 -0.474133,0.186266 -0.186267,0.186267 -0.186267,0.4572 0,0.270934 0.186267,0.474134 0.186266,0.186266 0.474133,0.186266 0.270933,0 0.4572,-0.186266 0.2032,-0.2032 0.2032,-0.474134 z m -2.2352,-0.118533 q 0.287867,0 0.4572,-0.186267 0.186267,-0.2032 0.186267,-0.474133 0,-0.287867 -0.186267,-0.4572 -0.169333,-0.186267 -0.4572,-0.186267 -0.270933,0 -0.474133,0.186267 -0.186267,0.169333 -0.186267,0.4572 0,0.270933 0.186267,0.474133 0.2032,0.186267 0.474133,0.186267 z m 0.643467,0.9144 q 0,-0.270933 -0.186267,-0.4572 -0.169333,-0.2032 -0.4572,-0.2032 -0.270933,0 -0.474133,0.2032 -0.186267,0.186267 -0.186267,0.4572 0,0.270933 0.186267,0.4572 0.2032,0.186267 0.474133,0.186267 0.287867,0 0.4572,-0.186267 0.186267,-0.186267 0.186267,-0.4572 z m -0.643467,2.218267 q 0.287867,0 0.4572,-0.186267 0.186267,-0.186267 0.186267,-0.474133 0,-0.270934 -0.186267,-0.4572 -0.169333,-0.2032 -0.4572,-0.2032 -0.270933,0 -0.474133,0.2032 -0.186267,0.186266 -0.186267,0.4572 0,0.287866 0.186267,0.474133 0.2032,0.186267 0.474133,0.186267 z m 0,1.5748 q 0.287867,0 0.4572,-0.186267 0.186267,-0.2032 0.186267,-0.474133 0,-0.270934 -0.186267,-0.4572 -0.169333,-0.186267 -0.4572,-0.186267 -0.270933,0 -0.474133,0.186267 -0.186267,0.186266 -0.186267,0.4572 0,0.270933 0.186267,0.474133 0.2032,0.186267 0.474133,0.186267 z m 8.144941,0.795866 v -7.874 h -2.777067 v -2.777066 h 8.8392 v 2.777066 h -2.777066 v 7.874 z m 5.469467,-9.2964 q 0,-0.270933 -0.2032,-0.4572 -0.186267,-0.2032 -0.4572,-0.2032 -0.287867,0 -0.474134,0.2032 -0.169333,0.186267 -0.169333,0.4572 0,0.270934 0.169333,0.4572 0.186267,0.186267 0.474134,0.186267 0.270933,0 0.4572,-0.186267 0.2032,-0.186266 0.2032,-0.4572 z m -1.5748,0 q 0,-0.270933 -0.2032,-0.4572 -0.186267,-0.2032 -0.4572,-0.2032 -0.270934,0 -0.474134,0.2032 -0.186266,0.186267 -0.186266,0.4572 0,0.270934 0.186266,0.4572 0.2032,0.186267 0.474134,0.186267 0.270933,0 0.4572,-0.186267 0.2032,-0.186266 0.2032,-0.4572 z m -1.5748,0 q 0,-0.270933 -0.186267,-0.4572 -0.186267,-0.2032 -0.4572,-0.2032 -0.287867,0 -0.474133,0.2032 -0.186267,0.186267 -0.186267,0.4572 0,0.270934 0.186267,0.4572 0.186266,0.186267 0.474133,0.186267 0.270933,0 0.4572,-0.186267 0.186267,-0.186266 0.186267,-0.4572 z m -1.5748,0 q 0,-0.270933 -0.186267,-0.4572 -0.186267,-0.2032 -0.474133,-0.2032 -0.270934,0 -0.4572,0.2032 -0.186267,0.186267 -0.186267,0.4572 0,0.270934 0.186267,0.4572 0.186266,0.186267 0.4572,0.186267 0.287866,0 0.474133,-0.186267 0.186267,-0.186266 0.186267,-0.4572 z m 0.931333,2.218267 q 0.270933,0 0.4572,-0.186267 0.186267,-0.186266 0.186267,-0.474133 0,-0.270933 -0.186267,-0.4572 -0.186267,-0.2032 -0.4572,-0.2032 -0.287867,0 -0.474133,0.2032 -0.186267,0.186267 -0.186267,0.4572 0,0.287867 0.186267,0.474133 0.186266,0.186267 0.474133,0.186267 z m -2.4892,-2.218267 q 0,-0.270933 -0.2032,-0.4572 -0.186267,-0.2032 -0.4572,-0.2032 -0.270933,0 -0.474133,0.2032 -0.186267,0.186267 -0.186267,0.4572 0,0.270934 0.186267,0.4572 0.2032,0.186267 0.474133,0.186267 0.270933,0 0.4572,-0.186267 0.2032,-0.186266 0.2032,-0.4572 z m 2.4892,3.793067 q 0.270933,0 0.4572,-0.186267 0.186267,-0.2032 0.186267,-0.474133 0,-0.287867 -0.186267,-0.4572 -0.186267,-0.186267 -0.4572,-0.186267 -0.287867,0 -0.474133,0.186267 -0.186267,0.169333 -0.186267,0.4572 0,0.270933 0.186267,0.474133 0.186266,0.186267 0.474133,0.186267 z m 0.643467,0.9144 q 0,-0.270933 -0.186267,-0.4572 -0.186267,-0.2032 -0.4572,-0.2032 -0.287867,0 -0.474133,0.2032 -0.186267,0.186267 -0.186267,0.4572 0,0.270933 0.186267,0.4572 0.186266,0.186267 0.474133,0.186267 0.270933,0 0.4572,-0.186267 0.186267,-0.186267 0.186267,-0.4572 z m -0.643467,2.218267 q 0.270933,0 0.4572,-0.186267 0.186267,-0.186267 0.186267,-0.474133 0,-0.270934 -0.186267,-0.4572 -0.186267,-0.2032 -0.4572,-0.2032 -0.287867,0 -0.474133,0.2032 -0.186267,0.186266 -0.186267,0.4572 0,0.287866 0.186267,0.474133 0.186266,0.186267 0.474133,0.186267 z m 0,1.5748 q 0.270933,0 0.4572,-0.186267 0.186267,-0.2032 0.186267,-0.474133 0,-0.270934 -0.186267,-0.4572 -0.186267,-0.186267 -0.4572,-0.186267 -0.287867,0 -0.474133,0.186267 -0.186267,0.186266 -0.186267,0.4572 0,0.270933 0.186267,0.474133 0.186266,0.186267 0.474133,0.186267 z m 5.300131,0.795866 V 57.836868 h 6.383866 v 2.6924 H 81.03023 v 1.236133 h 3.081866 v 2.6924 H 81.03023 v 1.236133 h 3.081866 v 2.794 z m 5.418666,-9.2964 q 0,-0.270933 -0.2032,-0.4572 -0.186266,-0.2032 -0.4572,-0.2032 -0.270933,0 -0.4572,0.2032 -0.186266,0.186267 -0.186266,0.4572 0,0.270934 0.186266,0.4572 0.186267,0.186267 0.4572,0.186267 0.270934,0 0.4572,-0.186267 0.2032,-0.186266 0.2032,-0.4572 z m -1.557866,0 q 0,-0.270933 -0.2032,-0.4572 -0.186267,-0.2032 -0.4572,-0.2032 -0.287867,0 -0.474134,0.2032 -0.186266,0.186267 -0.186266,0.4572 0,0.270934 0.186266,0.4572 0.186267,0.186267 0.474134,0.186267 0.270933,0 0.4572,-0.186267 0.2032,-0.186266 0.2032,-0.4572 z m -1.591734,0 q 0,-0.270933 -0.186266,-0.4572 -0.169334,-0.2032 -0.4572,-0.2032 -0.270934,0 -0.474134,0.2032 -0.186266,0.186267 -0.186266,0.4572 0,0.270934 0.186266,0.4572 0.2032,0.186267 0.474134,0.186267 0.287866,0 0.4572,-0.186267 0.186266,-0.186266 0.186266,-0.4572 z m 3.1496,3.9116 q 0,-0.270933 -0.2032,-0.4572 -0.186266,-0.186266 -0.4572,-0.186266 -0.270933,0 -0.4572,0.186266 -0.186266,0.186267 -0.186266,0.4572 0,0.270934 0.186266,0.474134 0.186267,0.186266 0.4572,0.186266 0.270934,0 0.4572,-0.186266 0.2032,-0.2032 0.2032,-0.474134 z M 79.35383,61.409801 q 0.287866,0 0.4572,-0.186267 0.186266,-0.186266 0.186266,-0.474133 0,-0.270933 -0.186266,-0.4572 -0.169334,-0.2032 -0.4572,-0.2032 -0.270934,0 -0.474134,0.2032 -0.186266,0.186267 -0.186266,0.4572 0,0.287867 0.186266,0.474133 0.2032,0.186267 0.474134,0.186267 z m 2.2352,1.693333 q 0,-0.270933 -0.2032,-0.4572 -0.186267,-0.186266 -0.4572,-0.186266 -0.287867,0 -0.474134,0.186266 -0.186266,0.186267 -0.186266,0.4572 0,0.270934 0.186266,0.474134 0.186267,0.186266 0.474134,0.186266 0.270933,0 0.4572,-0.186266 0.2032,-0.2032 0.2032,-0.474134 z m -2.2352,-0.118533 q 0.287866,0 0.4572,-0.186267 0.186266,-0.2032 0.186266,-0.474133 0,-0.287867 -0.186266,-0.4572 -0.169334,-0.186267 -0.4572,-0.186267 -0.270934,0 -0.474134,0.186267 -0.186266,0.169333 -0.186266,0.4572 0,0.270933 0.186266,0.474133 0.2032,0.186267 0.474134,0.186267 z m 0.643466,0.9144 q 0,-0.270933 -0.186266,-0.4572 -0.169334,-0.2032 -0.4572,-0.2032 -0.270934,0 -0.474134,0.2032 -0.186266,0.186267 -0.186266,0.4572 0,0.270933 0.186266,0.4572 0.2032,0.186267 0.474134,0.186267 0.287866,0 0.4572,-0.186267 0.186266,-0.186267 0.186266,-0.4572 z m 3.1496,3.132667 q 0,-0.270934 -0.2032,-0.4572 -0.186266,-0.186267 -0.4572,-0.186267 -0.270933,0 -0.4572,0.186267 -0.186266,0.186266 -0.186266,0.4572 0,0.270933 0.186266,0.474133 0.186267,0.186267 0.4572,0.186267 0.270934,0 0.4572,-0.186267 0.2032,-0.2032 0.2032,-0.474133 z m -3.793066,-0.9144 q 0.287866,0 0.4572,-0.186267 0.186266,-0.186267 0.186266,-0.474133 0,-0.270934 -0.186266,-0.4572 -0.169334,-0.2032 -0.4572,-0.2032 -0.270934,0 -0.474134,0.2032 -0.186266,0.186266 -0.186266,0.4572 0,0.287866 0.186266,0.474133 0.2032,0.186267 0.474134,0.186267 z m 2.2352,0.9144 q 0,-0.270934 -0.2032,-0.4572 -0.186267,-0.186267 -0.4572,-0.186267 -0.287867,0 -0.474134,0.186267 -0.186266,0.186266 -0.186266,0.4572 0,0.270933 0.186266,0.474133 0.186267,0.186267 0.474134,0.186267 0.270933,0 0.4572,-0.186267 0.2032,-0.2032 0.2032,-0.474133 z m -2.2352,0.6604 q 0.287866,0 0.4572,-0.186267 0.186266,-0.2032 0.186266,-0.474133 0,-0.270934 -0.186266,-0.4572 -0.169334,-0.186267 -0.4572,-0.186267 -0.270934,0 -0.474134,0.186267 -0.186266,0.186266 -0.186266,0.4572 0,0.270933 0.186266,0.474133 0.2032,0.186267 0.474134,0.186267 z m 10.735736,0.795866 -1.540934,-2.980266 v 2.980266 h -3.302 V 57.836868 h 4.047067 q 0.9144,0 1.659467,0.254 0.762,0.254 1.286933,0.7112 0.541867,0.4572 0.829733,1.1176 0.287867,0.6604 0.287867,1.4732 0,1.1176 -0.524933,1.896533 -0.524934,0.762 -1.439334,1.032933 l 2.6924,4.1656 z m 1.896533,-8.382 q 0,-0.270933 -0.2032,-0.4572 -0.186267,-0.186266 -0.4572,-0.186266 -0.270933,0 -0.4572,0.186266 -0.186267,0.186267 -0.186267,0.4572 0,0.287867 0.186267,0.474134 0.186267,0.186266 0.4572,0.186266 0.270933,0 0.4572,-0.186266 0.2032,-0.2032 0.2032,-0.474134 z m -1.303867,-0.8636 q 0,-0.254 -0.2032,-0.4572 -0.2032,-0.2032 -0.4572,-0.2032 -0.270933,0 -0.4572,0.2032 -0.186266,0.186267 -0.186266,0.4572 0,0.287867 0.186266,0.474134 0.186267,0.186266 0.4572,0.186266 0.270934,0 0.4572,-0.186266 0.2032,-0.186267 0.2032,-0.474134 z m 0.982134,2.9464 q 0.254,0 0.440266,-0.186266 0.2032,-0.2032 0.2032,-0.474134 0,-0.270933 -0.186266,-0.4572 -0.186267,-0.186266 -0.4572,-0.186266 -0.270934,0 -0.474134,0.186266 -0.186266,0.169334 -0.186266,0.4572 0,0.270934 0.186266,0.474134 0.2032,0.186266 0.474134,0.186266 z m -2.556934,-3.031066 q 0,-0.270934 -0.186266,-0.4572 -0.169334,-0.186267 -0.4572,-0.186267 -0.270934,0 -0.474134,0.186267 -0.186266,0.169333 -0.186266,0.440266 0,0.270934 0.186266,0.474134 0.2032,0.186266 0.474134,0.186266 0.270933,0 0.4572,-0.186266 0.186266,-0.2032 0.186266,-0.4572 z m 1.964267,4.436533 q 0.270933,0 0.4572,-0.186267 0.186267,-0.2032 0.186267,-0.474133 0,-0.270933 -0.186267,-0.4572 -0.186267,-0.186267 -0.4572,-0.186267 -0.270933,0 -0.474133,0.2032 -0.186267,0.186267 -0.186267,0.440267 0,0.270933 0.186267,0.474133 0.186266,0.186267 0.474133,0.186267 z m -2.167467,-1.100667 q 1.100667,0 1.100667,-0.999066 0,-0.948267 -1.1684,-0.948267 h -0.287867 v 1.947333 z m -1.388533,-3.302 q 0,-0.270933 -0.186267,-0.4572 -0.169333,-0.2032 -0.4572,-0.2032 -0.270933,0 -0.474133,0.2032 -0.186267,0.186267 -0.186267,0.4572 0,0.270934 0.186267,0.4572 0.2032,0.186267 0.474133,0.186267 0.287867,0 0.4572,-0.186267 0.186267,-0.186266 0.186267,-0.4572 z m -0.643467,2.218267 q 0.287867,0 0.4572,-0.186267 0.186267,-0.186266 0.186267,-0.474133 0,-0.270933 -0.186267,-0.4572 -0.169333,-0.2032 -0.4572,-0.2032 -0.270933,0 -0.474133,0.2032 -0.186267,0.186267 -0.186267,0.4572 0,0.287867 0.186267,0.474133 0.2032,0.186267 0.474133,0.186267 z m 3.6068,2.404533 q 0,-0.287866 -0.2032,-0.4572 -0.186266,-0.186266 -0.4572,-0.186266 -0.254,0 -0.4572,0.186266 -0.186266,0.186267 -0.186266,0.4572 0,0.270934 0.186266,0.474134 0.186267,0.186266 0.4572,0.186266 0.270934,0 0.4572,-0.186266 0.2032,-0.2032 0.2032,-0.474134 z m 0.626534,1.642534 q 0,-0.287867 -0.186267,-0.474134 -0.186267,-0.186266 -0.474133,-0.186266 -0.254,0 -0.4572,0.2032 -0.186267,0.186266 -0.186267,0.4572 0,0.270933 0.186267,0.474133 0.186266,0.186267 0.4572,0.186267 0.287866,0 0.474133,-0.186267 0.186267,-0.2032 0.186267,-0.474133 z m -4.233334,-2.472267 q 0.287867,0 0.4572,-0.186267 0.186267,-0.2032 0.186267,-0.474133 0,-0.287867 -0.186267,-0.4572 -0.169333,-0.186267 -0.4572,-0.186267 -0.270933,0 -0.474133,0.186267 -0.186267,0.169333 -0.186267,0.4572 0,0.270933 0.186267,0.474133 0.2032,0.186267 0.474133,0.186267 z m 1.4224,1.490133 q 0.270934,0 0.4572,-0.186266 0.186267,-0.186267 0.186267,-0.474134 0,-0.270933 -0.186267,-0.4572 -0.186266,-0.186266 -0.4572,-0.186266 -0.287866,0 -0.474133,0.186266 -0.186267,0.186267 -0.186267,0.4572 0,0.287867 0.186267,0.474134 0.186267,0.186266 0.474133,0.186266 z m 3.6068,2.5908 q 0,-0.287866 -0.2032,-0.474133 -0.186266,-0.186267 -0.4572,-0.186267 -0.270933,0 -0.4572,0.2032 -0.186266,0.186267 -0.186266,0.4572 0,0.270934 0.169333,0.474134 0.186267,0.186266 0.474133,0.186266 0.270934,0 0.4572,-0.186266 0.2032,-0.2032 0.2032,-0.474134 z m -4.385733,-3.166533 q 0,-0.270933 -0.186267,-0.4572 -0.169333,-0.2032 -0.4572,-0.2032 -0.270933,0 -0.474133,0.2032 -0.186267,0.186267 -0.186267,0.4572 0,0.270933 0.186267,0.4572 0.2032,0.186267 0.474133,0.186267 0.287867,0 0.4572,-0.186267 0.186267,-0.186267 0.186267,-0.4572 z m -0.643467,2.218267 q 0.287867,0 0.4572,-0.186267 0.186267,-0.186267 0.186267,-0.474133 0,-0.270934 -0.186267,-0.4572 -0.169333,-0.2032 -0.4572,-0.2032 -0.270933,0 -0.474133,0.2032 -0.186267,0.186266 -0.186267,0.4572 0,0.287866 0.186267,0.474133 0.2032,0.186267 0.474133,0.186267 z m 0,1.5748 q 0.287867,0 0.4572,-0.186267 0.186267,-0.2032 0.186267,-0.474133 0,-0.270934 -0.186267,-0.4572 -0.169333,-0.186267 -0.4572,-0.186267 -0.270933,0 -0.474133,0.186267 -0.186267,0.186266 -0.186267,0.4572 0,0.270933 0.186267,0.474133 0.2032,0.186267 0.474133,0.186267 z m 12.44599,-2.8956 v -2.675467 h 5.757328 q 0.0339,0.287867 0.0508,0.575733 0.0169,0.270934 0.0169,0.5588 0,0.9652 -0.27094,1.845734 -0.27093,0.880533 -0.93133,1.693333 -0.762,0.9144 -1.8796,1.405467 -1.1176,0.491066 -2.438398,0.491066 -1.2192,0 -2.252134,-0.4064 -1.016,-0.4064 -1.761066,-1.134533 -0.745067,-0.728133 -1.1684,-1.744133 -0.4064,-1.016 -0.4064,-2.2352 0,-1.185334 0.423333,-2.201334 0.423333,-1.016 1.1684,-1.761066 0.745067,-0.745067 1.778,-1.151467 1.049867,-0.423333 2.269067,-0.423333 0.965198,0 1.693328,0.169333 0.72814,0.1524 1.27,0.474133 0.54187,0.3048 0.93134,0.762 0.4064,0.4572 0.72813,1.032934 l -2.31987,1.794933 q -0.38946,-0.677333 -0.89746,-0.982133 -0.508,-0.3048 -1.439335,-0.3048 -0.491067,0 -0.9144,0.186266 -0.4064,0.169334 -0.728133,0.508 -0.3048,0.321734 -0.491067,0.8128 -0.169333,0.474134 -0.169333,1.083734 0,0.524933 0.1524,0.999066 0.169333,0.4572 0.474133,0.8128 0.3048,0.3556 0.745067,0.5588 0.440266,0.2032 0.982133,0.2032 1.151465,0 1.862665,-0.948266 z m 3.793068,-4.572 q 0,-0.270934 -0.2032,-0.4572 -0.18627,-0.2032 -0.4572,-0.2032 -0.27094,0 -0.4572,0.2032 -0.18627,0.186266 -0.18627,0.4572 0,0.270933 0.18627,0.474133 0.18626,0.186267 0.4572,0.186267 0.254,0 0.4572,-0.186267 0.2032,-0.2032 0.2032,-0.474133 z m -1.33774,-0.846667 q 0,-0.270933 -0.18626,-0.4572 -0.18627,-0.186267 -0.47414,-0.186267 -0.27093,0 -0.4572,0.186267 -0.18626,0.186267 -0.18626,0.4572 0,0.270933 0.18626,0.474133 0.18627,0.186267 0.4572,0.186267 0.27094,0 0.4572,-0.186267 0.2032,-0.2032 0.2032,-0.474133 z m -2.201328,0.423333 q 0.287866,0 0.457198,-0.186266 0.18627,-0.186267 0.18627,-0.474134 0,-0.270933 -0.18627,-0.4572 -0.169332,-0.2032 -0.457198,-0.2032 -0.270934,0 -0.474134,0.2032 -0.186266,0.2032 -0.186266,0.4572 0,0.287867 0.186266,0.474134 0.2032,0.186266 0.474134,0.186266 z m 4.571998,3.6576 q 0,-0.270933 -0.2032,-0.4572 -0.18627,-0.2032 -0.4572,-0.2032 -0.27093,0 -0.4572,0.186267 -0.18627,0.186267 -0.18627,0.474133 0,0.270934 0.18627,0.4572 0.18627,0.186267 0.4572,0.186267 0.28787,0 0.47413,-0.186267 0.18627,-0.186266 0.18627,-0.4572 z m -1.43933,0 q 0,-0.270933 -0.2032,-0.4572 -0.18627,-0.2032 -0.44027,-0.2032 -0.27093,0 -0.47413,0.186267 -0.18627,0.186267 -0.18627,0.474133 0,0.270934 0.18627,0.4572 0.2032,0.186267 0.47413,0.186267 0.27093,0 0.4572,-0.186267 0.18627,-0.186266 0.18627,-0.4572 z m -3.945468,-3.945466 q 0,-0.270934 -0.2032,-0.4572 -0.186267,-0.2032 -0.4572,-0.2032 -0.287867,0 -0.474134,0.2032 -0.186266,0.186266 -0.186266,0.4572 0,0.270933 0.186266,0.474133 0.186267,0.186267 0.474134,0.186267 0.254,0 0.4572,-0.2032 0.2032,-0.2032 0.2032,-0.4572 z m 5.063068,5.367866 q 0,-0.270933 -0.18627,-0.4572 -0.18627,-0.2032 -0.47413,-0.2032 -0.27094,0 -0.4572,0.2032 -0.18627,0.186267 -0.18627,0.4572 0,0.270934 0.18627,0.4572 0.18626,0.186267 0.4572,0.186267 0.28786,0 0.47413,-0.186267 0.18627,-0.186266 0.18627,-0.4572 z m -2.55694,-1.4224 q 0,-0.270933 -0.2032,-0.4572 -0.18626,-0.2032 -0.44026,-0.2032 -0.27094,0 -0.47414,0.186267 -0.186262,0.186267 -0.186262,0.474133 0,0.270934 0.186262,0.4572 0.2032,0.186267 0.47414,0.186267 0.27093,0 0.4572,-0.186267 0.18626,-0.186266 0.18626,-0.4572 z m -3.742262,-3.014133 q 0,-0.270933 -0.2032,-0.4572 -0.186266,-0.186267 -0.4572,-0.186267 -0.270933,0 -0.474133,0.186267 -0.186267,0.186267 -0.186267,0.4572 0,0.270933 0.186267,0.474133 0.2032,0.186267 0.474133,0.186267 0.254,0 0.4572,-0.186267 0.2032,-0.2032 0.2032,-0.474133 z m 5.418662,5.6388 q 0,-0.287867 -0.2032,-0.474133 -0.18626,-0.186267 -0.4572,-0.186267 -0.28786,0 -0.47413,0.186267 -0.18627,0.186266 -0.18627,0.474133 0,0.270933 0.18627,0.474133 0.18627,0.186267 0.47413,0.186267 0.254,0 0.4572,-0.2032 0.2032,-0.2032 0.2032,-0.4572 z m -6.265328,-4.385733 q 0,-0.287867 -0.2032,-0.4572 -0.186267,-0.186267 -0.4572,-0.186267 -0.270934,0 -0.4572,0.186267 -0.186267,0.169333 -0.186267,0.4572 0,0.254 0.186267,0.4572 0.2032,0.2032 0.4572,0.2032 0.270933,0 0.4572,-0.186267 0.2032,-0.2032 0.2032,-0.474133 z m 4.419598,5.8928 q 0.254,0 0.44027,-0.186267 0.2032,-0.2032 0.2032,-0.474133 0,-0.287867 -0.18627,-0.4572 -0.18627,-0.186267 -0.4572,-0.186267 -0.27093,0 -0.47413,0.186267 -0.18627,0.169333 -0.18627,0.4572 0,0.270933 0.18627,0.474133 0.2032,0.186267 0.47413,0.186267 z m -4.673598,-4.4196 q 0,-0.287867 -0.2032,-0.474134 -0.186267,-0.186266 -0.4572,-0.186266 -0.287867,0 -0.474134,0.186266 -0.169333,0.186267 -0.169333,0.474134 0,0.270933 0.169333,0.4572 0.186267,0.186266 0.474134,0.186266 0.270933,0 0.4572,-0.186266 0.2032,-0.186267 0.2032,-0.4572 z m 3.132666,4.690533 q 0.287867,0 0.457202,-0.186267 0.18626,-0.2032 0.18626,-0.474133 0,-0.270933 -0.18626,-0.4572 -0.169335,-0.186267 -0.457202,-0.186267 -0.270933,0 -0.474133,0.186267 -0.186267,0.186267 -0.186267,0.4572 0,0.270933 0.186267,0.474133 0.2032,0.186267 0.474133,0.186267 z m -2.878666,-3.217333 q 0,-0.287867 -0.2032,-0.4572 -0.186267,-0.186267 -0.4572,-0.186267 -0.270934,0 -0.4572,0.186267 -0.186267,0.169333 -0.186267,0.4572 0,0.254 0.186267,0.4572 0.2032,0.2032 0.4572,0.2032 0.270933,0 0.4572,-0.186267 0.2032,-0.2032 0.2032,-0.474133 z m 2.032,2.1844 q 0,-0.270934 -0.186267,-0.4572 -0.186267,-0.2032 -0.4572,-0.2032 -0.287867,0 -0.474133,0.2032 -0.186267,0.186266 -0.186267,0.4572 0,0.270933 0.186267,0.4572 0.186266,0.186266 0.474133,0.186266 0.254,0 0.440267,-0.186266 0.2032,-0.186267 0.2032,-0.4572 z m -1.185334,-0.948267 q 0,-0.270933 -0.2032,-0.4572 -0.186266,-0.186267 -0.4572,-0.186267 -0.270933,0 -0.474133,0.186267 -0.186267,0.186267 -0.186267,0.4572 0,0.270933 0.186267,0.474133 0.2032,0.186267 0.474133,0.186267 0.254,0 0.4572,-0.2032 0.2032,-0.2032 0.2032,-0.4572 z m 8.635992,2.607733 V 57.836868 h 3.302 v 7.857066 h 2.52306 v 2.794 z m 2.26906,-9.2964 q 0,-0.270933 -0.18626,-0.4572 -0.16934,-0.2032 -0.4572,-0.2032 -0.27094,0 -0.47414,0.2032 -0.18626,0.186267 -0.18626,0.4572 0,0.270934 0.18626,0.4572 0.2032,0.186267 0.47414,0.186267 0.28786,0 0.4572,-0.186267 0.18626,-0.186266 0.18626,-0.4572 z m -0.64346,2.218267 q 0.28786,0 0.4572,-0.186267 0.18626,-0.186266 0.18626,-0.474133 0,-0.270933 -0.18626,-0.4572 -0.16934,-0.2032 -0.4572,-0.2032 -0.27094,0 -0.47414,0.2032 -0.18626,0.186267 -0.18626,0.4572 0,0.287867 0.18626,0.474133 0.2032,0.186267 0.47414,0.186267 z m 0,1.5748 q 0.28786,0 0.4572,-0.186267 0.18626,-0.2032 0.18626,-0.474133 0,-0.287867 -0.18626,-0.4572 -0.16934,-0.186267 -0.4572,-0.186267 -0.27094,0 -0.47414,0.186267 -0.18626,0.169333 -0.18626,0.4572 0,0.270933 0.18626,0.474133 0.2032,0.186267 0.47414,0.186267 z m 0.64346,0.9144 q 0,-0.270933 -0.18626,-0.4572 -0.16934,-0.2032 -0.4572,-0.2032 -0.27094,0 -0.47414,0.2032 -0.18626,0.186267 -0.18626,0.4572 0,0.270933 0.18626,0.4572 0.2032,0.186267 0.47414,0.186267 0.28786,0 0.4572,-0.186267 0.18626,-0.186267 0.18626,-0.4572 z m 3.1496,3.132667 q 0,-0.270934 -0.2032,-0.4572 -0.18626,-0.186267 -0.4572,-0.186267 -0.27093,0 -0.4572,0.186267 -0.18626,0.186266 -0.18626,0.4572 0,0.270933 0.18626,0.474133 0.18627,0.186267 0.4572,0.186267 0.27094,0 0.4572,-0.186267 0.2032,-0.2032 0.2032,-0.474133 z m -3.79306,-0.9144 q 0.28786,0 0.4572,-0.186267 0.18626,-0.186267 0.18626,-0.474133 0,-0.270934 -0.18626,-0.4572 -0.16934,-0.2032 -0.4572,-0.2032 -0.27094,0 -0.47414,0.2032 -0.18626,0.186266 -0.18626,0.4572 0,0.287866 0.18626,0.474133 0.2032,0.186267 0.47414,0.186267 z m 2.2352,0.9144 q 0,-0.270934 -0.2032,-0.4572 -0.18627,-0.186267 -0.4572,-0.186267 -0.28787,0 -0.47414,0.186267 -0.18626,0.186266 -0.18626,0.4572 0,0.270933 0.18626,0.474133 0.18627,0.186267 0.47414,0.186267 0.27093,0 0.4572,-0.186267 0.2032,-0.2032 0.2032,-0.474133 z m -2.2352,0.6604 q 0.28786,0 0.4572,-0.186267 0.18626,-0.2032 0.18626,-0.474133 0,-0.270934 -0.18626,-0.4572 -0.16934,-0.186267 -0.4572,-0.186267 -0.27094,0 -0.47414,0.186267 -0.18626,0.186266 -0.18626,0.4572 0,0.270933 0.18626,0.474133 0.2032,0.186267 0.47414,0.186267 z"
       id="text1-4"
       style="font-size:64px;line-height:1.25;font-family:Budmo;-inkscape-font-specification:'Budmo, Normal';white-space:pre;stroke-width:0.264583"
       aria-label="AFTERGL" />
    <path
       d="m 132.36302,68.485456 -1.35467,-5.164666 -1.4224,5.164666 h -2.9972 L 123.21902,57.83439 h 3.52213 l 1.40547,5.723466 1.43933,-5.723466 h 2.92947 l 1.40546,5.723466 1.4224,-5.723466 h 3.36974 l -3.36974,10.651066 z m -2.04894,-5.3848 q 0,-0.270933 -0.2032,-0.4572 -0.18626,-0.186266 -0.4572,-0.186266 -0.27093,0 -0.4572,0.186266 -0.18626,0.186267 -0.18626,0.4572 0,0.270934 0.18626,0.474134 0.2032,0.186266 0.4572,0.186266 0.27094,0 0.4572,-0.186266 0.2032,-0.2032 0.2032,-0.474134 z m -4.33493,-4.080933 q 0,-0.270933 -0.2032,-0.4572 -0.18627,-0.186267 -0.4572,-0.186267 -0.28787,0 -0.47413,0.186267 -0.16934,0.186267 -0.16934,0.4572 0,0.270933 0.16934,0.474133 0.18626,0.186267 0.47413,0.186267 0.27093,0 0.4572,-0.186267 0.2032,-0.2032 0.2032,-0.474133 z m 0.42333,1.3716 q 0,-0.287867 -0.2032,-0.474133 -0.18626,-0.186267 -0.4572,-0.186267 -0.28786,0 -0.47413,0.186267 -0.18627,0.186266 -0.18627,0.474133 0,0.270933 0.18627,0.474133 0.18627,0.186267 0.47413,0.186267 0.254,0 0.4572,-0.2032 0.2032,-0.2032 0.2032,-0.4572 z m 3.52214,4.097867 q 0,-0.287867 -0.2032,-0.474134 -0.18627,-0.186266 -0.4572,-0.186266 -0.28787,0 -0.47414,0.186266 -0.18626,0.186267 -0.18626,0.474134 0,0.270933 0.18626,0.474133 0.18627,0.186267 0.47414,0.186267 0.254,0 0.4572,-0.2032 0.2032,-0.2032 0.2032,-0.4572 z m -3.0988,-2.7432 q 0,-0.270934 -0.2032,-0.4572 -0.18627,-0.2032 -0.4572,-0.2032 -0.27094,0 -0.47414,0.2032 -0.18626,0.186266 -0.18626,0.4572 0,0.287866 0.18626,0.474133 0.2032,0.169333 0.47414,0.169333 0.254,0 0.4572,-0.186266 0.2032,-0.186267 0.2032,-0.4572 z m 0.3556,1.354666 q 0,-0.270933 -0.2032,-0.4572 -0.18627,-0.186266 -0.4572,-0.186266 -0.28787,0 -0.47414,0.186266 -0.16933,0.186267 -0.16933,0.4572 0,0.270934 0.18627,0.474134 0.18626,0.186266 0.4572,0.186266 0.27093,0 0.4572,-0.186266 0.2032,-0.2032 0.2032,-0.474134 z m -0.27094,2.065867 q 0.27094,0 0.4572,-0.186267 0.18627,-0.2032 0.18627,-0.474133 0,-0.287867 -0.18627,-0.474133 -0.18626,-0.186267 -0.4572,-0.186267 -0.27093,0 -0.47413,0.186267 -0.18627,0.186266 -0.18627,0.474133 0,0.254 0.18627,0.4572 0.2032,0.2032 0.47413,0.2032 z m 1.84574,1.964267 q 0,-0.270934 -0.2032,-0.4572 -0.18627,-0.2032 -0.4572,-0.2032 -0.27094,0 -0.4572,0.2032 -0.18627,0.186266 -0.18627,0.4572 0,0.270933 0.18627,0.4572 0.18626,0.186266 0.4572,0.186266 0.27093,0 0.4572,-0.186266 0.2032,-0.2032 0.2032,-0.4572 z m 2.2352,-6.8072 q 0,-0.270934 -0.18627,-0.4572 -0.16933,-0.2032 -0.4572,-0.2032 -0.27093,0 -0.47413,0.2032 -0.18627,0.186266 -0.18627,0.4572 0,0.270933 0.2032,0.4572 0.2032,0.186266 0.4572,0.186266 0.28787,0 0.4572,-0.186266 0.18627,-0.186267 0.18627,-0.4572 z m -1.50707,5.5372 q 0,-0.270934 -0.18627,-0.4572 -0.18626,-0.186267 -0.47413,-0.186267 -0.27093,0 -0.4572,0.186267 -0.18627,0.186266 -0.18627,0.4572 0,0.270933 0.18627,0.474133 0.18627,0.186267 0.4572,0.186267 0.28787,0 0.47413,-0.186267 0.18627,-0.2032 0.18627,-0.474133 z m -1.4732,0 q 0,-0.270934 -0.18627,-0.4572 -0.18626,-0.186267 -0.47413,-0.186267 -0.27093,0 -0.4572,0.186267 -0.18627,0.186266 -0.18627,0.4572 0,0.270933 0.18627,0.474133 0.18627,0.186267 0.4572,0.186267 0.28787,0 0.47413,-0.186267 0.18627,-0.2032 0.18627,-0.474133 z m 2.65853,-4.131734 q 0,-0.270933 -0.18626,-0.4572 -0.18627,-0.186266 -0.47414,-0.186266 -0.27093,0 -0.4572,0.186266 -0.18626,0.186267 -0.18626,0.4572 0,0.270934 0.18626,0.474134 0.18627,0.186266 0.4572,0.186266 0.28787,0 0.47414,-0.186266 0.18626,-0.2032 0.18626,-0.474134 z m -0.28786,-2.709333 q 0,0.270933 0.18626,0.474133 0.18627,0.186267 0.47414,0.186267 0.27093,0 0.4572,-0.186267 0.18626,-0.2032 0.18626,-0.474133 0,-0.270933 -0.18626,-0.4572 -0.18627,-0.186267 -0.4572,-0.186267 -0.28787,0 -0.47414,0.186267 -0.18626,0.186267 -0.18626,0.4572 z m 1.3716,4.080933 q 0,0.270934 0.18626,0.474134 0.2032,0.186266 0.47414,0.186266 0.254,0 0.44026,-0.186266 0.2032,-0.2032 0.2032,-0.474134 0,-0.270933 -0.18626,-0.4572 -0.18627,-0.186266 -0.4572,-0.186266 -0.27094,0 -0.47414,0.186266 -0.18626,0.186267 -0.18626,0.4572 z m 4.33493,-4.080933 q 0,0.270933 0.18627,0.474133 0.2032,0.186267 0.47413,0.186267 0.28787,0 0.4572,-0.186267 0.18627,-0.2032 0.18627,-0.474133 0,-0.270933 -0.18627,-0.4572 -0.16933,-0.186267 -0.4572,-0.186267 -0.27093,0 -0.47413,0.186267 -0.18627,0.186267 -0.18627,0.4572 z m -0.42333,1.3716 q 0,0.254 0.2032,0.4572 0.2032,0.2032 0.4572,0.2032 0.28786,0 0.47413,-0.186267 0.18627,-0.2032 0.18627,-0.474133 0,-0.287867 -0.18627,-0.474133 -0.18627,-0.186267 -0.47413,-0.186267 -0.27094,0 -0.47414,0.186267 -0.18626,0.186266 -0.18626,0.474133 z m -3.52214,4.097867 q 0,0.254 0.2032,0.4572 0.2032,0.2032 0.4572,0.2032 0.28787,0 0.47414,-0.186267 0.18626,-0.2032 0.18626,-0.474133 0,-0.287867 -0.18626,-0.474134 -0.18627,-0.186266 -0.47414,-0.186266 -0.27093,0 -0.47413,0.186266 -0.18627,0.186267 -0.18627,0.474134 z m 3.0988,-2.7432 q 0,0.270933 0.2032,0.4572 0.2032,0.186266 0.4572,0.186266 0.27094,0 0.4572,-0.169333 0.2032,-0.186267 0.2032,-0.474133 0,-0.270934 -0.2032,-0.4572 -0.18626,-0.2032 -0.4572,-0.2032 -0.27093,0 -0.47413,0.2032 -0.18627,0.186266 -0.18627,0.4572 z m -0.3556,1.354666 q 0,0.270934 0.18627,0.474134 0.2032,0.186266 0.47413,0.186266 0.27094,0 0.4572,-0.186266 0.18627,-0.2032 0.18627,-0.474134 0,-0.270933 -0.18627,-0.4572 -0.16933,-0.186266 -0.4572,-0.186266 -0.27093,0 -0.47413,0.186266 -0.18627,0.186267 -0.18627,0.4572 z m 0.27094,2.065867 q 0.27093,0 0.4572,-0.2032 0.2032,-0.2032 0.2032,-0.4572 0,-0.287867 -0.2032,-0.474133 -0.18627,-0.186267 -0.4572,-0.186267 -0.27094,0 -0.4572,0.186267 -0.18627,0.186266 -0.18627,0.474133 0,0.270933 0.18627,0.474133 0.18626,0.186267 0.4572,0.186267 z m -1.84574,1.964267 q 0,0.254 0.18627,0.4572 0.2032,0.186266 0.47413,0.186266 0.27094,0 0.4572,-0.186266 0.18627,-0.186267 0.18627,-0.4572 0,-0.270934 -0.18627,-0.4572 -0.18626,-0.2032 -0.4572,-0.2032 -0.27093,0 -0.47413,0.2032 -0.18627,0.186266 -0.18627,0.4572 z m -2.2352,-6.8072 q 0,0.270933 0.16934,0.4572 0.18626,0.186266 0.47413,0.186266 0.254,0 0.4572,-0.186266 0.2032,-0.186267 0.2032,-0.4572 0,-0.270934 -0.2032,-0.4572 -0.18627,-0.2032 -0.4572,-0.2032 -0.28787,0 -0.47413,0.2032 -0.16934,0.186266 -0.16934,0.4572 z m 1.50707,5.5372 q 0,0.270933 0.18627,0.474133 0.18626,0.186267 0.47413,0.186267 0.27093,0 0.4572,-0.186267 0.18627,-0.2032 0.18627,-0.474133 0,-0.270934 -0.18627,-0.4572 -0.18627,-0.186267 -0.4572,-0.186267 -0.28787,0 -0.47413,0.186267 -0.18627,0.186266 -0.18627,0.4572 z m 1.4732,0 q 0,0.270933 0.18627,0.474133 0.18626,0.186267 0.47413,0.186267 0.27093,0 0.4572,-0.186267 0.18627,-0.2032 0.18627,-0.474133 0,-0.270934 -0.18627,-0.4572 -0.18627,-0.186267 -0.4572,-0.186267 -0.28787,0 -0.47413,0.186267 -0.18627,0.186266 -0.18627,0.4572 z m -2.65853,-4.131734 q 0,0.270934 0.18626,0.474134 0.18627,0.186266 0.47414,0.186266 0.27093,0 0.4572,-0.186266 0.18626,-0.2032 0.18626,-0.474134 0,-0.270933 -0.18626,-0.4572 -0.18627,-0.186266 -0.4572,-0.186266 -0.28787,0 -0.47414,0.186266 -0.18626,0.186267 -0.18626,0.4572 z"
       id="text1-5"
       style="font-size:64px;line-height:1.25;font-family:Budmo;-inkscape-font-specification:'Budmo, Normal';white-space:pre;stroke-width:0.264583"
       aria-label="W" />
    <path
       id="path1"
       style="stroke:#000000;stroke-width:1.02292;stroke-linecap:round;stroke-linejoin:bevel;paint-order:fill markers stroke"
       inkscape:label="outer ring"
       d="m 123.43043,63.12088 a 5.1136451,5.1136451 0 0 1 -5.11364,5.113645 5.1136451,5.1136451 0 0 1 -5.11365,-5.113645 5.1136451,5.1136451 0 0 1 5.11365,-5.113645 5.1136451,5.1136451 0 0 1 5.11364,5.113645 z" />
    <path
       id="path1-9"
       style="fill:none;stroke:#00475f;stroke-width:0.3;stroke-linecap:round;stroke-linejoin:bevel;paint-order:fill markers stroke"
       inkscape:label="ring"
       d="m 123.43982,63.163704 a 5.1136451,5.1136451 0 0 1 -5.11364,5.113645 5.1136451,5.1136451 0 0 1 -5.11365,-5.113645 5.1136451,5.1136451 0 0 1 5.11365,-5.113645 5.1136451,5.1136451 0 0 1 5.11364,5.113645 z" />
    <path
       id="circle2"
       style="fill:url(#pattern22);stroke-width:0.268932;stroke-linecap:round;stroke-linejoin:bevel;paint-order:fill markers stroke;filter:url(#filter2)"
       inkscape:label="insert"
       d="m 122.949,63.117989 a 4.5840602,4.5840602 0 0 1 -4.58406,4.58406 4.5840602,4.5840602 0 0 1 -4.58406,-4.58406 4.5840602,4.5840602 0 0 1 4.58406,-4.584061 4.5840602,4.5840602 0 0 1 4.58406,4.584061 z" />
    <path
       id="path2"
       style="opacity:0.496394;fill:#006c90;fill-opacity:0.355301;stroke:#002a38;stroke-width:0.300232;stroke-linecap:round;stroke-linejoin:bevel;stroke-opacity:0.829742;paint-order:fill markers stroke"
       inkscape:label="star"
       inkscape:transform-center-x="0.15642487"
       inkscape:transform-center-y="0.073394808"
       transform="matrix(0.54291347,0,0,0.54291347,82.848554,29.125013)"
       d="m 68.013747,64.007807 c -0.127283,0.222143 1.210093,6.220788 0.976546,6.325691 -0.233548,0.104902 -3.829345,-4.879329 -4.079949,-4.931737 -0.250604,-0.05241 -5.542382,3.073196 -5.71432,2.883496 -0.171938,-0.1897 3.457184,-5.149719 3.429587,-5.404252 -0.0276,-0.254533 -4.635474,-4.321449 -4.50819,-4.543593 0.127283,-0.222143 5.966002,1.696628 6.19955,1.591725 0.233547,-0.104902 2.677502,-5.743998 2.928106,-5.69159 0.250603,0.05241 0.230007,6.198292 0.401945,6.387992 0.171938,0.1897 6.290261,0.771463 6.317859,1.025996 0.0276,0.254534 -5.82385,2.134128 -5.951134,2.356272 z" />
  </g>
</svg>
